<?xml version="1.0" encoding="utf-8"?>
<!-- Generator: Adobe Illustrator 20.0.0, SVG Export Plug-In . SVG Version: 6.00 Build 0)  -->
<svg version="1.1" xmlns="http://www.w3.org/2000/svg" xmlns:xlink="http://www.w3.org/1999/xlink" x="0px" y="0px"
	 viewBox="0 0 250 250" style="enable-background:new 0 0 250 250;" xml:space="preserve">
<style type="text/css">
	.st0{fill:#FCFCF7;}
	.st1{fill:url(#SVGID_1_);}
	.st2{fill:url(#SVGID_2_);}
	.st3{fill:url(#SVGID_3_);}
	.st4{fill:url(#SVGID_4_);}
	.st5{fill:url(#SVGID_5_);}
	.st6{fill:url(#SVGID_6_);}
	.st7{fill:url(#SVGID_7_);}
	.st8{fill:url(#SVGID_8_);}
	.st9{fill:url(#SVGID_9_);}
	.st10{fill:url(#SVGID_10_);}
	.st11{fill:url(#SVGID_11_);}
	.st12{fill:url(#SVGID_12_);}
	.st13{fill:url(#SVGID_13_);}
	.st14{fill:url(#SVGID_14_);}
	.st15{fill:url(#SVGID_15_);}
	.st16{fill:url(#SVGID_16_);}
	.st17{fill:url(#SVGID_17_);}
	.st18{fill:url(#SVGID_18_);}
	.st19{fill:url(#SVGID_19_);}
	.st20{fill:url(#SVGID_20_);}
	.st21{fill:url(#SVGID_21_);}
	.st22{fill:url(#SVGID_22_);}
	.st23{fill:#FFC53E;}
	.st24{fill:url(#SVGID_23_);}
	.st25{fill:url(#SVGID_24_);}
	.st26{fill:url(#SVGID_25_);}
	.st27{fill:url(#SVGID_26_);}
	.st28{fill:url(#SVGID_27_);}
	.st29{fill:url(#SVGID_28_);}
	.st30{fill:url(#SVGID_29_);}
	.st31{fill:url(#SVGID_30_);}
	.st32{fill:url(#SVGID_31_);}
	.st33{fill:url(#SVGID_32_);}
	.st34{fill:url(#SVGID_33_);}
	.st35{fill:url(#SVGID_34_);}
	.st36{fill:url(#SVGID_35_);}
	.st37{fill:url(#SVGID_36_);}
	.st38{fill:url(#SVGID_37_);}
	.st39{fill:url(#SVGID_38_);}
	.st40{fill:url(#SVGID_39_);}
</style>
<g id="colored_x5F_circles">
	<circle class="st0" cx="126" cy="125.1" r="100"/>
</g>
<g id="icons">
	<g id="XMLID_46_">
		<g id="XMLID_39_">
			<g>
				<linearGradient id="SVGID_1_" gradientUnits="userSpaceOnUse" x1="146.4823" y1="73.5073" x2="193.7108" y2="103.8168">
					<stop  offset="0.1361" style="stop-color:#A68D86"/>
					<stop  offset="1" style="stop-color:#675849"/>
				</linearGradient>
				<path class="st1" d="M207.1,85.3c0,1.7-1.9,3.4-4.5,2.3c-1-0.4-2.1-0.7-2.5-1.7c-0.2-0.5-0.6-1.7-1-2.7
					c-0.2-0.5-0.6-0.7-1.1-0.9c-7.4-3-15.4,0.7-21.4,4.9c-2.5,1.8-4.9,3.8-7.1,5.8c-2.9,1.2-5.9,2.7-9.1,4.5
					c-3.6,2.1-7,4.5-10.2,6.9c4.5-5.4,9.2-10.6,14.6-15.3c8.6-7.5,17-11.4,23.2-12.1c7-0.8,9.4,0.1,12.7,2.2c1.6,1,2.5,1.2,3.9,2.6
					C206.1,83.9,207.1,84.2,207.1,85.3z"/>
				<linearGradient id="SVGID_2_" gradientUnits="userSpaceOnUse" x1="148.2762" y1="75.298" x2="189.7631" y2="114.2227">
					<stop  offset="0" style="stop-color:#A48075"/>
					<stop  offset="1" style="stop-color:#7C5F54"/>
				</linearGradient>
				<path class="st2" d="M201.5,98.5c1.4,2.1,1.3,2.9,1.1,4c-0.3,1.6-2.3,1.9-4.7,0.4c-0.9-0.6-1.9-1.1-2.2-2.1
					c-0.1-0.5,0.3-1.9,0.1-2.9c-0.1-0.5-0.5-0.8-0.9-1.1c-6.7-4.2-15.9-2-22.6,1.1c-6.2,2.9-11.8,6.8-17.1,11
					c4.5-5.4,9-10.9,14.2-15.7c6.2-2.5,11.7-3.5,15.9-3.2c7,0.4,9.2,1.8,12.1,4.5C198.8,95.8,200.5,96.9,201.5,98.5z"/>
				<linearGradient id="SVGID_3_" gradientUnits="userSpaceOnUse" x1="167.1241" y1="94.4972" x2="127.8201" y2="127.8531">
					<stop  offset="0" style="stop-color:#5B4C45"/>
					<stop  offset="0.9875" style="stop-color:#67534B"/>
				</linearGradient>
				<path class="st3" d="M169.4,93.2c-5.1,4.8-9.7,10.2-14.2,15.7c-0.6,0.5-1.2,0.9-1.8,1.4c-3.6,2.8-7.2,5.7-10.7,8.7
					c-0.8-0.7-1.7-1.4-2.5-2.1v0c2.2-2.8,4.5-5.6,6.7-8.4c1-1.3,2.1-2.6,3.1-3.8c3.3-2.5,6.7-4.8,10.2-6.9
					C163.5,95.9,166.5,94.4,169.4,93.2z"/>
				<linearGradient id="SVGID_4_" gradientUnits="userSpaceOnUse" x1="151.2127" y1="139.9395" x2="109.8616" y2="113.9809">
					<stop  offset="0" style="stop-color:#FDED01"/>
					<stop  offset="1" style="stop-color:#FFFFE1"/>
				</linearGradient>
				<path class="st4" d="M145,121.1c6.1,6.4,9.9,14.3,7.8,18c-2.6,4.5-14.2,5.2-24.6,1.3C134,133.8,139.7,127.2,145,121.1z"/>
				<linearGradient id="SVGID_5_" gradientUnits="userSpaceOnUse" x1="124.4554" y1="98.5194" x2="180.8446" y2="134.7079">
					<stop  offset="0" style="stop-color:#A68D86"/>
					<stop  offset="1" style="stop-color:#5D5040"/>
				</linearGradient>
				<path class="st5" d="M155.2,108.9c-3.1,3.8-6.6,7.9-10.3,12.2c-0.7-0.7-1.4-1.4-2.1-2.1c3.5-2.9,7-5.9,10.6-8.8
					C154.1,109.8,154.7,109.3,155.2,108.9z"/>
				<linearGradient id="SVGID_6_" gradientUnits="userSpaceOnUse" x1="146.1871" y1="113.3814" x2="155.822" y2="119.5647">
					<stop  offset="0" style="stop-color:#A68D86"/>
					<stop  offset="1" style="stop-color:#5D5040"/>
				</linearGradient>
				<path class="st6" d="M142.8,118.9c3.5-2.9,7.1-5.8,10.7-8.7c-3.6,2.9-7,5.9-10.6,8.8C142.9,119,142.8,119,142.8,118.9z"/>
				<linearGradient id="SVGID_7_" gradientUnits="userSpaceOnUse" x1="125.7897" y1="92.9413" x2="175.1585" y2="139.2612">
					<stop  offset="0" style="stop-color:#A48075"/>
					<stop  offset="1" style="stop-color:#73584D"/>
				</linearGradient>
				<path class="st7" d="M150.1,104.6c-1.1,1.3-2.1,2.5-3.1,3.8c-2.2,2.8-4.5,5.6-6.7,8.3c-1.1-0.8-2.1-1.6-3.3-2.3
					C143.8,109.4,148.7,105.7,150.1,104.6z"/>
				<linearGradient id="SVGID_8_" gradientUnits="userSpaceOnUse" x1="104.2339" y1="155.832" x2="146.0349" y2="120.9075">
					<stop  offset="0" style="stop-color:#FAD801"/>
					<stop  offset="1" style="stop-color:#FFF04D"/>
				</linearGradient>
				<path class="st8" d="M142.9,119.1c0.7,0.7,1.4,1.3,2.1,2.1c-5.2,6.1-11,12.7-16.8,19.3c-1.9-0.7-3.7-1.6-5.5-2.6
					c-0.3-0.2-0.6-0.4-0.9-0.6c4.5-4.1,9.1-8.2,13.8-12.2c1.9-1.5,3.8-3.1,5.7-4.7C141.8,119.9,142.4,119.5,142.9,119.1z"/>
				<linearGradient id="SVGID_9_" gradientUnits="userSpaceOnUse" x1="137.9329" y1="121.1964" x2="144.485" y2="125.4013">
					<stop  offset="0" style="stop-color:#A68D86"/>
					<stop  offset="1" style="stop-color:#5D5040"/>
				</linearGradient>
				<path class="st9" d="M142.9,119.1c-0.5,0.4-1.1,0.9-1.6,1.3c-1.9,1.6-3.8,3.1-5.7,4.7c2.4-2.1,4.8-4.1,7.2-6.1
					C142.8,119,142.9,119,142.9,119.1z"/>
				<linearGradient id="SVGID_10_" gradientUnits="userSpaceOnUse" x1="146.5348" y1="124.0949" x2="131.6589" y2="114.7564">
					<stop  offset="0" style="stop-color:#FDED01"/>
					<stop  offset="1" style="stop-color:#FFFFE1"/>
				</linearGradient>
				<path class="st10" d="M136.6,121.2c1.2-1.5,2.4-2.9,3.6-4.4c0,0,0,0,0,0C139.1,118.3,137.9,119.8,136.6,121.2z"/>
				<linearGradient id="SVGID_11_" gradientUnits="userSpaceOnUse" x1="128.7963" y1="121.843" x2="132.4665" y2="128.3025">
					<stop  offset="0" style="stop-color:#FFE93F"/>
					<stop  offset="0.2407" style="stop-color:#FFE530"/>
					<stop  offset="1" style="stop-color:#FFD805"/>
				</linearGradient>
				<path class="st11" d="M135.2,122.9c-2.3,2.7-4.6,5.3-7.1,7.8C130.5,128.2,132.9,125.6,135.2,122.9z"/>
				<linearGradient id="SVGID_12_" gradientUnits="userSpaceOnUse" x1="110.4228" y1="143.9218" x2="142.3166" y2="117.2747">
					<stop  offset="0" style="stop-color:#EBB455"/>
					<stop  offset="1" style="stop-color:#FAD801"/>
				</linearGradient>
				<path class="st12" d="M128.1,130.7c2.5-2.5,4.8-5.1,7.1-7.8c0.5-0.6,1-1.1,1.4-1.7c1.2-1.4,2.4-2.9,3.6-4.4
					c0.9,0.7,1.7,1.4,2.5,2.1c-2.4,2-4.8,4-7.2,6.1c-3.1,2.6-6.2,5.1-9.3,7.6C126.9,132,127.5,131.4,128.1,130.7z"/>
				<linearGradient id="SVGID_13_" gradientUnits="userSpaceOnUse" x1="189.2279" y1="169.1664" x2="77.3501" y2="98.934">
					<stop  offset="0" style="stop-color:#FDED01"/>
					<stop  offset="1" style="stop-color:#FFFFE1"/>
				</linearGradient>
				<path class="st13" d="M135.6,125c-4.7,4-9.3,8.1-13.8,12.2c-0.1-0.1-0.3-0.2-0.4-0.3c2.3-2,4.6-4.1,6.7-6.2
					c-0.6,0.6-1.2,1.3-1.8,1.9C129.4,130.1,132.5,127.6,135.6,125z"/>
				<linearGradient id="SVGID_14_" gradientUnits="userSpaceOnUse" x1="99.6869" y1="149.7233" x2="140.4668" y2="115.6518">
					<stop  offset="0" style="stop-color:#FAD801"/>
					<stop  offset="1" style="stop-color:#FFF04D"/>
				</linearGradient>
				<path class="st14" d="M128.1,130.7c-2.1,2.2-4.4,4.2-6.7,6.2c0,0-0.1-0.1-0.1-0.1c0.1-0.6,0.1-1.1,0.1-1.7
					c0-2.7-0.6-5.3-1.5-7.7c6.4-4.8,12.3-9.3,17.2-13c1.1,0.7,2.2,1.4,3.3,2.3c-1.2,1.5-2.4,2.9-3.6,4.4c-0.5,0.6-1,1.1-1.4,1.7
					C132.9,125.6,130.5,128.2,128.1,130.7z"/>
				<linearGradient id="SVGID_15_" gradientUnits="userSpaceOnUse" x1="111.7977" y1="119.4814" x2="121.6396" y2="136.8032">
					<stop  offset="0" style="stop-color:#FFE93F"/>
					<stop  offset="0.2407" style="stop-color:#FFE530"/>
					<stop  offset="1" style="stop-color:#FFD805"/>
				</linearGradient>
				<path class="st15" d="M121.2,136.9c-2.4-1.6-4.5-3.6-6.2-5.7c1.6-1.2,3.3-2.5,4.9-3.7c0.9,2.4,1.5,5,1.5,7.7
					C121.3,135.8,121.3,136.3,121.2,136.9z"/>
				<linearGradient id="SVGID_16_" gradientUnits="userSpaceOnUse" x1="152.8398" y1="88.6641" x2="115.2733" y2="109.4396">
					<stop  offset="0" style="stop-color:#FDED01"/>
					<stop  offset="1" style="stop-color:#FFFFC8"/>
				</linearGradient>
				<path class="st16" d="M135.6,113.8c-4.8-2.6-10.1-3.5-14.8-3.6l-0.1,0c0.2-0.6,0.3-1.3,0.3-1.9c0.1-2-0.6-4.5-1.7-6.2
					c0-0.1-0.1-0.1-0.1-0.2l0,0c2-3.3,3.4-7.3,3.4-11.6c0-0.2,0-0.3,0-0.5c0.2-0.1,0.4-0.3,0.7-0.4c10.4-6,26.8-7,29.8-1.7
					c3.1,5.3-4.8,18.8-16.2,25.4C136.6,113.3,136.1,113.5,135.6,113.8C135.6,113.8,135.6,113.8,135.6,113.8z"/>
				<linearGradient id="SVGID_17_" gradientUnits="userSpaceOnUse" x1="99.3655" y1="149.0632" x2="140.0529" y2="115.069">
					<stop  offset="0" style="stop-color:#FAD801"/>
					<stop  offset="1" style="stop-color:#FFF04D"/>
				</linearGradient>
				<path class="st17" d="M121.2,137.1c-5.9,5.1-12.3,9.8-18.3,14.6c-0.6,0.5-1.4,1.1-2.4,1.9c-1.8-2.2-3.4-4.9-4.5-8
					c6.3-4.8,12.8-9.7,19-14.4c1.7,2.1,3.8,4.1,6.2,5.7C121.2,137,121.2,137,121.2,137.1z"/>
				<linearGradient id="SVGID_18_" gradientUnits="userSpaceOnUse" x1="116.4671" y1="144.6915" x2="132.7758" y2="155.1578">
					<stop  offset="0" style="stop-color:#A68D86"/>
					<stop  offset="1" style="stop-color:#5D5040"/>
				</linearGradient>
				<path class="st18" d="M128.2,140.4c-4.4,5-9,10.1-13.4,15l-0.8-0.8c3.5-3.9,6.5-10.5,7.2-16.8c0.2-0.2,0.4-0.4,0.6-0.6
					c0.3,0.2,0.6,0.4,0.9,0.6C124.5,138.8,126.3,139.7,128.2,140.4z"/>
				<linearGradient id="SVGID_19_" gradientUnits="userSpaceOnUse" x1="116.1584" y1="90.1007" x2="116.67" y2="119.4855">
					<stop  offset="0" style="stop-color:#FDED01"/>
					<stop  offset="1" style="stop-color:#FFFFC8"/>
				</linearGradient>
				<path class="st19" d="M112.9,111.2c-0.5-0.7-1.3-1.3-2.2-3c-0.5-1-0.8-2-0.9-2.7c0-0.5,0-0.9,0.2-1.2c0.5-0.8,1.4-0.9,2.2-1.8
					c0.8-0.9,0.8-1.8,0.7-2.7c0,0,0,0,0,0c2.4-3.7,5.6-7.4,9.9-10c0,0.2,0,0.3,0,0.5c0,4.3-1.5,8.3-3.4,11.6l0,0
					c-0.3-0.6-0.8-1.2-1.4-1c-0.6,0.2-0.7,0.9-0.8,1.5C116.9,105.3,115.3,109.2,112.9,111.2z"/>
				<linearGradient id="SVGID_20_" gradientUnits="userSpaceOnUse" x1="112.1099" y1="113.1737" x2="135.6059" y2="113.8857">
					<stop  offset="0" style="stop-color:#FFE93F"/>
					<stop  offset="0.2407" style="stop-color:#FFE530"/>
					<stop  offset="1" style="stop-color:#FFD805"/>
				</linearGradient>
				<path class="st20" d="M112,115.5c2.5-0.2,4.5-0.4,6.4-1.9c1.1-0.9,1.8-2.1,2.2-3.4l0.1,0c4.7,0.1,10,1,14.8,3.6
					C127.2,117.8,117.4,116.9,112,115.5z"/>
				<linearGradient id="SVGID_21_" gradientUnits="userSpaceOnUse" x1="152.0556" y1="135.8788" x2="112.7041" y2="111.1755">
					<stop  offset="0" style="stop-color:#FDED01"/>
					<stop  offset="1" style="stop-color:#FFFFE1"/>
				</linearGradient>
				<path class="st21" d="M112,115.5c5.4,1.5,15.2,2.3,23.6-1.7c0,0,0,0,0,0c0.3,0.1,0.5,0.3,0.8,0.4c0.2,0.1,0.4,0.2,0.6,0.4
					c-4.9,3.7-10.8,8.2-17.2,13c-0.8-2.1-1.8-4-3-5.8c1.4-1.2,2.4-2.8,3.1-4.6C120,116,114.1,118.5,112,115.5
					C112,115.5,112,115.5,112,115.5z"/>
				<linearGradient id="SVGID_22_" gradientUnits="userSpaceOnUse" x1="119.4959" y1="101.6602" x2="114.0819" y2="115.2335">
					<stop  offset="0" style="stop-color:#FFD000"/>
					<stop  offset="1" style="stop-color:#FFFFD9"/>
				</linearGradient>
				<path class="st22" d="M118.6,110.5c-1.6,2.5-4,4.1-6.9,4.9c1.8-1,1.9-2.2,1.7-3.2c-0.1-0.4-0.2-0.7-0.4-1c2.4-2,4-5.9,4.2-8.8
					c0-0.6,0.2-1.4,0.8-1.5c0.6-0.2,1.1,0.4,1.4,1c0,0.1,0.1,0.1,0.1,0.2C120.6,104.7,120.2,108,118.6,110.5z"/>
				<path class="st23" d="M111.6,115.3c2.9-0.8,5.3-2.3,6.9-4.9c1.6-2.5,2.1-5.8,0.8-8.5c1.1,1.8,1.7,4.2,1.7,6.2
					c0,0.7-0.1,1.3-0.3,1.9c-0.4,1.3-1.2,2.6-2.2,3.4c-1.9,1.5-4,1.7-6.4,1.9c0,0,0,0,0,0c0,0,0,0,0,0v0
					C111.9,115.4,111.7,115.4,111.6,115.3L111.6,115.3L111.6,115.3z"/>
				<linearGradient id="SVGID_23_" gradientUnits="userSpaceOnUse" x1="113.601" y1="122.8573" x2="120.2146" y2="134.4972">
					<stop  offset="0" style="stop-color:#FFE93F"/>
					<stop  offset="0.2407" style="stop-color:#FFE530"/>
					<stop  offset="1" style="stop-color:#FFD805"/>
				</linearGradient>
				<path class="st24" d="M119.8,127.5c-1.6,1.2-3.2,2.4-4.9,3.7c-1.8-2.2-3.2-4.4-4.3-6.6c2.3-0.2,4.5-1.2,6.2-2.8
					C118,123.5,119,125.4,119.8,127.5z"/>
				<linearGradient id="SVGID_24_" gradientUnits="userSpaceOnUse" x1="104.6897" y1="157.3127" x2="104.4187" y2="124.4305">
					<stop  offset="0" style="stop-color:#FDED01"/>
					<stop  offset="1" style="stop-color:#FFFFE1"/>
				</linearGradient>
				<path class="st25" d="M105.3,123.7c1.2,0.5,2.4,0.8,3.8,0.9c0.5,0,1,0,1.6-0.1h0c1.1,2.2,2.5,4.5,4.3,6.6
					c-6.2,4.7-12.7,9.6-19,14.4c-1.1-3-1.9-6.2-2-9.4C99.2,133,102.9,128.2,105.3,123.7z"/>
				<linearGradient id="SVGID_25_" gradientUnits="userSpaceOnUse" x1="86.3391" y1="172.4483" x2="124.511" y2="140.5558">
					<stop  offset="0" style="stop-color:#FAD801"/>
					<stop  offset="1" style="stop-color:#FFF04D"/>
				</linearGradient>
				<path class="st26" d="M107.9,158.2c-1.7,0-3.6-0.9-5.3-2.5c6.1-6.1,12.3-12,18.6-17.8c-0.7,6.3-3.7,12.9-7.2,16.8
					C112,156.8,109.9,158.2,107.9,158.2z"/>
				<linearGradient id="SVGID_26_" gradientUnits="userSpaceOnUse" x1="108.7243" y1="96.1088" x2="108.7243" y2="114.7732">
					<stop  offset="0" style="stop-color:#FF9600"/>
					<stop  offset="0.4962" style="stop-color:#FFE25D"/>
					<stop  offset="0.6632" style="stop-color:#FFEC94"/>
					<stop  offset="0.9996" style="stop-color:#FFFFFF"/>
				</linearGradient>
				<path class="st27" d="M104.8,98.8c0.6-1.2,2-2.6,3.6-2.6c2.4,0,4.2,1.3,4.5,3.5c0,0,0,0,0,0c0.1,0.9,0.1,1.8-0.7,2.7
					c-0.8,0.9-1.7,1-2.2,1.8c-0.2,0.3-0.2,0.7-0.2,1.2l-1.7,0c0-0.7-0.1-1.2-0.3-1.4c-0.6-0.7-1.5-0.8-2.4-1.6
					c-0.5-0.5-0.8-1-0.8-1.6c-0.1-0.3-0.1-0.7-0.1-1C104.5,99.6,104.6,99.2,104.8,98.8z"/>
				<linearGradient id="SVGID_27_" gradientUnits="userSpaceOnUse" x1="109.3402" y1="96.1088" x2="109.3402" y2="114.7732">
					<stop  offset="0" style="stop-color:#FF9600"/>
					<stop  offset="0.4962" style="stop-color:#FFE25D"/>
					<stop  offset="0.6632" style="stop-color:#FFEC94"/>
					<stop  offset="0.9996" style="stop-color:#FFFFFF"/>
				</linearGradient>
				<path class="st28" d="M105.3,112.3c0.1-0.5,0.3-0.9,0.6-1.3v0c0.5-0.6,1.2-1.4,1.7-2.9c0.3-0.9,0.5-1.8,0.5-2.6l1.7,0
					c0.1,0.8,0.4,1.7,0.9,2.7c0.9,1.8,1.7,2.3,2.2,3c0.2,0.3,0.4,0.6,0.4,1c0.2,0.9,0.1,2.2-1.7,3.2h0v0c0,0,0,0,0,0
					c-1.7-0.4-3.1-0.5-4.3-0.1c0,0,0,0,0,0v0C105.5,114.5,105.2,113.2,105.3,112.3z"/>
				<linearGradient id="SVGID_28_" gradientUnits="userSpaceOnUse" x1="83.1866" y1="169.9701" x2="123.6462" y2="195.9356">
					<stop  offset="0" style="stop-color:#A68D86"/>
					<stop  offset="1" style="stop-color:#5D5040"/>
				</linearGradient>
				<path class="st29" d="M107.9,158.2c2,0,4.1-1.3,6.1-3.5l0.8,0.8c-19.8,22.1-38,41.4-40.2,43.2c-2.5,2-4.5-8.1-2.6-10.1
					c2.6-2.7,9.1-10.4,17.8-19.8c4.2-4.4,8.4-8.8,12.7-13.1C104.3,157.3,106.2,158.2,107.9,158.2z"/>
				<linearGradient id="SVGID_29_" gradientUnits="userSpaceOnUse" x1="109.7718" y1="124.465" x2="109.421" y2="114.2907">
					<stop  offset="0" style="stop-color:#FFD000"/>
					<stop  offset="1" style="stop-color:#FFFFD9"/>
				</linearGradient>
				<path class="st30" d="M107.1,115.4L107.1,115.4C107.1,115.4,107.1,115.4,107.1,115.4c0.1-0.1,0.2-0.1,0.2-0.1c0,0,0,0,0,0
					c1.2-0.4,2.6-0.4,4.3,0.1c0,0,0,0,0,0c0.1,0,0.2,0.1,0.4,0.1v0c0,0,0,0,0,0c2.1,3,8,0.5,8,1.7c-0.7,1.8-1.8,3.3-3.1,4.6
					c-1.7,1.5-3.9,2.5-6.2,2.8h0c-0.5,0.1-1,0.1-1.6,0.1c-1.3-0.1-2.6-0.4-3.8-0.9c-2-0.9-3.7-2.4-5-4.2c0,0,0,0,0,0
					c-0.4-0.6-0.8-1.3-1.2-2C98.5,116.2,105.1,117,107.1,115.4z"/>
				<linearGradient id="SVGID_30_" gradientUnits="userSpaceOnUse" x1="108.7482" y1="67.717" x2="109.5287" y2="112.5366">
					<stop  offset="0" style="stop-color:#FDED01"/>
					<stop  offset="1" style="stop-color:#FFFFC8"/>
				</linearGradient>
				<path class="st31" d="M104.7,98.8c-2.2-3.6-5.2-7.2-9.2-9.8c0.5-10,7.5-21.7,13.4-21.7c6.1,0,13.7,11.3,13.9,22.4
					c-4.2,2.6-7.5,6.3-9.9,10c-0.3-2.2-2.1-3.5-4.5-3.5C106.8,96.2,105.3,97.6,104.7,98.8L104.7,98.8z"/>
				<linearGradient id="SVGID_31_" gradientUnits="userSpaceOnUse" x1="110.9678" y1="157.85" x2="110.6971" y2="124.9999">
					<stop  offset="0" style="stop-color:#FDED01"/>
					<stop  offset="1" style="stop-color:#FFFFE1"/>
				</linearGradient>
				<path class="st32" d="M121.1,137.9c-6.3,5.8-12.6,11.8-18.6,17.8c-0.7-0.6-1.4-1.3-2-2.1c0.9-0.7,1.7-1.3,2.4-1.9
					c6-4.8,12.4-9.5,18.3-14.6C121.2,137.4,121.2,137.6,121.1,137.9z"/>
				<linearGradient id="SVGID_32_" gradientUnits="userSpaceOnUse" x1="97.1233" y1="88.2544" x2="107.8862" y2="110.0586">
					<stop  offset="0" style="stop-color:#FDED01"/>
					<stop  offset="1" style="stop-color:#FFFFC8"/>
				</linearGradient>
				<path class="st33" d="M105.9,110.9c-2.2-2.2-3.6-6.4-3.5-9.3c0-0.2,0-0.4,0-0.6l2.2-0.2c0.1,0.5,0.3,1.1,0.8,1.6
					c0.8,0.8,1.7,0.9,2.4,1.6c0.2,0.2,0.3,0.7,0.3,1.4c0,0.7-0.2,1.7-0.5,2.6C107.1,109.6,106.4,110.3,105.9,110.9z"/>
				<linearGradient id="SVGID_33_" gradientUnits="userSpaceOnUse" x1="99.5849" y1="100.8383" x2="105.2278" y2="115.0979">
					<stop  offset="0" style="stop-color:#FFD000"/>
					<stop  offset="1" style="stop-color:#FFFFD9"/>
				</linearGradient>
				<path class="st34" d="M102.4,101c0,0.2,0,0.4,0,0.6c-0.1,2.9,1.2,7.1,3.5,9.3v0c-0.3,0.4-0.6,0.8-0.6,1.3c-0.1,1,0.2,2.2,2,3v0
					c-0.1,0-0.1,0-0.2,0.1c0,0,0,0,0,0h0c0,0,0,0,0,0c0,0,0,0,0,0c-3.1-1.7-5.4-3.1-6.8-5.7c-1.4-2.7-1.5-6.1,0.1-8.7c0,0,0,0,0,0
					c0.3-0.5,0.9-1.1,1.5-0.8C102.2,100.2,102.4,100.6,102.4,101z"/>
				<linearGradient id="SVGID_34_" gradientUnits="userSpaceOnUse" x1="65.0472" y1="136.8141" x2="102.2814" y2="115.8494">
					<stop  offset="0" style="stop-color:#FDED01"/>
					<stop  offset="1" style="stop-color:#FFFFC8"/>
				</linearGradient>
				<path class="st35" d="M81.1,112.1c8.1,4.3,17.7,4,23.2,2.7c0.9,0.2,1.8,0.4,2.7,0.5c0,0,0,0,0,0c0,0,0,0,0,0h0v0
					c-2,1.6-8.6,0.8-8,2.2c0.3,0.7,0.7,1.3,1.2,2c0,0,0,0,0,0c-3.2,4-6.2,9.5-6.3,15.7c0,0.3,0,0.6,0,0.9c-0.2,0.1-0.5,0.3-0.7,0.4
					c-10.4,6-26.8,7-29.8,1.7c-3.1-5.3,4.8-18.8,16.2-25.4C80.2,112.6,80.6,112.4,81.1,112.1z"/>
				<linearGradient id="SVGID_35_" gradientUnits="userSpaceOnUse" x1="102.9011" y1="121.0735" x2="94.0268" y2="136.1598">
					<stop  offset="0" style="stop-color:#FFE93F"/>
					<stop  offset="0.2407" style="stop-color:#FFE530"/>
					<stop  offset="1" style="stop-color:#FFD805"/>
				</linearGradient>
				<path class="st36" d="M94,135.2c0-6.2,3-11.8,6.3-15.7c1.3,1.9,3,3.3,5,4.2c-2.4,4.5-6.1,9.2-11.3,12.4
					C94,135.8,94,135.5,94,135.2z"/>
				<linearGradient id="SVGID_36_" gradientUnits="userSpaceOnUse" x1="104.5092" y1="112.974" x2="81.1944" y2="111.3474">
					<stop  offset="0" style="stop-color:#FFE93F"/>
					<stop  offset="0.2407" style="stop-color:#FFE530"/>
					<stop  offset="1" style="stop-color:#FFD805"/>
				</linearGradient>
				<path class="st37" d="M81.1,112.1c5.7-2.8,11.9-3.4,17-3v0c0.3,1.3,0.9,2.6,1.9,3.5c1.1,1.1,2.7,1.7,4.3,2.1
					C98.8,116.1,89.2,116.4,81.1,112.1z"/>
				<linearGradient id="SVGID_37_" gradientUnits="userSpaceOnUse" x1="70.6035" y1="159.5369" x2="109.8584" y2="196.3675">
					<stop  offset="0" style="stop-color:#A48075"/>
					<stop  offset="1" style="stop-color:#73584D"/>
				</linearGradient>
				<path class="st38" d="M96,145.6c1.2,3.1,2.8,5.8,4.5,8c-11,8.6-40.1,30.1-42.1,31.1c-2.3,1.1-5.1-6-2.3-8.6
					C57,175.2,75.6,161.1,96,145.6z"/>
				<path class="st23" d="M104.4,114.8c-1.6-0.4-3.2-1-4.3-2.1c-1-0.9-1.6-2.2-1.9-3.5v0c-0.1-0.7-0.2-1.3-0.2-2
					c0.1-1.4,0.6-3.1,1.3-4.5c0.3-0.6,0.7-1.2,1-1.7c-1.6,2.6-1.5,6-0.1,8.7c1.4,2.7,3.7,4,6.8,5.7
					C106.2,115.2,105.3,115.1,104.4,114.8z"/>
				<linearGradient id="SVGID_38_" gradientUnits="userSpaceOnUse" x1="96.0559" y1="88.7813" x2="106.8188" y2="110.5855">
					<stop  offset="0" style="stop-color:#FDED01"/>
					<stop  offset="1" style="stop-color:#FFFFC8"/>
				</linearGradient>
				<path class="st39" d="M95.5,89c4,2.7,7,6.2,9.2,9.8l0.1,0c-0.2,0.4-0.3,0.7-0.3,1c0,0.3,0,0.7,0.1,1l-2.2,0.2
					c0-0.4-0.2-0.8-0.6-1c-0.6-0.2-1.2,0.3-1.5,0.8c0,0,0,0,0,0c-0.3,0.5-0.7,1.1-1,1.7l-0.1,0c-2.2-3.5-3.8-7.8-3.8-12.4
					C95.4,89.8,95.5,89.4,95.5,89z"/>
				<linearGradient id="SVGID_39_" gradientUnits="userSpaceOnUse" x1="65.3842" y1="85.5927" x2="106.6505" y2="112.6293">
					<stop  offset="0" style="stop-color:#FDED01"/>
					<stop  offset="1" style="stop-color:#FFFFC8"/>
				</linearGradient>
				<path class="st40" d="M98,107.1c0,0.7,0,1.4,0.2,2c-5.1-0.4-11.3,0.2-17,3c-0.2-0.1-0.5-0.3-0.8-0.4c-10.4-6-19.5-19.6-16.4-25
					c3.1-5.3,18.7-5.3,30.1,1.3c0.5,0.3,1,0.6,1.4,0.9c0,0.4,0,0.8,0,1.2c0,4.6,1.6,8.9,3.8,12.4l0.1,0
					C98.6,104,98.1,105.7,98,107.1z"/>
			</g>
			<g>
			</g>
		</g>
	</g>
</g>
</svg>
