<?xml version="1.0" encoding="utf-8"?>
<!-- Generator: Adobe Illustrator 20.0.0, SVG Export Plug-In . SVG Version: 6.00 Build 0)  -->
<svg version="1.1" xmlns="http://www.w3.org/2000/svg" xmlns:xlink="http://www.w3.org/1999/xlink" x="0px" y="0px"
	 viewBox="0 0 250 250" style="enable-background:new 0 0 250 250;" xml:space="preserve">
<style type="text/css">
	.st0{fill:#FBF9F4;}
	.st1{fill:url(#SVGID_1_);}
	.st2{fill:url(#SVGID_2_);}
	.st3{fill:url(#SVGID_3_);}
	.st4{fill:url(#SVGID_4_);}
	.st5{fill:url(#SVGID_5_);}
	.st6{fill:url(#SVGID_6_);}
	.st7{fill:url(#SVGID_7_);}
	.st8{fill:url(#SVGID_8_);}
	.st9{fill:url(#SVGID_9_);}
	.st10{fill:url(#SVGID_10_);}
	.st11{fill:url(#SVGID_11_);}
	.st12{fill:url(#SVGID_12_);}
	.st13{fill:url(#SVGID_13_);}
	.st14{fill:url(#SVGID_14_);}
	.st15{fill:url(#SVGID_15_);}
	.st16{fill:url(#SVGID_16_);}
	.st17{fill:#855B49;}
	.st18{fill:#A16F58;}
	.st19{fill:#A67060;}
	.st20{fill:url(#SVGID_17_);}
	.st21{fill:url(#SVGID_18_);}
</style>
<g id="colored_x5F_circles">
	<circle class="st0" cx="126" cy="125.1" r="100"/>
</g>
<g id="icons">
	<g id="XMLID_48_">
		
			<linearGradient id="SVGID_1_" gradientUnits="userSpaceOnUse" x1="108.9721" y1="547.2473" x2="132.4013" y2="519.4106" gradientTransform="matrix(0.9671 -0.2545 0.2545 0.9671 -84.9674 -303.5231)">
			<stop  offset="0" style="stop-color:#FFDCAB"/>
			<stop  offset="0.5184" style="stop-color:#FFEAB8"/>
			<stop  offset="1" style="stop-color:#FFF1BF"/>
		</linearGradient>
		<path class="st1" d="M175.3,168.4c1.1,12.2-6.7,30.3-12.4,31c0,0,0,0,0,0c-4.1-0.7-4.4-8.4-2-18.3c2-7.9,8.7-17.8,11.6-17.2
			c0.4,0.2,0.8,0.5,1,0.8C174.2,165.6,175.2,167.3,175.3,168.4z"/>
		<linearGradient id="SVGID_2_" gradientUnits="userSpaceOnUse" x1="171.0071" y1="106.407" x2="187.2233" y2="112.7981">
			<stop  offset="0" style="stop-color:#C19166"/>
			<stop  offset="0.3018" style="stop-color:#D7AC7E"/>
			<stop  offset="0.7569" style="stop-color:#F4D09F"/>
			<stop  offset="1" style="stop-color:#FFDEAB"/>
		</linearGradient>
		<path class="st2" d="M187.7,111c-0.6,3.8-3.9,7-7.7,8l-0.1-0.3c-2.4-4-5.7-7.6-9.7-10.4l0.9-1.1c0.8-4.1,5.8-6.9,10.1-5.8
			C185.5,102.5,188.4,106.9,187.7,111z"/>
		<linearGradient id="SVGID_3_" gradientUnits="userSpaceOnUse" x1="113.3917" y1="116.22" x2="180.0112" y2="116.9176">
			<stop  offset="0" style="stop-color:#AE7955"/>
			<stop  offset="1" style="stop-color:#FFDEAB"/>
		</linearGradient>
		<path class="st3" d="M178.8,119.3c0.8,1.3,0.6,3.2-0.2,4.6c-0.8,1.4-2,2.4-3.3,3.5c-1.6,1.3-3.2,2.7-4.7,4
			c-0.1,0.1-0.2,0.2-0.4,0.3c-5.7-6.3-15.3-11-24.1-11c-8.8,0.1-18,4.4-23.7,10.9c-0.2-0.4-0.4-0.9-0.4-1.3c-0.2-4-2.9-7.8-6.6-9.6
			c-0.8-0.4-1.5-1-2.1-1.7c-0.7-8.1,15.5-19.3,23.7-17.6l0.1,0c0.4,1.2,0.9,2.4,1.7,3.4c0.1-0.8,0.3-1.6,0.4-2.3
			c7.6-1.8,15.9-1.2,23.1,1.7c2.7,1.1,5.3,2.5,7.7,4.2c3.9,2.8,7.2,6.3,9.7,10.4l0.1,0.3C179.6,119.2,179.2,119.2,178.8,119.3z"/>
		<linearGradient id="SVGID_4_" gradientUnits="userSpaceOnUse" x1="131.8521" y1="186.5835" x2="175.4164" y2="172.7809">
			<stop  offset="0.1426" style="stop-color:#B58259"/>
			<stop  offset="0.3611" style="stop-color:#CFA276"/>
			<stop  offset="0.6272" style="stop-color:#E9C393"/>
			<stop  offset="0.8498" style="stop-color:#F9D7A5"/>
			<stop  offset="1" style="stop-color:#FFDEAB"/>
		</linearGradient>
		<path class="st4" d="M168.8,163c-1.8,0.5-3.5,1.6-5.9,1.2c-1.5-0.3-2.8-3.2-2.5-4.5c0.1-0.3,0.1-0.6,0.1-0.9l-0.3,0
			c-2.1-2.3-6-2.1-8.9-0.8c-2.9,1.2-5.4,3.3-8.4,4.3c-1.7,0.6-3.6,0.8-5.4,1.4c-4.6,1.4-8.4,5.2-9.6,9.7l-0.4,0.1
			c0.6,1.6,2.1,3.1,3.2,3.6c1.2,0.6,2.5,0.9,3.8,1.4c4.2,1.9,4.8,4.8,8.5,7.5c0.1,0.1,0.2,0.1,0.3,0.2l0,0
			c2.2,4.3,16.8,13.4,18.6,13.1c0.3,0.1,0.6,0.1,1,0c-4.1-0.7-4.5-8.4-2-18.3c2-7.9,8.6-17.8,11.6-17.2
			C171.4,163.2,170.1,162.6,168.8,163z"/>
		<linearGradient id="SVGID_5_" gradientUnits="userSpaceOnUse" x1="124.1949" y1="126.1884" x2="167.5578" y2="140.0319">
			<stop  offset="1.241987e-03" style="stop-color:#946144"/>
			<stop  offset="3.995272e-02" style="stop-color:#986548"/>
			<stop  offset="0.4741" style="stop-color:#C5946D"/>
			<stop  offset="0.8082" style="stop-color:#E1B084"/>
			<stop  offset="1" style="stop-color:#EBBB8D"/>
		</linearGradient>
		<path class="st5" d="M166.6,141.4c-0.3,1.3-1,2.4-1.9,3.4l0,0l-0.1-0.1c-1.2-2.3-3.7-3.4-6.3-4c-2.6-0.6-5.3-1.1-7.9-1.7
			c-2.8-0.6-5.4-1.9-8.2-1.8c-5.5,0-9.1,1.8-12.9,4.6c-0.7-3.5-2.6-6.8-5.7-9c-0.5-0.3-0.9-0.8-1.2-1.3c5.7-6.5,14.9-10.8,23.7-10.9
			c8.8-0.1,18.3,4.6,24.1,11c-1.2,1-2.3,2.1-2.9,3.4C166.6,137.1,167.1,139.3,166.6,141.4z"/>
		<linearGradient id="SVGID_6_" gradientUnits="userSpaceOnUse" x1="114.2377" y1="162.9343" x2="163.8715" y2="142.6757">
			<stop  offset="1.252003e-02" style="stop-color:#B58259"/>
			<stop  offset="0.2305" style="stop-color:#B8865C"/>
			<stop  offset="0.4328" style="stop-color:#C19166"/>
			<stop  offset="0.629" style="stop-color:#D0A477"/>
			<stop  offset="0.8201" style="stop-color:#E5BE8E"/>
			<stop  offset="1" style="stop-color:#FFDEAB"/>
		</linearGradient>
		<path class="st6" d="M164.6,144.7l0.1,0.1c-0.7,0.9-1.5,1.7-2.3,2.6c-1.7,1.8-3.3,4-3,6.4c0.2,1.7,1.2,3.3,1.2,4.9l-0.3,0
			c-2.1-2.3-6-2.1-8.9-0.8c-2.9,1.2-5.4,3.3-8.4,4.3c-1.7,0.6-3.6,0.8-5.4,1.4c-4.6,1.4-8.4,5.2-9.6,9.7l-0.4,0.1
			c-0.8-2.1-1.9-4.2-4-5.2c-1.7-0.8-3.7-0.8-5.3-1.7c-1.5-0.9-2.5-2.5-4-3.3l0,0c0.1-6.3,3.5-12.5,9-16.2c0.3,0.2,0.6,0.3,0.9,0.4
			c1.5,0.5,3.5,0.5,5.1,0.4c0.4-2,0.5-4,0.1-5.9c3.8-2.8,7.4-4.6,12.9-4.6c2.8,0,5.4,1.3,8.2,1.8c2.6,0.6,5.3,1.1,7.9,1.7
			C160.9,141.3,163.4,142.4,164.6,144.7z"/>
		<linearGradient id="SVGID_7_" gradientUnits="userSpaceOnUse" x1="140.9974" y1="95.4299" x2="172.2362" y2="102.4908">
			<stop  offset="0" style="stop-color:#B58259"/>
			<stop  offset="0.3412" style="stop-color:#D2A679"/>
			<stop  offset="0.7752" style="stop-color:#F3CE9D"/>
			<stop  offset="1" style="stop-color:#FFDEAB"/>
		</linearGradient>
		<path class="st7" d="M171.2,107.3l-0.9,1.1c-2.4-1.7-5-3.1-7.7-4.2c-7.2-2.9-15.5-3.5-23.1-1.7c0.6-2.8,1.7-5.4,3.4-7.8
			c2.2-3,6.4-5.1,9.9-3.7c1.8,0.7,3.2,2.2,4.8,3.3c2.8,2,6.2,3,9.1,4.8S172,104,171.2,107.3z"/>
		<linearGradient id="SVGID_8_" gradientUnits="userSpaceOnUse" x1="152.4349" y1="76.8293" x2="136.2672" y2="81.699">
			<stop  offset="0" style="stop-color:#FFDEAB"/>
			<stop  offset="1" style="stop-color:#C89A6E"/>
		</linearGradient>
		<path class="st8" d="M138.4,82c-0.1-0.4-0.3-0.8-0.4-1.1c-0.6-2.6-0.1-5.4,1.6-7.5c2.5-0.6,5.3-1.4,7.8-1c2.7,0.4,5.4,2.2,5.8,4.8
			c0.4,2.6-1.6,5.1-3.9,6.6c-1.9,1.3-4.1,2.1-6.1,3.3C141,86,139.2,84.2,138.4,82z"/>
		<linearGradient id="SVGID_9_" gradientUnits="userSpaceOnUse" x1="88.9481" y1="95.3534" x2="142.8272" y2="85.2373">
			<stop  offset="0" style="stop-color:#BA885E"/>
			<stop  offset="0.2513" style="stop-color:#C49569"/>
			<stop  offset="0.7108" style="stop-color:#DFB687"/>
			<stop  offset="1" style="stop-color:#F2CE9D"/>
		</linearGradient>
		<path class="st9" d="M100.6,87.9c0.5-1.3,0.5-2.5,0.4-3.5c7.8-7.9,30.6-8.5,37.4-2.3c0.9,2.1,2.6,3.9,4.8,4.9
			c-0.4,0.2-0.8,0.5-1.2,0.7c-2.3,1.6-3.9,4.1-4.6,6.8l-0.2-0.1c-9.4-2.3-14.8-0.6-21.3,2.2c-4.6,1.9-10.2,4.6-13.3,8.2
			c-3.8-1.3-8-1.3-10.9-0.1c-0.2,0.1-0.4,0.2-0.7,0.3c-0.9-2.5-1.1-5.1-0.6-7.5c0.7-3.8,4.3-7.7,7.9-10.1l0,0
			C99.1,87.6,99.8,87.8,100.6,87.9z"/>
		<linearGradient id="SVGID_10_" gradientUnits="userSpaceOnUse" x1="104.5604" y1="110.9976" x2="139.0332" y2="99.5993">
			<stop  offset="0.1697" style="stop-color:#B58259"/>
			<stop  offset="0.4351" style="stop-color:#C19166"/>
			<stop  offset="0.9442" style="stop-color:#E0B889"/>
			<stop  offset="1" style="stop-color:#E4BD8D"/>
		</linearGradient>
		<path class="st10" d="M137.3,101.3l-0.1,0c-8.2-1.7-24.5,9.5-23.7,17.6c-0.4-0.5-0.7-1-1-1.6c-0.5-1-1.1-1.9-1.9-2.6
			c-0.2-2.5-0.7-4.8-2-6.2c-1.7-1.8-3.8-3-6-3.7c3.1-3.6,8.7-6.2,13.3-8.2c6.5-2.8,11.9-4.5,21.3-2.2l0.2,0.1
			C136.7,96.7,136.6,99.2,137.3,101.3z"/>
		<linearGradient id="SVGID_11_" gradientUnits="userSpaceOnUse" x1="102.7695" y1="160.8295" x2="120.5863" y2="141.5279">
			<stop  offset="0" style="stop-color:#B58259"/>
			<stop  offset="0.1753" style="stop-color:#BB895F"/>
			<stop  offset="0.4353" style="stop-color:#CB9D71"/>
			<stop  offset="0.7464" style="stop-color:#E5BE8F"/>
			<stop  offset="1" style="stop-color:#FFDEAB"/>
		</linearGradient>
		<path class="st11" d="M97.8,156.3c0,0,0-0.1,0-0.1l0.1-0.1c0.6-4.6,3.2-9.1,7-12c3.8-3,8.9-4.6,13.8-4.3l0,0c0,0.1,0,0.1-0.1,0.2
			c-0.3,0.8,0.2,1.7,0.6,2.5c1,1.7,2.3,3.5,4.1,4.5c-5.5,3.7-8.9,9.9-9,16.2l0,0c-0.1,0-0.1-0.1-0.2-0.1
			C108.7,162.4,103.5,160.8,97.8,156.3z"/>
		<linearGradient id="SVGID_12_" gradientUnits="userSpaceOnUse" x1="94.923" y1="78.3276" x2="139.1229" y2="69.8696">
			<stop  offset="7.941201e-02" style="stop-color:#B58259"/>
			<stop  offset="0.4667" style="stop-color:#D6AB7E"/>
			<stop  offset="0.8967" style="stop-color:#FFDEAB"/>
		</linearGradient>
		<path class="st12" d="M138,80.9c0.1,0.4,0.2,0.8,0.4,1.1c-6.8-6.2-29.6-5.6-37.4,2.3c-0.5-2.7-2.5-4.8-4.3-6.6
			c-0.7-0.7-1.4-1.3-2.2-1.9l0.1-0.1c1.8-7.5,12.1-12.3,20.6-13.4c8.5-1.2,20.7-0.2,23.8,6.7l0.1,0c0.2,1.4,0.1,2.9-0.1,4.3
			c0.2-0.1,0.4-0.1,0.7-0.2C137.9,75.5,137.3,78.3,138,80.9z"/>
		<linearGradient id="SVGID_13_" gradientUnits="userSpaceOnUse" x1="91.7902" y1="149.9541" x2="119.2365" y2="129.6677">
			<stop  offset="0" style="stop-color:#B58259"/>
			<stop  offset="0.1813" style="stop-color:#BC8B61"/>
			<stop  offset="0.4816" style="stop-color:#D1A578"/>
			<stop  offset="0.8617" style="stop-color:#F2CD9C"/>
			<stop  offset="1" style="stop-color:#FFDEAB"/>
		</linearGradient>
		<path class="st13" d="M119.6,135.7c-0.1,2.4-0.6,2.8-0.9,4l0,0c-4.9-0.3-10,1.3-13.8,4.3c-3.8,3-6.4,7.4-7,12l-0.1,0.1
			c0,0,0,0.1,0,0.1c-6.9-6.7-5.5-11.1-8.6-13.4l0.1-0.1c4.4-8.3,18.6-13.1,29.6-11.1l0.4,0C119.3,132.9,119.6,133.2,119.6,135.7z"/>
		<linearGradient id="SVGID_14_" gradientUnits="userSpaceOnUse" x1="91.6395" y1="76.5059" x2="131.0201" y2="52.913">
			<stop  offset="0" style="stop-color:#B58259"/>
			<stop  offset="0.434" style="stop-color:#DBB183"/>
			<stop  offset="0.7997" style="stop-color:#F5D2A0"/>
			<stop  offset="1" style="stop-color:#FFDEAB"/>
		</linearGradient>
		<path class="st14" d="M113.7,55.9c5.7-2.6,13-2,18.1,1.5c4,2.8,6.6,7.2,7.2,11.9l-0.1,0c-3.1-7-15.3-7.9-23.8-6.7
			c-8.5,1.2-18.8,6-20.6,13.4L94.5,76c-0.9-0.7-1.9-1.3-2.9-1.8c-1.5-0.8-3.1-1.5-4.6-2.3l0.1-0.1c-1-5.7,1.1-11.8,5.3-15.9
			c4.1-4.1,9.3-6.4,15.2-5.9C110,51.5,112.1,53.5,113.7,55.9z"/>
		<linearGradient id="SVGID_15_" gradientUnits="userSpaceOnUse" x1="82.2311" y1="140.2524" x2="116.3218" y2="122.7615">
			<stop  offset="0" style="stop-color:#B58259"/>
			<stop  offset="0.2549" style="stop-color:#CFA276"/>
			<stop  offset="0.5652" style="stop-color:#E9C393"/>
			<stop  offset="0.8248" style="stop-color:#F9D7A5"/>
			<stop  offset="1" style="stop-color:#FFDEAB"/>
		</linearGradient>
		<path class="st15" d="M79.6,135.1c0-0.1,0-0.1-0.1-0.2c3.4-4.7,7.6-8.3,13.2-10.4c5.6-2.1,11.4-2.5,17.2-1.2l0.6,0
			c0,0.8,0.1,1.6,0.1,2.3c1.6-1,4-1,5.7-0.2c1.7,0.8,2.9,2.5,3.1,4.3c0.1,0.7,0,1.4-0.1,2l-0.4,0c-11-2-25.2,2.7-29.6,11.1l-0.1,0.1
			c0,0,0,0,0,0C86.6,142.1,81.3,138.3,79.6,135.1z"/>
		<linearGradient id="SVGID_16_" gradientUnits="userSpaceOnUse" x1="76.8235" y1="131.2845" x2="106.7815" y2="109.6282">
			<stop  offset="0" style="stop-color:#B58259"/>
			<stop  offset="0.2027" style="stop-color:#BF8F64"/>
			<stop  offset="0.5761" style="stop-color:#DAB082"/>
			<stop  offset="1" style="stop-color:#FFDEAB"/>
		</linearGradient>
		<path class="st16" d="M83.2,123.8c-0.7-3.7-2.1-10.8,3.3-15.9c1.6,0.6,3.2,0.9,4.9,1.2c0.7,0.1,1.4,0.2,2.1,0.3
			c2.2,0.3,4.5,0.5,6.7,0.8c1.4,0.2,2.9,0.5,4.3,1c2.3,0.7,4.4,2,6.1,3.6c0.2,2.8,0,6,0.1,8.5l-0.6,0c-5.8-1.3-11.6-0.8-17.2,1.2
			c-5.6,2-9.8,5.7-13.2,10.4c0,0.1,0,0.1,0.1,0.2c-1.5-1.8-2.4-5.6-1.6-7.6C79.5,124,83.2,123.8,83.2,123.8z"/>
		<path class="st17" d="M110.5,114.8c-1.6-1.6-3.8-2.8-6.1-3.6c-1.4-0.5-2.8-0.8-4.3-1l0-0.1c0.2-1.9,1-3.7,2.3-5.2
			c2.2,0.8,4.3,2,6,3.7C109.8,110,110.3,112.2,110.5,114.8z"/>
		<path class="st18" d="M100.2,110.1l0,0.1c-2.2-0.4-4.4-0.5-6.7-0.8l0-0.1c-1.1-1.4-2-2.8-2.5-4.3c0.2-0.1,0.4-0.2,0.7-0.3
			c2.8-1.2,7-1.2,10.9,0.1C101.2,106.4,100.3,108.1,100.2,110.1z"/>
		<path class="st19" d="M93.5,109.3L93.5,109.3c-0.7,0-1.4-0.1-2.1-0.2c-1.6-0.3-3.3-0.6-4.9-1.2c1.2-1.1,2.6-2.1,4.5-2.9
			C91.5,106.5,92.3,107.9,93.5,109.3z"/>
		<linearGradient id="SVGID_17_" gradientUnits="userSpaceOnUse" x1="90.9205" y1="107.0463" x2="87.0812" y2="87.6474">
			<stop  offset="0" style="stop-color:#B58259"/>
			<stop  offset="1.263827e-02" style="stop-color:#B6835A"/>
			<stop  offset="0.6839" style="stop-color:#EAC494"/>
			<stop  offset="1" style="stop-color:#FFDEAB"/>
		</linearGradient>
		<path class="st20" d="M98.3,87.5L98.3,87.5c-3.6,2.4-7.2,6.3-7.9,10.1c-0.5,2.4-0.3,4.9,0.6,7.5c-1.9,0.8-3.3,1.8-4.5,2.9
			c-1.6-0.6-3.2-1.3-4.5-2.3c-5.6-4.3-5.5-13.5,1-16.5C89.1,86.4,94,86.8,98.3,87.5z"/>
		<linearGradient id="SVGID_18_" gradientUnits="userSpaceOnUse" x1="81.5515" y1="67.151" x2="101.2176" y2="44.367">
			<stop  offset="0" style="stop-color:#B58259"/>
			<stop  offset="0.182" style="stop-color:#BD8B61"/>
			<stop  offset="0.4855" style="stop-color:#D1A578"/>
			<stop  offset="0.871" style="stop-color:#F3CF9D"/>
			<stop  offset="1" style="stop-color:#FFDEAB"/>
		</linearGradient>
		<path class="st21" d="M107.6,49.9c-5.9-0.6-11.1,1.8-15.2,5.9c-4.2,4.2-6.2,10.2-5.3,15.9L87,71.8c-5.7-4.1-7.6-15.7-1.1-22.5
			S104.4,46.4,107.6,49.9z"/>
	</g>
</g>
</svg>
