<?xml version="1.0" encoding="utf-8"?>
<!-- Generator: Adobe Illustrator 20.0.0, SVG Export Plug-In . SVG Version: 6.00 Build 0)  -->
<svg version="1.1" xmlns="http://www.w3.org/2000/svg" xmlns:xlink="http://www.w3.org/1999/xlink" x="0px" y="0px"
	 viewBox="0 0 250 250" style="enable-background:new 0 0 250 250;" xml:space="preserve">
<style type="text/css">
	.st0{fill:#FFFAEC;}
	.st1{fill:url(#SVGID_1_);}
	.st2{fill:url(#SVGID_2_);}
	.st3{fill:#FDF3C1;}
	.st4{fill:url(#SVGID_3_);}
	.st5{fill:url(#SVGID_4_);}
	.st6{fill:url(#SVGID_5_);}
	.st7{fill:#FDF0AC;}
	.st8{fill:url(#SVGID_6_);}
	.st9{fill:url(#SVGID_7_);}
	.st10{fill:url(#SVGID_8_);}
	.st11{fill:url(#SVGID_9_);}
	.st12{fill:url(#SVGID_10_);}
	.st13{fill:url(#SVGID_11_);}
	.st14{fill:url(#SVGID_12_);}
	.st15{fill:url(#SVGID_13_);}
	.st16{fill:url(#SVGID_14_);}
	.st17{fill:url(#SVGID_15_);}
	.st18{fill:#FDF9E9;}
	.st19{fill:#FF952A;}
	.st20{fill:#FDE981;}
	.st21{fill:url(#SVGID_16_);}
	.st22{fill:url(#SVGID_17_);}
	.st23{fill:url(#SVGID_18_);}
	.st24{fill:url(#SVGID_19_);}
	.st25{fill:url(#SVGID_20_);}
	.st26{fill:url(#SVGID_21_);}
	.st27{fill:url(#SVGID_22_);}
</style>
<g id="colored_x5F_circles">
	<circle class="st0" cx="126" cy="125.1" r="100"/>
</g>
<g id="icons">
	<g>
		<g id="XMLID_21_">
			<g>
				<linearGradient id="SVGID_1_" gradientUnits="userSpaceOnUse" x1="111.6757" y1="124.9138" x2="219.2396" y2="124.9138">
					<stop  offset="0" style="stop-color:#FF8600"/>
					<stop  offset="0.3174" style="stop-color:#FFA911"/>
					<stop  offset="1" style="stop-color:#FFFF3B"/>
				</linearGradient>
				<path class="st1" d="M150.2,71c29.8,0,53.9,24.2,53.9,53.9c0,29.8-24.2,53.9-53.9,53.9c-4.5,0-8.9-0.5-13.1-1.6
					c11.2-3.4,21.1-11.1,27-21.9c1.5-2.7,0.2-6-2.6-7.1l-1.8-0.7c0,0,0,0,0,0l-3.9-1.5c0,0-0.1,0-0.1-0.1l-22.3-8.8
					c0.5-6.3-0.2-12.7-2.4-18.9c-1-2.9-4.3-4.2-7-2.9l-1.7,0.8c0,0,0,0-0.1,0l-3.9,1.9l-14.6,7.2l-7.3-2.9v0
					C97.7,93.8,121.3,71,150.2,71z"/>
				<linearGradient id="SVGID_2_" gradientUnits="userSpaceOnUse" x1="73.3072" y1="132.8988" x2="159.5932" y2="166.9725">
					<stop  offset="0" style="stop-color:#FF8400"/>
					<stop  offset="0.2474" style="stop-color:#FF8900"/>
					<stop  offset="0.5365" style="stop-color:#FE9700"/>
					<stop  offset="0.8452" style="stop-color:#FDAE01"/>
					<stop  offset="1" style="stop-color:#FCBD01"/>
				</linearGradient>
				<path class="st2" d="M161.5,148.2c2.8,1.1,4.1,4.5,2.6,7.1c-5.9,10.8-15.7,18.5-27,21.9c-1.8-0.4-3.5-1-5.2-1.6
					c12.5-2.4,23.7-10.3,30-22.1c1.2-2.3,0.2-5.1-2.2-6.1L161.5,148.2z"/>
				<path class="st3" d="M159.8,147.5c2.4,1,3.4,3.8,2.2,6.1c-6.3,11.8-17.5,19.7-30,22.1c-3.1-1.1-6-2.5-8.8-4.1
					c14.1,0.2,27.6-7.4,34.4-20.3c1.1-2,0.2-4.5-1.9-5.4L159.8,147.5C159.7,147.4,159.8,147.5,159.8,147.5z"/>
				<linearGradient id="SVGID_3_" gradientUnits="userSpaceOnUse" x1="79.7057" y1="135.1209" x2="152.959" y2="164.0482">
					<stop  offset="0.1751" style="stop-color:#FF8E12"/>
					<stop  offset="0.341" style="stop-color:#FF9511"/>
					<stop  offset="0.5804" style="stop-color:#FFA80D"/>
					<stop  offset="0.8633" style="stop-color:#FFC707"/>
					<stop  offset="1" style="stop-color:#FFD903"/>
				</linearGradient>
				<path class="st4" d="M155.8,145.9c2.1,0.9,2.9,3.4,1.9,5.4c-6.8,12.9-20.3,20.6-34.4,20.3c-1.9-1.1-3.7-2.3-5.5-3.7
					c9.1-8,14.6-19.1,15.6-30.9l22.3,8.8C155.7,145.9,155.8,145.9,155.8,145.9z"/>
				<polygon class="st3" points="155.7,145.8 133.4,137 133.4,137 				"/>
				<linearGradient id="SVGID_4_" gradientUnits="userSpaceOnUse" x1="57.2672" y1="185.0557" x2="143.4157" y2="142.4774">
					<stop  offset="0" style="stop-color:#FFA000"/>
					<stop  offset="0.2474" style="stop-color:#FFA500"/>
					<stop  offset="0.5365" style="stop-color:#FEB300"/>
					<stop  offset="0.8452" style="stop-color:#FDCA01"/>
					<stop  offset="1" style="stop-color:#FCD901"/>
				</linearGradient>
				<path class="st5" d="M133.4,137c-1,11.8-6.5,23-15.6,30.9c-0.7-0.6-1.5-1.2-2.2-1.8c9-7.7,14.4-18.7,15.2-30.2L133.4,137
					L133.4,137z"/>
				<linearGradient id="SVGID_5_" gradientUnits="userSpaceOnUse" x1="118.0677" y1="140.0963" x2="129.9015" y2="134.2476">
					<stop  offset="0" style="stop-color:#FF8E12"/>
					<stop  offset="1" style="stop-color:#FFD61E"/>
				</linearGradient>
				<path class="st6" d="M130.7,136C130.7,136,130.7,136,130.7,136l-4.8-1.9L130.7,136z"/>
				<path class="st7" d="M125.9,134.1l4.8,1.9c-0.7,11.5-6.1,22.6-15.2,30.2c-1.3-1.1-2.5-2.2-3.6-3.3
					C120.7,155.7,125.7,145.1,125.9,134.1z"/>
				<linearGradient id="SVGID_6_" gradientUnits="userSpaceOnUse" x1="64.9819" y1="154.3128" x2="181.8884" y2="96.5326">
					<stop  offset="0" style="stop-color:#FF8E12"/>
					<stop  offset="0.1916" style="stop-color:#FF9313"/>
					<stop  offset="0.4226" style="stop-color:#FFA215"/>
					<stop  offset="0.6737" style="stop-color:#FFBA1A"/>
					<stop  offset="0.9375" style="stop-color:#FFDC1F"/>
					<stop  offset="1" style="stop-color:#FFE521"/>
				</linearGradient>
				<path class="st8" d="M123.7,120.2c1.6,4.5,2.4,9.2,2.3,13.9l-22.3-8.8v0l14.6-7.2C120.4,117,122.9,118.1,123.7,120.2z"/>
				<linearGradient id="SVGID_7_" gradientUnits="userSpaceOnUse" x1="84.504" y1="141.2295" x2="131.0448" y2="146.9284">
					<stop  offset="0.1113" style="stop-color:#FF8600"/>
					<stop  offset="0.2886" style="stop-color:#FF8A00"/>
					<stop  offset="0.4811" style="stop-color:#FF9700"/>
					<stop  offset="0.6809" style="stop-color:#FFAD00"/>
					<stop  offset="0.8843" style="stop-color:#FFCB01"/>
					<stop  offset="1" style="stop-color:#FFE001"/>
				</linearGradient>
				<path class="st9" d="M103.7,125.3l22.3,8.8c-0.2,11-5.2,21.6-14,28.8c-8.8-8.9-14.5-20.8-15.5-34L103.7,125.3L103.7,125.3z"/>
				<path class="st3" d="M132,175.7c-7.4,1.5-15.3,1-22.9-1.8c1.9-1,3.7-2.1,5.4-3.4c2.9,0.7,5.8,1.1,8.7,1.1
					C126,173.2,129,174.6,132,175.7z"/>
				<linearGradient id="SVGID_8_" gradientUnits="userSpaceOnUse" x1="89.1267" y1="145.6892" x2="165.4238" y2="107.98">
					<stop  offset="0" style="stop-color:#FFA000"/>
					<stop  offset="0.2474" style="stop-color:#FFA500"/>
					<stop  offset="0.5365" style="stop-color:#FEB300"/>
					<stop  offset="0.8452" style="stop-color:#FDCA01"/>
					<stop  offset="1" style="stop-color:#FCD901"/>
				</linearGradient>
				<path class="st10" d="M123.9,115.3c2.7-1.3,6,0,7,2.9c2.2,6.2,2.9,12.6,2.4,18.9l-2.7-1.1c0,0,0,0,0,0
					c0.4-5.8-0.4-11.7-2.5-17.4c-0.9-2.4-3.7-3.6-6-2.5L123.9,115.3z"/>
				<path class="st7" d="M122.2,116.1C122.2,116.1,122.2,116.1,122.2,116.1c2.4-1.1,5.1,0,6,2.4c2.1,5.7,2.9,11.6,2.5,17.4l-4.8-1.9
					c0.1-4.6-0.6-9.3-2.3-13.9c-0.8-2.2-3.3-3.2-5.4-2.2L122.2,116.1z"/>
				<linearGradient id="SVGID_9_" gradientUnits="userSpaceOnUse" x1="103.1" y1="164.0569" x2="123.184" y2="171.9879">
					<stop  offset="0.1751" style="stop-color:#FF8E12"/>
					<stop  offset="0.341" style="stop-color:#FF9511"/>
					<stop  offset="0.5804" style="stop-color:#FFA80D"/>
					<stop  offset="0.8633" style="stop-color:#FFC707"/>
					<stop  offset="1" style="stop-color:#FFD903"/>
				</linearGradient>
				<path class="st11" d="M117.7,168c1.8,1.3,3.6,2.5,5.5,3.7c-2.9,0-5.8-0.4-8.7-1.1C115.7,169.7,116.7,168.8,117.7,168z"/>
				<linearGradient id="SVGID_10_" gradientUnits="userSpaceOnUse" x1="65.8196" y1="154.4216" x2="151.5989" y2="188.2952">
					<stop  offset="0" style="stop-color:#FFA000"/>
					<stop  offset="0.2474" style="stop-color:#FFA500"/>
					<stop  offset="0.5365" style="stop-color:#FEB300"/>
					<stop  offset="0.8452" style="stop-color:#FDCA01"/>
					<stop  offset="1" style="stop-color:#FCD901"/>
				</linearGradient>
				<path class="st12" d="M109.1,173.9c7.6,2.8,15.5,3.3,22.9,1.8c1.7,0.6,3.4,1.1,5.2,1.6c-9.6,2.9-20.2,2.7-30.2-1.2
					c-0.4-0.2-0.8-0.3-1.2-0.5c0.7-0.3,1.5-0.7,2.2-1C108.3,174.3,108.7,174.1,109.1,173.9z"/>
				<linearGradient id="SVGID_11_" gradientUnits="userSpaceOnUse" x1="73.1023" y1="189.0639" x2="142.0511" y2="154.9864">
					<stop  offset="0" style="stop-color:#FFA000"/>
					<stop  offset="0.2474" style="stop-color:#FFA500"/>
					<stop  offset="0.5365" style="stop-color:#FEB300"/>
					<stop  offset="0.8452" style="stop-color:#FDCA01"/>
					<stop  offset="1" style="stop-color:#FCD901"/>
				</linearGradient>
				<path class="st13" d="M115.5,166.2c0.7,0.6,1.5,1.2,2.2,1.8c-1,0.9-2.1,1.7-3.2,2.5c-1.1-0.3-2.3-0.6-3.4-1
					C112.7,168.5,114.2,167.4,115.5,166.2z"/>
				<path class="st7" d="M112,162.9c1.1,1.2,2.3,2.3,3.6,3.3c-1.4,1.2-2.8,2.3-4.4,3.3c-0.5-0.1-1-0.3-1.4-0.5
					c-1.4-0.5-2.8-1.2-4-1.9C107.9,165.9,110,164.5,112,162.9z"/>
				<path class="st7" d="M109.7,168.9c0.5,0.2,1,0.4,1.4,0.5c-1.4,0.9-2.9,1.8-4.5,2.5c-0.3,0.2-0.7,0.3-1,0.5
					c-1.9-0.9-3.7-1.9-5.5-3c1.5-0.5,2.9-1.1,4.3-1.8c0.4-0.2,0.7-0.4,1.1-0.6C107,167.7,108.3,168.4,109.7,168.9z"/>
				<linearGradient id="SVGID_12_" gradientUnits="userSpaceOnUse" x1="66.1773" y1="193.3861" x2="148.2251" y2="152.8346">
					<stop  offset="0" style="stop-color:#FFA000"/>
					<stop  offset="0.2474" style="stop-color:#FFA500"/>
					<stop  offset="0.5365" style="stop-color:#FEB300"/>
					<stop  offset="0.8452" style="stop-color:#FDCA01"/>
					<stop  offset="1" style="stop-color:#FCD901"/>
				</linearGradient>
				<path class="st14" d="M114.6,170.5c-1.7,1.3-3.5,2.4-5.4,3.4c-0.4-0.1-0.8-0.3-1.2-0.4c-0.8-0.3-1.5-0.6-2.2-1
					c0.3-0.1,0.7-0.3,1-0.5c1.6-0.8,3-1.6,4.5-2.5C112.3,169.9,113.4,170.2,114.6,170.5z"/>
				<linearGradient id="SVGID_13_" gradientUnits="userSpaceOnUse" x1="66.1328" y1="193.4479" x2="148.2946" y2="152.84">
					<stop  offset="0" style="stop-color:#FFA000"/>
					<stop  offset="0.2474" style="stop-color:#FFA500"/>
					<stop  offset="0.5365" style="stop-color:#FEB300"/>
					<stop  offset="0.8452" style="stop-color:#FDCA01"/>
					<stop  offset="1" style="stop-color:#FCD901"/>
				</linearGradient>
				<path class="st15" d="M109.1,173.9c-0.4,0.2-0.8,0.4-1.2,0.6c-0.7,0.4-1.5,0.7-2.2,1c-1.2-0.5-2.3-1-3.4-1.6
					c1.2-0.4,2.3-0.9,3.4-1.4c0.7,0.3,1.5,0.7,2.2,1C108.3,173.6,108.7,173.7,109.1,173.9z"/>
				<linearGradient id="SVGID_14_" gradientUnits="userSpaceOnUse" x1="83.943" y1="145.8687" x2="130.5018" y2="151.5698">
					<stop  offset="0.1113" style="stop-color:#FF8600"/>
					<stop  offset="0.2886" style="stop-color:#FF8A00"/>
					<stop  offset="0.4811" style="stop-color:#FF9700"/>
					<stop  offset="0.6809" style="stop-color:#FFAD00"/>
					<stop  offset="0.8843" style="stop-color:#FFCB01"/>
					<stop  offset="1" style="stop-color:#FFE001"/>
				</linearGradient>
				<path class="st16" d="M112,162.9c-1.9,1.6-4,3-6.3,4.2c-12.3-6.6-19.8-19.3-20.2-32.8l11-5.4C97.4,142.1,103.1,154,112,162.9z"
					/>
				<linearGradient id="SVGID_15_" gradientUnits="userSpaceOnUse" x1="61.1871" y1="167.6872" x2="130.5121" y2="133.4238">
					<stop  offset="0" style="stop-color:#FF8E12"/>
					<stop  offset="0.1916" style="stop-color:#FF9313"/>
					<stop  offset="0.4226" style="stop-color:#FFA215"/>
					<stop  offset="0.6737" style="stop-color:#FFBA1A"/>
					<stop  offset="0.9375" style="stop-color:#FFDC1F"/>
					<stop  offset="1" style="stop-color:#FFE521"/>
				</linearGradient>
				<path class="st17" d="M105.7,167.1c-0.4,0.2-0.7,0.4-1.1,0.6c-1.4,0.7-2.9,1.3-4.3,1.8c-11.4-7.4-18.5-19.7-19.5-32.8l4.7-2.3
					C85.8,147.8,93.3,160.5,105.7,167.1z"/>
				<polygon class="st18" points="103.7,125.3 103.7,125.3 103.7,125.3 96.4,122.4 				"/>
				<path class="st19" d="M103.7,125.3l-7.2,3.6c-0.1-1.3-0.1-2.6-0.1-3.9c0-0.8,0-1.7,0.1-2.5L103.7,125.3z"/>
				<path class="st20" d="M105.7,172.5c-1.1,0.5-2.3,1-3.4,1.4c-1.9-1-3.7-2.1-5.5-3.4c1.1-0.3,2.3-0.6,3.4-1
					C102,170.6,103.8,171.6,105.7,172.5z"/>
				<path class="st18" d="M102.3,173.9c-19.1,7-40.6-0.5-51.4-17.8c-1.2-1.9-0.4-4.5,1.6-5.5l3.9-1.9c-1.8,0.9-2.5,3.2-1.4,4.9
					c8.8,14.2,25.9,20.9,41.8,17C98.6,171.7,100.4,172.9,102.3,173.9z"/>
				<linearGradient id="SVGID_16_" gradientUnits="userSpaceOnUse" x1="61.1012" y1="167.5693" x2="130.4657" y2="133.2863">
					<stop  offset="0.1618" style="stop-color:#FF8E12"/>
					<stop  offset="0.3367" style="stop-color:#FF9213"/>
					<stop  offset="0.519" style="stop-color:#FF9F15"/>
					<stop  offset="0.7045" style="stop-color:#FFB418"/>
					<stop  offset="0.8912" style="stop-color:#FFD01D"/>
					<stop  offset="1" style="stop-color:#FFE521"/>
				</linearGradient>
				<path class="st21" d="M100.2,169.5c-1.1,0.4-2.3,0.7-3.4,1c-10.7-7.7-17.4-19.7-18.8-32.5l2.7-1.3
					C81.8,149.8,88.9,162.1,100.2,169.5z"/>
				<polygon class="st7" points="96.5,128.9 85.5,134.3 96.3,128.9 				"/>
				<linearGradient id="SVGID_17_" gradientUnits="userSpaceOnUse" x1="84.9874" y1="126.0107" x2="143.6665" y2="149.1827">
					<stop  offset="0" style="stop-color:#FF8E12"/>
					<stop  offset="1" style="stop-color:#FFE521"/>
				</linearGradient>
				<path class="st22" d="M96.5,128.9l-0.2,0.1l-10.8,5.4c-0.1-3.8,0.4-7.7,1.5-11.6c0.5-1.9,2.7-2.9,4.5-2.3c0,0,0.1,0,0.1,0
					l4.9,1.9c0,0.8-0.1,1.7-0.1,2.5C96.3,126.2,96.4,127.6,96.5,128.9z"/>
				<polygon class="st3" points="96.4,122.4 96.4,122.4 91.5,120.5 				"/>
				<linearGradient id="SVGID_18_" gradientUnits="userSpaceOnUse" x1="-24.7672" y1="188.7754" x2="96.3051" y2="128.9363">
					<stop  offset="0" style="stop-color:#FFA000"/>
					<stop  offset="0.2474" style="stop-color:#FFA500"/>
					<stop  offset="0.5365" style="stop-color:#FEB300"/>
					<stop  offset="0.8452" style="stop-color:#FDCA01"/>
					<stop  offset="1" style="stop-color:#FCD901"/>
				</linearGradient>
				<polygon class="st23" points="96.3,128.9 85.5,134.3 85.5,134.3 				"/>
				<path class="st7" d="M87.4,118.9l4,1.6c-1.8-0.7-3.9,0.3-4.5,2.3c-1.1,3.8-1.6,7.7-1.5,11.6v0l-4.7,2.3
					c-0.4-5,0.1-10.2,1.5-15.3c0.6-2.1,2.9-3.3,5-2.5C87.3,118.9,87.4,118.9,87.4,118.9z"/>
				<linearGradient id="SVGID_19_" gradientUnits="userSpaceOnUse" x1="61.0047" y1="167.2887" x2="130.2466" y2="133.0664">
					<stop  offset="0" style="stop-color:#FFB700"/>
					<stop  offset="1" style="stop-color:#FFE521"/>
				</linearGradient>
				<path class="st24" d="M96.8,170.5c-15.9,4-33-2.7-41.8-17c-1.1-1.7-0.4-4,1.4-4.9l21.6-10.7C79.4,150.8,86.1,162.8,96.8,170.5z"
					/>
				<linearGradient id="SVGID_20_" gradientUnits="userSpaceOnUse" x1="77.335" y1="126.2794" x2="162.3325" y2="159.8443">
					<stop  offset="0" style="stop-color:#FFC159"/>
					<stop  offset="0.1934" style="stop-color:#FFC254"/>
					<stop  offset="0.4194" style="stop-color:#FEC646"/>
					<stop  offset="0.6616" style="stop-color:#FECD2E"/>
					<stop  offset="0.9137" style="stop-color:#FCD50E"/>
					<stop  offset="1" style="stop-color:#FCD901"/>
				</linearGradient>
				<path class="st25" d="M87.3,118.8c-2.1-0.7-4.4,0.4-5,2.5c-1.5,5.1-1.9,10.2-1.5,15.3l-2.7,1.3c-0.6-5.8-0.1-11.7,1.6-17.6
					c0.6-2.2,3.1-3.3,5.2-2.5L87.3,118.8z"/>
				<linearGradient id="SVGID_21_" gradientUnits="userSpaceOnUse" x1="56.4338" y1="148.6464" x2="102.0921" y2="126.0801">
					<stop  offset="0" style="stop-color:#FFB300"/>
					<stop  offset="0.3114" style="stop-color:#FFB800"/>
					<stop  offset="0.6746" style="stop-color:#FDC600"/>
					<stop  offset="1" style="stop-color:#FCD901"/>
				</linearGradient>
				<path class="st26" d="M78.1,137.9l-21.6,10.7L78.1,137.9z"/>
				<linearGradient id="SVGID_22_" gradientUnits="userSpaceOnUse" x1="56.6846" y1="174.1313" x2="138.6678" y2="133.6117">
					<stop  offset="0" style="stop-color:#FFB300"/>
					<stop  offset="0.3114" style="stop-color:#FFB800"/>
					<stop  offset="0.6746" style="stop-color:#FDC600"/>
					<stop  offset="1" style="stop-color:#FCD901"/>
				</linearGradient>
				<path class="st27" d="M105.7,175.5c-21,9-45.4,1.2-57.3-18.2c-1.2-2-0.4-4.5,1.6-5.5l2.5-1.2c-2,1-2.8,3.6-1.6,5.5
					c10.8,17.3,32.3,24.7,51.4,17.8C103.4,174.5,104.5,175,105.7,175.5z"/>
			</g>
			<g>
			</g>
		</g>
	</g>
</g>
</svg>
