<?xml version="1.0" encoding="utf-8"?>
<!-- Generator: Adobe Illustrator 20.0.0, SVG Export Plug-In . SVG Version: 6.00 Build 0)  -->
<svg version="1.1" xmlns="http://www.w3.org/2000/svg" xmlns:xlink="http://www.w3.org/1999/xlink" x="0px" y="0px"
	 viewBox="0 0 250 250" style="enable-background:new 0 0 250 250;" xml:space="preserve">
<style type="text/css">
	.st0{fill:#F7FCF4;}
	.st1{fill:url(#SVGID_1_);}
	.st2{fill:url(#SVGID_2_);}
	.st3{fill:url(#SVGID_3_);}
	.st4{fill:url(#SVGID_4_);}
	.st5{fill:url(#SVGID_5_);}
	.st6{fill:url(#SVGID_6_);}
	.st7{fill:url(#SVGID_7_);}
	.st8{fill:url(#SVGID_8_);}
	.st9{fill:url(#SVGID_9_);}
	.st10{fill:url(#SVGID_10_);}
	.st11{fill:url(#SVGID_11_);}
	.st12{fill:url(#SVGID_12_);}
	.st13{fill:url(#SVGID_13_);}
	.st14{fill:url(#SVGID_14_);}
	.st15{fill:url(#SVGID_15_);}
	.st16{fill:url(#SVGID_16_);}
	.st17{fill:url(#SVGID_17_);}
	.st18{fill:url(#SVGID_18_);}
	.st19{fill:url(#SVGID_19_);}
	.st20{fill:url(#SVGID_20_);}
</style>
<g id="colored_x5F_circles">
	<circle class="st0" cx="126" cy="125.1" r="100"/>
</g>
<g id="icons">
	<g>
		<g id="XMLID_58_">
			<linearGradient id="SVGID_1_" gradientUnits="userSpaceOnUse" x1="88.6232" y1="92.1211" x2="102.2999" y2="116.3845">
				<stop  offset="0" style="stop-color:#BAFB78"/>
				<stop  offset="0.1434" style="stop-color:#B2F773"/>
				<stop  offset="0.3639" style="stop-color:#9DEC64"/>
				<stop  offset="0.6338" style="stop-color:#7ADA4D"/>
				<stop  offset="0.9402" style="stop-color:#49C02D"/>
				<stop  offset="1" style="stop-color:#3FBB26"/>
			</linearGradient>
			<path class="st1" d="M96.9,117.3L96.9,117.3c-1.4-0.1-2.8-1.4-2.8-1.4c0-0.1-0.1-0.1-0.1-0.2l2.7-1.1c0,0-0.1-4.5-2.4-10.1
				c-0.6-1.5-1.7-3.3-3.1-5.1c0.6-4.8,3-7.1,4.5-6.9c1.9,0.3,5,6.3,5,11.5C100.7,111.9,96.9,117.3,96.9,117.3z"/>
			<linearGradient id="SVGID_2_" gradientUnits="userSpaceOnUse" x1="89.7481" y1="100.4108" x2="104.2632" y2="132.6427">
				<stop  offset="0.4243" style="stop-color:#00BF26"/>
				<stop  offset="0.6374" style="stop-color:#50CE58"/>
				<stop  offset="0.8843" style="stop-color:#A6DE8E"/>
				<stop  offset="0.9968" style="stop-color:#C9E4A4"/>
			</linearGradient>
			<path class="st2" d="M94.3,104.5c2.3,5.6,2.4,10.1,2.4,10.1l-2.7,1.1c-1.2-2.6-3.3-6.7-3.1-13.1c0-1,0.1-2.1,0.3-3.2
				C92.5,101.2,93.6,103,94.3,104.5z"/>
			<linearGradient id="SVGID_3_" gradientUnits="userSpaceOnUse" x1="87.1493" y1="94.3088" x2="81.7291" y2="129.686">
				<stop  offset="0" style="stop-color:#BAFB78"/>
				<stop  offset="0.15" style="stop-color:#9FED66"/>
				<stop  offset="0.4125" style="stop-color:#76D74A"/>
				<stop  offset="0.6508" style="stop-color:#58C836"/>
				<stop  offset="0.8546" style="stop-color:#46BE2A"/>
				<stop  offset="1" style="stop-color:#3FBB26"/>
			</linearGradient>
			<path class="st3" d="M91.2,99.3c-0.1,1.2-0.2,2.3-0.3,3.2c-0.2,6.4,1.8,10.5,3.1,13.1l-8.3,3.4c0-0.1,0-0.1,0-0.1
				c-1-2.7-2-7.4-6.8-11.9c-0.7-0.6-1.6-1.3-2.5-2c-0.9-6.5,0.7-10.9,3.4-12C82.5,91.9,87.2,94,91.2,99.3z"/>
			<linearGradient id="SVGID_4_" gradientUnits="userSpaceOnUse" x1="77.8198" y1="105.7825" x2="92.3348" y2="138.0144">
				<stop  offset="0.4243" style="stop-color:#00BF26"/>
				<stop  offset="0.6374" style="stop-color:#50CE58"/>
				<stop  offset="0.8843" style="stop-color:#A6DE8E"/>
				<stop  offset="0.9968" style="stop-color:#C9E4A4"/>
			</linearGradient>
			<path class="st4" d="M78.9,107.1c4.8,4.5,5.8,9.2,6.8,11.9c0,0,0,0,0,0.1l-2.4,1c0,0-3.1-3.2-5.4-8.9c-0.6-1.5-1.2-3.7-1.5-6.2
				C77.4,105.8,78.2,106.5,78.9,107.1z"/>
			<linearGradient id="SVGID_5_" gradientUnits="userSpaceOnUse" x1="71.9328" y1="97.6605" x2="79.6528" y2="125.2981">
				<stop  offset="0" style="stop-color:#BAFB78"/>
				<stop  offset="0.1434" style="stop-color:#B2F773"/>
				<stop  offset="0.3639" style="stop-color:#9DEC64"/>
				<stop  offset="0.6338" style="stop-color:#7ADA4D"/>
				<stop  offset="0.9402" style="stop-color:#49C02D"/>
				<stop  offset="1" style="stop-color:#3FBB26"/>
			</linearGradient>
			<path class="st5" d="M83.4,120.1l2.4-1c0,0.4,0.1,1.7-0.7,3l-0.1,0c0,0-7.1-0.9-12.7-6.5c0.3,0.3-8.3-8.7-5.3-12.7
				c0.9-1.2,5.5-0.7,9.4,2.2c0.4,2.4,0.9,4.6,1.5,6.2C80.3,116.9,83.4,120.1,83.4,120.1z"/>
		</g>
		<g>
			<linearGradient id="SVGID_6_" gradientUnits="userSpaceOnUse" x1="157.1599" y1="139.0044" x2="94.9863" y2="177.8963">
				<stop  offset="0.1353" style="stop-color:#A4D573"/>
				<stop  offset="0.9988" style="stop-color:#A78B72"/>
			</linearGradient>
			<path class="st6" d="M136.1,114.2c-2.4,26.1-14.1,58.9-26.5,83.9c-1.8,4.4,4.8,8.2,6.9,3.7c11.6-24.4,22-58,25.4-87.1
				L136.1,114.2z"/>
		</g>
		<g>
			<linearGradient id="SVGID_7_" gradientUnits="userSpaceOnUse" x1="100.5016" y1="137.7787" x2="126.5566" y2="166.2368">
				<stop  offset="0.1353" style="stop-color:#A4D573"/>
				<stop  offset="0.9988" style="stop-color:#A78B72"/>
			</linearGradient>
			<path class="st7" d="M126.5,162.7c-8.7-7.9-17.1-16.4-24.2-26.7l-3.4,2.1c3.9,5.8,8.4,11,13,15.9c4.7,5,9.6,9.5,14.5,13.8
				C127.8,169.4,127.6,164.1,126.5,162.7z"/>
		</g>
		
			<linearGradient id="SVGID_8_" gradientUnits="userSpaceOnUse" x1="-2241.1062" y1="-937.3185" x2="-2277.4993" y2="-929.1488" gradientTransform="matrix(-0.6737 -0.739 -0.739 0.6737 -2118.9189 -917.3599)">
			<stop  offset="0.1547" style="stop-color:#B4F47C"/>
			<stop  offset="0.2929" style="stop-color:#A1EA6A"/>
			<stop  offset="0.5991" style="stop-color:#7CD746"/>
			<stop  offset="0.7613" style="stop-color:#6ED038"/>
			<stop  offset="0.8446" style="stop-color:#6AC935"/>
			<stop  offset="1" style="stop-color:#66C032"/>
		</linearGradient>
		<path class="st8" d="M86.2,105c-7,1.3-4.1,16.9-2.6,21.2c1.3,3.8,3.1,6.4,7.1,7.8c3.3,1.1,6.1,1.6,8.4,4.6c1.8,2.2,4.9,0,3.7-2
			c-1.8-3-0.7-5.5,0.3-8.6c1.2-4,0.1-6.8-2.3-10.3c-2.2-3.2-4.9-6.1-7.6-8.8C91.3,106.9,89.3,104.4,86.2,105z"/>
		
			<linearGradient id="SVGID_9_" gradientUnits="userSpaceOnUse" x1="-2067.4839" y1="-1065.2534" x2="-2113.239" y2="-1065.8889" gradientTransform="matrix(-0.5531 -0.8331 -0.8331 0.5531 -1958.8046 -1012.6012)">
			<stop  offset="0" style="stop-color:#C2FD90"/>
			<stop  offset="0.2921" style="stop-color:#99E569"/>
			<stop  offset="0.5987" style="stop-color:#74CF46"/>
			<stop  offset="0.7613" style="stop-color:#66C738"/>
			<stop  offset="0.8234" style="stop-color:#70BF47"/>
			<stop  offset="0.9286" style="stop-color:#7CB55B"/>
			<stop  offset="1" style="stop-color:#81B162"/>
		</linearGradient>
		<path class="st9" d="M64.3,126.8c-5.9-1.2-0.9,11.6,11.1,18.4c11.9,6.8,19.7,2.1,23.8,2c4-0.1,8.7,1.2,8.7,1.2
			c2,0.2-1.2-3.2-1.7-3.3c-0.1,0-7.3-1-7.3-1c-4.5-1-6.8-4.2-13.2-8.3C79.3,131.7,70.2,128,64.3,126.8z"/>
		<g id="XMLID_36_">
			<g>
				<linearGradient id="SVGID_10_" gradientUnits="userSpaceOnUse" x1="120.8561" y1="75.4898" x2="117.016" y2="133.7806">
					<stop  offset="0" style="stop-color:#C2FD90"/>
					<stop  offset="0.2921" style="stop-color:#99E569"/>
					<stop  offset="0.5987" style="stop-color:#74CF46"/>
					<stop  offset="0.7613" style="stop-color:#66C738"/>
					<stop  offset="0.8234" style="stop-color:#70BF47"/>
					<stop  offset="0.9286" style="stop-color:#7CB55B"/>
					<stop  offset="1" style="stop-color:#81B162"/>
				</linearGradient>
				<path class="st10" d="M134.7,131.4c0,0-3.6-5-7.8-8.1c-1.2-0.9-3.1-1.7-5.2-2.7c0-0.3-0.1-0.7-0.1-1
					c-1.8-13.6-11.8-23.1-12.9-17.2c-0.3,1.9-0.6,4.2-0.7,6.7c-1.2-1.9-2.3-4-3.4-6.5c-6.7-16.2-1.5-33.1,3.4-27.2
					c4.9,5.9,11.2,16.8,14.3,25.9s2.9,14.1,6.7,18.7c0,0,6.5,6.6,6.6,6.7C136.1,127.3,136.5,133.2,134.7,131.4z"/>
				<linearGradient id="SVGID_11_" gradientUnits="userSpaceOnUse" x1="108.5154" y1="101.8375" x2="138.4288" y2="146.8909">
					<stop  offset="0.4001" style="stop-color:#00BF26"/>
					<stop  offset="0.6222" style="stop-color:#50CE58"/>
					<stop  offset="0.8796" style="stop-color:#A6DE8E"/>
					<stop  offset="0.9968" style="stop-color:#C9E4A4"/>
				</linearGradient>
				<path class="st11" d="M121.6,119.6c0,0.4,0.1,0.7,0.1,1c-4.1-1.9-9.3-4.9-13.7-11.5c0.1-2.5,0.3-4.8,0.7-6.7
					C109.7,96.5,119.8,105.9,121.6,119.6z"/>
				<linearGradient id="SVGID_12_" gradientUnits="userSpaceOnUse" x1="99.4411" y1="110.1066" x2="123.6331" y2="146.5429">
					<stop  offset="0" style="stop-color:#C2FD90"/>
					<stop  offset="0.2921" style="stop-color:#99E569"/>
					<stop  offset="0.5987" style="stop-color:#74CF46"/>
					<stop  offset="0.7613" style="stop-color:#66C738"/>
					<stop  offset="0.8234" style="stop-color:#70BF47"/>
					<stop  offset="0.9286" style="stop-color:#7CB55B"/>
					<stop  offset="1" style="stop-color:#81B162"/>
				</linearGradient>
				<path class="st12" d="M109.9,148c0-0.1,1.9-7.1,1.9-7.1c0.8-4.6-1.3-7.9-2.7-15.3c-1-5.1-1.3-11.2-1.1-16.5
					c4.4,6.7,9.6,9.6,13.7,11.5c1.3,12.8-5.6,18.1-7.2,21.7c-1.6,3.7-2.1,8.5-2.1,8.5C111.8,152.8,109.8,148.6,109.9,148z"/>
			</g>
			<g>
			</g>
		</g>
		
			<linearGradient id="SVGID_13_" gradientUnits="userSpaceOnUse" x1="-516.156" y1="1273.7429" x2="-574.0775" y2="1272.9385" gradientTransform="matrix(0.5531 -0.8331 0.8331 0.5531 -598.6542 -1012.6012)">
			<stop  offset="0" style="stop-color:#C2FD90"/>
			<stop  offset="0.2921" style="stop-color:#99E569"/>
			<stop  offset="0.5987" style="stop-color:#74CF46"/>
			<stop  offset="0.7613" style="stop-color:#66C738"/>
			<stop  offset="0.8234" style="stop-color:#70BF47"/>
			<stop  offset="0.9286" style="stop-color:#7CB55B"/>
			<stop  offset="1" style="stop-color:#81B162"/>
		</linearGradient>
		<path class="st13" d="M187.1,129.7c7.4-1.6,1.2,14.7-14,23.3c-15.1,8.6-25,2.6-30.1,2.5c-5.1-0.1-11,1.5-11,1.5
			c-2.5,0.3,1.5-4,2.2-4.1c0.1,0,9.2-1.2,9.2-1.2c5.7-1.2,8.6-5.3,16.6-10.5C168,136,179.6,131.3,187.1,129.7z"/>
		<linearGradient id="SVGID_14_" gradientUnits="userSpaceOnUse" x1="133.4621" y1="123.9843" x2="191.9605" y2="103.8417">
			<stop  offset="0" style="stop-color:#81B162"/>
			<stop  offset="7.143153e-02" style="stop-color:#7CB55B"/>
			<stop  offset="0.1766" style="stop-color:#70BF47"/>
			<stop  offset="0.2387" style="stop-color:#66C738"/>
			<stop  offset="0.4013" style="stop-color:#74CF46"/>
			<stop  offset="0.7079" style="stop-color:#99E569"/>
			<stop  offset="1" style="stop-color:#C2FD90"/>
		</linearGradient>
		<path class="st14" d="M183.9,90.4c7.2-4.3,6.5,14.9-6.2,29.3c-12.7,14.4-25.1,11.8-30.4,13.4c-5.4,1.7-10.9,5.6-10.9,5.6
			c-2.5,1.2,0.1-4.7,0.8-5.1c0.1-0.1,9.2-4.6,9.2-4.6c5.5-3.4,7.1-8.6,13.5-16.9S176.7,94.7,183.9,90.4z"/>
		
			<linearGradient id="SVGID_15_" gradientUnits="userSpaceOnUse" x1="157.3884" y1="48.1506" x2="161.5971" y2="82.9237" gradientTransform="matrix(1 3.091838e-03 -3.091838e-03 1 0.2272 3.8866)">
			<stop  offset="0" style="stop-color:#BAFB78"/>
			<stop  offset="0.1434" style="stop-color:#B2F773"/>
			<stop  offset="0.3639" style="stop-color:#9DEC64"/>
			<stop  offset="0.6338" style="stop-color:#7ADA4D"/>
			<stop  offset="0.9402" style="stop-color:#49C02D"/>
			<stop  offset="1" style="stop-color:#3FBB26"/>
		</linearGradient>
		<path class="st15" d="M164,56.6c2.4,1.4,2.3,9.1-0.5,15.9c-2.5,6.1-6.3,10.7-8.9,13.3c-0.2-1.3-0.5-2.7-0.9-4
			c0.6-2.5,1.3-6.4,1.4-11.2c0-2.2-0.4-5.2-1.2-8.3C157.2,56.4,162.2,55.6,164,56.6z"/>
		<linearGradient id="SVGID_16_" gradientUnits="userSpaceOnUse" x1="149.4825" y1="50.779" x2="129.4482" y2="83.8356">
			<stop  offset="0" style="stop-color:#BAFB78"/>
			<stop  offset="0.15" style="stop-color:#9FED66"/>
			<stop  offset="0.4125" style="stop-color:#76D74A"/>
			<stop  offset="0.6508" style="stop-color:#58C836"/>
			<stop  offset="0.8546" style="stop-color:#46BE2A"/>
			<stop  offset="1" style="stop-color:#3FBB26"/>
		</linearGradient>
		<path class="st16" d="M153.8,62.3c-0.8,1.4-1.5,2.8-2.1,4.1c-0.9,2-1.6,3.9-2,5.7c-1.9-2.8-4.3-4.5-7.3-4
			c-3.3,0.5-4.9,3.2-6.2,5.9c-0.4-2.5-1.1-5.2-2.4-8.2c-0.5-1.2-1.3-2.6-2.1-4c2.3-8.9,6.9-15.4,11-15.4
			C146.7,46.4,151.6,53.2,153.8,62.3z"/>
		<linearGradient id="SVGID_17_" gradientUnits="userSpaceOnUse" x1="147.3" y1="66.2855" x2="138.6313" y2="116.85">
			<stop  offset="0" style="stop-color:#BBF681"/>
			<stop  offset="0.218" style="stop-color:#A1E968"/>
			<stop  offset="0.5731" style="stop-color:#7CD745"/>
			<stop  offset="0.7613" style="stop-color:#6ED038"/>
			<stop  offset="0.852" style="stop-color:#6AC835"/>
			<stop  offset="1" style="stop-color:#66BF32"/>
		</linearGradient>
		<path class="st17" d="M154.6,85.8c-0.2-1.3-0.5-2.7-0.9-4c-0.9-3.6-2.3-7.1-4.1-9.7c-1.9-2.8-4.3-4.5-7.3-4
			c-3.3,0.5-4.9,3.2-6.2,5.9c-0.3,0.7-0.6,1.5-1,2.2c-1.1,2.4-2.1,4.9-3.1,7.3c-0.3,0.9-0.7,1.8-1,2.7c-0.5,1.6-1,3.1-1.5,4.7
			c-1.4,5.5-1.5,9.7,1.9,14.2c2.6,3.5,4.8,6.1,4.4,10.9c-0.3,3.6,5.4,3.5,5.6,0.9c0.4-5.1,4.9-6.7,8.6-9.7c4.4-3.6,5.5-7.8,5.4-13.3
			C155.6,92.1,155.3,89.2,154.6,85.8z"/>
		<g>
			<linearGradient id="SVGID_18_" gradientUnits="userSpaceOnUse" x1="152.6387" y1="64.3216" x2="151.1079" y2="103.4672">
				<stop  offset="0.4001" style="stop-color:#00BF26"/>
				<stop  offset="0.6222" style="stop-color:#50CE58"/>
				<stop  offset="0.8796" style="stop-color:#A6DE8E"/>
				<stop  offset="0.9968" style="stop-color:#C9E4A4"/>
			</linearGradient>
			<path class="st18" d="M155,70.6c0,4.8-0.7,8.7-1.3,11.2c-0.9-3.6-2.3-7.1-4.1-9.7c0.5-1.8,1.1-3.7,2-5.7c0.5-1.2,1.3-2.6,2.1-4.1
				C154.6,65.4,155,68.4,155,70.6z"/>
			<linearGradient id="SVGID_19_" gradientUnits="userSpaceOnUse" x1="133.6043" y1="63.5773" x2="132.0735" y2="102.7228">
				<stop  offset="0.4001" style="stop-color:#00BF26"/>
				<stop  offset="0.6222" style="stop-color:#50CE58"/>
				<stop  offset="0.8796" style="stop-color:#A6DE8E"/>
				<stop  offset="0.9968" style="stop-color:#C9E4A4"/>
			</linearGradient>
			<path class="st19" d="M136.2,74c-0.3,0.7-0.6,1.5-1,2.2c-1.1,2.4-2.1,4.9-3.1,7.3c-0.7-2.2-1.8-6.9-1.8-12.9
				c0-2.3,0.5-5.4,1.3-8.8c0.8,1.4,1.6,2.8,2.1,4C135.1,68.7,135.9,71.5,136.2,74z"/>
		</g>
		<linearGradient id="SVGID_20_" gradientUnits="userSpaceOnUse" x1="128.8087" y1="52.566" x2="124.5859" y2="87.4559">
			<stop  offset="0" style="stop-color:#BAFB78"/>
			<stop  offset="0.1434" style="stop-color:#B2F773"/>
			<stop  offset="0.3639" style="stop-color:#9DEC64"/>
			<stop  offset="0.6338" style="stop-color:#7ADA4D"/>
			<stop  offset="0.9402" style="stop-color:#49C02D"/>
			<stop  offset="1" style="stop-color:#3FBB26"/>
		</linearGradient>
		<path class="st20" d="M130.3,70.6c0,6,1.1,10.7,1.8,12.9c-0.3,0.9-0.7,1.8-1,2.7c-2.5-2.4-6.2-6.7-8.8-13.2
			c-2.8-6.8-2-14.8,0.4-16.2c1.8-1,5.6-0.8,9,5C130.8,65.1,130.3,68.3,130.3,70.6z"/>
	</g>
</g>
</svg>
