<?xml version="1.0" encoding="utf-8"?>
<!-- Generator: Adobe Illustrator 20.0.0, SVG Export Plug-In . SVG Version: 6.00 Build 0)  -->
<svg version="1.1" xmlns="http://www.w3.org/2000/svg" xmlns:xlink="http://www.w3.org/1999/xlink" x="0px" y="0px"
	 viewBox="0 0 250 250" style="enable-background:new 0 0 250 250;" xml:space="preserve">
<style type="text/css">
	.st0{fill:#F7FCF4;}
	.st1{fill:url(#SVGID_1_);}
	.st2{fill:url(#SVGID_2_);}
	.st3{fill:url(#SVGID_3_);}
	.st4{fill:url(#SVGID_4_);}
	.st5{fill:url(#SVGID_5_);}
	.st6{fill:url(#SVGID_6_);}
	.st7{fill:url(#SVGID_7_);}
	.st8{fill:url(#SVGID_8_);}
	.st9{fill:url(#SVGID_9_);}
	.st10{fill:url(#SVGID_10_);}
	.st11{fill:url(#SVGID_11_);}
	.st12{fill:url(#SVGID_12_);}
	.st13{fill:url(#SVGID_13_);}
	.st14{fill:url(#SVGID_14_);}
	.st15{fill:url(#SVGID_15_);}
	.st16{fill:url(#SVGID_16_);}
	.st17{fill:url(#SVGID_17_);}
	.st18{fill:url(#SVGID_18_);}
	.st19{fill:url(#SVGID_19_);}
	.st20{fill:url(#SVGID_20_);}
	.st21{fill:url(#SVGID_21_);}
	.st22{fill:url(#SVGID_22_);}
	.st23{fill:#735866;}
	.st24{fill:url(#SVGID_23_);}
	.st25{fill:url(#SVGID_24_);}
	.st26{fill:#786561;}
	.st27{fill:#A27B73;}
	.st28{fill:url(#SVGID_25_);}
</style>
<g id="colored_x5F_circles">
	<circle class="st0" cx="126" cy="125.1" r="100"/>
</g>
<g id="icons">
	<g id="XMLID_47_">
		<linearGradient id="SVGID_1_" gradientUnits="userSpaceOnUse" x1="189.1944" y1="133.8143" x2="141.9106" y2="95.7413">
			<stop  offset="0.1687" style="stop-color:#74C94C"/>
			<stop  offset="0.7307" style="stop-color:#B0E859"/>
			<stop  offset="1" style="stop-color:#CEF760"/>
		</linearGradient>
		<path class="st1" d="M186.3,101.8c2,13.9-4.7,33.7-19.5,48.5c-0.6,0.6-1.2,1.2-1.8,1.8c2.5-20.6,2.4-42.4-7.9-60.3
			c1.9-2,3.8-4,5.8-6c0.7-0.7,1.3-1.3,2-2c1.2,0.6,2.2,0.4,4.4,0.4C175.7,84.1,184.5,89.3,186.3,101.8z"/>
		<linearGradient id="SVGID_2_" gradientUnits="userSpaceOnUse" x1="148.9693" y1="166.9779" x2="157.4548" y2="90.6089">
			<stop  offset="0.2005" style="stop-color:#74C94C"/>
			<stop  offset="0.6986" style="stop-color:#B0EA5E"/>
			<stop  offset="1" style="stop-color:#D6FF6A"/>
		</linearGradient>
		<path class="st2" d="M157.1,91.8c10.2,17.9,10.4,39.7,7.9,60.3c-9.8,9.4-20.8,16.1-31,20.7c9.8-22.5,16.4-46.4,14.1-70.9
			C150.9,98.5,153.9,95.2,157.1,91.8C157,91.9,157.1,91.8,157.1,91.8z"/>
		<linearGradient id="SVGID_3_" gradientUnits="userSpaceOnUse" x1="108.9479" y1="103.1482" x2="164.0807" y2="84.8177">
			<stop  offset="0" style="stop-color:#74C94C"/>
			<stop  offset="0.5482" style="stop-color:#B0E65D"/>
			<stop  offset="1" style="stop-color:#E4FF6B"/>
		</linearGradient>
		<path class="st3" d="M164.9,83.9c-0.7,0.6-1.3,1.3-2,2C163.6,85.2,164.2,84.5,164.9,83.9z"/>
		<linearGradient id="SVGID_4_" gradientUnits="userSpaceOnUse" x1="106.2647" y1="95.0779" x2="161.3975" y2="76.7474">
			<stop  offset="0" style="stop-color:#74C94C"/>
			<stop  offset="0.6761" style="stop-color:#B0E65D"/>
			<stop  offset="1" style="stop-color:#CEF465"/>
		</linearGradient>
		<path class="st4" d="M164.7,83.8c0.1,0.1,0.2,0.1,0.2,0.1c-0.7,0.6-1.3,1.3-2,2c-2,1.9-3.9,3.9-5.8,6c0,0,0,0-0.1,0.1
			c-11.1-3.6-22.4-3.3-33.3-0.5c-0.1-3.7-2.3-6.9-5.5-8.3c6.9-6.6,14.5-11,21.6-12.7c12.2-3,20.4,3.2,22.6,9.3
			C163.3,81.9,163.5,82.8,164.7,83.8z"/>
		<linearGradient id="SVGID_5_" gradientUnits="userSpaceOnUse" x1="90.6756" y1="127.574" x2="149.8062" y2="90.9183">
			<stop  offset="0" style="stop-color:#74C94C"/>
			<stop  offset="0.1877" style="stop-color:#7DCD4E"/>
			<stop  offset="0.4905" style="stop-color:#94D955"/>
			<stop  offset="0.8684" style="stop-color:#BBEC60"/>
			<stop  offset="1" style="stop-color:#CAF364"/>
		</linearGradient>
		<path class="st5" d="M157,91.9c-3.1,3.3-6.1,6.7-9,10.1c-0.1,0.1-0.1,0.1-0.2,0.2c-5.8,2.1-11.4,4.6-16.9,7.5
			c-1.7-2.2-4.4-3.7-7.5-3.7c-5.2,0-9.5,4.2-9.5,9.5c0,1.7,0.4,3.2,1.2,4.6c-6.8,5.4-12.7,11.7-17.5,18.8c-0.8-1.5-2.1-2.7-3.6-3.6
			c1.2-8.8,3.4-18.3,7.3-27.6c1.1,0.4,2.3,0.7,3.5,0.7c4.5,0,8.3-3.1,9.2-7.3c0,0,0,0,0,0c5.2,0,9.5-4.2,9.5-9.5c0-0.1,0-0.2,0-0.2
			C134.6,88.5,145.9,88.3,157,91.9z"/>
		<linearGradient id="SVGID_6_" gradientUnits="userSpaceOnUse" x1="116.9462" y1="178.014" x2="144.0996" y2="102.4935">
			<stop  offset="8.050356e-02" style="stop-color:#74C94C"/>
			<stop  offset="0.2413" style="stop-color:#7FCF4F"/>
			<stop  offset="0.5246" style="stop-color:#9DDE57"/>
			<stop  offset="0.8945" style="stop-color:#CCF765"/>
			<stop  offset="1" style="stop-color:#DBFF69"/>
		</linearGradient>
		<path class="st6" d="M148,102c2.3,24.4-4.2,48.4-14.1,70.9c-14.9,6.8-28.2,9.2-34.1,8.9c2.7-6.2,5.6-12.3,8.7-18.4
			c0.9-1.7,1.7-3.4,2.6-5.1c4.5-8.6,9.3-17.1,14.5-25.3c0.5-0.8,1-1.6,1.6-2.5c1.8-2.9,3.7-5.7,5.7-8.5c1.4-2,2.8-4,4.2-5.9
			c0.6-0.8,1.1-1.6,1.7-2.3c0.1-0.1,0.1-0.1,0.1-0.2c1.7-2.3,3.4-4.5,5.2-6.7c0.6-0.8,1.2-1.5,1.8-2.3c0.6-0.8,1.2-1.5,1.9-2.2
			C147.9,102.1,148,102.1,148,102z"/>
		<linearGradient id="SVGID_7_" gradientUnits="userSpaceOnUse" x1="66.8948" y1="139.68" x2="158.6407" y2="105.1511">
			<stop  offset="0.1667" style="stop-color:#74C94C"/>
			<stop  offset="0.5774" style="stop-color:#B0E65D"/>
			<stop  offset="0.9159" style="stop-color:#E4FF6B"/>
		</linearGradient>
		<path class="st7" d="M147.9,102.2c-0.6,0.7-1.2,1.5-1.9,2.2c-0.6,0.8-1.2,1.5-1.8,2.3c-1.8,2.2-3.5,4.5-5.2,6.7
			c0,0.1-0.1,0.1-0.1,0.2c-0.6,0.8-1.2,1.6-1.7,2.3c-1.4,1.9-2.8,3.9-4.2,5.9l-1.5-1c1-1.5,1.6-3.3,1.6-5.3c0-2.2-0.8-4.2-2-5.8
			C136.4,106.8,142.1,104.3,147.9,102.2z"/>
		<linearGradient id="SVGID_8_" gradientUnits="userSpaceOnUse" x1="65.3486" y1="135.5718" x2="157.0945" y2="101.0428">
			<stop  offset="0.1667" style="stop-color:#74C94C"/>
			<stop  offset="0.5774" style="stop-color:#B0E65D"/>
			<stop  offset="0.9159" style="stop-color:#E4FF6B"/>
		</linearGradient>
		<path class="st8" d="M146,104.4c-0.6,0.8-1.2,1.5-1.8,2.3C144.8,105.9,145.4,105.2,146,104.4z"/>
		<linearGradient id="SVGID_9_" gradientUnits="userSpaceOnUse" x1="66.3927" y1="138.346" x2="158.1386" y2="103.817">
			<stop  offset="0.1667" style="stop-color:#74C94C"/>
			<stop  offset="0.5774" style="stop-color:#B0E65D"/>
			<stop  offset="0.9159" style="stop-color:#E4FF6B"/>
		</linearGradient>
		<path class="st9" d="M139,113.4c1.7-2.3,3.4-4.5,5.2-6.7C142.4,108.9,140.7,111.1,139,113.4z"/>
		<linearGradient id="SVGID_10_" gradientUnits="userSpaceOnUse" x1="67.5031" y1="141.2963" x2="159.249" y2="106.7674">
			<stop  offset="0.1667" style="stop-color:#74C94C"/>
			<stop  offset="0.5774" style="stop-color:#B0E65D"/>
			<stop  offset="0.9159" style="stop-color:#E4FF6B"/>
		</linearGradient>
		<path class="st10" d="M138.8,113.6c-0.6,0.8-1.2,1.6-1.7,2.3C137.7,115.2,138.2,114.4,138.8,113.6z"/>
		<linearGradient id="SVGID_11_" gradientUnits="userSpaceOnUse" x1="75.6374" y1="162.91" x2="167.3833" y2="128.381">
			<stop  offset="0" style="stop-color:#74C94C"/>
			<stop  offset="0.5021" style="stop-color:#B0E65D"/>
			<stop  offset="0.9159" style="stop-color:#E4FF6B"/>
		</linearGradient>
		<path class="st11" d="M132.9,121.9c-1.9,2.8-3.8,5.6-5.7,8.5c-0.5,0.8-1,1.6-1.6,2.5c-5.2,8.2-10,16.7-14.5,25.3
			c-0.9,1.7-1.8,3.4-2.6,5.1c-3,6.1-5.9,12.2-8.7,18.4c-0.6,0-1.1-0.1-1.6-0.2c-2.2-3.5-5.1-14.7-5.2-29.2c3.4-1.4,5.8-4.8,5.8-8.7
			c0-1.7-0.4-3.3-1.2-4.7c4.8-7.2,10.7-13.4,17.5-18.8c1.6,2.9,4.7,4.9,8.3,4.9c3.3,0,6.2-1.7,7.9-4.2L132.9,121.9z"/>
		<linearGradient id="SVGID_12_" gradientUnits="userSpaceOnUse" x1="115.1975" y1="117.3536" x2="132.9875" y2="117.3536">
			<stop  offset="0" style="stop-color:#3E3255"/>
			<stop  offset="1" style="stop-color:#6B6E8A"/>
		</linearGradient>
		<path class="st12" d="M133,115.5c0,2-0.6,3.8-1.6,5.3c-1.7,2.5-4.6,4.2-7.9,4.2c-3.6,0-6.7-2-8.3-4.9c4.9-3.9,10.2-7.4,15.8-10.4
			C132.2,111.3,133,113.3,133,115.5z"/>
		<linearGradient id="SVGID_13_" gradientUnits="userSpaceOnUse" x1="114.0375" y1="113.0636" x2="130.9975" y2="113.0636">
			<stop  offset="0" style="stop-color:#544E61"/>
			<stop  offset="1" style="stop-color:#6F718E"/>
		</linearGradient>
		<path class="st13" d="M123.5,106c3,0,5.7,1.4,7.5,3.7c-5.6,3-10.9,6.4-15.8,10.4c-0.7-1.4-1.2-2.9-1.2-4.6
			C114,110.3,118.3,106,123.5,106z"/>
		<linearGradient id="SVGID_14_" gradientUnits="userSpaceOnUse" x1="71.6217" y1="152.24" x2="163.3676" y2="117.711">
			<stop  offset="0.1667" style="stop-color:#74C94C"/>
			<stop  offset="0.5774" style="stop-color:#B0E65D"/>
			<stop  offset="0.9159" style="stop-color:#E4FF6B"/>
		</linearGradient>
		<path class="st14" d="M127.2,130.4c-0.5,0.8-1,1.6-1.6,2.5C126.2,132,126.7,131.2,127.2,130.4z"/>
		<linearGradient id="SVGID_15_" gradientUnits="userSpaceOnUse" x1="113.5375" y1="96.2386" x2="123.7575" y2="96.2386">
			<stop  offset="0" style="stop-color:#977A84"/>
			<stop  offset="1" style="stop-color:#81726F"/>
		</linearGradient>
		<path class="st15" d="M123.8,91.4c0,0.1,0,0.2,0,0.2c0,5.2-4.2,9.5-9.5,9.5c0,0,0,0,0,0c0.2-0.7,0.2-1.4,0.2-2.1
			c0-1.5-0.3-2.8-0.9-4.1C116.9,93.5,120.3,92.3,123.8,91.4z"/>
		<linearGradient id="SVGID_16_" gradientUnits="userSpaceOnUse" x1="110.7675" y1="88.9486" x2="123.7575" y2="88.9486">
			<stop  offset="0" style="stop-color:#977A84"/>
			<stop  offset="1" style="stop-color:#81726F"/>
		</linearGradient>
		<path class="st16" d="M118.3,83c3.2,1.5,5.4,4.7,5.5,8.3c-3.5,0.9-6.9,2.1-10.2,3.5c-0.7-1.4-1.6-2.5-2.8-3.4
			C113.1,88.4,115.6,85.5,118.3,83z"/>
		<linearGradient id="SVGID_17_" gradientUnits="userSpaceOnUse" x1="105.0475" y1="86.7936" x2="118.2875" y2="86.7936">
			<stop  offset="0" style="stop-color:#977A84"/>
			<stop  offset="1" style="stop-color:#C1ABA7"/>
		</linearGradient>
		<path class="st17" d="M114.3,82.1c1.4,0,2.8,0.3,4,0.9c-2.6,2.5-5.2,5.3-7.5,8.4c-1.6-1.2-3.6-1.9-5.7-2
			C106,85.3,109.8,82.1,114.3,82.1z"/>
		<linearGradient id="SVGID_18_" gradientUnits="userSpaceOnUse" x1="107.1375" y1="97.9786" x2="114.4675" y2="97.9786">
			<stop  offset="0" style="stop-color:#625268"/>
			<stop  offset="0.9932" style="stop-color:#726D7A"/>
		</linearGradient>
		<path class="st18" d="M114.5,99c0,0.7-0.1,1.4-0.2,2.1c-2.8,0-5.4-1.3-7.1-3.3c2.1-1.1,4.2-2.1,6.4-3
			C114.1,96.1,114.5,97.5,114.5,99z"/>
		<linearGradient id="SVGID_19_" gradientUnits="userSpaceOnUse" x1="106.7375" y1="94.6386" x2="113.5375" y2="94.6386">
			<stop  offset="0" style="stop-color:#625268"/>
			<stop  offset="0.9932" style="stop-color:#726D7A"/>
		</linearGradient>
		<path class="st19" d="M110.8,91.4c1.2,0.9,2.1,2.1,2.8,3.4c-2.2,0.9-4.3,1.9-6.4,3h0c-0.1-0.1-0.3-0.3-0.4-0.5
			C108,95.3,109.3,93.3,110.8,91.4z"/>
		<linearGradient id="SVGID_20_" gradientUnits="userSpaceOnUse" x1="101.4675" y1="103.1336" x2="114.2275" y2="103.1336">
			<stop  offset="0" style="stop-color:#625268"/>
			<stop  offset="0.9932" style="stop-color:#726D7A"/>
		</linearGradient>
		<path class="st20" d="M114.2,101.1c-1,4.2-4.7,7.3-9.2,7.3c-1.2,0-2.4-0.2-3.5-0.7c0.2-0.5,0.4-0.9,0.6-1.3c1.2-2.8,2.6-5.5,4.1-8
			c0.3-0.2,0.7-0.3,1-0.5h0C108.9,99.8,111.4,101.1,114.2,101.1z"/>
		<linearGradient id="SVGID_21_" gradientUnits="userSpaceOnUse" x1="79.1698" y1="172.2956" x2="170.9157" y2="137.7666">
			<stop  offset="0.1667" style="stop-color:#74C94C"/>
			<stop  offset="0.5774" style="stop-color:#B0E65D"/>
			<stop  offset="0.9159" style="stop-color:#E4FF6B"/>
		</linearGradient>
		<path class="st21" d="M108.6,163.3c0.9-1.7,1.7-3.4,2.6-5.1C110.3,159.9,109.4,161.6,108.6,163.3z"/>
		<linearGradient id="SVGID_22_" gradientUnits="userSpaceOnUse" x1="106.1275" y1="97.8536" x2="107.1275" y2="97.8536">
			<stop  offset="0" style="stop-color:#524557"/>
			<stop  offset="0.9932" style="stop-color:#64606B"/>
		</linearGradient>
		<path class="st22" d="M107.1,97.8c-0.3,0.2-0.7,0.4-1,0.5c0.2-0.3,0.4-0.7,0.6-1C106.9,97.5,107,97.7,107.1,97.8z"/>
		<path class="st23" d="M110.8,91.4c-1.4,1.9-2.8,3.8-4,5.9c-1.2-1.6-1.9-3.6-1.9-5.7c0-0.7,0.1-1.5,0.2-2.1
			C107.2,89.5,109.2,90.2,110.8,91.4z"/>
		<linearGradient id="SVGID_23_" gradientUnits="userSpaceOnUse" x1="95.5175" y1="98.6136" x2="106.7375" y2="98.6136">
			<stop  offset="0" style="stop-color:#6C5A72"/>
			<stop  offset="1" style="stop-color:#827D8B"/>
		</linearGradient>
		<path class="st24" d="M106.7,97.4c-0.2,0.3-0.4,0.7-0.6,1c-1.5,2.5-2.9,5.2-4.1,8c-0.2,0.5-0.4,0.9-0.6,1.3
			c-3.5-1.4-5.9-4.8-5.9-8.8c0-5.2,4.2-9.5,9.5-9.5c0,0,0,0,0.1,0c-0.2,0.7-0.2,1.4-0.2,2.1C104.8,93.8,105.5,95.8,106.7,97.4z"/>
		<linearGradient id="SVGID_24_" gradientUnits="userSpaceOnUse" x1="87.5675" y1="78.2636" x2="107.1175" y2="78.2636">
			<stop  offset="0" style="stop-color:#876F70"/>
			<stop  offset="1" style="stop-color:#6A5965"/>
		</linearGradient>
		<path class="st25" d="M97.3,68.5c5.4,0,9.8,4.4,9.8,9.8c0,5.4-4.4,9.8-9.8,9.8c-5.4,0-9.8-4.4-9.8-9.8
			C87.6,72.9,91.9,68.5,97.3,68.5z"/>
		<path class="st26" d="M97.7,138.9c0.8,1.4,1.2,3,1.2,4.7c0,3.9-2.4,7.3-5.8,8.7c0-1.8,0-3.7,0.1-5.6C94.5,144,96,141.4,97.7,138.9
			z"/>
		<path class="st26" d="M94.1,135.3c1.5,0.8,2.7,2.1,3.6,3.6c-1.7,2.5-3.2,5.1-4.5,7.8C93.3,143.1,93.6,139.3,94.1,135.3z"/>
		<path class="st27" d="M94.1,135.3c-0.5,3.9-0.8,7.7-1,11.4c-0.1,1.9-0.1,3.8-0.1,5.6c-1.1,0.5-2.4,0.7-3.7,0.7
			c-5.2,0-9.5-4.2-9.5-9.5c0-5.2,4.2-9.5,9.5-9.5C91.2,134.1,92.8,134.5,94.1,135.3z"/>
		<linearGradient id="SVGID_25_" gradientUnits="userSpaceOnUse" x1="65.3675" y1="105.6386" x2="84.9175" y2="105.6386">
			<stop  offset="0" style="stop-color:#4B3E68"/>
			<stop  offset="1" style="stop-color:#62647E"/>
		</linearGradient>
		<path class="st28" d="M75.1,95.9c5.4,0,9.8,4.4,9.8,9.8c0,5.4-4.4,9.8-9.8,9.8c-5.4,0-9.8-4.4-9.8-9.8
			C65.4,100.2,69.7,95.9,75.1,95.9z"/>
	</g>
</g>
</svg>
