<?xml version="1.0" encoding="utf-8"?>
<!-- Generator: Adobe Illustrator 20.0.0, SVG Export Plug-In . SVG Version: 6.00 Build 0)  -->
<svg version="1.1" xmlns="http://www.w3.org/2000/svg" xmlns:xlink="http://www.w3.org/1999/xlink" x="0px" y="0px"
	 viewBox="0 0 250 250" style="enable-background:new 0 0 250 250;" xml:space="preserve">
<style type="text/css">
	.st0{fill:#F7FCF4;}
	.st1{fill:url(#SVGID_1_);}
	.st2{fill:url(#SVGID_2_);}
	.st3{fill:url(#SVGID_3_);}
	.st4{fill:url(#SVGID_4_);}
	.st5{fill:url(#SVGID_5_);}
	.st6{fill:url(#SVGID_6_);}
	.st7{fill:url(#SVGID_7_);}
	.st8{fill:url(#SVGID_8_);}
	.st9{fill:url(#SVGID_9_);}
	.st10{fill:url(#SVGID_10_);}
	.st11{fill:url(#SVGID_11_);}
	.st12{fill:url(#SVGID_12_);}
	.st13{fill:#F5F5F5;}
</style>
<g id="colored_x5F_circles">
	<circle class="st0" cx="126" cy="125.1" r="100"/>
</g>
<g id="icons">
	<g id="XMLID_14_">
		<g>
			<linearGradient id="SVGID_1_" gradientUnits="userSpaceOnUse" x1="79.1477" y1="177.0732" x2="84.0543" y2="187.8055">
				<stop  offset="0" style="stop-color:#E3DDAB"/>
				<stop  offset="1" style="stop-color:#E0B279"/>
			</linearGradient>
			<path class="st1" d="M85.3,187c-1.2,2.3-10.9-4.4-9-6.3c0.8-0.8,1-1.8,1.1-2.9c1.6,2.5,8,6.9,10.5,7.2
				C86.8,185.5,85.8,186.1,85.3,187z"/>
			<linearGradient id="SVGID_2_" gradientUnits="userSpaceOnUse" x1="177.7271" y1="62.7422" x2="82.9212" y2="181.3764">
				<stop  offset="0.1824" style="stop-color:#50D11E"/>
				<stop  offset="0.3804" style="stop-color:#83DD53"/>
				<stop  offset="0.7258" style="stop-color:#D8F2AA"/>
				<stop  offset="0.8829" style="stop-color:#FAFACC"/>
			</linearGradient>
			<path class="st2" d="M98.2,181.9c-3.5,2-7.5,2.2-10.2,3.2c-2.5-0.3-8.9-4.7-10.5-7.2c0.1-2.5-0.9-5.8,0.3-9.6
				c0.9-3,5.2-8.5,10.6-14.9c6.7-3.1,13.3-6.2,18.6-8.6c5.9-2.7,17.2-8.7,30-15.6c-4.2,6.4-8,12-10.7,16
				C116.6,159.4,104.3,178.3,98.2,181.9z"/>
			<linearGradient id="SVGID_3_" gradientUnits="userSpaceOnUse" x1="178.4728" y1="136.5681" x2="49.6426" y2="143.4314">
				<stop  offset="9.299582e-02" style="stop-color:#6ADB2E"/>
				<stop  offset="0.4065" style="stop-color:#A1E76B"/>
				<stop  offset="0.9288" style="stop-color:#FAFACC"/>
			</linearGradient>
			<path class="st3" d="M88.3,153.3c-13.2,6.1-26.9,12.1-31.9,12.6c-3.4,0.4-6.1-0.2-8.3-0.2c-0.1,0-0.2,0-0.3,0
				c-1.9-0.5-5.7-8.9-4.8-11c1.4-1.7,2.8-4.1,5.3-6.5c5.3-4.9,35.3-16.8,51.3-22.9c4.2-1.6,12-4.8,21.5-8.6c-4.2,4.6-7.7,8.5-9.9,11
				C104.7,135.1,95.5,144.9,88.3,153.3z"/>
			<linearGradient id="SVGID_4_" gradientUnits="userSpaceOnUse" x1="40.2897" y1="155.8838" x2="45.2924" y2="166.8264">
				<stop  offset="0" style="stop-color:#E3DDAB"/>
				<stop  offset="1" style="stop-color:#E0B279"/>
			</linearGradient>
			<path class="st4" d="M44.1,166.6c-2.2,1.4-6.9-8.9-4.4-9.6c1.3-0.4,2.3-1.2,3.2-2.3c-0.9,2.2,2.9,10.6,4.8,11
				C46.4,165.7,45.2,165.9,44.1,166.6z"/>
			<linearGradient id="SVGID_5_" gradientUnits="userSpaceOnUse" x1="217.5287" y1="95.9453" x2="-22.4954" y2="176.4999">
				<stop  offset="0.2766" style="stop-color:#00BF26"/>
				<stop  offset="0.5446" style="stop-color:#50CE58"/>
				<stop  offset="0.8553" style="stop-color:#A6DE8E"/>
				<stop  offset="0.9968" style="stop-color:#C9E4A4"/>
			</linearGradient>
			<path class="st5" d="M88.3,153.3c7.2-8.4,16.4-18.2,22.8-25.6c2.2-2.6,5.7-6.4,9.9-11c9.9-4,21.5-8.8,32.8-13.4
				c-5.8,8.8-11.8,17.9-17,25.8c-12.8,7-24,12.9-30,15.6C101.6,147.1,95,150.2,88.3,153.3z"/>
			<linearGradient id="SVGID_6_" gradientUnits="userSpaceOnUse" x1="199.7367" y1="105.576" x2="-7.5714" y2="116.62">
				<stop  offset="9.299582e-02" style="stop-color:#6ADB2E"/>
				<stop  offset="0.4065" style="stop-color:#A1E76B"/>
				<stop  offset="0.9288" style="stop-color:#FAFACC"/>
			</linearGradient>
			<path class="st6" d="M201.9,92.8c-8.3,4.8-39.7,22.5-65,36.2c5.2-7.9,11.2-16.9,17-25.8c20.2-8.2,39.2-15.9,44.7-17.8
				C199.8,85.1,203.2,91.9,201.9,92.8z"/>
			<linearGradient id="SVGID_7_" gradientUnits="userSpaceOnUse" x1="201.8865" y1="73.9604" x2="49.8245" y2="124.9939">
				<stop  offset="0.3796" style="stop-color:#4FD11F"/>
				<stop  offset="0.5326" style="stop-color:#82DD53"/>
				<stop  offset="0.8049" style="stop-color:#D8F2A9"/>
				<stop  offset="0.9288" style="stop-color:#FAFACC"/>
			</linearGradient>
			<path class="st7" d="M52.1,131.2c-2-0.4-5.5-12-3.8-13.4l-0.1-0.1c2.3-2.5,4.5-6.7,8.2-9.5c6.6-5,50.2-12.9,69.2-17.9
				c6.9-1.8,16.2-4.2,26.1-6.8c-8.2,8.9-17.5,18.9-25.3,27.4c-19.6,8.5-53.8,23.5-61.7,23.4c-4.9-0.1-9.2-2.5-12.5-3L52.1,131.2z"/>
			<linearGradient id="SVGID_8_" gradientUnits="userSpaceOnUse" x1="233.971" y1="63.0665" x2="-64.3085" y2="203.0202">
				<stop  offset="0.1409" style="stop-color:#50D11E"/>
				<stop  offset="0.1762" style="stop-color:#5BD32B"/>
				<stop  offset="0.4322" style="stop-color:#AADF82"/>
				<stop  offset="0.5484" style="stop-color:#C9E4A4"/>
				<stop  offset="0.7818" style="stop-color:#FAFACC"/>
			</linearGradient>
			<path class="st8" d="M153.9,103.3c-11.3,4.6-23,9.4-32.8,13.4c1.7-1.8,3.5-3.8,5.4-5.8c1.9-0.8,3.6-1.6,5.2-2.3
				c6.3-2.7,15.9-6.9,26.2-11.3C156.5,99.3,155.2,101.3,153.9,103.3z"/>
			<linearGradient id="SVGID_9_" gradientUnits="userSpaceOnUse" x1="212.0755" y1="72.6637" x2="52.8448" y2="126.1031">
				<stop  offset="0.2766" style="stop-color:#00BF26"/>
				<stop  offset="0.5446" style="stop-color:#50CE58"/>
				<stop  offset="0.8553" style="stop-color:#A6DE8E"/>
				<stop  offset="0.9968" style="stop-color:#C9E4A4"/>
			</linearGradient>
			<path class="st9" d="M131.6,108.6c-1.6,0.7-3.3,1.4-5.2,2.3c7.8-8.5,17.1-18.5,25.3-27.4c6.1-1.6,12.4-3.3,18.5-4.9
				c-3.6,5.4-7.9,11.9-12.4,18.7C147.5,101.8,137.9,105.9,131.6,108.6z"/>
			<linearGradient id="SVGID_10_" gradientUnits="userSpaceOnUse" x1="45.3246" y1="118.8382" x2="50.6178" y2="131.9295">
				<stop  offset="0" style="stop-color:#E3DDAB"/>
				<stop  offset="1" style="stop-color:#E0B279"/>
			</linearGradient>
			<path class="st10" d="M52.1,131.2l0,0.2c-1.2-0.2-2.2-0.1-3.1,0.4c-2.7,1.3-6.9-11.7-3.9-12c1.2-0.2,2.2-0.9,3.2-2l0.1,0.1
				C46.6,119.2,50.2,130.7,52.1,131.2z"/>
			<linearGradient id="SVGID_11_" gradientUnits="userSpaceOnUse" x1="204.9848" y1="74.2004" x2="26.1203" y2="134.2292">
				<stop  offset="0" style="stop-color:#61E727"/>
				<stop  offset="1.730641e-02" style="stop-color:#64E72B"/>
				<stop  offset="0.4612" style="stop-color:#ACE582"/>
				<stop  offset="0.6627" style="stop-color:#C9E4A4"/>
				<stop  offset="0.9288" style="stop-color:#FAFACC"/>
			</linearGradient>
			<path class="st11" d="M206,77.3c-7.1,2.5-28.9,11.8-48.2,20.1c4.5-6.9,8.8-13.3,12.4-18.7c14.7-3.9,28-7.5,33.3-9
				C205,69.2,207.7,76.3,206,77.3z"/>
			<linearGradient id="SVGID_12_" gradientUnits="userSpaceOnUse" x1="177.6513" y1="66.4586" x2="51.4635" y2="125.6663">
				<stop  offset="0" style="stop-color:#6BE21E"/>
				<stop  offset="4.750101e-02" style="stop-color:#74E22B"/>
				<stop  offset="0.392" style="stop-color:#B1E382"/>
				<stop  offset="0.5484" style="stop-color:#C9E4A4"/>
				<stop  offset="0.7818" style="stop-color:#FAFACC"/>
			</linearGradient>
			<path class="st12" d="M170.2,78.6c-6.1,1.6-12.4,3.3-18.5,4.9c9.9-10.7,18.2-19.9,20.6-23.1c0.9-1,7.5,3.3,6.8,4.8
				C177.7,67.2,174.5,72.1,170.2,78.6z"/>
		</g>
		<g>
		</g>
	</g>
	<path class="st13" d="M203.5,69.5c-5.3,1.6-18.6,5.1-33.3,9c4.3-6.5,7.5-11.4,8.9-13.4c0.6-1.5-5.9-5.8-6.8-4.8
		c-2.4,3.2-10.7,12.3-20.6,23.1c-9.9,2.6-19.2,5-26.1,6.8c-19,5-62.6,12.9-69.2,17.9c-3.7,2.8-5.8,7-8.2,9.5c-1,1-2,1.8-3.2,2
		c-3,0.4,1.2,13.4,3.9,12c0.9-0.5,2-0.5,3.1-0.4c3.4,0.5,7.6,2.9,12.6,3c8,0.1,42.1-14.9,61.7-23.4c-1.9,2-3.7,4-5.4,5.8
		c-9.5,3.8-17.3,7-21.5,8.6c-16,6.1-46,18-51.3,22.9c-2.6,2.4-3.9,4.8-5.3,6.5c-0.9,1.1-1.8,1.9-3.2,2.3c-2.6,0.6,2.2,11,4.4,9.6
		c1.1-0.7,2.2-0.9,3.6-0.9c0.1,0,0.2,0,0.3,0c2.2,0.1,4.9,0.6,8.3,0.2c5-0.6,18.7-6.6,31.9-12.6c-5.4,6.4-9.7,11.9-10.6,14.9
		c-1.1,3.8-0.2,7.1-0.3,9.6c0,1.1-0.3,2.1-1.1,2.9c-1.9,1.8,7.7,8.6,9,6.3c0.5-1,1.4-1.5,2.6-2c2.7-1,6.8-1.1,10.3-3.2
		c6.2-3.6,18.4-22.5,28-36.8c2.7-4.1,6.5-9.7,10.7-16c25.3-13.7,56.7-31.4,65-36.2c1.3-1-2.1-7.7-3.3-7.3
		c-5.4,1.8-24.5,9.5-44.7,17.8c1.3-2,2.6-4,3.9-6C177.1,89,199,79.8,206,77.3C207.6,76.3,205,69.2,203.5,69.5z"/>
</g>
</svg>
