<?xml version="1.0" encoding="utf-8"?>
<!-- Generator: Adobe Illustrator 20.0.0, SVG Export Plug-In . SVG Version: 6.00 Build 0)  -->
<svg version="1.1" xmlns="http://www.w3.org/2000/svg" xmlns:xlink="http://www.w3.org/1999/xlink" x="0px" y="0px"
	 viewBox="0 0 250 250" style="enable-background:new 0 0 250 250;" xml:space="preserve">
<style type="text/css">
	.st0{fill:#FFFDE7;}
	.st1{fill:url(#SVGID_1_);}
	.st2{fill:url(#SVGID_2_);}
	.st3{fill:url(#SVGID_3_);}
	.st4{fill:url(#SVGID_4_);}
	.st5{fill:url(#SVGID_5_);}
	.st6{fill:url(#SVGID_6_);}
	.st7{fill:url(#SVGID_7_);}
	.st8{fill:url(#SVGID_8_);}
	.st9{fill:url(#SVGID_9_);}
	.st10{fill:url(#SVGID_10_);}
	.st11{fill:url(#SVGID_11_);}
	.st12{fill:url(#SVGID_12_);}
	.st13{fill:url(#SVGID_13_);}
	.st14{fill:url(#SVGID_14_);}
</style>
<g id="colored_x5F_circles">
	<circle class="st0" cx="126" cy="125.1" r="100"/>
</g>
<g id="icons">
	<g>
		<g>
			<linearGradient id="SVGID_1_" gradientUnits="userSpaceOnUse" x1="125.2669" y1="179.509" x2="125.2669" y2="202.7999">
				<stop  offset="0" style="stop-color:#BCE934"/>
				<stop  offset="1" style="stop-color:#FFFFA8"/>
			</linearGradient>
			<path class="st1" d="M129.3,200.2c0,3.5-8,3.5-8,0v-20.7h8V200.2z"/>
		</g>
		<g id="XMLID_5_">
			<g>
				<linearGradient id="SVGID_2_" gradientUnits="userSpaceOnUse" x1="154.2378" y1="170.9426" x2="199.1806" y2="84.1719">
					<stop  offset="0" style="stop-color:#FFC200"/>
					<stop  offset="3.914898e-03" style="stop-color:#FFC301"/>
					<stop  offset="0.2142" style="stop-color:#FFDC36"/>
					<stop  offset="0.3965" style="stop-color:#FFEF5D"/>
					<stop  offset="0.5419" style="stop-color:#FFFB74"/>
					<stop  offset="0.6322" style="stop-color:#FFFF7D"/>
					<stop  offset="1" style="stop-color:#FFFF7D"/>
				</linearGradient>
				<path class="st2" d="M142.9,163.9c0-6.1-1.5-7.8-2.5-10.9c7.3-12.4,22-10.7,33.8-27.5c13.9-19.9,2.7-48.8,9.7-48.8
					c8.6,0,27.5,40.8,7.8,64.8c-15.8,19.3-47.7,9.6-48.7,23.5h-0.1C142.9,164.7,142.9,164.3,142.9,163.9z"/>
				<linearGradient id="SVGID_3_" gradientUnits="userSpaceOnUse" x1="134.2688" y1="111.2667" x2="134.2688" y2="93.354">
					<stop  offset="0" style="stop-color:#FFC300"/>
					<stop  offset="1" style="stop-color:#FFEC69"/>
				</linearGradient>
				<path class="st3" d="M131.7,93.4c1.7,2.5,3.5,5.7,5.1,9.2c-0.7,3.1-1.5,6-2.4,8.7C134.3,105,133.3,98.9,131.7,93.4z"/>
				<linearGradient id="SVGID_4_" gradientUnits="userSpaceOnUse" x1="146.4785" y1="152.6768" x2="156.193" y2="58.2296">
					<stop  offset="0" style="stop-color:#FFF6AB"/>
					<stop  offset="1" style="stop-color:#FFF904"/>
				</linearGradient>
				<path class="st4" d="M131.9,151c0-10.4,12.9-10.9,10.8-28.9c-0.7-5.9-3-13.2-5.9-19.5c0-0.1,0-0.1,0-0.2
					c4.4-19.8,4.7-44.9,11.4-44.9c6.6,0,21.4,19.8,17.5,52.9c-1.4,12-8.2,18.5-15.3,23.2c-9,6-18.6,9.3-18.6,17.6
					C131.9,151.1,131.9,151,131.9,151z"/>
				<linearGradient id="SVGID_5_" gradientUnits="userSpaceOnUse" x1="119.0038" y1="100.7505" x2="121.8853" y2="70.3341">
					<stop  offset="0" style="stop-color:#FFE000"/>
					<stop  offset="1" style="stop-color:#FFFF00"/>
				</linearGradient>
				<path class="st5" d="M115.9,69.8c4.8,0,12,10.1,15.8,23.6c-2.2-3.1-4.3-5.2-6.1-5.5c-3-0.5-6.9,5.1-10.2,12.6
					c0-0.1-0.1-0.2-0.1-0.2c-2-5.8-3.5-17-5.7-26.5C111.9,71.2,114.2,69.8,115.9,69.8z"/>
				<linearGradient id="SVGID_6_" gradientUnits="userSpaceOnUse" x1="124.8788" y1="138.6335" x2="124.8788" y2="87.7788">
					<stop  offset="0" style="stop-color:#FFC300"/>
					<stop  offset="1" style="stop-color:#FFDF21"/>
				</linearGradient>
				<path class="st6" d="M115.4,100.4c3.4-7.5,7.2-13.1,10.2-12.6c1.8,0.3,4,2.4,6.1,5.5c1.6,5.5,2.6,11.7,2.7,17.9
					c-3.7,11.4-8.8,19.7-12,27.4C126.9,125.3,119,110.9,115.4,100.4z"/>
				<linearGradient id="SVGID_7_" gradientUnits="userSpaceOnUse" x1="129.2606" y1="102.93" x2="132.4892" y2="164.9922">
					<stop  offset="0" style="stop-color:#FFE60F"/>
					<stop  offset="1" style="stop-color:#FFD300"/>
				</linearGradient>
				<path class="st7" d="M128.7,163.3c-1.8,2.7-4.5,2.7-6.3,0c-1.9-2.9-3.1-7.1-3.1-12.3c0,0,0-0.1,0-0.1c0,0,0,0,0,0
					c0.1-3.4,0.9-6.6,2.1-9.9c0-0.1,0-0.1,0.1-0.2c0.3-0.7,0.6-1.5,0.9-2.2c0,0,0,0,0,0c3.2-7.7,8.3-16,12-27.4
					c0.9-2.7,1.7-5.6,2.4-8.7c2.9,6.3,5.2,13.6,5.9,19.5c2.1,18-10.8,18.6-10.8,28.9c0,0.1,0,0.1,0,0.2
					C131.8,156.3,130.7,160.3,128.7,163.3z"/>
				<linearGradient id="SVGID_8_" gradientUnits="userSpaceOnUse" x1="128.1382" y1="181.6976" x2="144.7955" y2="155.8574">
					<stop  offset="3.002805e-02" style="stop-color:#FFFDB9"/>
					<stop  offset="0.4002" style="stop-color:#FFE521"/>
					<stop  offset="0.8328" style="stop-color:#FFC400"/>
				</linearGradient>
				<path class="st8" d="M125.6,179.9c6,0,9.4-14.9,13.6-24.4c0.4-0.9,0.8-1.7,1.2-2.4c1,3.1,2.5,4.7,2.5,10.9c0,0.4,0,0.8,0,1.1
					c-0.6,6.3-5.9,15-16.8,15c-0.2,0-0.3,0-0.5,0V179.9z"/>
				<linearGradient id="SVGID_9_" gradientUnits="userSpaceOnUse" x1="115.9004" y1="150.9307" x2="115.9004" y2="100.4053">
					<stop  offset="0.3457" style="stop-color:#FF9704"/>
					<stop  offset="1" style="stop-color:#FFCD00"/>
				</linearGradient>
				<path class="st9" d="M119.3,150.9c0-10.3-14-11-10.8-28.9c1.2-6.7,3.8-14.9,6.8-21.6c3.6,10.5,11.6,24.9,7,38.2c0,0,0,0,0,0
					c-0.3,0.7-0.6,1.5-0.9,2.2c0,0.1,0,0.1-0.1,0.2C120.2,144.3,119.4,147.6,119.3,150.9z"/>
				<linearGradient id="SVGID_10_" gradientUnits="userSpaceOnUse" x1="122.6602" y1="181.7326" x2="107.607" y2="156.1196">
					<stop  offset="0" style="stop-color:#FFFFAD"/>
					<stop  offset="0.3949" style="stop-color:#FFEC69"/>
					<stop  offset="1" style="stop-color:#FFA800"/>
				</linearGradient>
				<path class="st10" d="M111.4,153.9c7.1,9.1,8.2,19.7,11,24c0.8,1.3,1.8,2,3.2,2v0.2c-10.9-0.3-16.1-9.2-16.4-15.5
					c0-0.2,0-0.3,0-0.5c0,0,0-0.1,0-0.1C109.1,159,110.3,156.5,111.4,153.9z"/>
				<linearGradient id="SVGID_11_" gradientUnits="userSpaceOnUse" x1="106.6817" y1="151.5847" x2="106.6817" y2="73.7068">
					<stop  offset="0" style="stop-color:#FF9300"/>
					<stop  offset="9.508741e-02" style="stop-color:#FFA10B"/>
					<stop  offset="0.3299" style="stop-color:#FFBF22"/>
					<stop  offset="0.5618" style="stop-color:#FFD433"/>
					<stop  offset="0.7876" style="stop-color:#FFE13D"/>
					<stop  offset="1" style="stop-color:#FFE540"/>
				</linearGradient>
				<path class="st11" d="M106,135.9c-5.4-4.7-12-10.6-12-22.8c0-15.5,8.4-32,15.5-39.4c2.2,9.5,3.8,20.7,5.7,26.5
					c0,0.1,0.1,0.2,0.1,0.2c-3,6.7-5.6,14.9-6.8,21.6c-3.2,17.9,10.8,18.6,10.8,28.9c0,0,0,0,0,0c0,0,0,0.1,0,0.1c0,0.2,0,0.4,0,0.5
					C118.6,144.7,112.3,140.7,106,135.9z"/>
				<linearGradient id="SVGID_12_" gradientUnits="userSpaceOnUse" x1="128.241" y1="133.6008" x2="128.241" y2="179.8612">
					<stop  offset="4.587340e-03" style="stop-color:#FF9B40"/>
					<stop  offset="0.1908" style="stop-color:#FFB02F"/>
					<stop  offset="0.5235" style="stop-color:#FFCF15"/>
					<stop  offset="0.8051" style="stop-color:#FFE206"/>
					<stop  offset="1" style="stop-color:#FFE900"/>
				</linearGradient>
				<path class="st12" d="M106,135.9c6.3,4.8,12.6,8.8,13.3,15.7c0-0.2,0-0.4,0-0.5c0,5.2,1.2,9.4,3.1,12.3c1.8,2.7,4.5,2.7,6.3,0
					c2-3,3.1-7,3.1-12.1c0-8.3,9.6-11.5,18.6-17.6l0.1,0.1c-5,3.4-10.8,7.8-10.8,13.7c0,2.5,0.3,4.2,0.7,5.6
					c-0.4,0.8-0.9,1.5-1.2,2.4c-4.2,9.5-7.7,24.4-13.6,24.4c-1.3,0-2.3-0.7-3.2-2c-2.9-4.3-4-14.9-11-24c0.4-1,0.8-2.1,1.1-3.3
					c0,0,0,0,0-0.1c0.3-1.3,0.5-2.7,0.5-4.5h0C113,142,109.8,139.2,106,135.9z"/>
				<linearGradient id="SVGID_13_" gradientUnits="userSpaceOnUse" x1="101.3855" y1="169.898" x2="49.5377" y2="101.503">
					<stop  offset="5.879407e-02" style="stop-color:#FFA800"/>
					<stop  offset="0.144" style="stop-color:#FFB70D"/>
					<stop  offset="0.3673" style="stop-color:#FFDB2B"/>
					<stop  offset="0.5496" style="stop-color:#FFF13D"/>
					<stop  offset="0.6671" style="stop-color:#FFF944"/>
					<stop  offset="0.6857" style="stop-color:#FFFA46"/>
					<stop  offset="0.8318" style="stop-color:#FFFE51"/>
					<stop  offset="1" style="stop-color:#FFFF54"/>
				</linearGradient>
				<path class="st13" d="M109.1,164c-0.8-14.8-27.7,0.7-48-18.5c-16-15.2-8.2-50.8-2-50.8c6.2,0,2.8,26.5,19.5,38.7
					c13,9.5,23.5,9.1,32.2,19.7c0.2,0.2,0.4,0.5,0.6,0.7C110.3,156.5,109.1,159,109.1,164C109.1,164,109.1,164,109.1,164z"/>
				<linearGradient id="SVGID_14_" gradientUnits="userSpaceOnUse" x1="89.3162" y1="59.26" x2="104.6709" y2="151.7921">
					<stop  offset="0" style="stop-color:#FFFF2B"/>
					<stop  offset="0.2053" style="stop-color:#FFFB2C"/>
					<stop  offset="0.4053" style="stop-color:#FFEF2E"/>
					<stop  offset="0.6031" style="stop-color:#FFDC32"/>
					<stop  offset="0.7997" style="stop-color:#FFC038"/>
					<stop  offset="0.9936" style="stop-color:#FF9D40"/>
					<stop  offset="1" style="stop-color:#FF9C40"/>
				</linearGradient>
				<path class="st14" d="M112.5,150.5c1.7-11.9-31.9-13-31.9-38.4c0-23,11.4-54.6,20-54.6c4.2,0,6.8,7.4,8.9,16.3
					C102.4,81.1,94,97.6,94,113.1c0,12.2,6.6,18.1,12,22.8c3.8,3.3,7,6.1,7,10.1h0C113,147.8,112.8,149.2,112.5,150.5z"/>
			</g>
			<g>
			</g>
		</g>
	</g>
</g>
</svg>
