<?xml version="1.0" encoding="utf-8"?>
<!-- Generator: Adobe Illustrator 20.0.0, SVG Export Plug-In . SVG Version: 6.00 Build 0)  -->
<svg version="1.1" xmlns="http://www.w3.org/2000/svg" xmlns:xlink="http://www.w3.org/1999/xlink" x="0px" y="0px"
	 viewBox="0 0 250 250" style="enable-background:new 0 0 250 250;" xml:space="preserve">
<style type="text/css">
	.st0{fill:#FBF9F4;}
	.st1{fill:url(#SVGID_1_);}
	.st2{fill:url(#SVGID_2_);}
	.st3{fill:url(#SVGID_3_);}
	.st4{fill:#A3684E;}
	.st5{fill:url(#SVGID_4_);}
	.st6{fill:url(#SVGID_5_);}
	.st7{fill:url(#SVGID_6_);}
	.st8{fill:url(#SVGID_7_);}
	.st9{fill:url(#SVGID_8_);}
	.st10{fill:url(#SVGID_9_);}
	.st11{fill:url(#SVGID_10_);}
	.st12{fill:url(#SVGID_11_);}
	.st13{fill:url(#SVGID_12_);}
	.st14{fill:#8F6453;}
	.st15{fill:#D6986F;}
	.st16{fill:url(#SVGID_13_);}
	.st17{fill:url(#SVGID_14_);}
	.st18{fill:url(#SVGID_15_);}
	.st19{fill:url(#SVGID_16_);}
	.st20{fill:#855D4D;}
	.st21{fill:url(#SVGID_17_);}
	.st22{fill:url(#SVGID_18_);}
	.st23{fill:#D9A07C;}
	.st24{fill:url(#SVGID_19_);}
</style>
<g id="colored_x5F_circles">
	<circle class="st0" cx="126.2" cy="125.1" r="100"/>
</g>
<g id="icons">
	<g id="XMLID_12_">
		<g>
			<linearGradient id="SVGID_1_" gradientUnits="userSpaceOnUse" x1="-150.5941" y1="309.5435" x2="187.4556" y2="81.7274">
				<stop  offset="0" style="stop-color:#BF876B"/>
				<stop  offset="0.5669" style="stop-color:#AD775E"/>
				<stop  offset="1" style="stop-color:#A67058"/>
			</linearGradient>
			<path class="st1" d="M181.2,81.1c5-2.5,10.5,6.1,5.6,9.2c-9,2.4-24.7,6.6-40.1,10.8C158.2,94.1,169.7,87.5,181.2,81.1z"/>
			<linearGradient id="SVGID_2_" gradientUnits="userSpaceOnUse" x1="97.0083" y1="132.7598" x2="237.7472" y2="67.2925">
				<stop  offset="0" style="stop-color:#8C604B"/>
				<stop  offset="1" style="stop-color:#7A4D3D"/>
			</linearGradient>
			<path class="st2" d="M146.7,101c15.4-4.1,31.1-8.3,40.1-10.8c-0.1,0.1-0.2,0.3-0.3,0.4c-1.9,1.5-7.1,4.9-13.8,9.1
				c-0.6,0.4-1.2,0.8-1.9,1.2c-0.8,0.5-1.6,1-2.4,1.5c-0.3,0.2-0.6,0.4-1,0.6c-2.5,1.6-5.2,3.2-7.9,4.9c-0.1,0.1-0.3,0.2-0.4,0.2
				c-1.3,0.8-2.7,1.7-4.1,2.5c-6.9,4.2-14,8.5-20.5,12.3c-1.3,0.8-2.6,1.5-3.8,2.2c-0.7,0.4-1.3,0.8-2,1.2
				c-13.1,3.5-26.4,7-38.1,10.1C109.3,124.2,128,112.3,146.7,101z"/>
			<linearGradient id="SVGID_3_" gradientUnits="userSpaceOnUse" x1="61.3843" y1="143.5807" x2="180.304" y2="74.6225">
				<stop  offset="0" style="stop-color:#AD7252"/>
				<stop  offset="1" style="stop-color:#BA7D5F"/>
			</linearGradient>
			<path class="st3" d="M173.6,71.6c5.2-2.4,10.9,7.8,7.7,9.5c-11.5,6.4-23,13.1-34.5,20c-7.9,2.1-16.3,4.4-23.6,6.3
				c-0.6,0.2-1.1,0.3-1.6,0.4c-1.6,0.4-3.1,0.8-4.5,1.2c-0.4,0.1-0.9,0.2-1.3,0.3c-2.4,0.6-4.5,1.2-6.3,1.7
				c-0.2,0.1-0.3,0.1-0.5,0.1c-0.5,0.1-1,0.3-1.5,0.4c-0.3,0.1-0.6,0.2-0.9,0.2c-1.1,0.3-1.9,0.5-2.5,0.7c-0.1,0-0.2,0.1-0.3,0.1
				c-0.1,0-0.2,0-0.2,0.1c0,0-0.1,0-0.1,0c-0.1,0-0.2,0.1-0.2,0.1L173.6,71.6z"/>
			<path class="st4" d="M178,113.7c-7.8,2-16.3,4.3-24.1,6.3l9.2-9.4C166.1,105.2,174.1,108.6,178,113.7z"/>
			<linearGradient id="SVGID_4_" gradientUnits="userSpaceOnUse" x1="207.914" y1="96.2363" x2="-68.5895" y2="163.494">
				<stop  offset="0" style="stop-color:#C78158"/>
				<stop  offset="0.1952" style="stop-color:#CC8961"/>
				<stop  offset="1" style="stop-color:#E0A684"/>
			</linearGradient>
			<path class="st5" d="M153.9,120c-13.2,3.4-24.1,6.3-25.2,6.6c0.6-0.4,1.3-0.8,2-1.2c1.2-0.7,2.5-1.5,3.8-2.2
				c6.5-3.8,13.6-8.2,20.5-12.3c1.4-0.8,2.7-1.7,4.1-2.5c0.1-0.1,0.3-0.2,0.4-0.2c2.8-1.7,5.4-3.3,7.9-4.9c0.3-0.2,0.7-0.4,1-0.6
				c0.8-0.5,1.7-1,2.4-1.5c0.6-0.4,1.3-0.8,1.9-1.2c7-4.4,12.2-7.8,13.8-9.1c0.1-0.1,0.2-0.3,0.3-0.4c3.8-1,13.2-2.9,14.1-3.2
				c5.8-1.6,10.6,17.3,3.4,19.7c0,0-11.9,3.1-26.3,6.9c-3.9-5.1-11.9-8.5-14.9-3.1L153.9,120z"/>
			<linearGradient id="SVGID_5_" gradientUnits="userSpaceOnUse" x1="115.1464" y1="109.8674" x2="116.9309" y2="108.8326">
				<stop  offset="0" style="stop-color:#AD7252"/>
				<stop  offset="1" style="stop-color:#BA7D5F"/>
			</linearGradient>
			<path class="st6" d="M117,109c-0.4,0.1-0.9,0.2-1.3,0.3C116.2,109.2,116.6,109.1,117,109z"/>
			<linearGradient id="SVGID_6_" gradientUnits="userSpaceOnUse" x1="92.2868" y1="192.105" x2="120.7485" y2="192.105">
				<stop  offset="0" style="stop-color:#A7765B"/>
				<stop  offset="0.9944" style="stop-color:#C48B66"/>
			</linearGradient>
			<path class="st7" d="M114.2,194.1l3.7-4.1c-0.6,1-1.3,1.9-2.2,2.7C115.3,193.2,114.8,193.7,114.2,194.1z"/>
			<linearGradient id="SVGID_7_" gradientUnits="userSpaceOnUse" x1="103.4" y1="151.87" x2="180.1758" y2="151.87">
				<stop  offset="0" style="stop-color:#C98E6F"/>
				<stop  offset="0.9944" style="stop-color:#C48B66"/>
			</linearGradient>
			<path class="st8" d="M103.9,171.1l50-51.1c7.7-2,16.3-4.3,24.1-6.3c2.2,2.9,3.1,6.5,0.8,9.2L118,190.1c3.9-5.9,3.8-13.8-0.5-18.4
				c-3.7-3.8-9.7-4-13.4-0.4L103.9,171.1z"/>
			<linearGradient id="SVGID_8_" gradientUnits="userSpaceOnUse" x1="108.6953" y1="111.3569" x2="109.4139" y2="110.9402">
				<stop  offset="0" style="stop-color:#AD7252"/>
				<stop  offset="1" style="stop-color:#BA7D5F"/>
			</linearGradient>
			<path class="st9" d="M108.9,111.1c0.2,0,0.3-0.1,0.5-0.1C109.3,111.1,109.1,111.1,108.9,111.1z"/>
			<linearGradient id="SVGID_9_" gradientUnits="userSpaceOnUse" x1="106.2045" y1="112.1316" x2="107.4108" y2="111.4321">
				<stop  offset="0" style="stop-color:#AD7252"/>
				<stop  offset="1" style="stop-color:#BA7D5F"/>
			</linearGradient>
			<path class="st10" d="M107.5,111.5c-0.3,0.1-0.6,0.2-0.9,0.2C106.9,111.7,107.2,111.6,107.5,111.5z"/>
			<linearGradient id="SVGID_10_" gradientUnits="userSpaceOnUse" x1="90.1439" y1="172.075" x2="122.7816" y2="172.075">
				<stop  offset="0" style="stop-color:#A7765B"/>
				<stop  offset="0.9944" style="stop-color:#C48B66"/>
			</linearGradient>
			<path class="st11" d="M106.2,172.4c0.3-0.2,0.6-0.4,0.9-0.6L106.2,172.4z"/>
			<linearGradient id="SVGID_11_" gradientUnits="userSpaceOnUse" x1="103.6169" y1="112.6578" x2="104.0499" y2="112.4068">
				<stop  offset="0" style="stop-color:#AD7252"/>
				<stop  offset="1" style="stop-color:#BA7D5F"/>
			</linearGradient>
			<path class="st12" d="M103.8,112.5c0.1,0,0.2-0.1,0.3-0.1C104,112.5,103.8,112.5,103.8,112.5z"/>
			<linearGradient id="SVGID_12_" gradientUnits="userSpaceOnUse" x1="103.3157" y1="112.6879" x2="103.5108" y2="112.5748">
				<stop  offset="0" style="stop-color:#AD7252"/>
				<stop  offset="1" style="stop-color:#BA7D5F"/>
			</linearGradient>
			<path class="st13" d="M103.5,112.6c0,0-0.1,0-0.1,0C103.4,112.6,103.5,112.6,103.5,112.6z"/>
			<path class="st14" d="M103.8,181.1c2,2.1,5.4,2.2,7.5,0.2c0.8-0.7,1.2-1.7,1.2-2.8c0-1.1-0.4-2.1-1.2-2.9l-1.8,1.7
				c0.3,0.3,0.5,0.7,0.5,1.1c0,0.4-0.2,0.8-0.5,1.1c-1.1,1-2.9,1-3.9-0.1c-0.9-0.9-1.3-2.1-1.3-3.3c0-1.2,0.5-2.3,1.3-3.1
				c2.8-2.6,7.2-2.5,9.9,0.4c4.1,4.3,3.3,12.6-1.6,17.6c-5.3,5.3-11.7,6.6-16.4,3.4c-3.2-2.2-4-6.6-1.9-9.7c0.7-1,1.7-1.6,2.8-1.8
				c1.2-0.2,2.4,0.1,3.4,0.8c1.3,0.9,1.6,2.6,0.8,3.9c-0.2,0.3-0.6,0.6-1,0.6c-0.4,0.1-0.8,0-1.2-0.3l-1.4,2c0.9,0.6,2,0.9,3.1,0.7
				c1.1-0.2,2-0.8,2.6-1.7c1.6-2.4,1-5.7-1.4-7.3c-1.6-1.1-3.5-1.5-5.3-1.2c-1.1,0.2-2.2,0.7-3,1.3l6.7-5.4
				C101.9,178.1,102.6,179.8,103.8,181.1z"/>
			<path class="st15" d="M107.1,171.8c-0.3,0.2-0.6,0.3-0.9,0.6L107.1,171.8z M117.4,171.7c4.4,4.6,4.4,12.5,0.5,18.4l0,0l-3.7,4.1
				c-3.5,2.9-7.3,4.5-11,4.5c-2.5,0-4.9-0.7-7.1-2.2c-4.3-3-5.4-9-2.5-13.2c0.4-0.5,0.8-1,1.3-1.4c0,0,0.1,0,0.1-0.1
				c0.9-0.7,1.9-1.1,3-1.3c1.9-0.3,3.8,0.1,5.3,1.2c2.4,1.7,3,5,1.4,7.3c-0.6,0.9-1.5,1.5-2.6,1.7c-1.1,0.2-2.2-0.1-3.1-0.7l1.4-2
				c0.4,0.2,0.8,0.3,1.2,0.3c0.4-0.1,0.7-0.3,1-0.6c0.9-1.2,0.5-3-0.8-3.9c-1-0.7-2.2-1-3.4-0.8c-1.2,0.2-2.2,0.8-2.8,1.8
				c-2.2,3.1-1.3,7.5,1.9,9.7c4.7,3.3,11.1,1.9,16.4-3.4c4.9-4.9,5.7-13.3,1.6-17.6c-2.7-2.8-7.1-3-9.9-0.4
				c-0.8,0.8-1.3,1.9-1.3,3.1c0,1.2,0.4,2.4,1.3,3.3c1.1,1.1,2.8,1.2,3.9,0.1c0.3-0.3,0.5-0.6,0.5-1.1c0-0.4-0.2-0.8-0.5-1.1
				l1.8-1.7c0.8,0.8,1.2,1.8,1.2,2.9c0,1.1-0.5,2.1-1.2,2.8c-2.1,2-5.4,1.9-7.5-0.2c-1.3-1.3-2-3-2-4.9c0-0.1,0-0.1,0-0.2
				c0.1-1.8,0.8-3.6,2.1-4.8C107.7,167.6,113.8,167.9,117.4,171.7z"/>
			<linearGradient id="SVGID_13_" gradientUnits="userSpaceOnUse" x1="59.3875" y1="149.7697" x2="187.3658" y2="75.5586">
				<stop  offset="0" style="stop-color:#C49176"/>
				<stop  offset="1" style="stop-color:#BA7A5B"/>
			</linearGradient>
			<path class="st16" d="M90.6,136.7c-9.1,6.1-20.4,12.7-29.5,19c0.8-0.9,1.4-2.1,1.4-3.4c0.1-1.5-0.4-2.9-1.4-4
				c-1.9-2.1-4.7-2.9-7.4-2.3c0.1,0,0.3-0.1,0.5-0.1c3.7-0.9,15.6-3.7,31.2-7.8c0.2-0.1,0.4-0.1,0.7-0.2c0.5-0.1,1-0.3,1.5-0.4
				C88.6,137.2,89.6,137,90.6,136.7z"/>
			<linearGradient id="SVGID_14_" gradientUnits="userSpaceOnUse" x1="86.3346" y1="138.0093" x2="88.1328" y2="137.0008">
				<stop  offset="0" style="stop-color:#AB7A5B"/>
				<stop  offset="0.8048" style="stop-color:#91573F"/>
				<stop  offset="1" style="stop-color:#8A4E37"/>
			</linearGradient>
			<path class="st17" d="M86.2,137.9c0.5-0.1,1-0.3,1.5-0.4C87.1,137.6,86.6,137.8,86.2,137.9z"/>
			<linearGradient id="SVGID_15_" gradientUnits="userSpaceOnUse" x1="67.7685" y1="159.9015" x2="189.8505" y2="77.6288">
				<stop  offset="0" style="stop-color:#BF8467"/>
				<stop  offset="0.3832" style="stop-color:#BC815F"/>
				<stop  offset="1" style="stop-color:#BA7F58"/>
			</linearGradient>
			<path class="st18" d="M90.6,136.7c11.7-3.1,25-6.6,38.1-10.1c-5.1,3-57.1,37.6-62.8,41.4c3.1-2.2,4.1-6.5,2.2-9.9
				c-0.7-1.3-1.9-2.2-3.4-2.6c-0.4-0.1-0.9-0.2-1.3-0.2C72.5,149,81.6,142.8,90.6,136.7z"/>
			<linearGradient id="SVGID_16_" gradientUnits="userSpaceOnUse" x1="58.2379" y1="148.4997" x2="95.6272" y2="127.531">
				<stop  offset="0" style="stop-color:#AB7A5B"/>
				<stop  offset="0.8048" style="stop-color:#91573F"/>
				<stop  offset="1" style="stop-color:#8A4E37"/>
			</linearGradient>
			<path class="st19" d="M85.5,138.1c-15.5,4-27.5,6.8-31.2,7.8C59.6,144.5,71.9,141.6,85.5,138.1z"/>
			<path class="st20" d="M66,159.4c0.8,1.5,0.8,3.2,0.1,4.6l-2.6-0.8l-1.3-2.2c-0.2,0.1-0.5,0.1-0.7,0.1c-0.2-0.1-0.4-0.2-0.5-0.4
				c-0.5-0.8-0.2-1.9,0.7-2.4c0.7-0.4,1.6-0.6,2.4-0.3C64.9,158.2,65.6,158.7,66,159.4z"/>
			<path class="st20" d="M63.5,163.3l2.6,0.8c-0.4,0.9-1.1,1.7-2.1,2.2c-3.8,2.2-9.6,0.1-12.3-4.3c-2.9-4.8-2.7-9.6,0.5-12.3
				c1-0.9,2.2-1.3,3.4-1.3c1.4,0,2.7,0.6,3.7,1.6c0.5,0.6,0.8,1.4,0.7,2.2c-0.1,0.8-0.4,1.6-1.1,2.2c-0.8,0.7-1.9,0.6-2.5-0.1
				c-0.1-0.2-0.2-0.4-0.2-0.6c0-0.2,0.1-0.5,0.3-0.6l-1.7-1.9c-0.7,0.6-1.1,1.5-1.2,2.4c-0.1,0.9,0.2,1.8,0.8,2.4
				c1.2,1.4,3.2,1.8,4.9,1.1c-1.2,1.4-1.4,3.3-0.5,5c0.4,0.8,1.2,1.3,2,1.6C61.7,163.9,62.7,163.7,63.5,163.3z"/>
			<linearGradient id="SVGID_17_" gradientUnits="userSpaceOnUse" x1="63.7005" y1="154.5941" x2="120.7563" y2="116.1434">
				<stop  offset="0" style="stop-color:#C49176"/>
				<stop  offset="1" style="stop-color:#BA7A5B"/>
			</linearGradient>
			<path class="st21" d="M61.1,155.8c9.1-6.4,20.4-13,29.5-19c-9.1,6.1-18.1,12.3-27.1,18.6C62.7,155.3,61.9,155.5,61.1,155.8
				C61.1,155.8,61.1,155.8,61.1,155.8z"/>
			<linearGradient id="SVGID_18_" gradientUnits="userSpaceOnUse" x1="59.7838" y1="145.5066" x2="186.2265" y2="74.5947">
				<stop  offset="0" style="stop-color:#AB775B"/>
				<stop  offset="0.9218" style="stop-color:#88564B"/>
				<stop  offset="1" style="stop-color:#85534A"/>
			</linearGradient>
			<path class="st22" d="M123.2,107.3c7.2-1.9,15.6-4.2,23.6-6.3c-18.7,11.3-37.4,23.2-56.1,35.7c-1,0.3-2,0.5-3,0.8
				c-0.5,0.1-1,0.3-1.5,0.4c-0.2,0.1-0.5,0.1-0.7,0.2c-13.6,3.5-25.9,6.4-31.2,7.8c-0.2,0-0.3,0.1-0.5,0.1c0,0-0.1,0-0.1,0
				c-0.6,0.1-1.1,0.3-1.6,0.6l51-33.9c0,0,0,0,0,0c0,0,0.1,0,0.2-0.1c0,0,0.1,0,0.1,0c0.1,0,0.2,0,0.2-0.1c0.1,0,0.2-0.1,0.3-0.1
				c0.6-0.2,1.4-0.4,2.5-0.7c0.3-0.1,0.6-0.1,0.9-0.2c0.5-0.1,0.9-0.2,1.5-0.4c0.2,0,0.3-0.1,0.5-0.1c1.8-0.5,3.9-1,6.3-1.7
				c0.4-0.1,0.8-0.2,1.3-0.3c1.4-0.4,3-0.8,4.5-1.2C122.1,107.6,122.6,107.5,123.2,107.3z"/>
			<path class="st23" d="M52.1,146.6C52.1,146.6,52.1,146.6,52.1,146.6L52.1,146.6z"/>
			<linearGradient id="SVGID_19_" gradientUnits="userSpaceOnUse" x1="210.1283" y1="97.431" x2="45.2976" y2="137.5249">
				<stop  offset="0" style="stop-color:#C37F50"/>
				<stop  offset="0.3668" style="stop-color:#CE9066"/>
				<stop  offset="1" style="stop-color:#E0AA89"/>
			</linearGradient>
			<path class="st24" d="M52,146.6c-0.1-0.1-2.4,0.4-4.1,0.7c-4.7,0.9-9-17.9-4.5-19.3c5.2-1.6,59.2-15.2,59.2-15.2s0.2,0,0.5-0.1
				L52,146.6C52.1,146.6,52.1,146.6,52,146.6C52.1,146.6,52.1,146.6,52,146.6L52,146.6z"/>
			<path class="st23" d="M52,146.7l-1.4,1C51,147.2,51.5,146.9,52,146.7z"/>
			<path class="st23" d="M68.2,158.1c1.9,3.4,0.9,7.6-2.2,9.9c-0.2,0.1-0.3,0.2-0.5,0.3c-0.1,0-0.1,0.1-0.2,0.1
				c-1.4,0.8-3.1,1.2-4.7,1.2c-4.2,0-8.6-2.4-11-6.4c-3.5-5.9-3.1-12,1-15.6c0,0,0,0,0,0c0,0,0,0,0,0l1.4-1c0,0,0,0,0,0c0,0,0,0,0,0
				l0,0c0.5-0.3,1.1-0.5,1.6-0.6c0,0,0.1,0,0.1,0c2.6-0.6,5.5,0.2,7.4,2.3c1,1.1,1.5,2.6,1.4,4c-0.1,1.3-0.6,2.5-1.4,3.4
				c0,0,0,0,0,0c0.8-0.3,1.6-0.5,2.4-0.4c0.4,0,0.9,0.1,1.3,0.2C66.3,155.9,67.5,156.9,68.2,158.1z M66.1,164
				c0.7-1.4,0.7-3.2-0.1-4.6c-0.4-0.7-1-1.2-1.8-1.4c-0.8-0.2-1.7-0.1-2.4,0.3c-0.9,0.5-1.2,1.6-0.7,2.4c0.1,0.2,0.3,0.3,0.5,0.4
				c0.2,0.1,0.5,0,0.7-0.1l1.3,2.2c-0.8,0.5-1.7,0.6-2.6,0.3c-0.9-0.2-1.6-0.8-2-1.6c-0.9-1.6-0.7-3.6,0.5-5
				c-1.7,0.7-3.6,0.2-4.9-1.1c-0.6-0.7-0.9-1.6-0.8-2.4c0.1-0.9,0.5-1.8,1.2-2.4l1.7,1.9c-0.2,0.2-0.3,0.4-0.3,0.6
				c0,0.2,0.1,0.4,0.2,0.6c0.6,0.7,1.8,0.8,2.5,0.1c0.7-0.6,1-1.3,1.1-2.2c0.1-0.8-0.2-1.6-0.7-2.2c-1-1.1-2.3-1.6-3.7-1.6
				c-1.2,0-2.4,0.4-3.4,1.3c-3.1,2.7-3.3,7.6-0.5,12.3c2.7,4.4,8.5,6.5,12.3,4.3C65,165.7,65.7,164.9,66.1,164z"/>
		</g>
		<g>
		</g>
	</g>
</g>
</svg>
