<?xml version="1.0" encoding="utf-8"?>
<!-- Generator: Adobe Illustrator 20.0.0, SVG Export Plug-In . SVG Version: 6.00 Build 0)  -->
<svg version="1.1" xmlns="http://www.w3.org/2000/svg" xmlns:xlink="http://www.w3.org/1999/xlink" x="0px" y="0px"
	 viewBox="0 0 250 250" style="enable-background:new 0 0 250 250;" xml:space="preserve">
<style type="text/css">
	.st0{fill:#FCF8FA;}
	.st1{fill:url(#SVGID_1_);}
	.st2{fill:url(#SVGID_2_);}
	.st3{fill:url(#SVGID_3_);}
	.st4{fill:url(#SVGID_4_);}
	.st5{fill:url(#SVGID_5_);}
	.st6{fill:url(#SVGID_6_);}
	.st7{fill:url(#SVGID_7_);}
	.st8{fill:url(#SVGID_8_);}
	.st9{fill:url(#SVGID_9_);}
	.st10{fill:url(#SVGID_10_);}
	.st11{fill:url(#SVGID_11_);}
	.st12{fill:url(#SVGID_12_);}
	.st13{fill:url(#SVGID_13_);}
	.st14{fill:url(#SVGID_14_);}
	.st15{fill:url(#SVGID_15_);}
	.st16{fill:url(#SVGID_16_);}
	.st17{fill:url(#SVGID_17_);}
	.st18{fill:url(#SVGID_18_);}
	.st19{fill:url(#SVGID_19_);}
	.st20{fill:url(#SVGID_20_);}
	.st21{fill:url(#SVGID_21_);}
	.st22{fill:url(#SVGID_22_);}
	.st23{fill:url(#SVGID_23_);}
	.st24{fill:url(#SVGID_24_);}
	.st25{fill:url(#SVGID_25_);}
	.st26{fill:url(#SVGID_26_);}
	.st27{fill:url(#SVGID_27_);}
	.st28{fill:url(#SVGID_28_);}
	.st29{fill:url(#SVGID_29_);}
	.st30{fill:url(#SVGID_30_);}
	.st31{fill:url(#SVGID_31_);}
	.st32{fill:url(#SVGID_32_);}
	.st33{fill:url(#SVGID_33_);}
	.st34{fill:url(#SVGID_34_);}
	.st35{fill:url(#SVGID_35_);}
	.st36{fill:url(#SVGID_36_);}
	.st37{fill:url(#SVGID_37_);}
	.st38{fill:url(#SVGID_38_);}
	.st39{fill:url(#SVGID_39_);}
	.st40{fill:url(#SVGID_40_);}
	.st41{fill:url(#SVGID_41_);}
	.st42{fill:url(#SVGID_42_);}
	.st43{fill:url(#SVGID_43_);}
	.st44{fill:url(#SVGID_44_);}
	.st45{fill:url(#SVGID_45_);}
	.st46{fill:url(#SVGID_46_);}
	.st47{fill:url(#SVGID_47_);}
	.st48{fill:url(#SVGID_48_);}
	.st49{fill:url(#SVGID_49_);}
	.st50{fill:url(#SVGID_50_);}
	.st51{fill:url(#SVGID_51_);}
	.st52{fill:url(#SVGID_52_);}
	.st53{fill:url(#SVGID_53_);}
	.st54{fill:url(#SVGID_54_);}
	.st55{fill:url(#SVGID_55_);}
	.st56{fill:url(#SVGID_56_);}
	.st57{fill:url(#SVGID_57_);}
	.st58{fill:url(#SVGID_58_);}
	.st59{fill:url(#SVGID_59_);}
	.st60{fill:url(#SVGID_60_);}
	.st61{fill:url(#SVGID_61_);}
	.st62{fill:url(#SVGID_62_);}
	.st63{fill:url(#SVGID_63_);}
	.st64{fill:url(#SVGID_64_);}
</style>
<g id="colored_x5F_circles">
	<circle class="st0" cx="126" cy="125.1" r="100"/>
</g>
<g id="icons">
	<g>
		<g>
			
				<linearGradient id="SVGID_1_" gradientUnits="userSpaceOnUse" x1="90.1958" y1="150.8898" x2="158.2379" y2="73.2946" gradientTransform="matrix(1 5.295570e-03 -5.295570e-03 1 4.5564 11.4925)">
				<stop  offset="0" style="stop-color:#C4EA78"/>
				<stop  offset="0.1748" style="stop-color:#97DA73"/>
				<stop  offset="0.3109" style="stop-color:#7BD070"/>
				<stop  offset="0.3898" style="stop-color:#71CC6F"/>
				<stop  offset="0.7094" style="stop-color:#DBE8D6"/>
				<stop  offset="0.9944" style="stop-color:#FFFFFF"/>
			</linearGradient>
			<path class="st1" d="M127.9,192c-0.7,0-1.3-0.2-1.7-0.6c-0.3-0.3-0.4-0.6-0.4-1l0.3-133l4.5,0l-0.3,133
				C130.3,191.5,129.1,192,127.9,192z"/>
		</g>
		<g>
			<g>
				<g id="XMLID_9_">
					
						<linearGradient id="SVGID_2_" gradientUnits="userSpaceOnUse" x1="-3580.657" y1="2278.9658" x2="-3573.052" y2="2282.9868" gradientTransform="matrix(-0.4931 0.87 0.87 0.4931 -3620.2219 2033.4039)">
						<stop  offset="0" style="stop-color:#7EC29A"/>
						<stop  offset="0.8602" style="stop-color:#BAE492"/>
						<stop  offset="1" style="stop-color:#C4EA91"/>
					</linearGradient>
					<path class="st2" d="M124,48.5c1,2.2,3.7,2.2,3.7,2.2s0,0,0,0c-0.2-0.3-1.4-2.3-0.2-4.3c0.1-0.2,0.3-0.5,0.5-0.7
						c-1-1.6-2.9-3.1-3.8-2.7C123,43.5,123.2,46.6,124,48.5z"/>
					
						<linearGradient id="SVGID_3_" gradientUnits="userSpaceOnUse" x1="-3580.657" y1="2278.9658" x2="-3573.052" y2="2282.9868" gradientTransform="matrix(-0.4931 0.87 0.87 0.4931 -3620.2219 2033.4039)">
						<stop  offset="0" style="stop-color:#7EC29A"/>
						<stop  offset="0.8602" style="stop-color:#BAE492"/>
						<stop  offset="1" style="stop-color:#C4EA91"/>
					</linearGradient>
					<path class="st3" d="M127.7,50.7C127.8,50.7,127.8,50.7,127.7,50.7c0,0,2.8,0.1,3.9-1.8c1-1.7,1.5-4.8,0.4-5.4
						c-0.9-0.5-2.9,0.8-4.1,2.3c0.2,0.2,0.3,0.5,0.4,0.7C129.3,48.4,127.9,50.5,127.7,50.7z"/>
					
						<linearGradient id="SVGID_4_" gradientUnits="userSpaceOnUse" x1="-3580.657" y1="2278.9658" x2="-3573.052" y2="2282.9868" gradientTransform="matrix(-0.4931 0.87 0.87 0.4931 -3620.2219 2033.4039)">
						<stop  offset="0" style="stop-color:#7EC29A"/>
						<stop  offset="0.8602" style="stop-color:#BAE492"/>
						<stop  offset="1" style="stop-color:#C4EA91"/>
					</linearGradient>
					<path class="st4" d="M127.7,50.7c0.1-0.2,1.6-2.3,0.7-4.2c-0.1-0.2-0.3-0.5-0.4-0.7c-0.2,0.2-0.3,0.5-0.5,0.7
						C126.3,48.4,127.6,50.4,127.7,50.7z"/>
				</g>
			</g>
			<g>
				<g id="XMLID_8_">
					
						<linearGradient id="SVGID_5_" gradientUnits="userSpaceOnUse" x1="-3555.3325" y1="2132.946" x2="-3547.7275" y2="2136.967" gradientTransform="matrix(-0.511 0.8596 0.8596 0.511 -3524.4624 2012.4036)">
						<stop  offset="0" style="stop-color:#C4EA91"/>
						<stop  offset="0.1398" style="stop-color:#BAE492"/>
						<stop  offset="1" style="stop-color:#7EC29A"/>
					</linearGradient>
					<path class="st5" d="M124,48.5c1,2.2,3.7,2.2,3.7,2.2s0,0,0,0c-0.2-0.3-1.4-2.3-0.2-4.3c0.1-0.2,0.3-0.5,0.5-0.7
						c-1-1.6-2.9-3.1-3.8-2.7C123,43.5,123.2,46.6,124,48.5z"/>
					
						<linearGradient id="SVGID_6_" gradientUnits="userSpaceOnUse" x1="-3514.99" y1="2166.1467" x2="-3506.6858" y2="2165.0103" gradientTransform="matrix(-0.4931 0.87 0.87 0.4931 -3485.2219 2033.4039)">
						<stop  offset="0" style="stop-color:#C4EA91"/>
						<stop  offset="1" style="stop-color:#89C899"/>
					</linearGradient>
					<path class="st6" d="M127.7,50.7C127.8,50.7,127.8,50.7,127.7,50.7c0,0,2.8,0.1,3.9-1.8c1-1.7,1.5-4.8,0.4-5.4
						c-0.9-0.5-2.9,0.8-4.1,2.3c0.2,0.2,0.3,0.5,0.4,0.7C129.3,48.4,127.9,50.5,127.7,50.7z"/>
					
						<linearGradient id="SVGID_7_" gradientUnits="userSpaceOnUse" x1="-3514.8691" y1="2161.1917" x2="-3506.4775" y2="2165.3875" gradientTransform="matrix(-0.4931 0.87 0.87 0.4931 -3485.2219 2033.4039)">
						<stop  offset="0" style="stop-color:#C4EA91"/>
						<stop  offset="0.1398" style="stop-color:#BAE492"/>
						<stop  offset="1" style="stop-color:#7EC29A"/>
					</linearGradient>
					<path class="st7" d="M127.7,50.7c0.1-0.2,1.6-2.3,0.7-4.2c-0.1-0.2-0.3-0.5-0.4-0.7c-0.2,0.2-0.3,0.5-0.5,0.7
						C126.3,48.4,127.6,50.4,127.7,50.7z"/>
				</g>
			</g>
		</g>
		
			<linearGradient id="SVGID_8_" gradientUnits="userSpaceOnUse" x1="81.2758" y1="-28.229" x2="95.6752" y2="-17.9438" gradientTransform="matrix(0.9978 6.603908e-02 -6.603908e-02 0.9978 21.1909 144.9162)">
			<stop  offset="0" style="stop-color:#6BC288"/>
			<stop  offset="0.6053" style="stop-color:#A7DE8C"/>
			<stop  offset="1" style="stop-color:#D0F18F"/>
		</linearGradient>
		<path class="st8" d="M115.7,129c-2.3-1.7-4.4-4.4-6.1-8c-1.1-2.3-3.3-3.7-3.3-3.7s0.5,1.4-2.1,4.8c-2.6,3.4-3.8,3.7-3.8,3.7
			s1.7,1.6,4.1,1.8c4,0.3,7.1,1.9,9.4,3.7C114.4,131.5,116.1,129.3,115.7,129z"/>
		
			<linearGradient id="SVGID_9_" gradientUnits="userSpaceOnUse" x1="117.4425" y1="-27.1441" x2="128.1684" y2="-19.4828" gradientTransform="matrix(0.9978 6.603908e-02 -6.603908e-02 0.9978 21.1909 144.9162)">
			<stop  offset="0" style="stop-color:#6BC288"/>
			<stop  offset="0.6053" style="stop-color:#A7DE8C"/>
			<stop  offset="1" style="stop-color:#D0F18F"/>
		</linearGradient>
		<path class="st9" d="M147.3,124.9c-2.1-3.7-1.4-5-1.4-5s-2.4,1.1-3.7,3.2c-2.1,3.4-4.6,5.7-7.1,7.1c-0.4,0.3,0.9,2.7,1.4,2.4
			c2.5-1.4,5.8-2.6,9.8-2.4c2.5,0.1,4.3-1.2,4.3-1.2S149.4,128.6,147.3,124.9z"/>
		
			<linearGradient id="SVGID_10_" gradientUnits="userSpaceOnUse" x1="82.9759" y1="-10.2254" x2="91.7904" y2="-21.7291" gradientTransform="matrix(0.9978 6.603908e-02 -6.603908e-02 0.9978 21.1909 144.9162)">
			<stop  offset="0" style="stop-color:#6BC288"/>
			<stop  offset="0.6053" style="stop-color:#A7DE8C"/>
			<stop  offset="1" style="stop-color:#D0F18F"/>
		</linearGradient>
		<path class="st10" d="M118.4,132.7c-2.6,0.3-5.6,0-8.9-1.5c-3.3-1.4-5.4-1.5-5.4-1.5s1.1,3.3,4.7,5c-3.2,2.8-3.8,6.2-3.8,6.2
			s2.3-0.4,5.2-2.5c2.9-2.1,5.8-3.1,8.4-3.3C119.1,135.1,118.9,132.6,118.4,132.7z"/>
		
			<linearGradient id="SVGID_11_" gradientUnits="userSpaceOnUse" x1="129.5849" y1="341.9069" x2="126.6901" y2="329.2935" gradientTransform="matrix(0.9948 -0.1016 0.1016 0.9948 -44.6197 -219.6876)">
			<stop  offset="0" style="stop-color:#6BC288"/>
			<stop  offset="0.6053" style="stop-color:#A7DE8C"/>
			<stop  offset="1" style="stop-color:#D0F18F"/>
		</linearGradient>
		<path class="st11" d="M124.4,106c-1.7-1.9-1.8-3.2-2.6-6.7c-0.8-3.5-2-5.2-2-5.2s-2,2.9-1.3,6.8c-4.1-0.9-7.2,0.7-7.2,0.7
			s1.7,1.6,5.1,2.7c3.4,1.1,4.4,1.5,6.2,3.4C122.8,108,124.7,106.3,124.4,106z"/>
		<g>
			<g>
				
					<linearGradient id="SVGID_12_" gradientUnits="userSpaceOnUse" x1="1306.9381" y1="-883.2727" x2="1314.9812" y2="-893.7696" gradientTransform="matrix(0.7632 0.6461 -0.6461 0.7632 -1438.9666 -68.0803)">
					<stop  offset="0" style="stop-color:#6BC288"/>
					<stop  offset="0.6053" style="stop-color:#A7DE8C"/>
					<stop  offset="1" style="stop-color:#D0F18F"/>
				</linearGradient>
				<path class="st12" d="M130,106.6c1.7-2,1.7-3.3,2.4-6.8c0.6-3.5,1.8-5.3,1.8-5.3s2.1,2.8,1.5,6.7c4.1-1.1,7.2,0.4,7.2,0.4
					s-1.6,1.7-5,2.9c-3.3,1.2-4.4,1.7-6,3.6C131.6,108.6,129.7,107,130,106.6z"/>
			</g>
		</g>
		<g>
			
				<linearGradient id="SVGID_13_" gradientUnits="userSpaceOnUse" x1="569.1243" y1="1065.3225" x2="578.1619" y2="1053.5277" gradientTransform="matrix(-0.2308 0.973 -0.973 -0.2308 1306.6229 -176.6956)">
				<stop  offset="0" style="stop-color:#6BC288"/>
				<stop  offset="0.6053" style="stop-color:#A7DE8C"/>
				<stop  offset="1" style="stop-color:#D0F18F"/>
			</linearGradient>
			<path class="st13" d="M134.7,134.1c2.5,0.6,5.6,0.7,9-0.3c3.4-1,5.5-0.8,5.5-0.8s-1.5,3.2-5.3,4.4c2.8,3.2,2.9,6.6,2.9,6.6
				s-2.2-0.7-4.8-3.1c-2.6-2.4-5.4-3.8-7.9-4.4C133.7,136.5,134.3,134,134.7,134.1z"/>
		</g>
		<g>
			<g id="XMLID_88_">
				
					<linearGradient id="SVGID_14_" gradientUnits="userSpaceOnUse" x1="85.1974" y1="-81.2406" x2="96.0947" y2="-66.9666" gradientTransform="matrix(0.9978 6.603908e-02 -6.603908e-02 0.9978 21.1909 144.9162)">
					<stop  offset="0" style="stop-color:#FFDEFF"/>
					<stop  offset="0.9493" style="stop-color:#FF7FFF"/>
				</linearGradient>
				<path class="st14" d="M121.4,75.3c2.2,4.8-0.6,9.2-0.6,9.2s0,0,0,0c-0.2-0.6-2.3-5.3-7.3-5.6c-0.6,0-1.2,0-1.8,0
					c-1.6-3.8-2-8.9-0.1-10C113.9,67.6,119.6,71.3,121.4,75.3z"/>
				<linearGradient id="SVGID_15_" gradientUnits="userSpaceOnUse" x1="102.9517" y1="83.3466" x2="120.1192" y2="84.172">
					<stop  offset="0" style="stop-color:#FFDEFF"/>
					<stop  offset="0.9493" style="stop-color:#FF7FFF"/>
				</linearGradient>
				<path class="st15" d="M120.8,84.5C120.8,84.6,120.8,84.6,120.8,84.5c0,0.1-1.3,3.2-6.8,4c-5.1,0.7-11.5-2.5-11.3-5.1
					c0.2-2.3,4.8-4.2,9-4.5c0.2,0.6,0.5,1.1,0.8,1.6C114.8,84.5,120.3,84.5,120.8,84.5z"/>
				<linearGradient id="SVGID_16_" gradientUnits="userSpaceOnUse" x1="118.6676" y1="85.482" x2="113.7422" y2="77.9585">
					<stop  offset="0.1413" style="stop-color:#FF3EFF"/>
					<stop  offset="1" style="stop-color:#FF9FFF"/>
				</linearGradient>
				<path class="st16" d="M120.8,84.5c-0.5,0-6,0-8.3-4c-0.3-0.5-0.6-1.1-0.8-1.6c0.6,0,1.3,0,1.8,0
					C118.5,79.3,120.6,83.9,120.8,84.5z"/>
			</g>
		</g>
		<g>
			<g id="XMLID_87_">
				
					<linearGradient id="SVGID_17_" gradientUnits="userSpaceOnUse" x1="120.3482" y1="-83.0517" x2="109.4509" y2="-68.7778" gradientTransform="matrix(0.9978 6.603908e-02 -6.603908e-02 0.9978 21.1909 144.9162)">
					<stop  offset="0" style="stop-color:#FFDEFF"/>
					<stop  offset="0.9493" style="stop-color:#FF7FFF"/>
				</linearGradient>
				<path class="st17" d="M136.2,74.5c-2.7,4.5-0.6,9.2-0.6,9.2s0,0,0,0c0.3-0.6,3-4.9,7.9-4.6c0.6,0,1.2,0.1,1.8,0.2
					c2.1-3.5,3.2-8.5,1.4-9.9C144.7,67.8,138.6,70.6,136.2,74.5z"/>
				<linearGradient id="SVGID_18_" gradientUnits="userSpaceOnUse" x1="152.3" y1="85.4269" x2="134.6389" y2="82.4559">
					<stop  offset="0" style="stop-color:#FFDEFF"/>
					<stop  offset="0.9493" style="stop-color:#FF7FFF"/>
				</linearGradient>
				<path class="st18" d="M135.6,83.7C135.6,83.7,135.6,83.8,135.6,83.7c0,0.1,1.1,2.9,5.6,4.6c4.3,1.6,12.3-0.8,12.5-3.4
					c0.2-2.3-4.2-4.8-8.3-5.6c-0.3,0.5-0.7,1.1-1,1.5C141.6,84.5,136.1,83.8,135.6,83.7z"/>
				<linearGradient id="SVGID_19_" gradientUnits="userSpaceOnUse" x1="136.1359" y1="83.7677" x2="145.7597" y2="78.7707">
					<stop  offset="0.1413" style="stop-color:#FF3EFF"/>
					<stop  offset="1" style="stop-color:#FF9FFF"/>
				</linearGradient>
				<path class="st19" d="M135.6,83.7c0.5,0.1,5.9,0.7,8.7-2.8c0.4-0.5,0.7-1,1-1.5c-0.6-0.1-1.2-0.2-1.8-0.2
					C138.6,78.8,135.9,83.2,135.6,83.7z"/>
			</g>
		</g>
		
			<linearGradient id="SVGID_20_" gradientUnits="userSpaceOnUse" x1="390.9736" y1="-72.1228" x2="391.7233" y2="-62.377" gradientTransform="matrix(0.8854 5.860060e-02 -6.603906e-02 0.9978 -223.0719 128.7501)">
			<stop  offset="0" style="stop-color:#FFDEFF"/>
			<stop  offset="0.9493" style="stop-color:#FF7FFF"/>
		</linearGradient>
		<path class="st20" d="M132.5,84.5c-0.2,3.2-2.4,6.3-5,6.1c-2.6-0.2-4.5-3.5-4.3-6.8c0.2-3.2,2.4-5.1,5-4.9S132.7,81.3,132.5,84.5z
			"/>
		<g>
			<g id="XMLID_86_">
				
					<linearGradient id="SVGID_21_" gradientUnits="userSpaceOnUse" x1="114.7733" y1="98.0314" x2="123.6951" y2="109.7177" gradientTransform="matrix(0.9998 -2.060709e-02 2.060709e-02 0.9998 1.0812 -44.4934)">
					<stop  offset="0" style="stop-color:#FFDEFF"/>
					<stop  offset="0.9493" style="stop-color:#FF7FFF"/>
				</linearGradient>
				<path class="st21" d="M126.3,55.2c2,4,0.2,7.5,0.2,7.5s0,0,0,0c-0.2-0.5-2.3-4.1-6.3-4.1c-0.5,0-1,0.1-1.5,0.1
					c-1.6-3-2.3-7.1-0.8-8.2C119.6,49.4,124.7,52,126.3,55.2z"/>
				
					<linearGradient id="SVGID_22_" gradientUnits="userSpaceOnUse" x1="122.1641" y1="261.7823" x2="136.2194" y2="262.458" gradientTransform="matrix(0.9962 -8.658716e-02 8.658716e-02 0.9962 -32.578 -187.0305)">
					<stop  offset="0" style="stop-color:#FFDEFF"/>
					<stop  offset="0.9493" style="stop-color:#FF7FFF"/>
				</linearGradient>
				<path class="st22" d="M126.4,62.8C126.5,62.8,126.5,62.8,126.4,62.8c0,0-1.2,3.2-5,4c-3.9,0.8-9.8-1.5-9.8-3.6
					c0-1.9,3.6-3.8,7-4.3c0.2,0.5,0.5,0.9,0.8,1.3C121.6,63.2,126,62.8,126.4,62.8z"/>
				
					<linearGradient id="SVGID_23_" gradientUnits="userSpaceOnUse" x1="135.036" y1="263.4259" x2="131.0035" y2="257.2663" gradientTransform="matrix(0.9962 -8.658716e-02 8.658716e-02 0.9962 -32.578 -187.0305)">
					<stop  offset="0.1413" style="stop-color:#FF3EFF"/>
					<stop  offset="1" style="stop-color:#FF9FFF"/>
				</linearGradient>
				<path class="st23" d="M126.4,62.8c-0.4,0-4.9,0.4-7-2.6c-0.3-0.4-0.5-0.8-0.8-1.3c0.5-0.1,1-0.1,1.5-0.1
					C124.2,58.6,126.2,62.3,126.4,62.8z"/>
			</g>
		</g>
		<g>
			<g id="XMLID_85_">
				
					<linearGradient id="SVGID_24_" gradientUnits="userSpaceOnUse" x1="135.217" y1="98.9586" x2="126.2952" y2="110.6449" gradientTransform="matrix(0.9998 -2.060709e-02 2.060709e-02 0.9998 1.0812 -44.4934)">
					<stop  offset="0" style="stop-color:#FFDEFF"/>
					<stop  offset="0.9493" style="stop-color:#FF7FFF"/>
				</linearGradient>
				<path class="st24" d="M129.8,56.8c-1.7,3.8,0.2,6.7,0.2,6.7s0,0,0,0c0.2-0.5,2.1-4.2,6.1-4.3c0.5,0,1,0,1.5,0.1
					c1.4-3,2-7.2,0.4-8.2C136.3,49.9,131.3,53.5,129.8,56.8z"/>
				
					<linearGradient id="SVGID_25_" gradientUnits="userSpaceOnUse" x1="153.9516" y1="265.206" x2="139.4925" y2="262.7737" gradientTransform="matrix(0.9962 -8.658716e-02 8.658716e-02 0.9962 -32.578 -187.0305)">
					<stop  offset="0" style="stop-color:#FFDEFF"/>
					<stop  offset="0.9493" style="stop-color:#FF7FFF"/>
				</linearGradient>
				<path class="st25" d="M130,63.5C130,63.5,130,63.6,130,63.5c0,0,1.3,2.5,5.1,3.6c3,0.9,9.8-1.7,9.8-3.9c0-1.9-3.8-3.6-7.2-4
					c-0.2,0.5-0.5,0.9-0.7,1.3C134.9,63.7,130.4,63.5,130,63.5z"/>
				
					<linearGradient id="SVGID_26_" gradientUnits="userSpaceOnUse" x1="140.736" y1="263.7409" x2="148.6152" y2="259.6498" gradientTransform="matrix(0.9962 -8.658716e-02 8.658716e-02 0.9962 -32.578 -187.0305)">
					<stop  offset="0.1413" style="stop-color:#FF3EFF"/>
					<stop  offset="1" style="stop-color:#FF9FFF"/>
				</linearGradient>
				<path class="st26" d="M130,63.5c0.4,0,4.9,0.2,6.9-2.9c0.3-0.4,0.5-0.8,0.7-1.3c-0.5-0.1-1-0.1-1.5-0.1
					C132.2,59.3,130.3,63,130,63.5z"/>
			</g>
		</g>
		<g>
			<g id="XMLID_84_">
				
					<linearGradient id="SVGID_27_" gradientUnits="userSpaceOnUse" x1="82.7849" y1="-27.1023" x2="83.5572" y2="-26.6485" gradientTransform="matrix(0.9978 6.603908e-02 -6.603908e-02 0.9978 21.1909 144.9162)">
					<stop  offset="0" style="stop-color:#FFDFFB"/>
					<stop  offset="0.1414" style="stop-color:#FFD8FA"/>
					<stop  offset="0.3506" style="stop-color:#FFC4F9"/>
					<stop  offset="0.6019" style="stop-color:#FFA3F6"/>
					<stop  offset="0.8836" style="stop-color:#FF76F3"/>
					<stop  offset="1" style="stop-color:#FF61F1"/>
				</linearGradient>
				<path class="st27" d="M106.3,123.9c-0.1-0.1-0.3-0.2-0.7-0.5C105.9,123.6,106.2,123.7,106.3,123.9
					C106.3,123.8,106.3,123.9,106.3,123.9z"/>
				
					<linearGradient id="SVGID_28_" gradientUnits="userSpaceOnUse" x1="83.1365" y1="-27.9602" x2="68.8156" y2="-28.4627" gradientTransform="matrix(0.9978 6.603908e-02 -6.603908e-02 0.9978 21.1909 144.9162)">
					<stop  offset="0.1413" style="stop-color:#FF3EFF"/>
					<stop  offset="1" style="stop-color:#FF9FFF"/>
				</linearGradient>
				<path class="st28" d="M106.3,123.9c0,0-8.9,1-13.2-1.9c-0.5-0.4-1.1-0.8-1.6-1.2c0.6-0.4,1.2-0.7,1.8-0.9
					c3.9-1.6,10.1,2.1,12.2,3.5C106,123.6,106.2,123.8,106.3,123.9C106.3,123.9,106.3,123.9,106.3,123.9z"/>
				
					<linearGradient id="SVGID_29_" gradientUnits="userSpaceOnUse" x1="82.0605" y1="-26.4427" x2="74.5076" y2="-37.9795" gradientTransform="matrix(0.9978 6.603908e-02 -6.603908e-02 0.9978 21.1909 144.9162)">
					<stop  offset="0.1413" style="stop-color:#FF3EFF"/>
					<stop  offset="1" style="stop-color:#FF9FFF"/>
				</linearGradient>
				<path class="st29" d="M105.6,123.4c-2.2-1.4-8.1-5.5-8.1-9.7c0-0.6,0-1.3,0.1-2c0.6,0.3,1.2,0.6,1.7,1c4.4,3,6.7,10.2,7,11.1
					C106.2,123.7,105.9,123.6,105.6,123.4z"/>
				
					<linearGradient id="SVGID_30_" gradientUnits="userSpaceOnUse" x1="78.2352" y1="-47.9136" x2="81.0842" y2="-26.3336" gradientTransform="matrix(0.9978 6.603908e-02 -6.603908e-02 0.9978 21.1909 144.9162)">
					<stop  offset="0" style="stop-color:#FFD1FF"/>
					<stop  offset="1" style="stop-color:#FF95FF"/>
				</linearGradient>
				<path class="st30" d="M106.3,123.8c-0.3-0.9-2.6-8.2-7-11.1c-0.5-0.4-1.1-0.7-1.7-1c0.5-4.4,2.9-9.4,5.3-9.4
					c2.8,0,5.7,6.5,5.7,11.3C108.7,119.2,106.4,123.8,106.3,123.8C106.4,123.8,106.3,123.8,106.3,123.8z"/>
				
					<linearGradient id="SVGID_31_" gradientUnits="userSpaceOnUse" x1="62.4479" y1="-20.0011" x2="82.4977" y2="-28.9991" gradientTransform="matrix(0.9978 6.603908e-02 -6.603908e-02 0.9978 21.1909 144.9162)">
					<stop  offset="0" style="stop-color:#FFD1FF"/>
					<stop  offset="1" style="stop-color:#FF95FF"/>
				</linearGradient>
				<path class="st31" d="M106.3,123.9C106.3,123.9,106.3,123.9,106.3,123.9C106.3,123.9,106.3,123.9,106.3,123.9
					c0,0-3.5,4.2-8.8,6.3c-4.5,1.8-11.6,1.7-12.6-0.9c-0.9-2.3,2.8-6.3,6.6-8.5c0.5,0.5,1.1,0.9,1.6,1.2
					C97.4,124.9,106.3,123.9,106.3,123.9z"/>
				
					<linearGradient id="SVGID_32_" gradientUnits="userSpaceOnUse" x1="63.2109" y1="-38.2138" x2="82.6135" y2="-26.8106" gradientTransform="matrix(0.9978 6.603908e-02 -6.603908e-02 0.9978 21.1909 144.9162)">
					<stop  offset="0" style="stop-color:#FFDFFB"/>
					<stop  offset="0.1414" style="stop-color:#FFD8FA"/>
					<stop  offset="0.3506" style="stop-color:#FFC4F9"/>
					<stop  offset="0.6019" style="stop-color:#FFA3F6"/>
					<stop  offset="0.8836" style="stop-color:#FF76F3"/>
					<stop  offset="1" style="stop-color:#FF61F1"/>
				</linearGradient>
				<path class="st32" d="M97.4,113.7c0,4.2,6,8.3,8.1,9.7c-2.1-1.4-8.3-5.1-12.2-3.5c-0.6,0.2-1.2,0.5-1.8,0.9
					c-3.3-2.9-6.1-7.7-4.8-9.7c1.4-2.1,6.8-1.3,10.8,0.6C97.5,112.4,97.4,113,97.4,113.7z"/>
			</g>
		</g>
		<g>
			<g id="XMLID_77_">
				
					<linearGradient id="SVGID_33_" gradientUnits="userSpaceOnUse" x1="143.3786" y1="-20.414" x2="123.3288" y2="-29.412" gradientTransform="matrix(0.9978 6.603908e-02 -6.603908e-02 0.9978 21.1909 144.9162)">
					<stop  offset="0" style="stop-color:#FFD1FF"/>
					<stop  offset="1" style="stop-color:#FF95FF"/>
				</linearGradient>
				<path class="st33" d="M145,126C145,126,145,126,145,126c0,0,2.9,4.6,7.9,7.4c4.2,2.4,11.2,3.2,12.6,0.8c1.2-2.1-1.9-6.7-5.4-9.3
					c-0.6,0.4-1.2,0.7-1.7,1C153.7,128.2,145,126,145,126C145,126,145,126,145,126z"/>
				
					<linearGradient id="SVGID_34_" gradientUnits="userSpaceOnUse" x1="122.6899" y1="-28.3736" x2="137.0108" y2="-28.876" gradientTransform="matrix(0.9978 6.603908e-02 -6.603908e-02 0.9978 21.1909 144.9162)">
					<stop  offset="0.1413" style="stop-color:#FF3EFF"/>
					<stop  offset="1" style="stop-color:#FF9FFF"/>
				</linearGradient>
				<path class="st34" d="M145,126C145,126,145,126,145,126c0,0,8.7,2.2,13.4-0.1c0.6-0.3,1.2-0.6,1.7-1c-0.6-0.4-1.1-0.8-1.7-1.1
					C154,121.2,145.5,125.8,145,126z"/>
				
					<linearGradient id="SVGID_35_" gradientUnits="userSpaceOnUse" x1="142.6156" y1="-38.6267" x2="122.4407" y2="-26.7696" gradientTransform="matrix(0.9978 6.603908e-02 -6.603908e-02 0.9978 21.1909 144.9162)">
					<stop  offset="0" style="stop-color:#FFDFFB"/>
					<stop  offset="0.1414" style="stop-color:#FFD8FA"/>
					<stop  offset="0.3506" style="stop-color:#FFC4F9"/>
					<stop  offset="0.6019" style="stop-color:#FFA3F6"/>
					<stop  offset="0.8836" style="stop-color:#FF76F3"/>
					<stop  offset="1" style="stop-color:#FF61F1"/>
				</linearGradient>
				<path class="st35" d="M145,126c0.5-0.3,9-4.8,13.4-2.3c0.6,0.3,1.1,0.7,1.7,1.1c3.6-2.5,7.1-6.8,6-9c-1.1-2.2-6.6-2.2-10.8-0.8
					c0,0.7,0,1.4-0.1,2C154.4,121.9,145.9,125.6,145,126C145,126,145,126,145,126z"/>
				
					<linearGradient id="SVGID_36_" gradientUnits="userSpaceOnUse" x1="127.5912" y1="-48.3265" x2="124.7422" y2="-26.7465" gradientTransform="matrix(0.9978 6.603908e-02 -6.603908e-02 0.9978 21.1909 144.9162)">
					<stop  offset="0" style="stop-color:#FFD1FF"/>
					<stop  offset="1" style="stop-color:#FF95FF"/>
				</linearGradient>
				<path class="st36" d="M144.9,126C144.9,126,145,126,144.9,126c0.5-0.9,3.7-7.8,8.5-10.1c0.6-0.3,1.2-0.5,1.8-0.7
					c0-4.4-1.6-9.7-4.1-10.1c-2.8-0.4-6.5,5.7-7.2,10.4C143.3,121.1,144.9,126,144.9,126z"/>
				
					<linearGradient id="SVGID_37_" gradientUnits="userSpaceOnUse" x1="123.7658" y1="-26.8557" x2="131.3187" y2="-38.3925" gradientTransform="matrix(0.9978 6.603908e-02 -6.603908e-02 0.9978 21.1909 144.9162)">
					<stop  offset="0.1413" style="stop-color:#FF3EFF"/>
					<stop  offset="1" style="stop-color:#FF9FFF"/>
				</linearGradient>
				<path class="st37" d="M145,125.9c0.9-0.4,9.4-4,10.1-8.9c0.1-0.6,0.1-1.3,0.1-2c-0.6,0.2-1.3,0.5-1.8,0.7
					C148.6,118.2,145.4,125.1,145,125.9z"/>
			</g>
		</g>
		
			<linearGradient id="SVGID_38_" gradientUnits="userSpaceOnUse" x1="86.7348" y1="-13.8226" x2="72.3245" y2="-16.2034" gradientTransform="matrix(0.9978 6.603908e-02 -6.603908e-02 0.9978 21.1909 144.9162)">
			<stop  offset="0" style="stop-color:#FF85F2"/>
			<stop  offset="1" style="stop-color:#FFDFFB"/>
		</linearGradient>
		<path class="st38" d="M93.8,135.9c0.1,2,4.6,5.6,9.2,5.4c3.4-0.2,6.4-3,6.2-6.2c-0.2-3.2-3.4-5.7-6.9-5.5
			C97.8,129.8,93.7,133.9,93.8,135.9L93.8,135.9z"/>
		
			<linearGradient id="SVGID_39_" gradientUnits="userSpaceOnUse" x1="193.745" y1="242.8204" x2="183.3078" y2="242.3501" gradientTransform="matrix(0.9965 8.377859e-02 -8.377859e-02 0.9965 -53.0816 -160.7373)">
			<stop  offset="0" style="stop-color:#FF85F2"/>
			<stop  offset="1" style="stop-color:#FFDFFB"/>
		</linearGradient>
		<path class="st39" d="M120.1,97.3c-0.2,3-2.8,5.2-5.8,4.9c-3-0.3-4.3-2.9-4.9-5.8c-0.8-4.2,1.9-6.2,5.8-4.9
			C118,92.4,120.3,94.4,120.1,97.3z"/>
		
			<linearGradient id="SVGID_40_" gradientUnits="userSpaceOnUse" x1="-714.6733" y1="20.1201" x2="-724.9058" y2="19.6591" gradientTransform="matrix(-0.9929 0.1193 0.1193 0.9929 -577.5792 163.1996)">
			<stop  offset="0" style="stop-color:#FF85F2"/>
			<stop  offset="1" style="stop-color:#FFDFFB"/>
		</linearGradient>
		<path class="st40" d="M133.9,97.8c0.3,3,3,5.1,6,4.7c3-0.4,4.6-3,4.7-6c0.2-3.9-2.5-6-6-4.7C135.8,92.8,133.7,94.9,133.9,97.8z"/>
		
			<linearGradient id="SVGID_41_" gradientUnits="userSpaceOnUse" x1="136.4491" y1="-13.0981" x2="121.7096" y2="-15.5333" gradientTransform="matrix(0.9978 6.603908e-02 -6.603908e-02 0.9978 21.1909 144.9162)">
			<stop  offset="0" style="stop-color:#FFDFFB"/>
			<stop  offset="1" style="stop-color:#FF85F2"/>
		</linearGradient>
		<path class="st41" d="M158.7,140.6c-0.4,1.9-5.3,5-9.8,4.1c-3.4-0.6-5.9-3.8-5.3-7c0.6-3.2,4.2-5.2,7.5-4.5
			C155.6,134,159,138.6,158.7,140.6"/>
		<linearGradient id="SVGID_42_" gradientUnits="userSpaceOnUse" x1="133.5619" y1="138.4955" x2="139.7662" y2="148.0538">
			<stop  offset="0" style="stop-color:#FF85F2"/>
			<stop  offset="1" style="stop-color:#FFDFFB"/>
		</linearGradient>
		<path class="st42" d="M139.8,140.2c1.9,2.9,1.2,7.1,0,7.9l0,0c-1.2,0.8-5.3-0.2-7.2-3.1c-1.4-2.1-1-5.1,1-6.4
			C135.5,137.2,138.4,138.1,139.8,140.2z"/>
		<linearGradient id="SVGID_43_" gradientUnits="userSpaceOnUse" x1="121.2864" y1="137.8718" x2="113.8755" y2="146.5302">
			<stop  offset="0" style="stop-color:#FF85F2"/>
			<stop  offset="1" style="stop-color:#FFDFFB"/>
		</linearGradient>
		<path class="st43" d="M121.3,137.9c1.8,1.6,1.8,4.6,0.1,6.5c-2.2,2.6-6.5,3.1-7.6,2.1h0c-1.1-1-1.2-5.2,1-7.8
			C116.5,136.8,119.5,136.3,121.3,137.9z"/>
		<g>
			<g id="XMLID_56_">
				<g>
					
						<linearGradient id="SVGID_44_" gradientUnits="userSpaceOnUse" x1="253.0636" y1="-53.2421" x2="225.5603" y2="-49.9619" gradientTransform="matrix(0.9978 6.603908e-02 -6.603908e-02 0.9978 -113.8091 144.9162)">
						<stop  offset="0" style="stop-color:#FF85F2"/>
						<stop  offset="1" style="stop-color:#FFDFFB"/>
					</linearGradient>
					<path class="st44" d="M137,117.6c-4.4,2.6-8.9-0.6-8.9-0.6s0,0,0,0c0.6-0.2,5.1-2.3,5.4-7c0-0.6,0-1.2,0-1.8
						c3.6-1.5,8.6-2,9.7-0.1C144.5,110.4,140.7,115.5,137,117.6z"/>
					
						<linearGradient id="SVGID_45_" gradientUnits="userSpaceOnUse" x1="253.0636" y1="-53.2421" x2="225.5603" y2="-49.9619" gradientTransform="matrix(0.9978 6.603908e-02 -6.603908e-02 0.9978 -113.8091 144.9162)">
						<stop  offset="0" style="stop-color:#FF85F2"/>
						<stop  offset="1" style="stop-color:#FFDFFB"/>
					</linearGradient>
					<path class="st45" d="M128,117.1c0,0-4.9,2.5-8.9-0.6c-3.4-2.7-6.5-8.2-4.9-10.2c1.4-1.7,6.2-0.7,9.6,1.3
						c-0.1,0.6-0.2,1.2-0.3,1.8C123.2,114,128,117.1,128,117.1C128,117.1,128,117.1,128,117.1C128,117.1,128,117.1,128,117.1z"/>
					
						<linearGradient id="SVGID_46_" gradientUnits="userSpaceOnUse" x1="253.0636" y1="-53.2421" x2="225.5603" y2="-49.9619" gradientTransform="matrix(0.9978 6.603908e-02 -6.603908e-02 0.9978 -113.8091 144.9162)">
						<stop  offset="0" style="stop-color:#FF85F2"/>
						<stop  offset="1" style="stop-color:#FFDFFB"/>
					</linearGradient>
					<path class="st46" d="M128,117.1C128,117.1,128,117.1,128,117.1c0,0-4.8-3.1-4.5-7.7c0-0.6,0.1-1.2,0.3-1.8
						c0.6,0.3,1.1,0.7,1.5,1c2.8,2.2,2.9,6,2.8,7.7c0,0,0,0.1,0,0.1C128,116.8,128,117,128,117.1z"/>
					
						<linearGradient id="SVGID_47_" gradientUnits="userSpaceOnUse" x1="253.0636" y1="-53.2421" x2="225.5603" y2="-49.9619" gradientTransform="matrix(0.9978 6.603908e-02 -6.603908e-02 0.9978 -113.8091 144.9162)">
						<stop  offset="0" style="stop-color:#FF85F2"/>
						<stop  offset="1" style="stop-color:#FFDFFB"/>
					</linearGradient>
					<path class="st47" d="M127.2,116.7C127.2,116.7,127.2,116.7,127.2,116.7c0-0.1,0-0.3,0-0.7
						C127.2,116.4,127.2,116.6,127.2,116.7z"/>
					
						<linearGradient id="SVGID_48_" gradientUnits="userSpaceOnUse" x1="253.0636" y1="-53.2421" x2="225.5603" y2="-49.9619" gradientTransform="matrix(0.9978 6.603908e-02 -6.603908e-02 0.9978 -113.8091 144.9162)">
						<stop  offset="0" style="stop-color:#FF85F2"/>
						<stop  offset="1" style="stop-color:#FFDFFB"/>
					</linearGradient>
					<path class="st48" d="M128,117c0-0.1,0-0.3,0-0.7c0,0,0-0.1,0-0.1c0.1-1.7,0.8-5.5,3.8-7.3c0.5-0.3,1-0.5,1.6-0.8
						c0,0.6,0,1.2,0,1.8C133.2,114.8,128.6,116.8,128,117z"/>
					
						<linearGradient id="SVGID_49_" gradientUnits="userSpaceOnUse" x1="253.0636" y1="-53.2421" x2="225.5603" y2="-49.9619" gradientTransform="matrix(0.9978 6.603908e-02 -6.603908e-02 0.9978 -113.8091 144.9162)">
						<stop  offset="0" style="stop-color:#FF85F2"/>
						<stop  offset="1" style="stop-color:#FFDFFB"/>
					</linearGradient>
					<path class="st49" d="M131.9,109c-3.1,1.8-3.7,5.6-3.8,7.3c0.1-1.7,0-5.5-2.8-7.7c-0.5-0.4-1-0.7-1.5-1c0.8-3.9,3.2-8.2,5.4-8
						c2.2,0.1,4.1,4.7,4.3,8.7C132.9,108.5,132.4,108.7,131.9,109z"/>
				</g>
				<g>
					
						<linearGradient id="SVGID_50_" gradientUnits="userSpaceOnUse" x1="118.7329" y1="-44.822" x2="104.8822" y2="-34.2478" gradientTransform="matrix(0.9978 6.603908e-02 -6.603908e-02 0.9978 21.1909 144.9162)">
						<stop  offset="0" style="stop-color:#FFDEFF"/>
						<stop  offset="0.9493" style="stop-color:#FF7FFF"/>
					</linearGradient>
					<path class="st50" d="M137,117.6c-4.4,2.6-8.9-0.6-8.9-0.6s0,0,0,0c0.6-0.2,5.1-2.3,5.4-7c0-0.6,0-1.2,0-1.8
						c3.6-1.5,8.6-2,9.7-0.1C144.5,110.4,140.7,115.5,137,117.6z"/>
					
						<linearGradient id="SVGID_51_" gradientUnits="userSpaceOnUse" x1="90.6744" y1="-44.6415" x2="104.8231" y2="-34.3651" gradientTransform="matrix(0.9978 6.603908e-02 -6.603908e-02 0.9978 21.1909 144.9162)">
						<stop  offset="0" style="stop-color:#FFDEFF"/>
						<stop  offset="0.9493" style="stop-color:#FF7FFF"/>
					</linearGradient>
					<path class="st51" d="M128,117.1c0,0-4.9,2.5-8.9-0.6c-3.4-2.7-6.5-8.2-4.9-10.2c1.4-1.7,6.2-0.7,9.6,1.3
						c-0.1,0.6-0.2,1.2-0.3,1.8C123.2,114,128,117.1,128,117.1C128,117.1,128,117.1,128,117.1C128,117.1,128,117.1,128,117.1z"/>
					
						<linearGradient id="SVGID_52_" gradientUnits="userSpaceOnUse" x1="104.9468" y1="-35.4723" x2="99.6533" y2="-43.5579" gradientTransform="matrix(0.9978 6.603908e-02 -6.603908e-02 0.9978 21.1909 144.9162)">
						<stop  offset="0.1413" style="stop-color:#FF3EFF"/>
						<stop  offset="1" style="stop-color:#FF9FFF"/>
					</linearGradient>
					<path class="st52" d="M128,117.1C128,117.1,128,117.1,128,117.1c0,0-4.8-3.1-4.5-7.7c0-0.6,0.1-1.2,0.3-1.8
						c0.6,0.3,1.1,0.7,1.5,1c2.8,2.2,2.9,6,2.8,7.7c0,0,0,0.1,0,0.1C128,116.8,128,117,128,117.1z"/>
					
						<linearGradient id="SVGID_53_" gradientUnits="userSpaceOnUse" x1="108.7115" y1="-35.8464" x2="100.6003" y2="-35.2224" gradientTransform="matrix(0.9978 6.603908e-02 -6.603908e-02 0.9978 21.1909 144.9162)">
						<stop  offset="0" style="stop-color:#FFDEFF"/>
						<stop  offset="0.9493" style="stop-color:#FF7FFF"/>
					</linearGradient>
					<path class="st53" d="M127.2,116.7C127.2,116.7,127.2,116.7,127.2,116.7c0-0.1,0-0.3,0-0.7
						C127.2,116.4,127.2,116.6,127.2,116.7z"/>
					
						<linearGradient id="SVGID_54_" gradientUnits="userSpaceOnUse" x1="108.4926" y1="-37.4786" x2="105.8582" y2="-41.5026" gradientTransform="matrix(0.9978 6.603908e-02 -6.603908e-02 0.9978 21.1909 144.9162)">
						<stop  offset="0.1413" style="stop-color:#FF3EFF"/>
						<stop  offset="1" style="stop-color:#FF9FFF"/>
					</linearGradient>
					<path class="st54" d="M128,117c0-0.1,0-0.3,0-0.7c0,0,0-0.1,0-0.1c0.1-1.7,0.8-5.5,3.8-7.3c0.5-0.3,1-0.5,1.6-0.8
						c0,0.6,0,1.2,0,1.8C133.2,114.8,128.6,116.8,128,117z"/>
					
						<linearGradient id="SVGID_55_" gradientUnits="userSpaceOnUse" x1="104.7312" y1="-36.9764" x2="104.7312" y2="-52.1017" gradientTransform="matrix(0.9978 6.603908e-02 -6.603908e-02 0.9978 21.1909 144.9162)">
						<stop  offset="0" style="stop-color:#FF85F2"/>
						<stop  offset="1" style="stop-color:#FFDFFB"/>
					</linearGradient>
					<path class="st55" d="M131.9,109c-3.1,1.8-3.7,5.6-3.8,7.3c0.1-1.7,0-5.5-2.8-7.7c-0.5-0.4-1-0.7-1.5-1c0.8-3.9,3.2-8.2,5.4-8
						c2.2,0.1,4.1,4.7,4.3,8.7C132.9,108.5,132.4,108.7,131.9,109z"/>
				</g>
			</g>
		</g>
		<g>
			
				<linearGradient id="SVGID_56_" gradientUnits="userSpaceOnUse" x1="141.2677" y1="305.2613" x2="156.9507" y2="304.9954" gradientTransform="matrix(0.9972 -7.442031e-02 7.442031e-02 0.9972 -35.4 -160.6724)">
				<stop  offset="0" style="stop-color:#FF9BF4"/>
				<stop  offset="1" style="stop-color:#FFD1FA"/>
			</linearGradient>
			<path class="st56" d="M135.2,126.9c3.5,0,8.6,2.8,8.7,5.7c0,2.9-4.9,5.7-8.5,5.7c-0.7,0-1.4-0.1-2.1-0.4
				c-0.8-3.8-4.9-4.7-5.1-4.7c0.1-0.1,1.8-3.6,4.3-5.4C133.3,127.2,134.2,126.9,135.2,126.9z"/>
			
				<linearGradient id="SVGID_57_" gradientUnits="userSpaceOnUse" x1="136.6102" y1="296.1729" x2="146.9395" y2="296.8565" gradientTransform="matrix(0.9972 -7.442031e-02 7.442031e-02 0.9972 -35.4 -160.6724)">
				<stop  offset="0" style="stop-color:#FF9BF4"/>
				<stop  offset="1" style="stop-color:#FFD1FA"/>
			</linearGradient>
			<path class="st57" d="M128,119.8c2.6,0,5.2,4,5.3,6c0,0.7-0.4,1.2-1,1.7c-1.5,1.2-4.2,1.7-4.2,1.7s-2.4-0.6-3.9-1.6
				c-0.7-0.5-1.3-1.1-1.3-1.8C122.9,123.9,125.3,119.8,128,119.8z"/>
			
				<linearGradient id="SVGID_58_" gradientUnits="userSpaceOnUse" x1="135.6641" y1="311.7652" x2="145.987" y2="312.4484" gradientTransform="matrix(0.9972 -7.442031e-02 7.442031e-02 0.9972 -35.4 -160.6724)">
				<stop  offset="0" style="stop-color:#FF9BF4"/>
				<stop  offset="1" style="stop-color:#FFD1FA"/>
			</linearGradient>
			<path class="st58" d="M133.3,137.9c0.1,0.4,0.1,0.8,0.1,1.2c0,2.8-2.9,7.7-5,7.9c-2.1,0.2-5.3-5-5.3-7.9c0-0.4,0-0.8,0.1-1.2
				c2.9-1.2,5-4.7,5-4.7S130.2,136.7,133.3,137.9z"/>
			
				<linearGradient id="SVGID_59_" gradientUnits="userSpaceOnUse" x1="143.6414" y1="305.4289" x2="143.6414" y2="310.1343" gradientTransform="matrix(0.9972 -7.442031e-02 7.442031e-02 0.9972 -35.4 -160.6724)">
				<stop  offset="0.1413" style="stop-color:#FF3EFF"/>
				<stop  offset="1" style="stop-color:#FF9FFF"/>
			</linearGradient>
			<path class="st59" d="M133.3,137.9c-3.1-1.2-5.1-4.7-5.1-4.7s0,0,0,0C128.4,133.2,132.5,134.1,133.3,137.9z"/>
			
				<linearGradient id="SVGID_60_" gradientUnits="userSpaceOnUse" x1="141.3115" y1="304.5684" x2="125.6661" y2="303.5329" gradientTransform="matrix(0.9972 -7.442031e-02 7.442031e-02 0.9972 -35.4 -160.6724)">
				<stop  offset="0" style="stop-color:#FF85F2"/>
				<stop  offset="1" style="stop-color:#FFDFFB"/>
			</linearGradient>
			<path class="st60" d="M128.2,133.2C128.2,133.2,128.2,133.2,128.2,133.2c-0.2,0.1-4.4,0.4-5,4.7c-0.6,0.3-1.3,0.4-2,0.4
				c-3.5,0-8.6-2.8-8.7-5.7c0-2.9,4.9-5.7,8.5-5.7c1.1,0,2.1,0.4,3,1C126.5,129.6,128.1,133.1,128.2,133.2z"/>
			
				<linearGradient id="SVGID_61_" gradientUnits="userSpaceOnUse" x1="138.5816" y1="305.4069" x2="138.5816" y2="309.4069" gradientTransform="matrix(0.9972 -7.442031e-02 7.442031e-02 0.9972 -35.4 -160.6724)">
				<stop  offset="0.1413" style="stop-color:#FF3EFF"/>
				<stop  offset="1" style="stop-color:#FF9FFF"/>
			</linearGradient>
			<path class="st61" d="M123.2,137.9c0.6-4.3,4.9-4.6,5-4.7C128.2,133.2,126.1,136.7,123.2,137.9z"/>
		</g>
		<g>
			<linearGradient id="SVGID_62_" gradientUnits="userSpaceOnUse" x1="143.2641" y1="157.6658" x2="199.0447" y2="197.509">
				<stop  offset="0" style="stop-color:#62C267"/>
				<stop  offset="0.6419" style="stop-color:#9EE065"/>
				<stop  offset="1" style="stop-color:#C1F164"/>
			</linearGradient>
			<path class="st62" d="M178.7,180.6c-3.7-6.5-7.8-10.9-19.4-14.7c-0.7-0.3-0.4-0.8,0.4-0.9c1.4-0.2,9.1,1.3,11,1.6
				c-1.5-1.6-3.1-3.1-5-4.5c-11.5-8.6-38.9-0.8-30.9,0.9c16.1,3.5,22,18.5,45.7,31.9c0.8,0.5,1.8-0.2,1.7-1.1
				C182.1,190.8,181.3,185.2,178.7,180.6z"/>
			
				<linearGradient id="SVGID_63_" gradientUnits="userSpaceOnUse" x1="-4479.7896" y1="157.8094" x2="-4418.7715" y2="201.3939" gradientTransform="matrix(-1 0 0 1 -4368.6665 0)">
				<stop  offset="0" style="stop-color:#62C267"/>
				<stop  offset="0.6419" style="stop-color:#9EE065"/>
				<stop  offset="1" style="stop-color:#C1F164"/>
			</linearGradient>
			<path class="st63" d="M86.6,161.9c19.4-9.1,43.8,2.8,34.1,3c-21,0.3-19.2,21.8-60.4,20.6c-1.1,0-1.6-1.2-1-2.1
				C62.6,179.2,71.6,169,86.6,161.9z"/>
			
				<linearGradient id="SVGID_64_" gradientUnits="userSpaceOnUse" x1="-4412.9673" y1="-281.9284" x2="-4361.4868" y2="-245.1566" gradientTransform="matrix(-0.9801 -0.1985 -0.1985 0.9801 -4236.7837 -425.8769)">
				<stop  offset="0" style="stop-color:#62C267"/>
				<stop  offset="0.6419" style="stop-color:#9EE065"/>
				<stop  offset="1" style="stop-color:#C1F164"/>
			</linearGradient>
			<path class="st64" d="M117.7,172.2c23-6.1,44,13.8,33.3,11.8c-23.4-4.4-43.3,9-50.8,8.6C95,192.3,101,176.6,117.7,172.2z"/>
		</g>
	</g>
</g>
</svg>
