<?xml version="1.0" encoding="utf-8"?>
<!-- Generator: Adobe Illustrator 20.0.0, SVG Export Plug-In . SVG Version: 6.00 Build 0)  -->
<svg version="1.1" xmlns="http://www.w3.org/2000/svg" xmlns:xlink="http://www.w3.org/1999/xlink" x="0px" y="0px"
	 viewBox="0 0 250 250" style="enable-background:new 0 0 250 250;" xml:space="preserve">
<style type="text/css">
	.st0{fill:#F7F9FC;}
	.st1{fill:url(#SVGID_1_);}
	.st2{fill:url(#SVGID_2_);}
	.st3{fill:url(#SVGID_3_);}
	.st4{fill:url(#SVGID_4_);}
	.st5{fill:url(#SVGID_5_);}
	.st6{fill:url(#SVGID_6_);}
	.st7{fill:url(#SVGID_7_);}
	.st8{fill:url(#SVGID_8_);}
	.st9{fill:url(#SVGID_9_);}
	.st10{fill:url(#SVGID_10_);}
	.st11{fill:url(#SVGID_11_);}
	.st12{fill:url(#SVGID_12_);}
	.st13{fill:url(#SVGID_13_);}
	.st14{fill:url(#SVGID_14_);}
	.st15{fill:url(#SVGID_15_);}
	.st16{fill:url(#SVGID_16_);}
	.st17{fill:url(#SVGID_17_);}
	.st18{fill:url(#SVGID_18_);}
	.st19{fill:url(#SVGID_19_);}
	.st20{fill:url(#SVGID_20_);}
	.st21{fill:url(#SVGID_21_);}
</style>
<g id="colored_x5F_circles">
	<circle class="st0" cx="126" cy="125.1" r="100"/>
</g>
<g id="icons">
	<g>
		<g id="XMLID_24_">
			<g>
				<linearGradient id="SVGID_1_" gradientUnits="userSpaceOnUse" x1="114.6327" y1="188.401" x2="192.7866" y2="69.7485">
					<stop  offset="0" style="stop-color:#60BD56"/>
					<stop  offset="0.5727" style="stop-color:#9CE24E"/>
					<stop  offset="1" style="stop-color:#CBFF48"/>
				</linearGradient>
				<path class="st1" d="M172.5,53.2c6.6,7.4,20.9,51.7,5.2,86c-19.1,41.6-56.9,52.2-67.4,49.8c2.2-10.1,4.7-20,7.7-29.8
					c2.4,0.6,4.9,0.9,7.8-0.6c1.3-0.6,2.5-1.7,3.6-3l0,0c9.7-5,16.4-14,20.1-24.6c3.7-10.5,3.8-30.2,0.4-31.5c0,0,0,0-0.1,0
					c-2.2-0.7-7.4,2.7-11.7,9C147.9,89.3,159.4,70.8,172.5,53.2z"/>
				<linearGradient id="SVGID_2_" gradientUnits="userSpaceOnUse" x1="131.702" y1="106.6722" x2="148.1034" y2="148.2194">
					<stop  offset="0.2773" style="stop-color:#FFFFFF"/>
					<stop  offset="1" style="stop-color:#B8C3FB"/>
				</linearGradient>
				<path class="st2" d="M137.8,126.1c5.5-12.1,16.8-24,12.1-26.6c3.5,1.3,3.3,21-0.4,31.5c-3.7,10.6-10.5,19.6-20.1,24.6l0,0
					c3.7-4.4,6.4-12.2,5.8-20.8C135.5,132,136.5,129,137.8,126.1z"/>
				<linearGradient id="SVGID_3_" gradientUnits="userSpaceOnUse" x1="143.3792" y1="99.5914" x2="144.3418" y2="125.8377">
					<stop  offset="0" style="stop-color:#EBEEFF"/>
					<stop  offset="1" style="stop-color:#B6BFF4"/>
				</linearGradient>
				<path class="st3" d="M149.8,99.5C149.9,99.5,149.9,99.5,149.8,99.5c4.8,2.6-6.6,14.5-12,26.6c0.2-4.7-0.4-9.4-1.5-13.8
					c0.6-1.3,1.2-2.5,1.9-3.8C142.5,102.2,147.6,98.8,149.8,99.5z"/>
				<linearGradient id="SVGID_4_" gradientUnits="userSpaceOnUse" x1="135.1759" y1="111.8261" x2="134.9328" y2="134.7952">
					<stop  offset="0" style="stop-color:#B6BFF4"/>
					<stop  offset="1" style="stop-color:#949CD4"/>
				</linearGradient>
				<path class="st4" d="M136.3,112.3c1.1,4.4,1.7,9.1,1.5,13.8c-1.3,2.9-2.3,5.9-2.6,8.7c-0.1-1.6-0.3-3.3-0.7-5
					c-0.6-2.8-1.3-5.2-2.2-7.3c0.3-1.4,0.7-2.8,1.1-4.1C134.3,116.3,135.3,114.3,136.3,112.3z"/>
				<linearGradient id="SVGID_5_" gradientUnits="userSpaceOnUse" x1="136.7824" y1="99.6953" x2="137.7575" y2="126.2807">
					<stop  offset="0" style="stop-color:#C5CEFF"/>
					<stop  offset="1" style="stop-color:#B6BFF4"/>
				</linearGradient>
				<path class="st5" d="M138.2,108.5c-0.7,1.3-1.3,2.5-1.9,3.8c0-0.2-0.1-0.3-0.1-0.5C136.8,110.6,137.5,109.5,138.2,108.5z"/>
				<linearGradient id="SVGID_6_" gradientUnits="userSpaceOnUse" x1="134.8723" y1="111.8107" x2="134.6286" y2="134.8256">
					<stop  offset="0" style="stop-color:#B6BFF4"/>
					<stop  offset="1" style="stop-color:#949CD4"/>
				</linearGradient>
				<path class="st6" d="M136.2,111.8c0,0.2,0.1,0.3,0.1,0.5c-1,2-2,4-2.9,6.1C134.1,116,135.1,113.8,136.2,111.8z"/>
				<linearGradient id="SVGID_7_" gradientUnits="userSpaceOnUse" x1="126.725" y1="159.825" x2="126.2723" y2="113.7372">
					<stop  offset="0.1655" style="stop-color:#CAD3FF"/>
					<stop  offset="0.8056" style="stop-color:#FFFFFF"/>
				</linearGradient>
				<path class="st7" d="M135.2,134.8c0.6,8.6-2.1,16.4-5.8,20.8c-1.1,1.3-2.3,2.4-3.6,3c-2.9,1.4-5.4,1.2-7.8,0.6
					c3.7-12.2,8.1-24.1,13.2-36c0.2-0.5,0.5-1.1,0.7-1.6c0.1,0.3,0.3,0.6,0.4,0.9c0.9,2.1,1.6,4.6,2.2,7.3
					C134.8,131.5,135.1,133.2,135.2,134.8z"/>
				<linearGradient id="SVGID_8_" gradientUnits="userSpaceOnUse" x1="116.2347" y1="89.4393" x2="116.5609" y2="122.6525">
					<stop  offset="0" style="stop-color:#FCFCFC"/>
					<stop  offset="0.4017" style="stop-color:#DCE2FE"/>
					<stop  offset="0.7877" style="stop-color:#C2CCFF"/>
					<stop  offset="1" style="stop-color:#C1CBFF"/>
				</linearGradient>
				<path class="st8" d="M136.2,111.8c-1.1,2-2,4.2-2.8,6.5c-0.5,1.1-1,2.2-1.5,3.3c-2.8-6.2-7-9.1-11.9-7.3
					c-5.5,1.9-6.9,5.3-9.9,5.4c-3.1,0-4.5-3.4-10-5.2c-1.1-0.4-2.2-0.5-3.2-0.4c0.8-1.9,1.6-3.9,2.5-5.8c2.6-5.6,6-11,10-15.9
					c0.1,0,0.3,0,0.4,0c1.9-0.1,2.8-2.8,6.6-2.9C124.8,89.4,132.8,99.3,136.2,111.8z"/>
				<linearGradient id="SVGID_9_" gradientUnits="userSpaceOnUse" x1="132.3316" y1="89.1864" x2="132.6585" y2="122.479">
					<stop  offset="0.1441" style="stop-color:#FCFCFC"/>
					<stop  offset="0.3454" style="stop-color:#F6F7FC"/>
					<stop  offset="0.6178" style="stop-color:#E5E9FD"/>
					<stop  offset="0.9296" style="stop-color:#C8D1FF"/>
					<stop  offset="1" style="stop-color:#C1CBFF"/>
				</linearGradient>
				<path class="st9" d="M131.9,121.6c0.5-1.1,1-2.2,1.5-3.3c-0.4,1.3-0.8,2.7-1.1,4.1C132.1,122.2,132,121.9,131.9,121.6z"/>
				<linearGradient id="SVGID_10_" gradientUnits="userSpaceOnUse" x1="111.4284" y1="159.9753" x2="110.9757" y2="113.8802">
					<stop  offset="0.1655" style="stop-color:#CAD3FF"/>
					<stop  offset="0.8056" style="stop-color:#FFFFFF"/>
				</linearGradient>
				<path class="st10" d="M131.9,121.6c-0.2,0.5-0.5,1.1-0.7,1.6c-5.1,11.8-9.5,23.8-13.2,36c-2.6-0.7-5.1-1.9-7.6-1.9
					c-4.7,0-8.9,5.1-15.3,1.6c-1.3-0.7-2.6-1.8-3.8-3.3c-1.7-11.3-0.8-25.3,5.6-41.6c1-0.1,2.1,0,3.2,0.4c5.6,1.8,7,5.2,10,5.2
					c3.1,0,4.4-3.5,9.9-5.4C124.9,112.5,129.1,115.4,131.9,121.6z"/>
				<linearGradient id="SVGID_11_" gradientUnits="userSpaceOnUse" x1="80.3623" y1="166.3412" x2="158.8384" y2="47.1995">
					<stop  offset="0" style="stop-color:#46A45E"/>
					<stop  offset="0.3892" style="stop-color:#69BF5A"/>
					<stop  offset="1" style="stop-color:#A7EF53"/>
				</linearGradient>
				<path class="st11" d="M172.5,53.2c-13,17.6-24.6,36.1-34.3,55.3c-0.7,1-1.4,2.1-2,3.3c-3.4-12.6-11.4-22.5-19.9-22.4
					c-3.8,0-4.6,2.8-6.6,2.9c-0.1,0-0.3,0-0.4,0c21.1-26.2,57.2-41.9,61.9-40.1C171.6,52.3,172,52.7,172.5,53.2z"/>
				<linearGradient id="SVGID_12_" gradientUnits="userSpaceOnUse" x1="96.1391" y1="89.622" x2="96.4651" y2="122.8122">
					<stop  offset="0" style="stop-color:#FCFCFC"/>
					<stop  offset="0.2352" style="stop-color:#F6F7FC"/>
					<stop  offset="0.5535" style="stop-color:#E5E9FD"/>
					<stop  offset="0.9177" style="stop-color:#C8D1FF"/>
					<stop  offset="1" style="stop-color:#C1CBFF"/>
				</linearGradient>
				<path class="st12" d="M102.2,89.6c3.1-0.3,5.2,2.4,7.1,2.7c-4,4.9-7.4,10.3-10,15.9c-0.9,2-1.7,3.9-2.5,5.8
					c-3.6,0.3-6.6,3.2-8.7,8.3c-1.1-4.2-2.8-8-4.8-11.1C85.8,98.8,93.4,90.4,102.2,89.6z"/>
				<linearGradient id="SVGID_13_" gradientUnits="userSpaceOnUse" x1="97.2997" y1="177.5026" x2="175.7629" y2="58.3806">
					<stop  offset="0" style="stop-color:#46A45E"/>
					<stop  offset="0.3892" style="stop-color:#69BF5A"/>
					<stop  offset="1" style="stop-color:#A7EF53"/>
				</linearGradient>
				<path class="st13" d="M118,159.2c-3,9.8-5.5,19.7-7.7,29.8c-0.6-0.1-1.1-0.3-1.5-0.5c-4.5-2.4-14.5-13.8-17.4-32.3
					c0-0.2-0.1-0.3-0.1-0.5c1.2,1.5,2.5,2.6,3.8,3.3c6.4,3.4,10.6-1.6,15.3-1.6C112.9,157.2,115.3,158.5,118,159.2z"/>
				<linearGradient id="SVGID_14_" gradientUnits="userSpaceOnUse" x1="91.2867" y1="160.1731" x2="90.8341" y2="114.0853">
					<stop  offset="0.1655" style="stop-color:#CAD3FF"/>
					<stop  offset="0.8056" style="stop-color:#FFFFFF"/>
				</linearGradient>
				<path class="st14" d="M88.1,122.3c2.1-5.1,5.1-8,8.7-8.3c-6.4,16.2-7.3,30.2-5.6,41.6c-4.3-5.2-7.4-14.6-5.6-24.8
					c0-0.2,0.1-0.3,0.1-0.5C86.3,127.3,87.1,124.6,88.1,122.3z"/>
				<linearGradient id="SVGID_15_" gradientUnits="userSpaceOnUse" x1="84.8441" y1="111.171" x2="85.5647" y2="130.8162">
					<stop  offset="0" style="stop-color:#B6BFF4"/>
					<stop  offset="1" style="stop-color:#949CD4"/>
				</linearGradient>
				<path class="st15" d="M88.1,122.3c-0.9,2.3-1.7,4.9-2.3,8c0,0.2-0.1,0.3-0.1,0.5c-0.6-2.4-1.8-4.9-3.1-7.3
					c-0.3-4.4,0-8.5,0.8-12.3C85.2,114.4,86.9,118.1,88.1,122.3z"/>
				<linearGradient id="SVGID_16_" gradientUnits="userSpaceOnUse" x1="75.658" y1="99.9578" x2="76.5312" y2="123.7651">
					<stop  offset="0" style="stop-color:#EBEEFF"/>
					<stop  offset="1" style="stop-color:#B6BFF4"/>
				</linearGradient>
				<path class="st16" d="M69.7,100.3L69.7,100.3c2.5-0.8,8.8,3.3,13.6,11c-0.8,3.8-1.1,7.9-0.8,12.3
					C76.3,112.8,65,103.1,69.7,100.3z"/>
				<linearGradient id="SVGID_17_" gradientUnits="userSpaceOnUse" x1="66.4179" y1="101.5163" x2="88.5266" y2="157.5207">
					<stop  offset="0.1031" style="stop-color:#FFFFFF"/>
					<stop  offset="1" style="stop-color:#B8C3FB"/>
				</linearGradient>
				<path class="st17" d="M69.7,100.3c-4.7,2.9,6.6,12.5,12.8,23.3c1.4,2.4,2.5,4.8,3.1,7.3c-1.8,10.2,1.2,19.6,5.6,24.8
					c0,0.2,0,0.3,0.1,0.5c-10-4-16.9-13.9-20.8-24.3C66.6,121.3,66.1,101.4,69.7,100.3C69.6,100.2,69.6,100.2,69.7,100.3L69.7,100.3
					z"/>
			</g>
			<g>
			</g>
		</g>
		<linearGradient id="SVGID_18_" gradientUnits="userSpaceOnUse" x1="109.7709" y1="193.8432" x2="109.7709" y2="179.8692">
			<stop  offset="0" style="stop-color:#A7EF53"/>
			<stop  offset="0.6944" style="stop-color:#8CDA56"/>
			<stop  offset="0.84" style="stop-color:#69BF5A"/>
			<stop  offset="1" style="stop-color:#46A45E"/>
		</linearGradient>
		<path class="st18" d="M107.3,180.7v16.4c0,1.5,5,1.4,5,0v-16.4H107.3z"/>
		<linearGradient id="SVGID_19_" gradientUnits="userSpaceOnUse" x1="109.477" y1="176.5688" x2="109.477" y2="155.9463">
			<stop  offset="0" style="stop-color:#8CDA56"/>
			<stop  offset="0.4766" style="stop-color:#69BF5A"/>
			<stop  offset="1" style="stop-color:#46A45E"/>
		</linearGradient>
		<path class="st19" d="M112.6,181.4c0-4.6,0.4-9.9,3.5-15.4s1-8.8,1-8.8s-0.9,0.4-7.6,0.4s-7.6-0.3-7.6-0.3s-2,3.3,1.2,8.8
			c3.2,5.5,3.7,10.8,3.8,15.4C106.8,183.5,112.6,183.5,112.6,181.4z"/>
		
			<linearGradient id="SVGID_20_" gradientUnits="userSpaceOnUse" x1="157.2492" y1="175.2209" x2="157.0393" y2="157.4899" gradientTransform="matrix(1 -9.821081e-03 9.821081e-03 1 -32.3032 -13.3886)">
			<stop  offset="0" style="stop-color:#7DCB49"/>
			<stop  offset="0.7223" style="stop-color:#B9F034"/>
			<stop  offset="1" style="stop-color:#D1FF2C"/>
		</linearGradient>
		<path class="st20" d="M110.3,157.3c0,0,14.5-8.8,32.3-13.1c0,0-6.1,12.8-17.8,16.3C116.3,163,110.3,157.3,110.3,157.3z"/>
		
			<linearGradient id="SVGID_21_" gradientUnits="userSpaceOnUse" x1="92.3612" y1="147.7925" x2="92.1485" y2="129.8173" gradientTransform="matrix(0.9999 -1.535160e-02 1.535160e-02 0.9999 -0.1129 14.437)">
			<stop  offset="0" style="stop-color:#7DCB49"/>
			<stop  offset="0.7223" style="stop-color:#B9F034"/>
			<stop  offset="1" style="stop-color:#D1FF2C"/>
		</linearGradient>
		<path class="st21" d="M110.3,157.3c0,0-16.2-12.9-32.2-12c0,0,7.8,12.7,18.4,15.6C104.1,162.9,110.3,157.3,110.3,157.3z"/>
	</g>
</g>
</svg>
