<?xml version="1.0" encoding="utf-8"?>
<!-- Generator: Adobe Illustrator 20.0.0, SVG Export Plug-In . SVG Version: 6.00 Build 0)  -->
<svg version="1.1" xmlns="http://www.w3.org/2000/svg" xmlns:xlink="http://www.w3.org/1999/xlink" x="0px" y="0px"
	 viewBox="0 0 250 250" style="enable-background:new 0 0 250 250;" xml:space="preserve">
<style type="text/css">
	.st0{fill:#F7FCF4;}
	.st1{fill:url(#SVGID_1_);}
	.st2{fill:url(#SVGID_2_);}
	.st3{fill:#FDF9C9;}
	.st4{fill:#FDF9E9;}
	.st5{fill:url(#SVGID_3_);}
	.st6{fill:url(#SVGID_4_);}
	.st7{fill:url(#SVGID_5_);}
	.st8{fill:url(#SVGID_6_);}
	.st9{fill:url(#SVGID_7_);}
</style>
<g id="colored_x5F_circles">
	<circle class="st0" cx="126" cy="125.1" r="100"/>
</g>
<g id="icons">
	<g id="XMLID_61_">
		<g>
			<linearGradient id="SVGID_1_" gradientUnits="userSpaceOnUse" x1="147.5569" y1="149.4279" x2="184.0233" y2="119.1806">
				<stop  offset="0" style="stop-color:#92E565"/>
				<stop  offset="0.5166" style="stop-color:#B5F25A"/>
				<stop  offset="1" style="stop-color:#D9FF4E"/>
			</linearGradient>
			<path class="st1" d="M179.9,115.6c14,12.3,18.2,30.3,9.4,40.3c-8.8,10-27.2,8.2-41.2-4.1c-0.6-0.5-1.2-1.1-1.8-1.7
				c4.9-7.8,7.8-17,7.8-26.9c0-6.3-1.2-12.4-3.3-17.9C159.8,104.1,170.8,107.6,179.9,115.6z M165.7,136.5c0.9-1,0.5-2.8-1-4.1
				c-1.4-1.2-3.3-1.4-4.2-0.4c-0.9,1-0.5,2.8,0.9,4.1S164.8,137.5,165.7,136.5z"/>
			<linearGradient id="SVGID_2_" gradientUnits="userSpaceOnUse" x1="116.2058" y1="118.3332" x2="172.3589" y2="176.1965">
				<stop  offset="0" style="stop-color:#52BA65"/>
				<stop  offset="0.4123" style="stop-color:#75CB53"/>
				<stop  offset="0.9074" style="stop-color:#A4E23B"/>
			</linearGradient>
			<path class="st2" d="M142.7,157.5c16.2,14.2,37.8,16.4,49,5.2c-17.9,17.8-45.4,19.7-61,4c-0.2-0.2-0.4-0.4-0.6-0.6
				c4.3-2.6,8.1-5.9,11.5-9.7C142,156.8,142.4,157.2,142.7,157.5z"/>
			<path class="st3" d="M164.8,132.4c1.4,1.2,1.8,3.1,1,4.1c-0.9,1-2.8,0.8-4.2-0.4s-1.8-3.1-0.9-4.1
				C161.5,131,163.4,131.2,164.8,132.4z"/>
			<path class="st4" d="M181.1,113.9c15.7,13.8,20.5,34.1,10.6,45.4c-9.9,11.3-30.6,9.2-46.4-4.6c-0.4-0.4-0.8-0.7-1.2-1.1
				c0.8-1.1,1.6-2.2,2.3-3.4c0.6,0.6,1.2,1.1,1.8,1.7c14,12.3,32.4,14.1,41.2,4.1c8.8-10,4.6-28-9.4-40.3
				c-9.1-8-20.1-11.5-29.1-10.3c-0.4-1.1-0.9-2.1-1.3-3.2C159.4,101.2,171.2,105.2,181.1,113.9z"/>
			<linearGradient id="SVGID_3_" gradientUnits="userSpaceOnUse" x1="135.7444" y1="136.3281" x2="160.0792" y2="116.1434">
				<stop  offset="0" style="stop-color:#A0EA61"/>
				<stop  offset="9.044695e-02" style="stop-color:#9CE962"/>
				<stop  offset="0.3924" style="stop-color:#94E664"/>
				<stop  offset="1" style="stop-color:#92E565"/>
			</linearGradient>
			<path class="st5" d="M150.9,105.3c2.1,5.6,3.3,11.6,3.3,17.9c0,9.9-2.9,19.1-7.8,26.9c-12.5-12.2-16-29.1-7.6-38.6
				C141.8,108,146,106,150.9,105.3z"/>
			<linearGradient id="SVGID_4_" gradientUnits="userSpaceOnUse" x1="135.508" y1="109.289" x2="191.3721" y2="162.6253">
				<stop  offset="0" style="stop-color:#79D665"/>
				<stop  offset="0.7284" style="stop-color:#9CE551"/>
				<stop  offset="1" style="stop-color:#AAEB49"/>
			</linearGradient>
			<path class="st6" d="M191.6,159.2c9.9-11.3,5.1-31.6-10.6-45.4c-9.8-8.6-21.7-12.7-31.5-11.7c-0.3-0.6-0.6-1.2-0.8-1.7
				c10.6-1.1,23.2,3.1,33.5,12.2c16.7,14.7,21.5,36.7,10.6,49.1c-0.3,0.4-0.7,0.7-1,1.1c-11.2,11.2-32.8,9-49-5.2
				c-0.4-0.3-0.8-0.7-1.1-1c0.8-1,1.6-2,2.4-3c0.4,0.4,0.8,0.8,1.2,1.1C161,168.4,181.8,170.5,191.6,159.2z"/>
			<path class="st4" d="M149.5,102.1c0.5,1,0.9,2.1,1.3,3.2c-4.8,0.7-9.1,2.7-12.1,6.2c-8.4,9.6-4.9,26.5,7.6,38.6
				c-0.7,1.2-1.5,2.3-2.3,3.4c-14.7-13.8-19-33.3-9.4-44.3C138.4,105,143.6,102.7,149.5,102.1z"/>
			<linearGradient id="SVGID_5_" gradientUnits="userSpaceOnUse" x1="72.9711" y1="160.6644" x2="131.9731" y2="83.6618">
				<stop  offset="0" style="stop-color:#3AA058"/>
				<stop  offset="0.2359" style="stop-color:#5DB452"/>
				<stop  offset="0.7555" style="stop-color:#B5E643"/>
				<stop  offset="1" style="stop-color:#E1FF3B"/>
			</linearGradient>
			<path class="st7" d="M103.8,72.8c19.6,0,36.6,11.2,44.9,27.6c-6.5,0.7-12.4,3.3-16.5,8.1c-0.6,0.7-1.2,1.4-1.7,2.2
				c-13.6,17.5-14,41.2-0.4,55.6c-7.7,4.7-16.7,7.5-26.4,7.5c-27.8,0-50.4-22.6-50.4-50.4S75.9,72.8,103.8,72.8z"/>
			<linearGradient id="SVGID_6_" gradientUnits="userSpaceOnUse" x1="118.928" y1="126.6462" x2="165.9028" y2="175.0517">
				<stop  offset="0" style="stop-color:#3FAC65"/>
				<stop  offset="0.3281" style="stop-color:#62BF56"/>
				<stop  offset="0.8752" style="stop-color:#A4E23B"/>
			</linearGradient>
			<path class="st8" d="M141.6,156.5c-3.3,3.8-7.2,7-11.5,9.7c-13.7-14.3-13.2-38.1,0.4-55.6C122,123,126.7,142.7,141.6,156.5z"/>
			<linearGradient id="SVGID_7_" gradientUnits="userSpaceOnUse" x1="129.3174" y1="113.3373" x2="182.5319" y2="164.144">
				<stop  offset="0" style="stop-color:#79D665"/>
				<stop  offset="0.7284" style="stop-color:#9CE551"/>
				<stop  offset="1" style="stop-color:#AAEB49"/>
			</linearGradient>
			<path class="st9" d="M134.7,109.3c-9.6,11-5.4,30.5,9.4,44.3c-0.8,1-1.6,2-2.4,3c-14.9-13.8-19.6-33.5-11.1-45.9
				c0.5-0.8,1.1-1.5,1.7-2.2c4.1-4.7,10-7.4,16.5-8.1c0.3,0.6,0.6,1.2,0.8,1.7C143.6,102.7,138.4,105,134.7,109.3z"/>
		</g>
		<g>
		</g>
	</g>
</g>
</svg>
