<?xml version="1.0" encoding="utf-8"?>
<!-- Generator: Adobe Illustrator 20.0.0, SVG Export Plug-In . SVG Version: 6.00 Build 0)  -->
<svg version="1.1" xmlns="http://www.w3.org/2000/svg" xmlns:xlink="http://www.w3.org/1999/xlink" x="0px" y="0px"
	 viewBox="0 0 250 250" style="enable-background:new 0 0 250 250;" xml:space="preserve">
<style type="text/css">
	.st0{fill:#F7F8FC;}
	.st1{fill:url(#SVGID_1_);}
	.st2{fill:url(#SVGID_2_);}
	.st3{fill:url(#SVGID_3_);}
	.st4{fill:url(#SVGID_4_);}
	.st5{fill:url(#SVGID_5_);}
	.st6{fill:url(#SVGID_6_);}
	.st7{fill:url(#SVGID_7_);}
	.st8{fill:url(#SVGID_8_);}
	.st9{fill:url(#SVGID_9_);}
	.st10{fill:url(#SVGID_10_);}
	.st11{fill:url(#SVGID_11_);}
	.st12{fill:url(#SVGID_12_);}
	.st13{fill:url(#SVGID_13_);}
	.st14{fill:url(#SVGID_14_);}
	.st15{fill:url(#SVGID_15_);}
	.st16{fill:url(#SVGID_16_);}
	.st17{fill:url(#SVGID_17_);}
	.st18{fill:url(#SVGID_18_);}
	.st19{fill:url(#SVGID_19_);}
	.st20{fill:#7B81FF;}
	.st21{fill:url(#SVGID_20_);}
	.st22{fill:url(#SVGID_21_);}
	.st23{fill:url(#SVGID_22_);}
	.st24{fill:url(#SVGID_23_);}
	.st25{fill:url(#SVGID_24_);}
	.st26{fill:url(#SVGID_25_);}
	.st27{fill:url(#SVGID_26_);}
	.st28{fill:url(#SVGID_27_);}
	.st29{fill:url(#SVGID_28_);}
	.st30{fill:url(#SVGID_29_);}
	.st31{fill:url(#SVGID_30_);}
	.st32{fill:url(#SVGID_31_);}
	.st33{fill:url(#SVGID_32_);}
	.st34{fill:url(#SVGID_33_);}
	.st35{fill:url(#SVGID_34_);}
	.st36{fill:url(#SVGID_35_);}
	.st37{fill:url(#SVGID_36_);}
	.st38{fill:url(#SVGID_37_);}
	.st39{fill:url(#SVGID_38_);}
	.st40{fill:url(#SVGID_39_);}
	.st41{fill:#7E74FF;}
	.st42{fill:url(#SVGID_40_);}
	.st43{fill:url(#SVGID_41_);}
	.st44{fill:url(#SVGID_42_);}
	.st45{fill:url(#SVGID_43_);}
	.st46{fill:url(#SVGID_44_);}
	.st47{fill:url(#SVGID_45_);}
	.st48{fill:url(#SVGID_46_);}
	.st49{fill:url(#SVGID_47_);}
	.st50{fill:url(#SVGID_48_);}
	.st51{fill:url(#SVGID_49_);}
	.st52{fill:url(#SVGID_50_);}
	.st53{fill:url(#SVGID_51_);}
	.st54{fill:url(#SVGID_52_);}
	.st55{fill:url(#SVGID_53_);}
	.st56{fill:url(#SVGID_54_);}
	.st57{fill:url(#SVGID_55_);}
	.st58{fill:url(#SVGID_56_);}
	.st59{fill:url(#SVGID_57_);}
	.st60{fill:url(#SVGID_58_);}
</style>
<g id="colored_x5F_circles">
	<circle class="st0" cx="125.2" cy="125.1" r="100"/>
</g>
<g id="icons">
	<g>
		
			<linearGradient id="SVGID_1_" gradientUnits="userSpaceOnUse" x1="159.5309" y1="121.5576" x2="159.5309" y2="174.3732" gradientTransform="matrix(0.9963 8.628274e-02 -8.628274e-02 0.9963 -3.3965 27.9815)">
			<stop  offset="0" style="stop-color:#9E7085"/>
			<stop  offset="0.5633" style="stop-color:#D1C5CA"/>
			<stop  offset="1" style="stop-color:#C1C7B4"/>
		</linearGradient>
		<path class="st1" d="M142.1,214.5c-0.5,1.9-5.3,0.9-4.8-1.4c0.5-1.9,0.7-3.6,1.1-5.6c2.6-14.4,3.9-31.3,5-44.7l5,0.6
			c-1,13.5-2.6,29.9-5,44.3C143.1,209.5,142.6,211.9,142.1,214.5z"/>
	</g>
	<g>
		
			<linearGradient id="SVGID_2_" gradientUnits="userSpaceOnUse" x1="160.8766" y1="73.4936" x2="160.8766" y2="120.2077" gradientTransform="matrix(0.9963 8.628274e-02 -8.628274e-02 0.9963 -3.3965 27.9815)">
			<stop  offset="0" style="stop-color:#9E7085"/>
			<stop  offset="0.5633" style="stop-color:#D1C5CA"/>
			<stop  offset="1" style="stop-color:#C1C7B4"/>
		</linearGradient>
		<path class="st2" d="M148.3,161.8l-4.9-1c3-15,4.4-30.3,4.1-45.4l5-0.1C152.8,130.8,151.4,146.4,148.3,161.8z"/>
	</g>
	<g>
		<linearGradient id="SVGID_3_" gradientUnits="userSpaceOnUse" x1="93.6445" y1="149.7351" x2="93.6445" y2="211.9416">
			<stop  offset="0" style="stop-color:#9E7085"/>
			<stop  offset="0.5633" style="stop-color:#D1C5CA"/>
			<stop  offset="1" style="stop-color:#C1C7B4"/>
		</linearGradient>
		<path class="st3" d="M95.8,210.9c-3.4-14.7-8.9-45.2-9.3-61.1l5-0.1c0.4,15.4,5.8,45.6,9.2,60.1
			C101.1,211.8,96.4,212.8,95.8,210.9z"/>
	</g>
	<g>
		
			<linearGradient id="SVGID_4_" gradientUnits="userSpaceOnUse" x1="285.8047" y1="-42.5221" x2="285.8047" y2="-58.4885" gradientTransform="matrix(0.9441 -0.3296 0.3296 0.9441 -90.6876 298.2817)">
			<stop  offset="0" style="stop-color:#A78CFF"/>
			<stop  offset="1" style="stop-color:#9495FF"/>
		</linearGradient>
		<path class="st4" d="M176.6,150c1.3,2.9-1,9.6-9.6,13.3c-8.5,3.5-17.2,3.6-17.2,3.6c0,0,0,0,0,0c3.4-2.2,6.7-3.8,7.3-8.6
			c0-0.2,0-0.3,0-0.5c2.6-3.7,4.4-7,5.4-9.8C169.1,146.7,175.4,147.2,176.6,150z"/>
		
			<linearGradient id="SVGID_5_" gradientUnits="userSpaceOnUse" x1="264.3751" y1="-42.2602" x2="275.5146" y2="-67.5247" gradientTransform="matrix(0.9441 -0.3296 0.3296 0.9441 -90.6876 298.2817)">
			<stop  offset="0" style="stop-color:#6A3EFF"/>
			<stop  offset="1" style="stop-color:#8F9AFF"/>
		</linearGradient>
		<path class="st5" d="M153.4,150.9c2.2,2,3.9,3.3,3.7,6.8c0,0.1,0,0.3,0,0.5c-0.5,4.8-3.9,6.3-7.3,8.6c-0.4,0.3-0.8,0.5-1.2,0.8
			c-1.3,1-2.6,2.1-3.8,3.6c-1.1-2.1-2.6-3.6-4.1-5c-3-2.6-6-4.5-5.6-9.3c0-0.2,0-0.3,0-0.4c0.4-3.5,2.3-4.6,4.9-6.4
			c1.8-1.2,4-2.8,6.2-5.7c0.2-0.2,0.3-0.4,0.4-0.5c0.2-0.2,0.4-0.3,0.7-0.3c0.3,0,0.4,0.1,0.6,0.3c0.1,0.1,0.2,0.3,0.4,0.6
			C150,147.8,151.9,149.5,153.4,150.9z"/>
		
			<linearGradient id="SVGID_6_" gradientUnits="userSpaceOnUse" x1="283.7946" y1="-51.0057" x2="283.7946" y2="-58.8934" gradientTransform="matrix(0.9441 -0.3296 0.3296 0.9441 -90.6876 298.2817)">
			<stop  offset="0" style="stop-color:#8B5FFF"/>
			<stop  offset="1" style="stop-color:#8665FF"/>
		</linearGradient>
		<path class="st6" d="M162.5,148c-1,2.8-2.8,6.1-5.4,9.8c0.3-3.5-1.4-4.8-3.7-6.8C156.2,149.6,159.4,148.6,162.5,148z"/>
		
			<linearGradient id="SVGID_7_" gradientUnits="userSpaceOnUse" x1="284.1844" y1="-58.4885" x2="284.1844" y2="-70.1377" gradientTransform="matrix(0.9441 -0.3296 0.3296 0.9441 -90.6876 298.2817)">
			<stop  offset="4.834468e-03" style="stop-color:#B29FFF"/>
			<stop  offset="1" style="stop-color:#9495FF"/>
		</linearGradient>
		<path class="st7" d="M150.5,141.4c4.1-3.7,9.1-5,11.3-3.9c1.9,1,2.8,4.7,0.7,10.5c-3.1,0.6-6.3,1.6-9,3c-1.6-1.4-3.4-3.2-5.1-6.3
			c-0.1-0.3-0.2-0.4-0.4-0.6c0,0,0,0,0,0c0,0,0,0,0,0C148.8,143,149.6,142.1,150.5,141.4z"/>
		
			<linearGradient id="SVGID_8_" gradientUnits="userSpaceOnUse" x1="253.3978" y1="-48.3697" x2="253.3978" y2="-75.2575" gradientTransform="matrix(0.9441 -0.3296 0.3296 0.9441 -90.6876 298.2817)">
			<stop  offset="0" style="stop-color:#A78CFF"/>
			<stop  offset="1" style="stop-color:#9495FF"/>
		</linearGradient>
		<path class="st8" d="M140.3,166.2c-1.6-0.3-7.5-1.5-14.1-5.3c-7.9-4.6-10.7-11.5-8.9-14.2c1.7-2.6,8-2.4,14.2-0.5
			c0.5,2.9,1.6,6.3,3.5,10.3c0,0,0,0,0,0c0,0,0,0,0,0c0,0.1,0,0.3,0,0.4c-0.3,4.8,2.6,6.7,5.6,9.3c0,0,0,0,0,0
			C140.7,166.3,140.6,166.3,140.3,166.2z"/>
		
			<linearGradient id="SVGID_9_" gradientUnits="userSpaceOnUse" x1="267.4437" y1="-63.7805" x2="267.4437" y2="-79.1748" gradientTransform="matrix(0.9441 -0.3296 0.3296 0.9441 -90.6876 298.2817)">
			<stop  offset="4.834468e-03" style="stop-color:#B29FFF"/>
			<stop  offset="1" style="stop-color:#9495FF"/>
		</linearGradient>
		<path class="st9" d="M146.7,144C146.7,144,146.7,144,146.7,144c-0.1,0.1-0.3,0.3-0.4,0.5c-2.2,2.9-4.4,4.4-6.2,5.7
			c-2.5-1.7-5.5-3-8.5-4c-1-6,0.5-9.6,2.6-10.3c2.5-0.9,7.4,1.2,10.9,5.6C145.6,142.3,146.2,143.1,146.7,144z"/>
		
			<linearGradient id="SVGID_10_" gradientUnits="userSpaceOnUse" x1="263.1118" y1="-59.3902" x2="263.1118" y2="-70.326" gradientTransform="matrix(0.9441 -0.3296 0.3296 0.9441 -90.6876 298.2817)">
			<stop  offset="0" style="stop-color:#8B5FFF"/>
			<stop  offset="1" style="stop-color:#8665FF"/>
		</linearGradient>
		<path class="st10" d="M135.1,156.5C135.1,156.5,135.1,156.5,135.1,156.5C135.1,156.5,135.1,156.5,135.1,156.5
			c-2-4-3.1-7.4-3.6-10.3c3,0.9,6,2.3,8.5,4C137.5,151.9,135.5,153.1,135.1,156.5z"/>
	</g>
	<g>
		
			<linearGradient id="SVGID_11_" gradientUnits="userSpaceOnUse" x1="265.4811" y1="-11.2218" x2="265.4811" y2="-23.358" gradientTransform="matrix(0.9441 -0.3296 0.3296 0.9441 -90.6876 298.2817)">
			<stop  offset="0" style="stop-color:#A78CFF"/>
			<stop  offset="1" style="stop-color:#9495FF"/>
		</linearGradient>
		<path class="st11" d="M165,189.6c1,2.2-0.7,7.3-7.3,10.1c-6.4,2.7-13.1,2.7-13.1,2.7s0,0,0,0c2.6-1.7,5.1-2.9,5.5-6.5
			c0-0.1,0-0.2,0-0.3c2-2.8,3.3-5.3,4.1-7.5C159.3,187.1,164.1,187.5,165,189.6z"/>
		
			<linearGradient id="SVGID_12_" gradientUnits="userSpaceOnUse" x1="249.1924" y1="-11.0227" x2="257.6596" y2="-30.2265" gradientTransform="matrix(0.9441 -0.3296 0.3296 0.9441 -90.6876 298.2817)">
			<stop  offset="0" style="stop-color:#6A3EFF"/>
			<stop  offset="1" style="stop-color:#8F9AFF"/>
		</linearGradient>
		<path class="st12" d="M147.4,190.3c1.7,1.5,3,2.5,2.8,5.2c0,0.1,0,0.2,0,0.3c-0.4,3.6-2.9,4.8-5.5,6.5c-0.3,0.2-0.6,0.4-0.9,0.6
			c-1,0.7-2,1.6-2.9,2.8c-0.8-1.6-2-2.8-3.1-3.8c-2.3-2-4.5-3.4-4.3-7.1c0-0.1,0-0.2,0-0.3c0.3-2.7,1.8-3.5,3.7-4.8
			c1.4-0.9,3-2.1,4.7-4.3c0.1-0.2,0.2-0.3,0.3-0.4c0.2-0.2,0.3-0.2,0.5-0.2c0.2,0,0.3,0.1,0.5,0.2c0.1,0.1,0.2,0.2,0.3,0.4
			C144.8,187.9,146.2,189.2,147.4,190.3z"/>
		
			<linearGradient id="SVGID_13_" gradientUnits="userSpaceOnUse" x1="263.9533" y1="-17.6702" x2="263.9533" y2="-23.6657" gradientTransform="matrix(0.9441 -0.3296 0.3296 0.9441 -90.6876 298.2817)">
			<stop  offset="0" style="stop-color:#8B5FFF"/>
			<stop  offset="1" style="stop-color:#8665FF"/>
		</linearGradient>
		<path class="st13" d="M154.2,188c-0.8,2.1-2.1,4.6-4.1,7.5c0.2-2.6-1.1-3.6-2.8-5.2C149.5,189.3,151.9,188.5,154.2,188z"/>
		
			<linearGradient id="SVGID_14_" gradientUnits="userSpaceOnUse" x1="264.2495" y1="-23.358" x2="264.2495" y2="-32.2125" gradientTransform="matrix(0.9441 -0.3296 0.3296 0.9441 -90.6876 298.2817)">
			<stop  offset="4.834468e-03" style="stop-color:#B29FFF"/>
			<stop  offset="1" style="stop-color:#9495FF"/>
		</linearGradient>
		<path class="st14" d="M145.1,183c3.1-2.8,6.9-3.8,8.6-3c1.5,0.7,2.1,3.5,0.5,8c-2.4,0.5-4.8,1.2-6.9,2.3c-1.2-1.1-2.6-2.4-3.9-4.8
			c-0.1-0.2-0.2-0.3-0.3-0.4c0,0,0,0,0,0c0,0,0,0,0,0C143.8,184.3,144.5,183.6,145.1,183z"/>
		
			<linearGradient id="SVGID_15_" gradientUnits="userSpaceOnUse" x1="240.8485" y1="-15.6672" x2="240.8485" y2="-36.1041" gradientTransform="matrix(0.9441 -0.3296 0.3296 0.9441 -90.6876 298.2817)">
			<stop  offset="0" style="stop-color:#A78CFF"/>
			<stop  offset="1" style="stop-color:#9495FF"/>
		</linearGradient>
		<path class="st15" d="M137.4,201.9c-1.2-0.2-5.7-1.1-10.7-4c-6-3.5-8.1-8.7-6.8-10.8c1.3-2,6.1-1.8,10.8-0.4
			c0.4,2.2,1.2,4.8,2.7,7.9c0,0,0,0,0,0c0,0,0,0,0,0c0,0.1,0,0.2,0,0.3c-0.3,3.6,2,5.1,4.3,7.1c0,0,0,0,0,0S137.6,201.9,137.4,201.9
			z"/>
		
			<linearGradient id="SVGID_16_" gradientUnits="userSpaceOnUse" x1="251.5248" y1="-27.3805" x2="251.5248" y2="-39.0817" gradientTransform="matrix(0.9441 -0.3296 0.3296 0.9441 -90.6876 298.2817)">
			<stop  offset="4.834468e-03" style="stop-color:#B29FFF"/>
			<stop  offset="1" style="stop-color:#9495FF"/>
		</linearGradient>
		<path class="st16" d="M142.2,185C142.2,185,142.2,185,142.2,185c-0.1,0.1-0.2,0.2-0.3,0.4c-1.7,2.2-3.3,3.4-4.7,4.3
			c-1.9-1.3-4.2-2.3-6.5-3c-0.8-4.6,0.4-7.3,2-7.8c1.9-0.7,5.6,0.9,8.3,4.3C141.4,183.7,141.9,184.4,142.2,185z"/>
		
			<linearGradient id="SVGID_17_" gradientUnits="userSpaceOnUse" x1="248.2321" y1="-24.0433" x2="248.2321" y2="-32.3557" gradientTransform="matrix(0.9441 -0.3296 0.3296 0.9441 -90.6876 298.2817)">
			<stop  offset="0" style="stop-color:#8B5FFF"/>
			<stop  offset="1" style="stop-color:#8665FF"/>
		</linearGradient>
		<path class="st17" d="M133.5,194.6C133.5,194.6,133.4,194.6,133.5,194.6C133.4,194.6,133.4,194.6,133.5,194.6
			c-1.5-3-2.3-5.7-2.7-7.9c2.3,0.7,4.6,1.7,6.5,3C135.2,191.1,133.8,191.9,133.5,194.6z"/>
	</g>
	<g>
		
			<linearGradient id="SVGID_18_" gradientUnits="userSpaceOnUse" x1="-726.7235" y1="-435.8504" x2="-726.7235" y2="-451.1382" gradientTransform="matrix(-0.9136 -0.4065 -0.4065 0.9136 -768.85 212.0252)">
			<stop  offset="0" style="stop-color:#D4E2FF"/>
			<stop  offset="1" style="stop-color:#9C94FF"/>
		</linearGradient>
		<path class="st18" d="M70.9,95c-1.1,0.8-0.4,8.6,6.4,16.5c0,0,0.1,0,0.1,0c0.5-3.3,2.4-4.6,4.8-6.8c-0.6-3-0.8-5.6-0.6-8
			C77.1,94.3,71.7,94.4,70.9,95z"/>
		
			<linearGradient id="SVGID_19_" gradientUnits="userSpaceOnUse" x1="-732.8431" y1="-444.0593" x2="-732.8431" y2="-451.0987" gradientTransform="matrix(-0.9136 -0.4065 -0.4065 0.9136 -768.85 212.0252)">
			<stop  offset="0" style="stop-color:#776BFF"/>
			<stop  offset="1" style="stop-color:#7370FF"/>
		</linearGradient>
		<path class="st19" d="M81.6,96.7c-0.2,2.3-0.1,5,0.6,8c1.2-1.1,2.4-2.4,3.7-4.2c0,0,0,0,0,0c0,0,0,0,0,0
			C84.8,98.8,83.2,97.6,81.6,96.7z"/>
		<path class="st20" d="M82,123c0.2-0.9,0.5-1.8,0.8-2.6c-1.8-2.4-3.7-4.3-5.6-5.7c0.3,4,2.5,6.9,4.6,9C81.9,123.5,82,123.3,82,123z
			"/>
		
			<linearGradient id="SVGID_20_" gradientUnits="userSpaceOnUse" x1="-746.3724" y1="-432.2379" x2="-736.7146" y2="-454.1419" gradientTransform="matrix(-0.9136 -0.4065 -0.4065 0.9136 -768.85 212.0252)">
			<stop  offset="0" style="stop-color:#5A2EFF"/>
			<stop  offset="1" style="stop-color:#91A9FF"/>
		</linearGradient>
		<path class="st21" d="M77.4,111.5c-0.1,0.7-0.2,1.5-0.1,2.4c0,0.3,0,0.5,0,0.8c1.9,1.5,3.8,3.4,5.6,5.7c1.8-4.8,4.4-7.8,5.6-7.7
			c1.2,0,3.9,3,5.9,7.8c1.9-2.4,4-4.3,6-5.7c0-0.1,0-0.1,0-0.2c0-0.9,0-1.7-0.2-2.5c-0.6-3.4-2.6-4.9-5.1-7.4
			c-1.1-1.1-2.3-2.4-3.5-4.2c-0.6-0.8-1.2-1.8-1.7-2.9c-0.4-0.8-0.8-1.1-1.1-1.1c-0.3,0-0.7,0.3-1.1,1c-0.6,1.1-1.2,2-1.7,2.8
			c-1.3,1.8-2.6,3.1-3.7,4.2C79.8,106.9,77.9,108.2,77.4,111.5z"/>
		<path class="st20" d="M95.5,123.9c0.1,0.2,0.1,0.4,0.2,0.6c2.3-2.1,4.6-5.2,4.7-9.7c-2,1.3-4.1,3.2-6,5.7
			C94.8,121.6,95.2,122.7,95.5,123.9C95.5,123.9,95.5,123.9,95.5,123.9z"/>
		
			<linearGradient id="SVGID_21_" gradientUnits="userSpaceOnUse" x1="-735.9898" y1="-449.4074" x2="-735.9898" y2="-464.8767" gradientTransform="matrix(-0.9136 -0.4065 -0.4065 0.9136 -768.85 212.0252)">
			<stop  offset="0" style="stop-color:#DEEBFF"/>
			<stop  offset="1" style="stop-color:#C5C7FF"/>
		</linearGradient>
		<path class="st22" d="M85.9,100.4C85.9,100.4,85.9,100.4,85.9,100.4c0.6-0.8,1.2-1.7,1.7-2.8c0.4-0.8,0.8-1,1.1-1
			c0.3,0,0.7,0.3,1.1,1.1c0.6,1.1,1.1,2,1.7,2.9c1-1.4,2.4-2.6,3.9-3.4c-0.9-8-5.7-12.4-7.2-12.5c-1.4,0-6,4-6.7,12
			C83.2,97.6,84.8,98.8,85.9,100.4C85.9,100.4,85.9,100.4,85.9,100.4z"/>
		
			<linearGradient id="SVGID_22_" gradientUnits="userSpaceOnUse" x1="-743.2659" y1="-449.1518" x2="-743.2659" y2="-456.299" gradientTransform="matrix(-0.9136 -0.4065 -0.4065 0.9136 -768.85 212.0252)">
			<stop  offset="0" style="stop-color:#776BFF"/>
			<stop  offset="1" style="stop-color:#7370FF"/>
		</linearGradient>
		<path class="st23" d="M91.6,100.6c1.2,1.8,2.4,3.1,3.5,4.2c0,0,0,0,0,0c0.6-2.8,0.6-5.3,0.4-7.6C94,98,92.6,99.1,91.6,100.6z"/>
		
			<linearGradient id="SVGID_23_" gradientUnits="userSpaceOnUse" x1="-749.0527" y1="-444.4586" x2="-749.0527" y2="-463.1577" gradientTransform="matrix(-0.9136 -0.4065 -0.4065 0.9136 -768.85 212.0252)">
			<stop  offset="0" style="stop-color:#D4E2FF"/>
			<stop  offset="1" style="stop-color:#9C94FF"/>
		</linearGradient>
		<path class="st24" d="M95.1,104.8C95.1,104.8,95.1,104.8,95.1,104.8c2.5,2.6,4.5,4,5.1,7.5c0,0,0,0,0,0c6.8-6.8,8-16.6,7-17.3
			c-0.8-0.5-6.9-0.4-11.7,2.3C95.7,99.4,95.6,102,95.1,104.8z"/>
		<g>
			
				<linearGradient id="SVGID_24_" gradientUnits="userSpaceOnUse" x1="-733.9671" y1="-421.7654" x2="-733.9671" y2="-437.6422" gradientTransform="matrix(-0.9082 -0.4186 -0.4186 0.9082 -773.1455 222.7467)">
				<stop  offset="0" style="stop-color:#C1B7FF"/>
				<stop  offset="1" style="stop-color:#BBC5FF"/>
			</linearGradient>
			<path class="st25" d="M60.5,131.3c-1.5,2.9,1.7,11.2,9.7,15.7c7.2,4,14.2,4.5,14.4,4.5c0,0,0,0,0,0c-2.5-2.2-4.9-3.8-5.8-7
				c0,0,0,0,0,0c-4.8-5.5-6.9-10.5-7.5-14.3C66.2,128.7,61.7,128.9,60.5,131.3z"/>
			
				<linearGradient id="SVGID_25_" gradientUnits="userSpaceOnUse" x1="-734.5417" y1="-427.7654" x2="-734.5417" y2="-438.1426" gradientTransform="matrix(-0.9082 -0.4186 -0.4186 0.9082 -773.1455 222.7467)">
				<stop  offset="0" style="stop-color:#776BFF"/>
				<stop  offset="1" style="stop-color:#7370FF"/>
			</linearGradient>
			<path class="st26" d="M71.3,130.1c0.6,3.8,2.7,8.8,7.5,14.3c-0.2-0.8-0.3-1.6-0.4-2.6c-0.1-3.7,1.5-5.1,3.6-6.8c0,0,0,0,0,0
				c0,0,0,0,0,0c0,0,0,0-0.1,0C78.8,132.8,74.9,131.1,71.3,130.1z"/>
			
				<linearGradient id="SVGID_26_" gradientUnits="userSpaceOnUse" x1="-755.0836" y1="-420.8795" x2="-743.4054" y2="-447.3659" gradientTransform="matrix(-0.9082 -0.4186 -0.4186 0.9082 -773.1455 222.7467)">
				<stop  offset="0" style="stop-color:#5A2EFF"/>
				<stop  offset="1" style="stop-color:#91A9FF"/>
			</linearGradient>
			<path class="st27" d="M78.8,144.5c0.9,3.2,3.3,4.9,5.8,7c0,0,0,0,0,0c0,0,0,0,0,0c1.6,1.4,3.1,2.9,4.3,5.1
				c1.2-2.1,2.8-3.5,4.4-4.8c0,0,0,0,0,0c2.4-1.9,4.9-3.4,5.8-6.4c0.3-0.8,0.4-1.7,0.4-2.7c0.1-4-1.7-5.4-4.1-7.6
				c-1.1-1-2.3-2.1-3.6-3.8c-0.6-0.8-1.2-1.7-1.8-2.8c-0.4-0.7-0.6-0.9-1-0.9c-0.4,0-0.6,0.2-1,0.8c-0.7,1.2-1.4,2.1-2.2,3
				c-1.4,1.6-2.7,2.6-3.9,3.6c-2.2,1.7-3.7,3.1-3.6,6.8C78.5,142.8,78.6,143.7,78.8,144.5C78.8,144.5,78.8,144.5,78.8,144.5z"/>
			
				<linearGradient id="SVGID_27_" gradientUnits="userSpaceOnUse" x1="-749.1697" y1="-423.7913" x2="-749.1702" y2="-423.7899" gradientTransform="matrix(-0.9082 -0.4186 -0.4186 0.9082 -773.1455 222.7467)">
				<stop  offset="0" style="stop-color:#B2A3FF"/>
				<stop  offset="0.5633" style="stop-color:#FFEDFF"/>
				<stop  offset="1" style="stop-color:#FFFFFF"/>
			</linearGradient>
			<path class="st28" d="M84.6,151.5C84.6,151.5,84.6,151.5,84.6,151.5C84.6,151.5,84.6,151.5,84.6,151.5z"/>
			
				<linearGradient id="SVGID_28_" gradientUnits="userSpaceOnUse" x1="-733.0288" y1="-437.6422" x2="-733.0288" y2="-446.2014" gradientTransform="matrix(-0.9082 -0.4186 -0.4186 0.9082 -773.1455 222.7467)">
				<stop  offset="0" style="stop-color:#9D8FFF"/>
				<stop  offset="1" style="stop-color:#95A6FF"/>
			</linearGradient>
			<path class="st29" d="M73.2,123c-1.5,0.6-2.4,3.2-1.8,7.1c3.6,1,7.4,2.7,10.6,4.9c0,0,0,0,0,0c0,0,0-0.1,0.1-0.1
				c-0.7-3.1-0.8-6-0.5-8.7c-1.7-1.5-3.5-2.5-5.1-3C75.1,122.7,74,122.7,73.2,123z"/>
			
				<linearGradient id="SVGID_29_" gradientUnits="userSpaceOnUse" x1="-738.8738" y1="-437.6691" x2="-738.8738" y2="-445.4995" gradientTransform="matrix(-0.9082 -0.4186 -0.4186 0.9082 -773.1455 222.7467)">
				<stop  offset="0" style="stop-color:#776BFF"/>
				<stop  offset="1" style="stop-color:#7370FF"/>
			</linearGradient>
			<path class="st30" d="M82,135C82,135,82,135,82,135C82,135,82,135,82,135C82.1,135,82.1,135,82,135c1.2-0.9,2.6-1.9,4-3.5
				c0,0,0,0,0,0c-1.2-2.1-2.8-3.9-4.4-5.3C81.3,128.9,81.4,131.8,82,135C82,134.9,82,134.9,82,135C82,135,82,135,82,135z"/>
			
				<linearGradient id="SVGID_30_" gradientUnits="userSpaceOnUse" x1="-765.2952" y1="-427.0942" x2="-765.2952" y2="-454.5118" gradientTransform="matrix(-0.9082 -0.4186 -0.4186 0.9082 -773.1455 222.7467)">
				<stop  offset="0" style="stop-color:#C1B7FF"/>
				<stop  offset="1" style="stop-color:#BBC5FF"/>
			</linearGradient>
			<path class="st31" d="M99.2,145.5C99.2,145.5,99.2,145.5,99.2,145.5C99.2,145.5,99.1,145.5,99.2,145.5c-1,3-3.4,4.5-5.9,6.4
				c0,0,0,0,0,0c0,0,7-0.8,14.5-4.3c8.1-3.8,11.3-10.8,9.8-13.8c-1.2-2.5-5.8-3.2-11-2.4C106.2,135.1,104.2,140.1,99.2,145.5
				C99.2,145.5,99.2,145.5,99.2,145.5z"/>
			
				<linearGradient id="SVGID_31_" gradientUnits="userSpaceOnUse" x1="-741.7422" y1="-442.5206" x2="-741.7422" y2="-461.2695" gradientTransform="matrix(-0.9082 -0.4186 -0.4186 0.9082 -773.1455 222.7467)">
				<stop  offset="0" style="stop-color:#9D8FFF"/>
				<stop  offset="1" style="stop-color:#95A6FF"/>
			</linearGradient>
			<path class="st32" d="M81.9,123.6c-0.2,0.8-0.3,1.7-0.4,2.6c1.6,1.4,3.1,3.2,4.4,5.3c0,0,0,0,0,0c0.7-0.8,1.4-1.8,2.2-3
				c0.4-0.6,0.6-0.9,1-0.8c0.4,0,0.6,0.3,1,0.9c0.6,1.1,1.2,2,1.8,2.8c0,0,0,0,0,0c0,0,0,0,0,0c1.2-1.9,2.6-3.5,4.1-4.6
				c-0.1-0.9-0.2-1.7-0.4-2.6c-0.7-3.5-2-6.4-3.3-8.5c-1.4-2.2-2.8-3.4-3.7-3.5c0,0,0,0,0,0c0,0,0,0,0,0c-1,0-2.5,1.3-3.9,3.7
				c0,0,0,0,0,0C83.6,117.9,82.5,120.5,81.9,123.6z"/>
			
				<linearGradient id="SVGID_32_" gradientUnits="userSpaceOnUse" x1="-756.8895" y1="-435.336" x2="-756.8895" y2="-451.3427" gradientTransform="matrix(-0.9082 -0.4186 -0.4186 0.9082 -773.1455 222.7467)">
				<stop  offset="0" style="stop-color:#776BFF"/>
				<stop  offset="1" style="stop-color:#7370FF"/>
			</linearGradient>
			<path class="st33" d="M99.1,145.5C99.1,145.5,99.2,145.5,99.1,145.5C99.2,145.5,99.2,145.5,99.1,145.5
				C99.2,145.5,99.2,145.5,99.1,145.5c5-5.4,7.1-10.4,7.5-14.2c-3.7,0.5-7.8,1.8-11.1,3.8c0,0,0,0,0,0c0,0,0,0,0,0
				c2.4,2.2,4.2,3.6,4.1,7.6C99.6,143.8,99.4,144.7,99.1,145.5z"/>
			
				<linearGradient id="SVGID_33_" gradientUnits="userSpaceOnUse" x1="-749.7878" y1="-443.1848" x2="-749.7878" y2="-451.0784" gradientTransform="matrix(-0.9082 -0.4186 -0.4186 0.9082 -773.1455 222.7467)">
				<stop  offset="0" style="stop-color:#776BFF"/>
				<stop  offset="1" style="stop-color:#7370FF"/>
			</linearGradient>
			<path class="st34" d="M91.9,131.4C91.9,131.4,91.9,131.4,91.9,131.4c1.2,1.6,2.5,2.8,3.6,3.8c0,0,0,0,0,0c0,0,0,0,0,0
				c0,0,0,0,0,0c0.7-2.9,0.8-5.8,0.5-8.4C94.6,127.9,93.1,129.4,91.9,131.4C91.9,131.4,91.9,131.4,91.9,131.4z"/>
			
				<linearGradient id="SVGID_34_" gradientUnits="userSpaceOnUse" x1="-754.9583" y1="-443.2561" x2="-754.9583" y2="-456.7773" gradientTransform="matrix(-0.9082 -0.4186 -0.4186 0.9082 -773.1455 222.7467)">
				<stop  offset="0" style="stop-color:#9D8FFF"/>
				<stop  offset="1" style="stop-color:#95A6FF"/>
			</linearGradient>
			<path class="st35" d="M95.5,135.1C95.5,135.1,95.5,135.1,95.5,135.1c3.3-1.9,7.4-3.2,11.1-3.8c0.4-3.7-0.6-6.2-2.1-6.9
				c-0.8-0.4-1.9-0.5-3.2-0.2c-1.6,0.3-3.5,1.2-5.4,2.6C96.3,129.3,96.2,132.1,95.5,135.1z"/>
		</g>
	</g>
	<g>
		
			<linearGradient id="SVGID_35_" gradientUnits="userSpaceOnUse" x1="258.9749" y1="-28.5724" x2="258.9749" y2="-41.8749" gradientTransform="matrix(0.9194 -0.3934 0.3934 0.9194 -61.5989 188.9422)">
			<stop  offset="0" style="stop-color:#D4E2FF"/>
			<stop  offset="1" style="stop-color:#9C94FF"/>
		</linearGradient>
		<path class="st36" d="M166.7,48.4c1,0.7,0.3,7.5-5.8,14.3c0,0-0.1,0-0.1,0c-0.4-2.9-2-4-4.1-6c0.6-2.6,0.7-4.9,0.6-6.9
			C161.3,47.7,166,47.9,166.7,48.4z"/>
		
			<linearGradient id="SVGID_36_" gradientUnits="userSpaceOnUse" x1="253.65" y1="-35.7152" x2="253.65" y2="-41.8405" gradientTransform="matrix(0.9194 -0.3934 0.3934 0.9194 -61.5989 188.9422)">
			<stop  offset="0" style="stop-color:#6767FF"/>
			<stop  offset="1" style="stop-color:#7F68FF"/>
		</linearGradient>
		<path class="st37" d="M157.3,49.8c0.1,2,0,4.3-0.6,6.9c-1-1-2.1-2.1-3.2-3.7c0,0,0,0,0,0c0,0,0,0,0,0
			C154.5,51.5,155.9,50.5,157.3,49.8z"/>
		
			<linearGradient id="SVGID_37_" gradientUnits="userSpaceOnUse" x1="244.4798" y1="-0.2363" x2="251.2498" y2="-15.5906" gradientTransform="matrix(0.9194 -0.3934 0.3934 0.9194 -61.5989 188.9422)">
			<stop  offset="0" style="stop-color:#6239FF"/>
			<stop  offset="1" style="stop-color:#8FA2FF"/>
		</linearGradient>
		<path class="st38" d="M164.3,80.3C164.3,80.3,164.3,80.3,164.3,80.3c1.8-0.5,3.7-1.3,6.2-3.6c0.8-0.8,2-1.3,1.8-0.2
			c-0.8,5.4-3.1,13-11.2,15.3c-1.3,0.4-2.8,0.6-4.5,0.7c0,0,0,0,0,0c-0.1,0-0.2,0-0.2,0.1c-0.5-2.7-1.3-5-2.3-6.7c0,0,0,0,0,0
			c0.1-0.2,0.2-0.3,0.4-0.5c0,0,0,0,0,0c0.9-1,1.8-1.8,2.6-2.4l0,0C159.8,80.9,161.9,80.9,164.3,80.3z"/>
		
			<linearGradient id="SVGID_38_" gradientUnits="userSpaceOnUse" x1="251.761" y1="-11.0551" x2="251.761" y2="-26.5865" gradientTransform="matrix(0.9194 -0.3934 0.3934 0.9194 -61.5989 188.9422)">
			<stop  offset="0" style="stop-color:#D4E2FF"/>
			<stop  offset="1" style="stop-color:#9C94FF"/>
		</linearGradient>
		<path class="st39" d="M167.7,62.7c2,1.3,2,10-3.4,17.5c0,0,0,0,0,0c0,0,0,0,0,0c0,0,0,0,0,0c-2.4,0.6-4.5,0.6-7.2,2.6l0,0
			c0,0,0,0,0,0c0.6-3.5,0.3-6.8-0.3-9.6c1.9-1.8,3.7-4.3,4.1-7.7C164,63.1,166.8,62.2,167.7,62.7z"/>
		
			<linearGradient id="SVGID_39_" gradientUnits="userSpaceOnUse" x1="241.8711" y1="-10.0254" x2="241.8711" y2="-23.3743" gradientTransform="matrix(0.9194 -0.3934 0.3934 0.9194 -61.5989 188.9422)">
			<stop  offset="0" style="stop-color:#815FFF"/>
			<stop  offset="1" style="stop-color:#7B65FF"/>
		</linearGradient>
		<path class="st40" d="M157.1,82.8C157.1,82.8,157.1,82.8,157.1,82.8c-0.8,0.6-1.7,1.4-2.6,2.4c0,0,0,0,0,0
			c-0.1,0.2-0.2,0.3-0.4,0.5c-1.2-2.1-2.5-3.3-3.3-3.3c0,0,0,0,0,0c0,0,0,0,0,0c0,0,0,0,0,0c0.8-4.9,2.8-8.9,5.2-12
			c0.3,0.7,0.5,1.5,0.7,2.3c0,0.2,0.1,0.4,0.1,0.6C157.4,76.1,157.6,79.3,157.1,82.8z"/>
		<path class="st41" d="M156.6,72.7c-0.2-0.8-0.4-1.5-0.7-2.3c1.6-2,3.3-3.7,4.9-4.9c-0.4,3.4-2.2,6-4.1,7.7
			C156.7,73.1,156.7,72.9,156.6,72.7z"/>
		
			<linearGradient id="SVGID_40_" gradientUnits="userSpaceOnUse" x1="241.8765" y1="-25.4279" x2="250.28" y2="-44.4873" gradientTransform="matrix(0.9194 -0.3934 0.3934 0.9194 -61.5989 188.9422)">
			<stop  offset="0" style="stop-color:#6E12FF"/>
			<stop  offset="1" style="stop-color:#8FA2FF"/>
		</linearGradient>
		<path class="st42" d="M160.8,62.7c0.1,0.6,0.1,1.3,0.1,2.1c0,0.2,0,0.5-0.1,0.7c-1.6,1.2-3.4,2.9-4.9,4.9
			c-1.5-4.2-3.7-6.8-4.8-6.8c-1,0-3.5,2.6-5.2,6.7c-1.6-2.1-3.4-3.8-5.2-5c0-0.1,0-0.1,0-0.2c0-0.8,0.1-1.5,0.2-2.1
			c0.5-3,2.3-4.2,4.6-6.4c1-1,2-2.1,3.1-3.6c0.5-0.7,1-1.6,1.5-2.5c0.4-0.7,0.7-0.9,1-1c0.3,0,0.6,0.2,0.9,0.9
			c0.5,0.9,1,1.8,1.5,2.5c1.1,1.6,2.2,2.7,3.2,3.7C158.7,58.7,160.4,59.8,160.8,62.7z"/>
		
			<linearGradient id="SVGID_41_" gradientUnits="userSpaceOnUse" x1="234.5091" y1="-12.9827" x2="234.5091" y2="-27.3789" gradientTransform="matrix(0.9194 -0.3934 0.3934 0.9194 -61.5989 188.9422)">
			<stop  offset="0" style="stop-color:#815FFF"/>
			<stop  offset="1" style="stop-color:#7B65FF"/>
		</linearGradient>
		<path class="st43" d="M144.7,73.8c0.1-0.2,0.1-0.4,0.2-0.6c0,0,0,0,0,0c0.3-1,0.7-2,1-2.9c2.3,3.1,4.2,7.1,4.8,12.1l0,0
			c0,0,0,0,0,0c0,0,0,0,0,0c0,0,0,0,0,0c-0.8,0-2.1,1.1-3.3,3c-0.2,0-0.4,0-0.6-0.1c0,0,0,0,0,0c-1-1.1-1.9-1.9-2.8-2.5
			C143.7,79.5,144,76.5,144.7,73.8z"/>
		
			<linearGradient id="SVGID_42_" gradientUnits="userSpaceOnUse" x1="241.8915" y1="-14.4026" x2="241.8915" y2="-31.5474" gradientTransform="matrix(0.9194 -0.3934 0.3934 0.9194 -61.5989 188.9422)">
			<stop  offset="0" style="stop-color:#AE9FFF"/>
			<stop  offset="1" style="stop-color:#949DFF"/>
		</linearGradient>
		<path class="st44" d="M150.8,82.4L150.8,82.4c-0.6-5-2.5-9-4.8-12c1.8-4.1,4.2-6.7,5.2-6.7c1,0,3.3,2.6,4.8,6.8
			C153.6,73.5,151.6,77.5,150.8,82.4z"/>
		
			<linearGradient id="SVGID_43_" gradientUnits="userSpaceOnUse" x1="221.6827" y1="-9.944" x2="228.0918" y2="-24.4799" gradientTransform="matrix(0.9194 -0.3934 0.3934 0.9194 -61.5989 188.9422)">
			<stop  offset="0" style="stop-color:#6239FF"/>
			<stop  offset="1" style="stop-color:#8FA2FF"/>
		</linearGradient>
		<path class="st45" d="M144.1,82.8c0.9,0.6,1.8,1.4,2.8,2.5c0,0,0,0,0,0c0.2,0,0.4,0,0.6,0.1c-1.2,1.8-2.4,4.3-3.1,7.3
			c-0.1,0-0.2,0-0.3-0.1c0,0,0,0,0,0c0,0,0,0,0,0c-1.7,0-3.3-0.2-4.6-0.6c-7.8-2.1-9.5-9.4-10.1-14.8c-0.1-1.1,1-0.6,1.8,0.1
			c2.3,2.2,4.3,3,6.1,3.3C139.6,81.2,141.6,81.1,144.1,82.8z"/>
		
			<linearGradient id="SVGID_44_" gradientUnits="userSpaceOnUse" x1="229.8391" y1="-16.6475" x2="229.8391" y2="-38.3573" gradientTransform="matrix(0.9194 -0.3934 0.3934 0.9194 -61.5989 188.9422)">
			<stop  offset="0" style="stop-color:#D4E2FF"/>
			<stop  offset="1" style="stop-color:#9C94FF"/>
		</linearGradient>
		<path class="st46" d="M144.7,73.8c-0.7,2.7-1,5.7-0.7,9c-2.5-1.7-4.5-1.6-6.8-2.1c-5.5-6.3-4.4-16.3-2.7-17.4
			c0.9-0.6,3.4,0.1,6.2,2.1C140.8,69.2,142.7,71.9,144.7,73.8z"/>
		<path class="st41" d="M144.9,73.3c-0.1,0.2-0.1,0.4-0.2,0.6c-2-1.9-3.9-4.6-4-8.5c1.7,1.2,3.5,2.9,5.2,5
			C145.6,71.3,145.2,72.2,144.9,73.3C144.9,73.2,144.9,73.3,144.9,73.3z"/>
		
			<linearGradient id="SVGID_45_" gradientUnits="userSpaceOnUse" x1="250.9107" y1="-40.3676" x2="250.9107" y2="-53.828" gradientTransform="matrix(0.9194 -0.3934 0.3934 0.9194 -61.5989 188.9422)">
			<stop  offset="0" style="stop-color:#DEEBFF"/>
			<stop  offset="1" style="stop-color:#C5C7FF"/>
		</linearGradient>
		<path class="st47" d="M153.5,53C153.5,53,153.5,53,153.5,53c-0.5-0.7-1-1.5-1.5-2.5c-0.3-0.7-0.6-0.9-0.9-0.9c-0.3,0-0.6,0.3-1,1
			c-0.5,0.9-1,1.8-1.5,2.5c-0.9-1.3-2.1-2.2-3.4-3c0.8-7,5.1-10.8,6.4-10.8c1.3,0,5.2,3.6,5.7,10.5C155.9,50.5,154.5,51.5,153.5,53
			C153.5,53,153.5,53,153.5,53z"/>
		
			<linearGradient id="SVGID_46_" gradientUnits="userSpaceOnUse" x1="244.5795" y1="-40.1453" x2="244.5795" y2="-46.3642" gradientTransform="matrix(0.9194 -0.3934 0.3934 0.9194 -61.5989 188.9422)">
			<stop  offset="0" style="stop-color:#6767FF"/>
			<stop  offset="1" style="stop-color:#7F68FF"/>
		</linearGradient>
		<path class="st48" d="M148.6,53c-1.1,1.5-2.1,2.7-3.1,3.6c0,0,0,0,0,0c-0.4-2.4-0.5-4.6-0.2-6.6C146.5,50.8,147.7,51.8,148.6,53z"
			/>
		
			<linearGradient id="SVGID_47_" gradientUnits="userSpaceOnUse" x1="239.5443" y1="-36.0615" x2="239.5443" y2="-52.3322" gradientTransform="matrix(0.9194 -0.3934 0.3934 0.9194 -61.5989 188.9422)">
			<stop  offset="0" style="stop-color:#D4E2FF"/>
			<stop  offset="1" style="stop-color:#9C94FF"/>
		</linearGradient>
		<path class="st49" d="M145.5,56.6C145.5,56.6,145.5,56.6,145.5,56.6c-2.2,2.2-4,3.5-4.5,6.4c0,0,0,0,0,0c-5.9-6-6.8-14.6-5.9-15.2
			c0.7-0.5,6.1-0.2,10.1,2.1C145,52,145,54.2,145.5,56.6z"/>
		
			<linearGradient id="SVGID_48_" gradientUnits="userSpaceOnUse" x1="239.2741" y1="19.9062" x2="239.2741" y2="6.0912" gradientTransform="matrix(0.9194 -0.3934 0.3934 0.9194 -61.5989 188.9422)">
			<stop  offset="0" style="stop-color:#D4BFFF"/>
			<stop  offset="1" style="stop-color:#C3C9FF"/>
		</linearGradient>
		<path class="st50" d="M174.9,99.7c1.2,2.6-1.8,9.7-8.8,13.4c-6.4,3.3-12.5,3.6-12.6,3.6c0,0,0,0,0,0c2.2-1.8,4.4-3.2,5.2-6
			c0,0,0,0,0,0c4.3-4.7,6.2-9,6.9-12.3C169.9,97.3,173.9,97.6,174.9,99.7z"/>
		
			<linearGradient id="SVGID_49_" gradientUnits="userSpaceOnUse" x1="238.7741" y1="14.6854" x2="238.7741" y2="5.6558" gradientTransform="matrix(0.9194 -0.3934 0.3934 0.9194 -61.5989 188.9422)">
			<stop  offset="0" style="stop-color:#815FFF"/>
			<stop  offset="1" style="stop-color:#7B65FF"/>
		</linearGradient>
		<path class="st51" d="M165.4,98.4c-0.6,3.3-2.6,7.6-6.9,12.3c0.2-0.7,0.3-1.4,0.4-2.2c0.1-3.3-1.1-4.4-3-6c0,0,0,0,0,0
			c0,0,0,0,0,0c0,0,0,0,0,0C158.9,100.6,162.3,99.2,165.4,98.4z"/>
		
			<linearGradient id="SVGID_50_" gradientUnits="userSpaceOnUse" x1="220.8999" y1="20.677" x2="231.0616" y2="-2.3696" gradientTransform="matrix(0.9194 -0.3934 0.3934 0.9194 -61.5989 188.9422)">
			<stop  offset="0" style="stop-color:#5D3DFF"/>
			<stop  offset="1" style="stop-color:#8FA2FF"/>
		</linearGradient>
		<path class="st52" d="M158.6,110.7c-0.9,2.8-3,4.2-5.2,6c0,0,0,0,0,0c0,0,0,0,0,0c-1.4,1.1-2.8,2.4-3.9,4.4
			c-1-1.9-2.3-3.1-3.7-4.2c0,0,0,0,0,0c-2.1-1.7-4.2-3-4.9-5.7c-0.2-0.7-0.3-1.5-0.3-2.4c0-3.5,1.6-4.7,3.7-6.5
			c1-0.8,2.1-1.8,3.2-3.2c0.5-0.7,1.1-1.4,1.6-2.4c0.3-0.6,0.5-0.8,0.9-0.8c0.4,0,0.5,0.2,0.9,0.8c0.6,1,1.2,1.9,1.8,2.6
			c1.2,1.4,2.3,2.4,3.3,3.2c1.8,1.6,3.1,2.8,3,6C158.9,109.3,158.8,110,158.6,110.7C158.6,110.7,158.6,110.7,158.6,110.7z"/>
		
			<linearGradient id="SVGID_51_" gradientUnits="userSpaceOnUse" x1="226.0458" y1="18.1434" x2="226.0454" y2="18.1446" gradientTransform="matrix(0.9194 -0.3934 0.3934 0.9194 -61.5989 188.9422)">
			<stop  offset="0" style="stop-color:#C5A5FF"/>
			<stop  offset="0.5633" style="stop-color:#FFFFFF"/>
			<stop  offset="1" style="stop-color:#FFFFFF"/>
		</linearGradient>
		<path class="st53" d="M153.4,116.7C153.4,116.7,153.4,116.7,153.4,116.7C153.4,116.7,153.4,116.7,153.4,116.7z"/>
		
			<linearGradient id="SVGID_52_" gradientUnits="userSpaceOnUse" x1="240.0905" y1="6.0912" x2="240.0905" y2="-1.3564" gradientTransform="matrix(0.9194 -0.3934 0.3934 0.9194 -61.5989 188.9422)">
			<stop  offset="0" style="stop-color:#AE9FFF"/>
			<stop  offset="1" style="stop-color:#949DFF"/>
		</linearGradient>
		<path class="st54" d="M164,92.2c1.3,0.6,2.1,2.9,1.4,6.2c-3.1,0.7-6.5,2.1-9.4,4c0,0,0,0,0,0c0,0,0,0,0-0.1
			c0.6-2.7,0.8-5.2,0.6-7.6c1.5-1.3,3.1-2.1,4.5-2.5C162.3,91.9,163.3,91.9,164,92.2z"/>
		
			<linearGradient id="SVGID_53_" gradientUnits="userSpaceOnUse" x1="235.0046" y1="6.0679" x2="235.0046" y2="-0.7456" gradientTransform="matrix(0.9194 -0.3934 0.3934 0.9194 -61.5989 188.9422)">
			<stop  offset="0" style="stop-color:#815FFF"/>
			<stop  offset="1" style="stop-color:#7B65FF"/>
		</linearGradient>
		<path class="st55" d="M156.1,102.4C156,102.4,156,102.4,156.1,102.4C156,102.4,156,102.4,156.1,102.4
			C156,102.4,156,102.4,156.1,102.4c-1.1-0.8-2.2-1.7-3.4-3.1c0,0,0,0,0,0c1.1-1.8,2.5-3.3,3.9-4.5
			C156.8,97.1,156.7,99.6,156.1,102.4C156,102.3,156,102.4,156.1,102.4C156.1,102.4,156.1,102.4,156.1,102.4z"/>
		
			<linearGradient id="SVGID_54_" gradientUnits="userSpaceOnUse" x1="212.0145" y1="15.2694" x2="212.0145" y2="-8.5876" gradientTransform="matrix(0.9194 -0.3934 0.3934 0.9194 -61.5989 188.9422)">
			<stop  offset="0" style="stop-color:#D4BFFF"/>
			<stop  offset="1" style="stop-color:#C3C9FF"/>
		</linearGradient>
		<path class="st56" d="M140.8,111.1C140.8,111.1,140.9,111.1,140.8,111.1C140.9,111.1,140.9,111.1,140.8,111.1c0.8,2.6,2.9,4,5,5.7
			c0,0,0,0,0,0c0,0-6.1-0.9-12.5-4.1c-7-3.5-9.5-9.6-8.2-12.3c1.1-2.1,5.1-2.6,9.6-1.9C135,101.9,136.6,106.3,140.8,111.1
			C140.8,111.1,140.8,111.1,140.8,111.1z"/>
		
			<linearGradient id="SVGID_55_" gradientUnits="userSpaceOnUse" x1="232.5087" y1="1.8464" x2="232.5087" y2="-14.4676" gradientTransform="matrix(0.9194 -0.3934 0.3934 0.9194 -61.5989 188.9422)">
			<stop  offset="0" style="stop-color:#AE9FFF"/>
			<stop  offset="1" style="stop-color:#949DFF"/>
		</linearGradient>
		<path class="st57" d="M156.4,92.5c0.1,0.7,0.2,1.5,0.3,2.3c-1.4,1.2-2.8,2.7-3.9,4.5c0,0,0,0,0,0c-0.6-0.7-1.2-1.6-1.8-2.6
			c-0.3-0.6-0.5-0.8-0.9-0.8c-0.4,0-0.6,0.2-0.9,0.8c-0.5,0.9-1.1,1.7-1.6,2.4c0,0,0,0,0,0c0,0,0,0,0,0c-1-1.7-2.2-3.1-3.5-4.1
			c0.1-0.8,0.2-1.5,0.4-2.2c0.7-3,1.8-5.5,3.1-7.3c1.2-1.8,2.5-2.9,3.3-3c0,0,0,0,0,0c0,0,0,0,0,0c0.8,0,2.1,1.2,3.3,3.3
			c0,0,0,0,0,0C155,87.5,155.9,89.8,156.4,92.5z"/>
		
			<linearGradient id="SVGID_56_" gradientUnits="userSpaceOnUse" x1="219.3286" y1="8.098" x2="219.3286" y2="-5.83" gradientTransform="matrix(0.9194 -0.3934 0.3934 0.9194 -61.5989 188.9422)">
			<stop  offset="0" style="stop-color:#815FFF"/>
			<stop  offset="1" style="stop-color:#7B65FF"/>
		</linearGradient>
		<path class="st58" d="M140.9,111.1C140.9,111.1,140.9,111.1,140.9,111.1C140.9,111.1,140.8,111.1,140.9,111.1
			C140.8,111.1,140.8,111.1,140.9,111.1c-4.2-4.8-5.9-9.2-6.2-12.5c3.2,0.6,6.7,1.8,9.6,3.6c0,0,0,0,0,0c0,0,0,0,0,0
			c-2.2,1.8-3.7,3-3.7,6.5C140.6,109.6,140.7,110.4,140.9,111.1z"/>
		
			<linearGradient id="SVGID_57_" gradientUnits="userSpaceOnUse" x1="225.5077" y1="1.2684" x2="225.5077" y2="-5.6" gradientTransform="matrix(0.9194 -0.3934 0.3934 0.9194 -61.5989 188.9422)">
			<stop  offset="0" style="stop-color:#815FFF"/>
			<stop  offset="1" style="stop-color:#7B65FF"/>
		</linearGradient>
		<path class="st59" d="M147.5,99C147.5,99,147.5,99,147.5,99c-1.1,1.4-2.2,2.4-3.2,3.2c0,0,0,0,0,0c0,0,0,0,0,0c0,0,0,0,0,0
			c-0.5-2.6-0.5-5-0.3-7.3C145.3,95.9,146.5,97.3,147.5,99C147.5,99,147.5,99,147.5,99z"/>
		
			<linearGradient id="SVGID_58_" gradientUnits="userSpaceOnUse" x1="221.009" y1="1.2065" x2="221.009" y2="-10.5588" gradientTransform="matrix(0.9194 -0.3934 0.3934 0.9194 -61.5989 188.9422)">
			<stop  offset="0" style="stop-color:#AE9FFF"/>
			<stop  offset="1" style="stop-color:#949DFF"/>
		</linearGradient>
		<path class="st60" d="M144.3,102.2C144.3,102.2,144.3,102.2,144.3,102.2c-2.8-1.8-6.3-3-9.6-3.5c-0.3-3.2,0.7-5.4,2-6
			c0.7-0.3,1.7-0.4,2.8-0.1c1.4,0.3,3,1.1,4.6,2.4C143.7,97.1,143.8,99.6,144.3,102.2z"/>
	</g>
</g>
</svg>
