<?xml version="1.0" encoding="utf-8"?>
<!-- Generator: Adobe Illustrator 20.0.0, SVG Export Plug-In . SVG Version: 6.00 Build 0)  -->
<svg version="1.1" xmlns="http://www.w3.org/2000/svg" xmlns:xlink="http://www.w3.org/1999/xlink" x="0px" y="0px"
	 viewBox="0 0 250 250" style="enable-background:new 0 0 250 250;" xml:space="preserve">
<style type="text/css">
	.st0{fill:#FBF8FC;}
	.st1{fill:url(#SVGID_1_);}
	.st2{fill:url(#SVGID_2_);}
	.st3{fill:url(#SVGID_3_);}
	.st4{enable-background:new    ;}
	.st5{fill:url(#SVGID_4_);}
	.st6{fill:url(#SVGID_5_);}
	.st7{fill:url(#SVGID_6_);}
	.st8{fill:url(#SVGID_7_);}
	.st9{fill:url(#SVGID_8_);}
	.st10{fill:url(#SVGID_9_);}
	.st11{fill:url(#SVGID_10_);}
	.st12{fill:url(#SVGID_11_);}
	.st13{fill:url(#SVGID_12_);}
	.st14{fill:url(#SVGID_13_);}
	.st15{fill:url(#SVGID_14_);}
	.st16{fill:url(#SVGID_15_);}
	.st17{fill:url(#SVGID_16_);}
	.st18{fill:url(#SVGID_17_);}
	.st19{fill:url(#SVGID_18_);}
	.st20{fill:url(#SVGID_19_);}
	.st21{fill:url(#SVGID_20_);}
	.st22{fill:url(#SVGID_21_);}
	.st23{fill:url(#SVGID_22_);}
	.st24{fill:#F5C2E2;}
	.st25{fill:url(#SVGID_23_);}
</style>
<g id="colored_x5F_circles">
	<circle class="st0" cx="126" cy="125.1" r="100"/>
</g>
<g id="icons">
	<linearGradient id="SVGID_1_" gradientUnits="userSpaceOnUse" x1="136.6573" y1="99.9937" x2="136.6573" y2="137.1362">
		<stop  offset="0.3152" style="stop-color:#FFFFE4"/>
		<stop  offset="0.7451" style="stop-color:#A2DF63"/>
		<stop  offset="0.7866" style="stop-color:#96D95D"/>
		<stop  offset="1" style="stop-color:#5ABC42"/>
	</linearGradient>
	<path class="st1" d="M138.4,137.1l11.2-9.8l0.1,0.1c0.2-0.2,0.3-0.4,0.5-0.5c6.9-1.6,15.1-6.5,17.7-15.8l-3.3-0.9
		c-1.7,6.1-6.3,10-11.1,12c2.2-3.7,5.9-12.2,6.1-21.7l-3.4-0.5c-1.2,10.8-5,20.2-8.5,24.4l-11.1,9.7l-11.1-9.7
		c-3.4-4.1-7-10.9-7.4-18.3l-3.4,0.2c0.3,6,2.5,11.6,5.1,15.9c-4.8-2.1-9.4-6-11.2-12.1l-3.3,0.9c2.6,9.3,10.8,14.2,17.7,15.8
		c0.2,0.2,11.8,10.3,11.8,10.3L138.4,137.1z"/>
	<g>
		
			<linearGradient id="SVGID_2_" gradientUnits="userSpaceOnUse" x1="-5.9647" y1="286.3081" x2="-5.9647" y2="357.2441" gradientTransform="matrix(-1.0426 0.1486 0.1405 0.9858 48.6017 -163.851)">
			<stop  offset="0" style="stop-color:#E4FF6B"/>
			<stop  offset="0.3184" style="stop-color:#BFED61"/>
			<stop  offset="1" style="stop-color:#74C94C"/>
		</linearGradient>
		<path class="st2" d="M56.7,122c0.2-0.3,0.6-0.4,1.2-0.3c30,29.2,70.1,37.4,86,63.3c1.6,4.4-3.2,2.3-7.1,2.1
			c-7.6-0.4-13.5,2.9-14.2,1.2c-0.8-1.7,1.5-2.3,0.9-3.7c-0.8-1.6-10.3,1.7-11-0.1c-0.9-2.1,1.4-1.5,0.5-3.7
			c-0.9-2.1-13.7,0.6-15-2.3c-0.8-1.7,4.5-1.6,2.9-4.4c-1.4-2.3-11.9-2.7-13.5-6c-1.1-2.3,4-1.1,2.9-3.3c-1-1.9-12.3-6.6-14.4-11.3
			c-1.5-3.3,4.5,0.2,2.7-3.4C77.4,148.1,54.1,126.2,56.7,122z"/>
		
			<linearGradient id="SVGID_3_" gradientUnits="userSpaceOnUse" x1="-6.8042" y1="286.6892" x2="-6.8042" y2="355.1046" gradientTransform="matrix(-1.0426 0.1486 0.1405 0.9858 48.6017 -163.851)">
			<stop  offset="0" style="stop-color:#C6F163"/>
			<stop  offset="0.2609" style="stop-color:#B0E65D"/>
			<stop  offset="1" style="stop-color:#74C94C"/>
		</linearGradient>
		<path class="st3" d="M58.1,122c7,1.1,36,22.1,37.9,21.2c2.3-0.5-2.5-3.2,0.2-4.4c2.7-1.1,14,9,16,8.4c2.1-0.6-0.9-4,2.3-3.2
			c3,0.8,18,18.6,26.3,34.4c1.7,3.2,2.7,5.4,3.2,6.9C126.6,159.3,87.3,150.9,58.1,122z"/>
	</g>
	<g class="st4">
		
			<radialGradient id="SVGID_4_" cx="184.1475" cy="-33.994" r="11.2833" gradientTransform="matrix(0.9915 0.1301 -0.1301 0.9915 -36.5267 107.4758)" gradientUnits="userSpaceOnUse">
			<stop  offset="9.740486e-02" style="stop-color:#FFEDFF"/>
			<stop  offset="0.117" style="stop-color:#FFEAFE"/>
			<stop  offset="0.3034" style="stop-color:#FFD3F7"/>
			<stop  offset="0.5027" style="stop-color:#FFC2F3"/>
			<stop  offset="0.722" style="stop-color:#FFB8F0"/>
			<stop  offset="1" style="stop-color:#FFB5EF"/>
		</radialGradient>
		<path class="st5" d="M151,93.9c1-7.6-3.4-8.7-6.1-7.2s-3.7,5.5,4,8.3c-7.7-2.8-10.6,1.2-10,4.2s4.5,5,10.4-1.9
			c-5.9,6.9-3.4,11.1-0.3,11.5c3,0.4,6.6-3,2.6-11.2c3.9,8.2,8.3,7.3,9.6,4.5c1.3-2.8-0.4-7.4-8.6-6.6c8.2-0.7,8.3-4.9,6-7
			C156.5,86.4,152,86.3,151,93.9z"/>
		<radialGradient id="SVGID_5_" cx="139.89" cy="86.8049" r="11.2833" gradientUnits="userSpaceOnUse">
			<stop  offset="9.740486e-02" style="stop-color:#FFEDFF"/>
			<stop  offset="0.117" style="stop-color:#FFEAFE"/>
			<stop  offset="0.3034" style="stop-color:#FFD3F7"/>
			<stop  offset="0.5027" style="stop-color:#FFC2F3"/>
			<stop  offset="0.722" style="stop-color:#FFB8F0"/>
			<stop  offset="1" style="stop-color:#FFB5EF"/>
		</radialGradient>
		<path class="st6" d="M139.9,82.9c0-7.6-4.5-8.2-6.9-6.4s-2.9,5.9,5.1,7.7c-8-1.8-10.3,2.6-9.4,5.5c0.9,2.9,5.1,4.4,10.1-3.3
			c-5,7.6-1.9,11.4,1.2,11.4s6.1-3.8,1.2-11.4c5,7.6,9.1,6.2,10.1,3.3s-1.4-7.3-9.4-5.5c8-1.8,7.5-6,5.1-7.7S139.9,75.3,139.9,82.9z
			"/>
		<radialGradient id="SVGID_6_" cx="129.6314" cy="73.4287" r="11.2833" gradientUnits="userSpaceOnUse">
			<stop  offset="9.740486e-02" style="stop-color:#FFFFFF"/>
			<stop  offset="0.2247" style="stop-color:#FFF2FC"/>
			<stop  offset="0.446" style="stop-color:#FFE1F9"/>
			<stop  offset="0.6903" style="stop-color:#FFD7F7"/>
			<stop  offset="1" style="stop-color:#FFD4F6"/>
		</radialGradient>
		<path class="st7" d="M129.6,69.5c0-7.6-4.5-8.2-6.9-6.4c-2.5,1.8-2.9,5.9,5.1,7.7c-8-1.8-10.3,2.6-9.4,5.5s5.1,4.4,10.1-3.3
			c-5,7.6-1.9,11.4,1.2,11.4c3.1,0,6.1-3.8,1.2-11.4c5,7.6,9.1,6.2,10.1,3.3s-1.4-7.3-9.4-5.5c8-1.8,7.5-6,5.1-7.7
			C134.1,61.4,129.6,61.9,129.6,69.5z"/>
		
			<radialGradient id="SVGID_7_" cx="-172.2231" cy="557.6285" r="11.2833" gradientTransform="matrix(0.8689 -0.495 0.495 0.8689 -7.9636 -462.0439)" gradientUnits="userSpaceOnUse">
			<stop  offset="9.740486e-02" style="stop-color:#FFEDFF"/>
			<stop  offset="0.117" style="stop-color:#FFEAFE"/>
			<stop  offset="0.3034" style="stop-color:#FFD3F7"/>
			<stop  offset="0.5027" style="stop-color:#FFC2F3"/>
			<stop  offset="0.722" style="stop-color:#FFB8F0"/>
			<stop  offset="1" style="stop-color:#FFB5EF"/>
		</radialGradient>
		<path class="st8" d="M116.5,104.3c-3.8-6.6-7.9-4.9-9.2-2.1c-1.3,2.8,0.4,6.6,8.2,4.2c-7.9,2.4-7.7,7.3-5.4,9.4
			c2.3,2.1,6.6,1.2,7.1-7.8c-0.5,9.1,4,10.9,6.7,9.4c2.7-1.5,3.4-6.3-4.6-10.5c8.1,4.2,11,0.8,10.4-2.2c-0.6-3-4.8-5.6-10.8-0.1
			c6.1-5.5,3.6-8.9,0.6-9.2C116.3,95,112.7,97.7,116.5,104.3z"/>
		
			<radialGradient id="SVGID_8_" cx="-539.3765" cy="758.1638" r="11.2833" gradientTransform="matrix(0.6163 -0.7875 0.7875 0.6163 -164.3691 -798.2753)" gradientUnits="userSpaceOnUse">
			<stop  offset="9.740486e-02" style="stop-color:#FFFFFF"/>
			<stop  offset="0.2247" style="stop-color:#FFF2FC"/>
			<stop  offset="0.446" style="stop-color:#FFE1F9"/>
			<stop  offset="0.6903" style="stop-color:#FFD7F7"/>
			<stop  offset="1" style="stop-color:#FFD4F6"/>
		</radialGradient>
		<path class="st9" d="M97.2,91.4c-6-4.7-9.2-1.5-9.3,1.5c-0.1,3.1,2.9,6,9.2,0.8c-6.4,5.2-4.3,9.7-1.5,10.7c2.9,1,6.6-1.4,3.6-9.9
			c2.9,8.6,7.8,8.5,9.7,6.1s0.8-7.2-8.3-8c9.1,0.8,10.5-3.4,8.8-5.9c-1.7-2.5-6.6-3.4-10.1,4c3.5-7.4,0-9.6-3-8.8
			C93.5,82.8,91.2,86.7,97.2,91.4z"/>
		<radialGradient id="SVGID_9_" cx="92.7034" cy="110.1066" r="11.2833" gradientUnits="userSpaceOnUse">
			<stop  offset="9.740486e-02" style="stop-color:#FFEDFF"/>
			<stop  offset="0.117" style="stop-color:#FFEAFE"/>
			<stop  offset="0.3034" style="stop-color:#FFD3F7"/>
			<stop  offset="0.5027" style="stop-color:#FFC2F3"/>
			<stop  offset="0.722" style="stop-color:#FFB8F0"/>
			<stop  offset="1" style="stop-color:#FFB5EF"/>
		</radialGradient>
		<path class="st10" d="M92.7,106.2c0-7.6-4.5-8.2-6.9-6.4c-2.5,1.8-2.9,5.9,5.1,7.7c-8-1.8-10.3,2.6-9.4,5.5
			c0.9,2.9,5.1,4.4,10.1-3.3c-5,7.6-1.9,11.4,1.2,11.4c3.1,0,6.1-3.8,1.2-11.4c5,7.6,9.1,6.2,10.1,3.3s-1.4-7.3-9.4-5.5
			c8-1.8,7.5-6,5.1-7.7C97.2,98,92.7,98.6,92.7,106.2z"/>
		<radialGradient id="SVGID_10_" cx="121.6596" cy="89.4187" r="11.2833" gradientUnits="userSpaceOnUse">
			<stop  offset="9.740486e-02" style="stop-color:#FFEDFF"/>
			<stop  offset="0.117" style="stop-color:#FFEAFE"/>
			<stop  offset="0.3034" style="stop-color:#FFD3F7"/>
			<stop  offset="0.5027" style="stop-color:#FFC2F3"/>
			<stop  offset="0.722" style="stop-color:#FFB8F0"/>
			<stop  offset="1" style="stop-color:#FFB5EF"/>
		</radialGradient>
		<path class="st11" d="M121.7,85.5c0-7.6-4.5-8.2-6.9-6.4s-2.9,5.9,5.1,7.7c-8-1.8-10.3,2.6-9.4,5.5c0.9,2.9,5.1,4.4,10.1-3.3
			c-5,7.6-1.9,11.4,1.2,11.4c3.1,0,6.1-3.8,1.2-11.4c5,7.6,9.1,6.2,10.1,3.3s-1.4-7.3-9.4-5.5c8-1.8,7.5-6,5.1-7.7
			S121.7,77.9,121.7,85.5z"/>
		
			<radialGradient id="SVGID_11_" cx="-670.3307" cy="791.3468" r="11.2833" gradientTransform="matrix(0.4469 -0.8946 0.8946 0.4469 -241.4996 -868.0549)" gradientUnits="userSpaceOnUse">
			<stop  offset="9.740486e-02" style="stop-color:#FFFFFF"/>
			<stop  offset="0.2247" style="stop-color:#FFF2FC"/>
			<stop  offset="0.446" style="stop-color:#FFE1F9"/>
			<stop  offset="0.6903" style="stop-color:#FFD7F7"/>
			<stop  offset="1" style="stop-color:#FFD4F6"/>
		</radialGradient>
		<path class="st12" d="M163.4,83.5c-6.8-3.4-9.3,0.3-8.8,3.4s4,5.3,9.2-1.1c-5.2,6.4-2.3,10.4,0.7,10.8s6.2-2.6,1.6-10.5
			c4.6,7.8,9.4,6.8,10.7,4.1c1.4-2.7-0.7-7.2-9.7-6.1c9-1,9.6-5.4,7.4-7.6c-2.2-2.1-7.1-2-9.1,5.9c2-8-2-9.4-4.7-8
			C158.1,75.8,156.6,80.1,163.4,83.5z"/>
		
			<radialGradient id="SVGID_12_" cx="163.4516" cy="-592.4946" r="11.2833" gradientTransform="matrix(0.7806 0.625 -0.625 0.7806 -316.9219 456.7822)" gradientUnits="userSpaceOnUse">
			<stop  offset="9.740486e-02" style="stop-color:#FFEDFF"/>
			<stop  offset="0.117" style="stop-color:#FFEAFE"/>
			<stop  offset="0.3034" style="stop-color:#FFD3F7"/>
			<stop  offset="0.5027" style="stop-color:#FFC2F3"/>
			<stop  offset="0.722" style="stop-color:#FFB8F0"/>
			<stop  offset="1" style="stop-color:#FFB5EF"/>
		</radialGradient>
		<path class="st13" d="M183.4,93.4c4.8-5.9,1.6-9.2-1.4-9.3c-3.1-0.1-6,2.8-0.9,9.2c-5.1-6.4-9.6-4.4-10.7-1.6
			c-1.1,2.9,1.3,6.6,9.9,3.8c-8.6,2.9-8.6,7.7-6.2,9.6c2.4,1.9,7.2,0.8,8.1-8.2c-0.9,9,3.3,10.5,5.8,8.8c2.6-1.7,3.5-6.5-3.9-10.1
			c7.4,3.6,9.6,0.1,8.8-2.9C192,89.8,188.2,87.5,183.4,93.4z"/>
		
			<radialGradient id="SVGID_13_" cx="37.9843" cy="315.0638" r="11.2833" gradientTransform="matrix(0.9676 -0.2526 0.2526 0.9676 36.575 -220.2675)" gradientUnits="userSpaceOnUse">
			<stop  offset="9.740486e-02" style="stop-color:#FFFFFF"/>
			<stop  offset="0.2247" style="stop-color:#FFF2FC"/>
			<stop  offset="0.446" style="stop-color:#FFE1F9"/>
			<stop  offset="0.6903" style="stop-color:#FFD7F7"/>
			<stop  offset="1" style="stop-color:#FFD4F6"/>
		</radialGradient>
		<path class="st14" d="M151.9,71.2c-1.9-7.4-6.4-6.8-8.3-4.4c-1.9,2.4-1.3,6.5,6.9,6.2c-8.2,0.3-9.3,5.1-7.7,7.7s6.1,2.9,8.9-5.7
			c-2.9,8.6,1.1,11.5,4,10.8c3-0.8,5-5.2-1.8-11.4c6.7,6.1,10.4,3.7,10.6,0.6c0.2-3.1-3.1-6.7-10.4-2.9c7.3-3.8,5.8-7.7,2.9-8.8
			S150,63.8,151.9,71.2z"/>
		<linearGradient id="SVGID_14_" gradientUnits="userSpaceOnUse" x1="126.4926" y1="105.2526" x2="135.9998" y2="105.2526">
			<stop  offset="0" style="stop-color:#FF7AD9"/>
			<stop  offset="0.149" style="stop-color:#FC88DF"/>
			<stop  offset="0.3919" style="stop-color:#F899E5"/>
			<stop  offset="0.6601" style="stop-color:#F6A3E9"/>
			<stop  offset="1" style="stop-color:#F5A6EA"/>
		</linearGradient>
		<path class="st15" d="M136,105.3c0,1.3-0.5,2.5-1.4,3.4s-2,1.4-3.4,1.4s-2.5-0.5-3.4-1.4c-0.9-0.9-1.4-2-1.4-3.4s0.5-2.5,1.4-3.4
			c0.9-0.9,2-1.4,3.4-1.4s2.5,0.5,3.4,1.4C135.5,102.8,136,103.9,136,105.3z"/>
		<linearGradient id="SVGID_15_" gradientUnits="userSpaceOnUse" x1="122.2756" y1="116.4927" x2="131.7827" y2="116.4927">
			<stop  offset="0" style="stop-color:#FF7AD9"/>
			<stop  offset="0.149" style="stop-color:#FC88DF"/>
			<stop  offset="0.3919" style="stop-color:#F899E5"/>
			<stop  offset="0.6601" style="stop-color:#F6A3E9"/>
			<stop  offset="1" style="stop-color:#F5A6EA"/>
		</linearGradient>
		<path class="st16" d="M131.8,116.5c0,1.3-0.5,2.5-1.4,3.4c-0.9,0.9-2,1.4-3.4,1.4c-1.3,0-2.5-0.5-3.4-1.4c-0.9-0.9-1.4-2-1.4-3.4
			c0-1.3,0.5-2.5,1.4-3.4s2-1.4,3.4-1.4c1.3,0,2.5,0.5,3.4,1.4S131.8,115.2,131.8,116.5z"/>
		<linearGradient id="SVGID_16_" gradientUnits="userSpaceOnUse" x1="98.0887" y1="117.0303" x2="107.5958" y2="117.0303">
			<stop  offset="0" style="stop-color:#FF7AD9"/>
			<stop  offset="0.149" style="stop-color:#FC88DF"/>
			<stop  offset="0.3919" style="stop-color:#F899E5"/>
			<stop  offset="0.6601" style="stop-color:#F6A3E9"/>
			<stop  offset="1" style="stop-color:#F5A6EA"/>
		</linearGradient>
		<path class="st17" d="M107.6,117c0,1.3-0.5,2.5-1.4,3.4c-0.9,0.9-2,1.4-3.4,1.4c-1.3,0-2.5-0.5-3.4-1.4s-1.4-2-1.4-3.4
			c0-1.3,0.5-2.5,1.4-3.4c0.9-0.9,2-1.4,3.4-1.4c1.3,0,2.5,0.5,3.4,1.4C107.1,114.5,107.6,115.7,107.6,117z"/>
		<linearGradient id="SVGID_17_" gradientUnits="userSpaceOnUse" x1="105.5943" y1="110.3275" x2="115.1015" y2="110.3275">
			<stop  offset="0" style="stop-color:#FF7AD9"/>
			<stop  offset="0.149" style="stop-color:#FC88DF"/>
			<stop  offset="0.3919" style="stop-color:#F899E5"/>
			<stop  offset="0.6601" style="stop-color:#F6A3E9"/>
			<stop  offset="1" style="stop-color:#F5A6EA"/>
		</linearGradient>
		<path class="st18" d="M115.1,110.3c0,1.3-0.5,2.5-1.4,3.4c-0.9,0.9-2,1.4-3.4,1.4c-1.3,0-2.5-0.5-3.4-1.4s-1.4-2-1.4-3.4
			c0-1.3,0.5-2.5,1.4-3.4c0.9-0.9,2-1.4,3.4-1.4c1.3,0,2.5,0.5,3.4,1.4C114.6,107.8,115.1,109,115.1,110.3z"/>
		<linearGradient id="SVGID_18_" gradientUnits="userSpaceOnUse" x1="155.8906" y1="104.7619" x2="165.3978" y2="104.7619">
			<stop  offset="0" style="stop-color:#FF7AD9"/>
			<stop  offset="0.149" style="stop-color:#FC88DF"/>
			<stop  offset="0.3919" style="stop-color:#F899E5"/>
			<stop  offset="0.6601" style="stop-color:#F6A3E9"/>
			<stop  offset="1" style="stop-color:#F5A6EA"/>
		</linearGradient>
		<path class="st19" d="M165.4,104.8c0,1.3-0.5,2.5-1.4,3.4s-2,1.4-3.4,1.4c-1.3,0-2.5-0.5-3.4-1.4c-0.9-0.9-1.4-2-1.4-3.4
			s0.5-2.5,1.4-3.4c0.9-0.9,2-1.4,3.4-1.4c1.3,0,2.5,0.5,3.4,1.4S165.4,103.4,165.4,104.8z"/>
		<linearGradient id="SVGID_19_" gradientUnits="userSpaceOnUse" x1="158.4943" y1="111.5636" x2="168.0015" y2="111.5636">
			<stop  offset="0" style="stop-color:#FF7AD9"/>
			<stop  offset="0.149" style="stop-color:#FC88DF"/>
			<stop  offset="0.3919" style="stop-color:#F899E5"/>
			<stop  offset="0.6601" style="stop-color:#F6A3E9"/>
			<stop  offset="1" style="stop-color:#F5A6EA"/>
		</linearGradient>
		<path class="st20" d="M168,111.6c0,1.3-0.5,2.5-1.4,3.4c-0.9,0.9-2,1.4-3.4,1.4s-2.5-0.5-3.4-1.4c-0.9-0.9-1.4-2-1.4-3.4
			s0.5-2.5,1.4-3.4s2-1.4,3.4-1.4s2.5,0.5,3.4,1.4S168,110.3,168,111.6z"/>
		<linearGradient id="SVGID_20_" gradientUnits="userSpaceOnUse" x1="139.5025" y1="107.9801" x2="149.0096" y2="107.9801">
			<stop  offset="0" style="stop-color:#FF7AD9"/>
			<stop  offset="0.149" style="stop-color:#FC88DF"/>
			<stop  offset="0.3919" style="stop-color:#F899E5"/>
			<stop  offset="0.6601" style="stop-color:#F6A3E9"/>
			<stop  offset="1" style="stop-color:#F5A6EA"/>
		</linearGradient>
		<path class="st21" d="M149,108c0,1.3-0.5,2.5-1.4,3.4s-2,1.4-3.4,1.4s-2.5-0.5-3.4-1.4s-1.4-2-1.4-3.4s0.5-2.5,1.4-3.4
			c0.9-0.9,2-1.4,3.4-1.4s2.5,0.5,3.4,1.4C148.5,105.5,149,106.7,149,108z"/>
		<linearGradient id="SVGID_21_" gradientUnits="userSpaceOnUse" x1="172.2301" y1="110.3675" x2="181.7372" y2="110.3675">
			<stop  offset="0" style="stop-color:#F79BE6"/>
			<stop  offset="6.556308e-02" style="stop-color:#F8A0E8"/>
			<stop  offset="0.3323" style="stop-color:#FCB1EF"/>
			<stop  offset="0.6267" style="stop-color:#FEBBF3"/>
			<stop  offset="1" style="stop-color:#FFBEF4"/>
		</linearGradient>
		<path class="st22" d="M181.7,110.4c0,1.3-0.5,2.5-1.4,3.4c-0.9,0.9-2,1.4-3.4,1.4s-2.5-0.5-3.4-1.4c-0.9-0.9-1.4-2-1.4-3.4
			c0-1.3,0.5-2.5,1.4-3.4s2-1.4,3.4-1.4s2.5,0.5,3.4,1.4S181.7,109.1,181.7,110.4z"/>
		<linearGradient id="SVGID_22_" gradientUnits="userSpaceOnUse" x1="167.2883" y1="105.5921" x2="176.7954" y2="105.5921">
			<stop  offset="0" style="stop-color:#FF7AD9"/>
			<stop  offset="0.149" style="stop-color:#FC88DF"/>
			<stop  offset="0.3919" style="stop-color:#F899E5"/>
			<stop  offset="0.6601" style="stop-color:#F6A3E9"/>
			<stop  offset="1" style="stop-color:#F5A6EA"/>
		</linearGradient>
		<path class="st23" d="M176.8,105.6c0,1.3-0.5,2.5-1.4,3.4s-2,1.4-3.4,1.4c-1.3,0-2.5-0.5-3.4-1.4c-0.9-0.9-1.4-2-1.4-3.4
			s0.5-2.5,1.4-3.4c0.9-0.9,2-1.4,3.4-1.4c1.3,0,2.5,0.5,3.4,1.4C176.3,103.1,176.8,104.3,176.8,105.6z"/>
		<path class="st24" d="M105.2,100.4"/>
	</g>
	<g>
		<linearGradient id="SVGID_23_" gradientUnits="userSpaceOnUse" x1="139.8639" y1="135.486" x2="139.8639" y2="182.2465">
			<stop  offset="0" style="stop-color:#5ABC42"/>
			<stop  offset="0.5083" style="stop-color:#96D95D"/>
			<stop  offset="0.6071" style="stop-color:#A2DF63"/>
			<stop  offset="1" style="stop-color:#D5F193"/>
		</linearGradient>
		<path class="st25" d="M141.7,181.8c-4.4-15.9-7.6-42.3-7.6-46.2l5.1,0c0.1,7.9,2.9,30.2,6.2,42.3
			C146.4,180.1,142.1,183.5,141.7,181.8z"/>
	</g>
</g>
</svg>
