<?xml version="1.0" encoding="utf-8"?>
<!-- Generator: Adobe Illustrator 20.0.0, SVG Export Plug-In . SVG Version: 6.00 Build 0)  -->
<svg version="1.1" xmlns="http://www.w3.org/2000/svg" xmlns:xlink="http://www.w3.org/1999/xlink" x="0px" y="0px"
	 viewBox="0 0 250 250" style="enable-background:new 0 0 250 250;" xml:space="preserve">
<style type="text/css">
	.st0{fill:#FBF9F4;}
	.st1{fill:url(#SVGID_1_);}
	.st2{fill:url(#SVGID_2_);}
	.st3{fill:url(#SVGID_3_);}
	.st4{fill:url(#SVGID_4_);}
	.st5{fill:url(#SVGID_5_);}
	.st6{fill:url(#SVGID_6_);}
	.st7{fill:url(#SVGID_7_);}
	.st8{fill:url(#SVGID_8_);}
	.st9{fill:url(#SVGID_9_);}
	.st10{fill:url(#SVGID_10_);}
	.st11{fill:url(#SVGID_11_);}
	.st12{fill:url(#SVGID_12_);}
	.st13{fill:url(#SVGID_13_);}
</style>
<g id="colored_x5F_circles">
	<circle class="st0" cx="126" cy="125.1" r="100"/>
</g>
<g id="icons">
	<g>
		<g id="XMLID_35_">
			<linearGradient id="SVGID_1_" gradientUnits="userSpaceOnUse" x1="165.4219" y1="136.8919" x2="175.1138" y2="143.9288">
				<stop  offset="0" style="stop-color:#F7D2AB"/>
				<stop  offset="0.9944" style="stop-color:#C07C50"/>
			</linearGradient>
			<path class="st1" d="M177.3,139.7c-0.6,4.4-5.9,7.1-10.8,8.1c-0.5,0.1-0.9,0.2-1.5,0.2l0,0c1.6-0.2,3.6-1.3,4.7-2.4
				c1.3-1.2,2.1-2.9,2.2-4.6c0-0.8-0.1-1.7,0.1-2.5c0.2-0.8,0.6-1.4,0.9-2.1c0.9-2.3-0.1-5.3-2.1-6.9l0,0c1.2,0.8,2.3,1.7,3.1,2.5
				C175.6,133.8,177.6,137.3,177.3,139.7z"/>
			<linearGradient id="SVGID_2_" gradientUnits="userSpaceOnUse" x1="170.4399" y1="127.4301" x2="159.364" y2="147.7009">
				<stop  offset="0" style="stop-color:#F7D2AB"/>
				<stop  offset="0.9944" style="stop-color:#C07C50"/>
			</linearGradient>
			<path class="st2" d="M165.1,148L165.1,148c-4.4,0.5-10.7-0.4-14.5-1.8l0,0c5.5-3.1,10.2-8.4,15.2-17.8c0.1-0.2,0.2-0.4,0.3-0.5
				l0,0c1.6,0,3.3,0.7,4.8,1.7l0,0c2,1.6,3,4.5,2.1,6.9c-0.3,0.7-0.7,1.4-0.9,2.1c-0.2,0.8-0.1,1.6-0.1,2.5
				c-0.1,1.7-0.9,3.5-2.2,4.6C168.6,146.6,166.7,147.8,165.1,148z"/>
			<linearGradient id="SVGID_3_" gradientUnits="userSpaceOnUse" x1="143.3871" y1="103.4431" x2="150.6219" y2="147.7563">
				<stop  offset="0" style="stop-color:#F7D2AB"/>
				<stop  offset="0.9944" style="stop-color:#C07C50"/>
			</linearGradient>
			<path class="st3" d="M150.6,146.1c-1.7,0.8-3.4,1.6-5.2,2.2c-0.4-14.1-13.5-25.1-24.9-25.3c2.6-0.5,10.9-10.1,10.4-14.8
				c0,0,0-0.1-0.1-0.1c5-5.1,12.3-7.8,19.4-7.9c7.6-0.1,14,2.9,19.9,7C172.7,124.3,157.6,143,150.6,146.1z"/>
			<linearGradient id="SVGID_4_" gradientUnits="userSpaceOnUse" x1="90.3453" y1="126.3014" x2="136.8325" y2="160.0539">
				<stop  offset="0" style="stop-color:#F7D2AB"/>
				<stop  offset="0.9944" style="stop-color:#C07C50"/>
			</linearGradient>
			<path class="st4" d="M145.3,148.3c-1.6,2.2-6.1,6-10.8,8.2c-6.1,3-8.3,4.9-11,11.2c-1.3,3-3.9,6.7-6.3,8.2
				c4.1-12.8-0.2-20.2-7.1-27.8c-6.8-7.4-17-12.1-26.9-10.1l-0.4-0.4c1.9-2.2,3.8-4.5,4.5-7.2c10.2,2.6,20.7,0.2,28.3-8
				c1.6,0.7,3.2,0.8,4.8,0.6c0,0,0,0,0,0C131.8,123.2,144.9,134.2,145.3,148.3z"/>
			<linearGradient id="SVGID_5_" gradientUnits="userSpaceOnUse" x1="167.2539" y1="83.0949" x2="145.1875" y2="107.1166">
				<stop  offset="0" style="stop-color:#F7D2AB"/>
				<stop  offset="0.9944" style="stop-color:#C07C50"/>
			</linearGradient>
			<path class="st5" d="M173.3,89.5c0.5,5.9-0.5,13.7-3.2,17.7c-5.9-4.1-12.3-7.1-19.9-7c-7.1,0.1-14.4,2.8-19.4,7.9
				c-1.9-3.5-2.2-6.6-2.6-9.7l0.1,0c1.9,4.3,9.2,2.9,13.4,0.5c4.1-2.3,5.8-6.3,5.5-9.2l0,0c-0.2-0.8-0.5-1.5-0.9-2.2l0.1,0
				c9.6-8.2,22-2.5,26.8,1.9C173.2,89.4,173.3,89.4,173.3,89.5z"/>
			<linearGradient id="SVGID_6_" gradientUnits="userSpaceOnUse" x1="78.2202" y1="143.9014" x2="119.0272" y2="173.5298">
				<stop  offset="0" style="stop-color:#F7D2AB"/>
				<stop  offset="1.969505e-02" style="stop-color:#F5CFA8"/>
				<stop  offset="0.3106" style="stop-color:#DEAB82"/>
				<stop  offset="0.5795" style="stop-color:#CE9167"/>
				<stop  offset="0.8159" style="stop-color:#C48256"/>
				<stop  offset="0.9944" style="stop-color:#C07C50"/>
			</linearGradient>
			<path class="st6" d="M117.3,175.9c-1,1.3-6.5,6.9-12.2,7.2c1.9-0.3,3.7-0.7,5.4-2.3c3.9-3.9,2.7-9.6-0.3-13.6
				c-3.5-4.7-7.7-9.1-12.8-12c-0.5-0.3-0.9-0.5-1.4-0.7c-2.3-1.1-4.8-1.9-7.3-2.3c-2.5-0.4-5.2-0.7-7.7,0c-2.1,0.6-4.2,1.9-5.2,3.9
				c-0.8,1.5-1.2,3.1-1,4.7l0,0c-1.1-9,5.5-20.3,8-23.3l0.4,0.4c9.9-1.9,20,2.8,26.9,10.1C117.1,155.7,121.4,163.1,117.3,175.9z"/>
			<linearGradient id="SVGID_7_" gradientUnits="userSpaceOnUse" x1="173.356" y1="69.3244" x2="147.6583" y2="93.0668">
				<stop  offset="0" style="stop-color:#F7D2AB"/>
				<stop  offset="0.1782" style="stop-color:#F3CCA5"/>
				<stop  offset="0.4155" style="stop-color:#E9BC94"/>
				<stop  offset="0.6861" style="stop-color:#D8A279"/>
				<stop  offset="0.9795" style="stop-color:#C17E52"/>
				<stop  offset="0.9944" style="stop-color:#C07C50"/>
			</linearGradient>
			<path class="st7" d="M173.2,89.3c-4.7-4.5-17.2-10.1-26.8-1.9l-0.1,0c-1-1.8-2.5-3.6-4.2-5c2.3-6.4,9.8-16.3,17.6-15.4
				C167.9,67.9,173,75.6,173.2,89.3C173.3,89.4,173.2,89.4,173.2,89.3z"/>
			<linearGradient id="SVGID_8_" gradientUnits="userSpaceOnUse" x1="118.455" y1="98.9943" x2="91.276" y2="128.6441">
				<stop  offset="7.810567e-02" style="stop-color:#EFC59D"/>
				<stop  offset="0.5836" style="stop-color:#CF9369"/>
				<stop  offset="0.851" style="stop-color:#C17E52"/>
			</linearGradient>
			<path class="st8" d="M111.4,108.5c2.3,4.1,4.1,8.9,4.3,14c-7.7,8.2-18.1,10.7-28.3,8c-2.4-2.1-4.5-6.4-5.7-11.1
				c0-0.2-0.1-0.3-0.1-0.5C92.7,125.3,104.8,120.2,111.4,108.5z"/>
			<linearGradient id="SVGID_9_" gradientUnits="userSpaceOnUse" x1="103.0969" y1="94.4614" x2="85.7174" y2="122.3284">
				<stop  offset="0.165" style="stop-color:#F7D2AB"/>
				<stop  offset="0.9944" style="stop-color:#C07C50"/>
			</linearGradient>
			<path class="st9" d="M111.4,108.5c-6.5,11.7-18.7,16.8-29.9,10.5c-3.1-12,1.4-23.9,7.9-25.4C96.8,91.8,108.9,101.9,111.4,108.5
				C111.3,108.4,111.3,108.4,111.4,108.5z"/>
		</g>
		<linearGradient id="SVGID_10_" gradientUnits="userSpaceOnUse" x1="75.9883" y1="154.4849" x2="110.848" y2="179.2403">
			<stop  offset="0" style="stop-color:#FFD130"/>
			<stop  offset="1" style="stop-color:#FF7300"/>
		</linearGradient>
		<path class="st10" d="M101,156.9c10,6.6,15,16.6,11.2,22.4c-3.8,5.8-15,5.1-25-1.5s-15-16.6-11.2-22.4
			C79.8,149.7,91,150.3,101,156.9z"/>
		<linearGradient id="SVGID_11_" gradientUnits="userSpaceOnUse" x1="84.2855" y1="161.6759" x2="103.0465" y2="174.6938">
			<stop  offset="0" style="stop-color:#FF9900"/>
			<stop  offset="1" style="stop-color:#FF5500"/>
		</linearGradient>
		<path class="st11" d="M96.5,164c5.5,3.5,8.7,8.3,7.1,10.6c-1.6,2.3-7.3,1.3-12.8-2.2s-8.7-8.3-7.1-10.6S91,160.5,96.5,164z"/>
		<g>
			<linearGradient id="SVGID_12_" gradientUnits="userSpaceOnUse" x1="129.1429" y1="81.924" x2="142.597" y2="99.8627">
				<stop  offset="0" style="stop-color:#FFD9B5"/>
				<stop  offset="0.198" style="stop-color:#F7CCA5"/>
				<stop  offset="0.5836" style="stop-color:#E0A97C"/>
				<stop  offset="1" style="stop-color:#C57D49"/>
			</linearGradient>
			<path class="st12" d="M146.3,87.3c-1-1.8-2.4-3.5-4.1-4.9c-3.3-2.8-7.5-4.4-9.9-3.2c-4.3,2-7.8,11.1-4,19.2l0.1,0
				c0,0,0,0.1,0.1,0.1C130.9,91.3,138.6,86.6,146.3,87.3z"/>
			<linearGradient id="SVGID_13_" gradientUnits="userSpaceOnUse" x1="129.062" y1="81.9847" x2="142.516" y2="99.9234">
				<stop  offset="6.280941e-02" style="stop-color:#FFD9B5"/>
				<stop  offset="0.2729" style="stop-color:#EEBF96"/>
				<stop  offset="0.595" style="stop-color:#D89B6C"/>
				<stop  offset="0.8484" style="stop-color:#CA8553"/>
				<stop  offset="1" style="stop-color:#C57D49"/>
			</linearGradient>
			<path class="st13" d="M147.2,89.7L147.2,89.7c-0.2-0.8-0.5-1.5-0.9-2.2c0,0-0.1-0.1-0.1-0.1c-7.6-0.7-15.4,4-17.9,11.1
				c1.9,4.2,9.1,2.8,13.4,0.4C145.8,96.6,147.6,92.6,147.2,89.7z"/>
		</g>
	</g>
</g>
</svg>
