<?xml version="1.0" encoding="utf-8"?>
<!-- Generator: Adobe Illustrator 20.0.0, SVG Export Plug-In . SVG Version: 6.00 Build 0)  -->
<svg version="1.1" xmlns="http://www.w3.org/2000/svg" xmlns:xlink="http://www.w3.org/1999/xlink" x="0px" y="0px"
	 viewBox="0 0 250 250" style="enable-background:new 0 0 250 250;" xml:space="preserve">
<style type="text/css">
	.st0{fill:#F4FCF9;}
	.st1{fill:url(#SVGID_1_);}
	.st2{fill:url(#SVGID_2_);}
	.st3{fill:#B6C997;}
	.st4{fill:url(#SVGID_3_);}
	.st5{fill:url(#SVGID_4_);}
	.st6{fill:url(#SVGID_5_);}
	.st7{fill:url(#SVGID_6_);}
	.st8{fill:url(#SVGID_7_);}
	.st9{fill:url(#SVGID_8_);}
	.st10{fill:url(#SVGID_9_);}
	.st11{fill:url(#SVGID_10_);}
	.st12{fill:url(#SVGID_11_);}
	.st13{fill:url(#SVGID_12_);}
	.st14{fill:url(#SVGID_13_);}
	.st15{fill:url(#SVGID_14_);}
	.st16{fill:url(#SVGID_15_);}
	.st17{fill:url(#SVGID_16_);}
	.st18{fill:url(#SVGID_17_);}
	.st19{fill:url(#SVGID_18_);}
	.st20{fill:url(#SVGID_19_);}
	.st21{fill:url(#SVGID_20_);}
	.st22{fill:url(#SVGID_21_);}
	.st23{fill:url(#SVGID_22_);}
	.st24{fill:url(#SVGID_23_);}
	.st25{fill:url(#SVGID_24_);}
</style>
<g id="colored_x5F_circles">
	<circle class="st0" cx="126" cy="125.1" r="100"/>
</g>
<g id="icons">
	<g>
		
			<linearGradient id="SVGID_1_" gradientUnits="userSpaceOnUse" x1="66.8271" y1="167.1999" x2="85.4178" y2="132.2924" gradientTransform="matrix(0.9865 0.1639 -0.1639 0.9865 68.0335 22.148)">
			<stop  offset="0" style="stop-color:#CBDCB0"/>
			<stop  offset="1" style="stop-color:#91B396"/>
		</linearGradient>
		<path class="st1" d="M116.4,204.4c-2.2,0.4-4.2-2-5.3-5.6c5-7.2,8.7-24.8,8.8-37.3c1.5,0.7,2,0.7,4.1,0
			C124.7,175.5,121.7,195,116.4,204.4z"/>
		<linearGradient id="SVGID_2_" gradientUnits="userSpaceOnUse" x1="121.2917" y1="139.5358" x2="121.2917" y2="162.6578">
			<stop  offset="8.754007e-03" style="stop-color:#CBDCB0"/>
			<stop  offset="0.2112" style="stop-color:#C5D8AB"/>
			<stop  offset="0.4824" style="stop-color:#B4CC9C"/>
			<stop  offset="0.7914" style="stop-color:#98B985"/>
			<stop  offset="0.8782" style="stop-color:#8FB37D"/>
		</linearGradient>
		<path class="st2" d="M122.5,139.5c-1.5,0.6-2.5,0.9-3.9,0.3c1,8,1.7,16.1,1.4,21.6c0,0,1.4,1.7,3.6,1.1
			C124.4,154.5,123.6,146.2,122.5,139.5z"/>
		<path class="st3" d="M121.7,159.7c-2.2-9.8-6.3-19.3-12-28.2c-0.9,0.4-1.8,0.7-3.2,0.5c6.3,9.2,11,20.1,13.4,30.3
			C120.5,164.9,122,161.2,121.7,159.7z"/>
		<g>
			
				<linearGradient id="SVGID_3_" gradientUnits="userSpaceOnUse" x1="0.3326" y1="34.426" x2="-19.9759" y2="62.9757" gradientTransform="matrix(1 6.205593e-03 -6.205593e-03 1 142.4902 109.2753)">
				<stop  offset="8.754007e-03" style="stop-color:#DAE3DA"/>
				<stop  offset="0.1622" style="stop-color:#D5E0D4"/>
				<stop  offset="0.3678" style="stop-color:#C7D7C3"/>
				<stop  offset="0.6029" style="stop-color:#B1C9A7"/>
				<stop  offset="0.8584" style="stop-color:#92B580"/>
				<stop  offset="0.8782" style="stop-color:#8FB37D"/>
			</linearGradient>
			<path class="st4" d="M122.8,172.5c-0.8,0.2-1.2-3.4-0.2-5c4.9-9.2,11.8-17.4,20.2-23.7l1.7,2.3
				C136.5,152.1,127.5,163.6,122.8,172.5z"/>
		</g>
		<g>
			<g>
				
					<linearGradient id="SVGID_4_" gradientUnits="userSpaceOnUse" x1="924.4709" y1="32.8841" x2="936.8712" y2="32.8841" gradientTransform="matrix(1 6.205593e-03 -6.205593e-03 1 -802.5098 109.2753)">
					<stop  offset="0" style="stop-color:#8EA669"/>
					<stop  offset="0.2697" style="stop-color:#94AC77"/>
					<stop  offset="0.7807" style="stop-color:#A5BB9D"/>
					<stop  offset="1" style="stop-color:#ADC2AF"/>
				</linearGradient>
				<path class="st5" d="M132.2,131.7c-4.8,9.5-8.3,19.6-10.5,30.1c-0.1,2,1.5,3.6,2,1.4c2.2-10.6,5.7-20.8,10.6-30.5L132.2,131.7z"
					/>
			</g>
			<g>
				
					<linearGradient id="SVGID_5_" gradientUnits="userSpaceOnUse" x1="-20.5109" y1="38.7483" x2="-8.1107" y2="38.7483" gradientTransform="matrix(1 6.205593e-03 -6.205593e-03 1 142.4902 109.2753)">
					<stop  offset="0" style="stop-color:#8EA669"/>
					<stop  offset="0.2697" style="stop-color:#94AC77"/>
					<stop  offset="0.7807" style="stop-color:#A5BB9D"/>
					<stop  offset="1" style="stop-color:#ADC2AF"/>
				</linearGradient>
				<path class="st6" d="M132.2,131.7c-4.8,9.5-8.3,19.6-10.5,30.1c-0.1,2,1.5,3.6,2,1.4c2.2-10.6,5.7-20.8,10.6-30.5L132.2,131.7z"
					/>
			</g>
		</g>
		<g>
			<linearGradient id="SVGID_6_" gradientUnits="userSpaceOnUse" x1="102.1845" y1="157.3941" x2="121.6513" y2="157.3941">
				<stop  offset="8.754007e-03" style="stop-color:#DAE3DA"/>
				<stop  offset="0.1622" style="stop-color:#D5E0D4"/>
				<stop  offset="0.3678" style="stop-color:#C7D7C3"/>
				<stop  offset="0.6029" style="stop-color:#B1C9A7"/>
				<stop  offset="0.8584" style="stop-color:#92B580"/>
				<stop  offset="0.8782" style="stop-color:#8FB37D"/>
			</linearGradient>
			<path class="st7" d="M104,144.5l-1.8,2.2c8.9,7.4,14.1,14.1,17.7,22.9c1.1,2.5,2.2-2.3,1.6-3.5C117.7,158,112.4,151.5,104,144.5z
				"/>
		</g>
		<g id="XMLID_52_">
			<linearGradient id="SVGID_7_" gradientUnits="userSpaceOnUse" x1="141.1342" y1="147.1196" x2="208.8009" y2="136.7862">
				<stop  offset="0.1118" style="stop-color:#77BA9F"/>
				<stop  offset="0.3421" style="stop-color:#95D1B2"/>
				<stop  offset="0.7486" style="stop-color:#D3FFD8"/>
			</linearGradient>
			<path class="st8" d="M208.6,139.1c-1.4,4.8-21.9,5.4-36.4,7.7c-14.8,1.5-31.3,5.5-32.8,1.4c0-0.1,0-0.1-0.1-0.2
				c4.7-2.7,9.5-4.8,14.5-6.5c0.1,0,0.2-0.1,0.4-0.1C171.3,135.7,190.3,135.6,208.6,139.1z"/>
			<linearGradient id="SVGID_8_" gradientUnits="userSpaceOnUse" x1="141.3351" y1="140.6236" x2="209.3351" y2="132.6236">
				<stop  offset="0" style="stop-color:#63A18A"/>
				<stop  offset="0.3024" style="stop-color:#81BA9F"/>
				<stop  offset="0.9591" style="stop-color:#CEFBD5"/>
				<stop  offset="1" style="stop-color:#D3FFD8"/>
			</linearGradient>
			<path class="st9" d="M208.6,139.1c-18.7-3.6-37.3-3.5-54.5,2.2c-0.1,0-0.2,0.1-0.4,0.1c-5,1.7-9.9,3.8-14.5,6.5
				c-1.2-4.3,10.5-14.3,26.5-17.1C185.7,127,206.1,134.9,208.6,139.1z"/>
			<linearGradient id="SVGID_9_" gradientUnits="userSpaceOnUse" x1="129.5668" y1="44.5515" x2="129.5668" y2="138.8045">
				<stop  offset="0" style="stop-color:#5E8F6A"/>
				<stop  offset="0.1727" style="stop-color:#699974"/>
				<stop  offset="0.4788" style="stop-color:#87B48F"/>
				<stop  offset="0.8737" style="stop-color:#B7DEBA"/>
			</linearGradient>
			<path class="st10" d="M120.2,45.8c3.3,0.2,19.2,29.4,18.6,52.9c0,1.8-0.2,3.6-0.4,5.4c-2.1,2.2-3.9,4.6-5.4,7.1
				c-4.1,6.8-5.3,15.5-4.8,21.1c-3.2,5.2-6.3,8.5-8,8.8V45.8z"/>
			<linearGradient id="SVGID_10_" gradientUnits="userSpaceOnUse" x1="127.8831" y1="130.7936" x2="137.6572" y2="103.7519">
				<stop  offset="0" style="stop-color:#669B79"/>
				<stop  offset="1" style="stop-color:#3C614C"/>
			</linearGradient>
			<path class="st11" d="M133,111.2c1.5-2.5,3.4-4.8,5.4-7.1c-1.4,10.8-5.9,21.2-10.2,28.1C127.7,126.7,128.9,117.9,133,111.2z"/>
			<linearGradient id="SVGID_11_" gradientUnits="userSpaceOnUse" x1="110.9232" y1="46.8015" x2="110.9232" y2="138.3783">
				<stop  offset="0" style="stop-color:#6BA178"/>
				<stop  offset="0.2013" style="stop-color:#73A77F"/>
				<stop  offset="0.5103" style="stop-color:#88B891"/>
				<stop  offset="0.8868" style="stop-color:#ABD4B0"/>
				<stop  offset="1" style="stop-color:#B7DEBA"/>
			</linearGradient>
			<path class="st12" d="M120.2,45.8V141c-1.7-0.3-4.7-3.5-7.9-8.6c0.3-5.6-1.5-14.9-5.8-21.9c-1.3-2.1-2.8-4.1-4.4-6
				c-0.3-1.9-0.4-3.9-0.5-5.8C101.1,75.2,116.9,46,120.2,45.8z"/>
			<linearGradient id="SVGID_12_" gradientUnits="userSpaceOnUse" x1="102.631" y1="104.4827" x2="112.8148" y2="131.6396">
				<stop  offset="0" style="stop-color:#4F7652"/>
				<stop  offset="1" style="stop-color:#568D64"/>
			</linearGradient>
			<path class="st13" d="M106.5,110.5c4.3,7,6.1,16.3,5.8,21.9c-4.3-6.9-8.8-17.1-10.2-27.9C103.7,106.4,105.3,108.4,106.5,110.5z"
				/>
			<linearGradient id="SVGID_13_" gradientUnits="userSpaceOnUse" x1="109.9689" y1="135.8486" x2="75.9356" y2="86.9888">
				<stop  offset="0" style="stop-color:#7EBB8C"/>
				<stop  offset="0.3782" style="stop-color:#79B388"/>
				<stop  offset="0.9576" style="stop-color:#6D9E7E"/>
				<stop  offset="1" style="stop-color:#6C9C7D"/>
			</linearGradient>
			<path class="st14" d="M112.3,132.4c-0.1,2.6-0.7,4.4-1.6,4.8c-1.4,0.5-14.5-3.4-20.8-10.4c-7.4-8.4-17.9-36.6-14.9-38.9
				c2.5-1.9,17.4,5.5,27.1,16.6C103.5,115.3,108,125.5,112.3,132.4z"/>
			<linearGradient id="SVGID_14_" gradientUnits="userSpaceOnUse" x1="107.4418" y1="141.6372" x2="44.4418" y2="134.6372">
				<stop  offset="0" style="stop-color:#D4FFD4"/>
				<stop  offset="0.1254" style="stop-color:#C8F5CB"/>
				<stop  offset="0.353" style="stop-color:#A7DBB5"/>
				<stop  offset="0.5327" style="stop-color:#89C3A0"/>
				<stop  offset="0.8877" style="stop-color:#74A686"/>
				<stop  offset="1" style="stop-color:#6C9C7D"/>
			</linearGradient>
			<path class="st15" d="M83.2,131.9c14.8,2.8,25.7,12.9,24.6,17.1c-3.2-2-6.6-3.7-10-5.1c-0.8-0.3-1.6-0.7-2.4-1
				c-0.9-0.3-1.7-0.6-2.6-0.9c-15.6-5.3-32.5-5.3-49.4-1.8C45.8,135.9,64.7,128,83.2,131.9z"/>
			<linearGradient id="SVGID_15_" gradientUnits="userSpaceOnUse" x1="107.5773" y1="148.761" x2="44.9106" y2="140.0943">
				<stop  offset="0" style="stop-color:#9DDEB8"/>
				<stop  offset="0.419" style="stop-color:#83BB99"/>
				<stop  offset="0.7748" style="stop-color:#72A484"/>
				<stop  offset="1" style="stop-color:#6C9C7D"/>
			</linearGradient>
			<path class="st16" d="M107.7,149c0,0.1,0,0.1,0,0.2c-1.5,4.1-8.1,4.3-21.8,2.7c-13.6-2.3-41.3-7-42.5-11.8
				c16.6-3.5,33.7-3.4,49.4,1.8c0.9,0.3,1.7,0.6,2.6,0.9c0.8,0.3,1.6,0.6,2.4,1C101.2,145.3,104.5,147,107.7,149z"/>
		</g>
		<g id="XMLID_53_">
			<linearGradient id="SVGID_16_" gradientUnits="userSpaceOnUse" x1="141.2527" y1="147.8959" x2="208.9194" y2="137.5626">
				<stop  offset="0.1118" style="stop-color:#60BA96"/>
				<stop  offset="0.3253" style="stop-color:#7ECFA6"/>
				<stop  offset="0.7486" style="stop-color:#C4FFCA"/>
			</linearGradient>
			<path class="st17" d="M208.6,139.1c-1.4,4.8-29.1,8.7-43.7,11c-14.8,1.5-24,2.1-25.5-2c0-0.1,0-0.1-0.1-0.2
				c4.7-2.7,9.5-4.8,14.5-6.5c0.1,0,0.2-0.1,0.4-0.1C171.3,135.7,190.3,135.6,208.6,139.1z"/>
			<linearGradient id="SVGID_17_" gradientUnits="userSpaceOnUse" x1="141.3351" y1="140.6236" x2="209.3351" y2="132.6236">
				<stop  offset="0" style="stop-color:#4DA182"/>
				<stop  offset="0.2862" style="stop-color:#6BB994"/>
				<stop  offset="0.9073" style="stop-color:#B8F6C3"/>
				<stop  offset="1" style="stop-color:#C4FFCA"/>
			</linearGradient>
			<path class="st18" d="M208.6,139.1c-18.7-3.6-37.3-3.5-54.5,2.2c-0.1,0-0.2,0.1-0.4,0.1c-5,1.7-9.9,3.8-14.5,6.5
				c-1.2-4.3,10.5-14.3,26.5-17.1C185.7,127,206.1,134.9,208.6,139.1z"/>
			<linearGradient id="SVGID_18_" gradientUnits="userSpaceOnUse" x1="128.265" y1="112.6927" x2="165.4971" y2="112.6927">
				<stop  offset="0" style="stop-color:#4C9D7A"/>
				<stop  offset="0.7057" style="stop-color:#70BD99"/>
			</linearGradient>
			<path class="st19" d="M165,88.1c2.9,2.2-6.9,30.3-14.3,38.7c-6.2,7-19,11.2-20.3,10.7c-1.1-0.4-1.8-2.4-2.1-5.3
				c4.3-7,8.8-17.3,10.2-28.1C148.2,93.5,162.5,86.3,165,88.1z"/>
			<linearGradient id="SVGID_19_" gradientUnits="userSpaceOnUse" x1="129.5668" y1="44.5515" x2="129.5668" y2="138.8045">
				<stop  offset="0" style="stop-color:#41AD7E"/>
				<stop  offset="0.1528" style="stop-color:#4CB283"/>
				<stop  offset="0.4239" style="stop-color:#6AC191"/>
				<stop  offset="0.7793" style="stop-color:#9BD7A7"/>
				<stop  offset="0.8737" style="stop-color:#A9DEAD"/>
			</linearGradient>
			<path class="st20" d="M120.2,45.8c3.3,0.2,19.2,29.4,18.6,52.9c0,1.8-0.2,3.6-0.4,5.4c-2.1,2.2-3.9,4.6-5.4,7.1
				c-4.1,6.8-5.3,15.5-4.8,21.1c-3.2,5.2-6.3,8.5-8,8.8V45.8z"/>
			<linearGradient id="SVGID_20_" gradientUnits="userSpaceOnUse" x1="127.8831" y1="130.7936" x2="137.6572" y2="103.7519">
				<stop  offset="0" style="stop-color:#09764D"/>
				<stop  offset="1" style="stop-color:#008D76"/>
			</linearGradient>
			<path class="st21" d="M133,111.2c1.5-2.5,3.4-4.8,5.4-7.1c-1.4,10.8-5.9,21.2-10.2,28.1C127.7,126.7,128.9,117.9,133,111.2z"/>
			<linearGradient id="SVGID_21_" gradientUnits="userSpaceOnUse" x1="110.9232" y1="46.8015" x2="110.9232" y2="138.3783">
				<stop  offset="0" style="stop-color:#A9DEAD"/>
				<stop  offset="0.2937" style="stop-color:#80CC99"/>
				<stop  offset="0.5934" style="stop-color:#5DBE88"/>
				<stop  offset="0.8396" style="stop-color:#48B47E"/>
				<stop  offset="1" style="stop-color:#40B17A"/>
			</linearGradient>
			<path class="st22" d="M120.2,45.8V141c-1.7-0.3-4.7-3.5-7.9-8.6c0.3-5.6-1.5-14.9-5.8-21.9c-1.3-2.1-2.8-4.1-4.4-6
				c-0.3-1.9-0.4-3.9-0.5-5.8C101.1,75.2,116.9,46,120.2,45.8z"/>
			<linearGradient id="SVGID_22_" gradientUnits="userSpaceOnUse" x1="102.631" y1="104.4827" x2="112.8148" y2="131.6396">
				<stop  offset="0" style="stop-color:#09764D"/>
				<stop  offset="1" style="stop-color:#008D76"/>
			</linearGradient>
			<path class="st23" d="M106.5,110.5c4.3,7,6.1,16.3,5.8,21.9c-4.3-6.9-8.8-17.1-10.2-27.9C103.7,106.4,105.3,108.4,106.5,110.5z"
				/>
			<linearGradient id="SVGID_23_" gradientUnits="userSpaceOnUse" x1="107.4418" y1="141.6372" x2="44.4418" y2="134.6372">
				<stop  offset="0" style="stop-color:#C5FFC5"/>
				<stop  offset="0.119" style="stop-color:#B9F6BD"/>
				<stop  offset="0.3352" style="stop-color:#98DDAA"/>
				<stop  offset="0.5327" style="stop-color:#75C394"/>
				<stop  offset="0.8877" style="stop-color:#62A67B"/>
				<stop  offset="1" style="stop-color:#5B9C72"/>
			</linearGradient>
			<path class="st24" d="M83.2,131.9c14.8,2.8,25.7,12.9,24.6,17.1c-3.2-2-6.6-3.7-10-5.1c-0.8-0.3-1.6-0.7-2.4-1
				c-0.9-0.3-1.7-0.6-2.6-0.9c-15.6-5.3-32.5-5.3-49.4-1.8C45.8,135.9,64.7,128,83.2,131.9z"/>
			<linearGradient id="SVGID_24_" gradientUnits="userSpaceOnUse" x1="107.5773" y1="148.761" x2="44.9106" y2="140.0943">
				<stop  offset="0" style="stop-color:#86DEAB"/>
				<stop  offset="0.419" style="stop-color:#6FBB8D"/>
				<stop  offset="0.7748" style="stop-color:#60A479"/>
				<stop  offset="1" style="stop-color:#5B9C72"/>
			</linearGradient>
			<path class="st25" d="M107.7,149c0,0.1,0,0.1,0,0.2c-1.5,4.1-8.1,4.3-21.8,2.7c-13.6-2.3-41.3-7-42.5-11.8
				c16.6-3.5,33.7-3.4,49.4,1.8c0.9,0.3,1.7,0.6,2.6,0.9c0.8,0.3,1.6,0.6,2.4,1C101.2,145.3,104.5,147,107.7,149z"/>
		</g>
	</g>
</g>
</svg>
