<?xml version="1.0" encoding="utf-8"?>
<!-- Generator: Adobe Illustrator 20.0.0, SVG Export Plug-In . SVG Version: 6.00 Build 0)  -->
<svg version="1.1" xmlns="http://www.w3.org/2000/svg" xmlns:xlink="http://www.w3.org/1999/xlink" x="0px" y="0px"
	 viewBox="0 0 250 250" style="enable-background:new 0 0 250 250;" xml:space="preserve">
<style type="text/css">
	.st0{fill:#F7FCF4;}
	.st1{fill:url(#SVGID_1_);}
	.st2{fill:#C4CBC9;}
	.st3{fill:#CBB9BB;}
	.st4{fill:url(#SVGID_2_);}
	.st5{fill:url(#SVGID_3_);}
	.st6{fill:url(#SVGID_4_);}
	.st7{fill:#BDB3B1;}
	.st8{fill:#BFB3B3;}
	.st9{fill:url(#SVGID_5_);}
	.st10{fill:url(#SVGID_6_);}
	.st11{fill:url(#SVGID_7_);}
	.st12{fill:url(#SVGID_8_);}
	.st13{fill:url(#SVGID_9_);}
	.st14{fill:url(#SVGID_10_);}
	.st15{fill:url(#SVGID_11_);}
	.st16{fill:url(#SVGID_12_);}
	.st17{fill:url(#SVGID_13_);}
	.st18{fill:url(#SVGID_14_);}
	.st19{fill:url(#SVGID_15_);}
	.st20{fill:url(#SVGID_16_);}
	.st21{fill:url(#SVGID_17_);}
	.st22{fill:url(#SVGID_18_);}
	.st23{fill:url(#SVGID_19_);}
	.st24{fill:url(#SVGID_20_);}
	.st25{fill:#008A7A;}
	.st26{fill:url(#SVGID_21_);}
	.st27{fill:#009474;}
</style>
<g id="colored_x5F_circles">
	<circle class="st0" cx="125" cy="125.1" r="100"/>
</g>
<g id="icons">
	<g>
		<g>
			<g>
				<linearGradient id="SVGID_1_" gradientUnits="userSpaceOnUse" x1="120.8323" y1="192.9443" x2="112.4917" y2="87.0701">
					<stop  offset="0" style="stop-color:#9C8F83"/>
					<stop  offset="4.053758e-02" style="stop-color:#9F9287"/>
					<stop  offset="0.4914" style="stop-color:#BFAEAD"/>
					<stop  offset="0.7276" style="stop-color:#CBB9BC"/>
					<stop  offset="0.9974" style="stop-color:#FFF0F2"/>
				</linearGradient>
				<path class="st1" d="M129.7,171.6c-7-7.7-13.6-15.8-19.4-24.5c-5.6-8.7-10.2-18.1-13.8-27.9c-1.8-4.9-3.2-9.9-4.3-14.9
					c-1-4.7-1.6-9.5-1.5-14.2c0-0.6-0.5-1.2-1.1-1.2c-0.7,0-1.2,0.5-1.2,1.1c-0.1,5,0.5,9.9,1.4,14.8c1,5.2,2.5,10.3,4.2,15.3
					c3.5,10,8,19.6,13.7,28.6c5.8,8.9,12.4,17.2,19.4,25.1c4.8,5.4,10.3,11.4,15.8,17c1.3,1.6,2.8-2.4,1.9-3.4
					C139.6,182.2,134.6,176.9,129.7,171.6z"/>
			</g>
			<g>
				<g>
					<path class="st2" d="M97.4,108l-0.7-0.7c-1.5,1.6-2.6,3.5-3.3,5.6c0.2,0.4,0.5,0.8,0.8,1.1C94.6,111.8,95.7,109.6,97.4,108z"/>
				</g>
				<g>
					<path class="st3" d="M97.4,108l-0.7-0.7c-1.5,1.6-2.6,3.5-3.3,5.6c0.2,0.4,0.5,0.8,0.8,1.1C94.6,111.8,95.7,109.6,97.4,108z"/>
				</g>
			</g>
			<path class="st3" d="M84.6,108.5l-0.3,1c3.1,1.1,6.9,3.8,9.2,6.2l0.1-1.5C91.1,111.7,87.8,109.6,84.6,108.5z"/>
			<g>
				<linearGradient id="SVGID_2_" gradientUnits="userSpaceOnUse" x1="171.0441" y1="171.1632" x2="169.6593" y2="153.5854">
					<stop  offset="0" style="stop-color:#9C9783"/>
					<stop  offset="4.053758e-02" style="stop-color:#9F9987"/>
					<stop  offset="0.4914" style="stop-color:#BFB0AD"/>
					<stop  offset="0.7276" style="stop-color:#CBB9BC"/>
				</linearGradient>
				<path class="st4" d="M165.9,171.6c-1.1-0.4-1.7-1.1-1.5-2.3c5-3.3,8.5-8.9,9.2-14.9c0.1-0.7,0.7-1.2,1.4-1.2l0,0
					c0.8,0.1,1.4,0.8,1.3,1.6C175.5,161.5,171.6,167.8,165.9,171.6z"/>
			</g>
		</g>
		
			<linearGradient id="SVGID_3_" gradientUnits="userSpaceOnUse" x1="162.7648" y1="59.0895" x2="162.7648" y2="29.0594" gradientTransform="matrix(0.9979 6.481421e-02 -6.481421e-02 0.9979 -40.6106 41.4626)">
			<stop  offset="0" style="stop-color:#B5ED52"/>
			<stop  offset="1" style="stop-color:#00AB60"/>
		</linearGradient>
		<path class="st5" d="M116,86.7c12.5-6.9,24-6,25.6,0c1.6,6-11.3,15.3-19.1,18.2c-7.7,2.9-24.5,6.3-26.2,4.2
			C94.6,107,100.2,95.5,116,86.7z"/>
		<linearGradient id="SVGID_4_" gradientUnits="userSpaceOnUse" x1="77.4804" y1="101.7002" x2="49.7379" y2="109.0284">
			<stop  offset="0" style="stop-color:#B5ED52"/>
			<stop  offset="1" style="stop-color:#00AB60"/>
		</linearGradient>
		<path class="st6" d="M84.8,109c0.8-2.8-8.9-9.8-16.7-11.7c-7.7-1.9-18.1-0.9-19.7,3.8s4.3,9.2,17.2,11.1
			C75.7,113.6,83.9,111.8,84.8,109z"/>
		<g>
			<g>
				<path class="st7" d="M104.3,140.9l-1-0.4c1.4-3.5,4.7-5.3,8.3-4.4l-0.2,1C108.3,136.4,105.6,137.9,104.3,140.9z"/>
			</g>
			<g>
				<path class="st8" d="M104.3,140.9l-1-0.4c1.4-3.5,4.7-5.3,8.3-4.4l-0.2,1C108.3,136.4,105.6,137.9,104.3,140.9z"/>
			</g>
		</g>
		
			<linearGradient id="SVGID_5_" gradientUnits="userSpaceOnUse" x1="-23.7088" y1="-222.3103" x2="-23.7088" y2="-250.0097" gradientTransform="matrix(0.8594 0.5113 -0.5113 0.8594 30.032 350.7909)">
			<stop  offset="0" style="stop-color:#B5ED52"/>
			<stop  offset="2.618670e-02" style="stop-color:#AEEB53"/>
			<stop  offset="0.2828" style="stop-color:#71D457"/>
			<stop  offset="0.5176" style="stop-color:#40C25B"/>
			<stop  offset="0.7228" style="stop-color:#1DB65E"/>
			<stop  offset="0.8906" style="stop-color:#08AE5F"/>
			<stop  offset="1" style="stop-color:#00AB60"/>
		</linearGradient>
		<path class="st9" d="M132.7,125.5c12.4-0.4,19.6,7.4,18.5,12.7c-1.1,5.3-14.7,7.2-21.9,6.4s-21.6-4.7-22-6.9
			C106.8,135.3,117,126,132.7,125.5z"/>
		
			<linearGradient id="SVGID_6_" gradientUnits="userSpaceOnUse" x1="41.2307" y1="-233.5983" x2="41.2307" y2="-250.7957" gradientTransform="matrix(0.8594 0.5113 -0.5113 0.8594 30.032 350.7909)">
			<stop  offset="0" style="stop-color:#B5ED52"/>
			<stop  offset="1" style="stop-color:#00AB60"/>
		</linearGradient>
		<path class="st10" d="M190.7,157.4c7.8-0.3,12.2,4.6,11.5,7.9c-0.7,3.3-8.9,3.3-13.3,2.7c-4.4-0.5-13.7-1.6-14-3.1
			C174.6,163.5,180.9,157.7,190.7,157.4z"/>
		<g id="XMLID_51_">
			<g>
				<linearGradient id="SVGID_7_" gradientUnits="userSpaceOnUse" x1="65.4209" y1="155.4492" x2="84.1275" y2="135.6551">
					<stop  offset="0" style="stop-color:#00AB60"/>
					<stop  offset="1" style="stop-color:#B5ED52"/>
				</linearGradient>
				<path class="st11" d="M78,138.5c4.9,0.3,13.1,1.9,13,4.2c-0.1,2.8-7.4,5.9-10.5,7.3c-5,2.1-16.1,4.8-19.3,1.5
					c-2.7-2.8,0.1-7.7,3.9-10C68.3,139.3,74.1,138.3,78,138.5z"/>
			</g>
			<g>
			</g>
		</g>
		<linearGradient id="SVGID_8_" gradientUnits="userSpaceOnUse" x1="126.4216" y1="160.6864" x2="160.1519" y2="145.198">
			<stop  offset="0" style="stop-color:#B5ED52"/>
			<stop  offset="1" style="stop-color:#00AB60"/>
		</linearGradient>
		<path class="st12" d="M153.5,151.2c0.4,2.5-4.9,5.3-10.5,8.2c-2.1,1.1-4.8,2.5-7.3,3.6c-1.5-1.3-3.2-2.1-5-2c-0.8,0-2.4-0.3-5.1,1
			c0.8-2.8,3.6-6.7,6.4-9.3c1.5-1.3,5.8-5.2,12.1-5.2C147.6,147.5,153.1,148.8,153.5,151.2z"/>
		<linearGradient id="SVGID_9_" gradientUnits="userSpaceOnUse" x1="130.2059" y1="160.9364" x2="130.4612" y2="164.2553">
			<stop  offset="0" style="stop-color:#018478"/>
			<stop  offset="0.559" style="stop-color:#259152"/>
			<stop  offset="1" style="stop-color:#3D9939"/>
		</linearGradient>
		<path class="st13" d="M130.6,161c1.8-0.1,3.5,0.7,5,2c-4.4,2-8.7,3.4-10,1.8c-0.5-0.6-0.5-1.6-0.1-2.8
			C128.2,160.7,129.8,161.1,130.6,161z"/>
		<linearGradient id="SVGID_10_" gradientUnits="userSpaceOnUse" x1="118.2213" y1="167.6215" x2="118.826" y2="175.4821">
			<stop  offset="0" style="stop-color:#018478"/>
			<stop  offset="0.559" style="stop-color:#259152"/>
			<stop  offset="1" style="stop-color:#3D9939"/>
		</linearGradient>
		<path class="st14" d="M122.3,169.9c-0.2-0.7-0.8-1.2-1.7-1.6c-0.7-0.3-1.5-0.5-2.5-0.7c-2.4,2.3-3.1,3.9-3.3,5.6
			c-0.2,1.7,0.5,3.4,1.6,5c2.9-3.1,5.5-6.1,5.8-7.7C122.4,170.3,122.4,170.1,122.3,169.9z"/>
		<linearGradient id="SVGID_11_" gradientUnits="userSpaceOnUse" x1="121.5954" y1="164.9688" x2="140.607" y2="188.6173">
			<stop  offset="0" style="stop-color:#B5ED52"/>
			<stop  offset="0.1422" style="stop-color:#8EDF55"/>
			<stop  offset="0.3517" style="stop-color:#5CCD59"/>
			<stop  offset="0.5492" style="stop-color:#34BE5C"/>
			<stop  offset="0.729" style="stop-color:#18B45E"/>
			<stop  offset="0.8851" style="stop-color:#06AD60"/>
			<stop  offset="1" style="stop-color:#00AB60"/>
		</linearGradient>
		<path class="st15" d="M140.5,171.1c-0.8-2.9-2.6-6.1-4.9-8c-4.4,2-8.7,3.4-10,1.8c-0.5-0.6-0.5-1.6-0.1-2.8
			c-1,0.5-2.2,1.3-3.6,2.3c-0.1,0.1-0.3,0.2-0.4,0.3c-0.8,0.6-1.5,1.3-2.1,1.8c-0.4,0.4-0.8,0.7-1.1,1.1c1,0.1,1.8,0.4,2.5,0.7
			c0.9,0.4,1.5,0.9,1.7,1.6c0.1,0.2,0,0.4,0,0.6c-0.4,1.6-2.9,4.7-5.8,7.7c1.6,2.1,3.9,3.9,5.6,4.8c2.5,1.4,6.5,2.7,10.2,2.5
			c1-0.1,2-0.3,2.9-0.6c1.2-0.4,2.3-1.1,3.3-2.1C142.5,178.7,140.7,172,140.5,171.1z"/>
		<linearGradient id="SVGID_12_" gradientUnits="userSpaceOnUse" x1="105.4335" y1="189.7108" x2="105.4335" y2="167.4481">
			<stop  offset="0" style="stop-color:#00AB60"/>
			<stop  offset="1" style="stop-color:#B5ED52"/>
		</linearGradient>
		<path class="st16" d="M118.2,167.6c-2.4,2.3-3.1,3.9-3.3,5.6c-0.2,1.7,0.5,3.4,1.6,5c-2.2,2.3-4.7,4.6-6.6,6.2
			c-4.6,3.8-11.8,7-15.7,4.2c-3.2-2.3-1.1-10.1,4.9-15.5C104.4,168.4,113.1,166.8,118.2,167.6z"/>
		<linearGradient id="SVGID_13_" gradientUnits="userSpaceOnUse" x1="80.4189" y1="81.8468" x2="80.4189" y2="56.4621">
			<stop  offset="0" style="stop-color:#B5ED52"/>
			<stop  offset="1" style="stop-color:#00AB60"/>
		</linearGradient>
		<path class="st17" d="M86.4,81.6c0.2,0.5,0.8,0.4,0.9-0.2c1.1-6.4,0.6-12.6-0.2-16.4c-0.9-4.1-4.4-7.8-7.3-8.3
			c-3.7-0.7-6.7,1.5-6.8,5.5c-0.1,5.4,3.8,8.9,7.8,11.9C83.5,76.1,85.5,79.6,86.4,81.6z"/>
		<linearGradient id="SVGID_14_" gradientUnits="userSpaceOnUse" x1="88.3148" y1="79.8591" x2="51.3258" y2="79.3586">
			<stop  offset="0" style="stop-color:#B5ED52"/>
			<stop  offset="1" style="stop-color:#00AB60"/>
		</linearGradient>
		<path class="st18" d="M82.1,86.4c0.6,0.2,1.1-0.5,0.7-1c-2.8-3.8-7.7-9.5-12-11.1c-5-1.9-11.9-2.2-12.7,0.5
			c-0.9,3,5.4,8.3,9.7,9.7C73.5,86.5,79.3,85.4,82.1,86.4z"/>
		
			<linearGradient id="SVGID_15_" gradientUnits="userSpaceOnUse" x1="319.309" y1="-107.6885" x2="319.309" y2="-127.2487" gradientTransform="matrix(0.9387 0.3448 -0.3448 0.9387 -234.0013 82.7297)">
			<stop  offset="0" style="stop-color:#B5ED52"/>
			<stop  offset="1" style="stop-color:#00AB60"/>
		</linearGradient>
		<path class="st19" d="M94.1,88.5c0.5,1,3.2-2.3,7.9-4c5.8-2.1,13.3-1.1,15.3-3.9c1.8-2.5,0.5-4.4-3.2-5.5
			c-3.6-1.1-6.6-0.5-10.7,1.4C98.2,78.9,93.2,86.5,94.1,88.5z"/>
		<linearGradient id="SVGID_16_" gradientUnits="userSpaceOnUse" x1="98.2732" y1="82.9491" x2="98.2732" y2="65.1818">
			<stop  offset="0" style="stop-color:#B5ED52"/>
			<stop  offset="1" style="stop-color:#00AB60"/>
		</linearGradient>
		<path class="st20" d="M91.9,82.6c-0.3,0.5-1,0.4-1.1-0.2c-0.5-4.7-1.1-8.6,1.8-12.7c2.6-3.7,7.4-5,10.6-4.4c5.6,1.2,2.7,5.9-3,8.7
			C95.6,76.3,93,80.2,91.9,82.6z"/>
		<g>
			
				<linearGradient id="SVGID_17_" gradientUnits="userSpaceOnUse" x1="-1389.2462" y1="143.9073" x2="-1389.2462" y2="119.9412" gradientTransform="matrix(-1 0 0 1 -1207.2982 0)">
				<stop  offset="0" style="stop-color:#B5ED52"/>
				<stop  offset="1" style="stop-color:#00AB60"/>
			</linearGradient>
			<path class="st21" d="M177.5,143.6c-0.2,0.4-0.7,0.4-0.8,0c-1.3-5.5-1.2-11-0.7-14.5c0.6-3.8,3.4-7.6,5.9-8.6
				c3.1-1.3,5.9,0,6.2,3.5c0.5,4.7-2.7,8.7-6,12C179.8,138.3,178.2,141.7,177.5,143.6z"/>
			<linearGradient id="SVGID_18_" gradientUnits="userSpaceOnUse" x1="186.6763" y1="152.6904" x2="186.6763" y2="136.9954">
				<stop  offset="0" style="stop-color:#B5ED52"/>
				<stop  offset="1" style="stop-color:#00AB60"/>
			</linearGradient>
			<path class="st22" d="M178.5,152.6c-0.4,0.3-0.8-0.3-0.6-0.8c1.9-3.8,5.8-9,8.8-11.3c3.5-2.6,7.8-4.9,8.6-2.7
				c1.4,3.8-8.7,9.6-8.6,9.5C184.5,148.7,180.6,151.3,178.5,152.6z"/>
			
				<linearGradient id="SVGID_19_" gradientUnits="userSpaceOnUse" x1="-27.0143" y1="232.6869" x2="-27.0143" y2="216.3053" gradientTransform="matrix(0.9705 -0.2413 0.2413 0.9705 134.634 -76.689)">
				<stop  offset="0" style="stop-color:#B5ED52"/>
				<stop  offset="1" style="stop-color:#00AB60"/>
			</linearGradient>
			<path class="st23" d="M171.7,153.7c-0.3,0.9-2.4-2.1-6-3.8c-4.4-2-10.1-1.7-11.5-4.3c-1.3-2.4-0.2-4.3,2.5-5
				c2.7-0.8,4.9,0.2,7.9,2C168.6,145.1,172.4,151.9,171.7,153.7z"/>
			
				<linearGradient id="SVGID_20_" gradientUnits="userSpaceOnUse" x1="-1374.1506" y1="145.2409" x2="-1374.1506" y2="130.3492" gradientTransform="matrix(-1 0 0 1 -1207.2982 0)">
				<stop  offset="0" style="stop-color:#B5ED52"/>
				<stop  offset="1" style="stop-color:#00AB60"/>
			</linearGradient>
			<path class="st24" d="M172,145c0.2,0.4,0.8,0.2,0.8-0.3c0.1-4.3,0.4-7.8-2-11.2c-2.1-3-5.6-3.7-7.9-2.9c-4,1.5-1.8,5.5,2.5,7.5
				C168.9,139.8,171,143,172,145z"/>
		</g>
		<g>
			<path class="st25" d="M106.9,129.1c0.2-1.5-0.2-3.9-1.7-4.3c-1.4-0.4-3,1.1-3.7,2.5c-1.2,2.3-0.5,6.9,1,7.3
				C104.1,135,106.6,131.6,106.9,129.1z"/>
			<path class="st25" d="M93.2,133.2c-1.9,0.8-3.3,3.2-2.7,4.3c0.8,1.5,4.7,0.9,7,0.1c1.1-0.4,2.1-0.8,2.2-1.5
				C99.9,134.8,96.1,132,93.2,133.2z"/>
			<path class="st25" d="M174.8,149c0.8,0.4,2.5-2.8,2.7-3.1c0.2-0.4,1.8-3.3,1.1-4.1c-0.5-0.5-1.9,0.1-2.9,1.2
				C174.1,145,174.1,148.6,174.8,149z"/>
			<path class="st25" d="M174,151c0.5-0.4,0-2.9-1.3-4.5c-1-1.2-2.5-1.9-2.9-1.4c-0.4,0.5,0.8,2.6,1.5,3.6
				C172,149.6,173.5,151.3,174,151z"/>
			<path class="st25" d="M180.1,146.3c-2.5-0.1-5,4.1-4.6,4.8c0.2,0.3,0.8,0.1,1.9-0.4c0.5-0.2,4.6-1.8,4.6-3.2
				C182,146.8,180.9,146.3,180.1,146.3z"/>
			<path class="st25" d="M103.1,135.9c-1.3,0.8-0.5,5,1.1,6.9c1,1.2,3,2.4,4.3,1.6c1.3-0.8,1.2-3,0.7-4.4
				C108.3,137.6,104.5,135,103.1,135.9z"/>
			<path class="st25" d="M175,166.8c-3.7,0.8-6,4.6-5.6,5c0.2,0.2,2.6-1.1,4.7-1.8c5.1-1,5.6-2,5.6-2.5
				C179.6,167,177.1,166.4,175,166.8z"/>
			<path class="st25" d="M172.6,172.9c-2.3,0-4.8,1.6-4.7,3c0.1,0.9,1.1,1.5,2.9,2.4c2.3,1.3,4.5,2.5,5.8,1.5c1-0.7,0.9-2.4,0.7-3.4
				C176.8,174.4,174.7,172.9,172.6,172.9z"/>
			<path class="st25" d="M167.6,164.3c-0.9-1.8-2.8-3.7-4.6-3.6c-0.2,0-0.3,0-0.4,0.1c-0.7,0.2-1.4,0.8-1.8,1.6
				c-0.9,1.6-1.1,4-0.2,5.8c0.8,1.5,2.6,3.1,4.3,3.9c1,0.4,1.9,0.6,2.6,0.2c0.1-0.1,0.2-0.1,0.3-0.2
				C169.4,170.8,168.7,166.5,167.6,164.3z"/>
			<linearGradient id="SVGID_21_" gradientUnits="userSpaceOnUse" x1="154.7164" y1="180.4495" x2="166.8062" y2="172.3438">
				<stop  offset="0.4181" style="stop-color:#008A7A"/>
				<stop  offset="1" style="stop-color:#BDE300"/>
			</linearGradient>
			<path class="st26" d="M158.6,173.4c-2.3,1.2-4.9,4.6-3.1,7c1.5,1.6,4.8,1,6.6-0.4c2.5-1.9,4.6-5,3.7-6.5
				C165,172,161.5,171.9,158.6,173.4z"/>
		</g>
		<path class="st27" d="M88.6,106.9c0.8-0.7-0.2-3.5-1.9-4c-1.3-0.4-3.1,0.1-3.4,1c-0.3,0.9,1.1,1.8,1.8,2.1
			C86,106.4,88,107.4,88.6,106.9z"/>
		<path class="st27" d="M93.4,108.9c-0.6-0.1-1-2.7,0.1-4.5c0.9-1.4,2.5-2.2,2.9-1.8c0.3,0.3-0.2,1.3-1.2,3.4
			C94.2,107.9,93.7,108.9,93.4,108.9z"/>
		<path class="st27" d="M88.5,87.4c0.9-0.6,0.5-4.6-2-6.3c-1.4-1-3.5-1.3-4-0.6c-0.7,1,1.7,3.8,2,4.2C84.8,85,87.5,88,88.5,87.4z"/>
		<path class="st27" d="M92.3,79.8c-0.8-0.2-1.9,2.3-2.4,3.6c-0.5,1.5-1.1,4.1-0.4,4.4c0.7,0.3,2.3-1.2,3-2.8
			C93.6,82.8,93.1,80,92.3,79.8z"/>
		<path class="st27" d="M88.5,91.1c0.5-0.9-3.1-5.1-6.5-4.4c-1.1,0.2-2.4,1.1-2.4,1.9c0.1,1.6,5.7,2.4,6.3,2.5
			C87.5,91.3,88.3,91.4,88.5,91.1z"/>
	</g>
</g>
</svg>
