<?xml version="1.0" encoding="utf-8"?>
<!-- Generator: Adobe Illustrator 20.0.0, SVG Export Plug-In . SVG Version: 6.00 Build 0)  -->
<svg version="1.1" xmlns="http://www.w3.org/2000/svg" xmlns:xlink="http://www.w3.org/1999/xlink" x="0px" y="0px"
	 viewBox="0 0 250 250" style="enable-background:new 0 0 250 250;" xml:space="preserve">
<style type="text/css">
	.st0{fill:#FCFBEF;}
	.st1{fill:#FDF5C1;}
	.st2{fill:url(#SVGID_1_);}
	.st3{fill:url(#SVGID_2_);}
	.st4{fill:url(#SVGID_3_);}
	.st5{fill:url(#SVGID_4_);}
	.st6{fill:url(#SVGID_5_);}
	.st7{fill:url(#SVGID_6_);}
</style>
<g id="colored_x5F_circles">
	<circle class="st0" cx="126" cy="125.1" r="100"/>
</g>
<g id="icons">
	<g id="XMLID_22_">
		<g>
			<path class="st1" d="M187.4,161.7c-10.2,19.2-33.4,28.1-54,19.9c-4.7-1.9-8.9-4.5-12.5-7.6c2-0.5,3.9-1,5.7-1.6
				c2.6,1.9,5.5,3.5,8.6,4.7c18.3,7.2,38.9-0.6,48-17.7c1.1-2,0.2-4.5-1.9-5.4l4,1.6c0,0,0,0,0.1,0
				C187.6,156.6,188.6,159.4,187.4,161.7z"/>
			<linearGradient id="SVGID_1_" gradientUnits="userSpaceOnUse" x1="94.3976" y1="171.5091" x2="456.9439" y2="171.5091">
				<stop  offset="0" style="stop-color:#F5E217"/>
				<stop  offset="0.4365" style="stop-color:#F8E410"/>
				<stop  offset="1" style="stop-color:#FFEA00"/>
			</linearGradient>
			<path class="st2" d="M187,156.3c2.8,1.1,4.1,4.5,2.6,7.1c-10.9,20.1-35.4,29.3-57.2,20.7c-5.7-2.3-10.7-5.5-14.9-9.5
				c1.2-0.2,2.3-0.4,3.4-0.7c3.6,3.2,7.8,5.8,12.5,7.6c20.7,8.2,43.9-0.7,54-19.9c1.2-2.3,0.2-5.1-2.2-6.1L187,156.3z"/>
			<linearGradient id="SVGID_2_" gradientUnits="userSpaceOnUse" x1="105.0436" y1="133.7372" x2="176.6321" y2="176.9966">
				<stop  offset="0.184" style="stop-color:#F5C800"/>
				<stop  offset="0.7633" style="stop-color:#FFFF2D"/>
			</linearGradient>
			<path class="st3" d="M183.1,159.4c-9,17-29.6,24.9-48,17.7c-3.1-1.2-6-2.8-8.6-4.7c12.1-4.1,20.1-11.7,28.6-23.1
				c1-1.5,1.9-2.9,2.8-4.4l21.7,8.6l1.4,0.6c0,0,0,0,0,0C183.3,154.9,184.2,157.4,183.1,159.4z"/>
			<polygon class="st1" points="179.7,153.4 158,144.9 158,144.9 			"/>
			<linearGradient id="SVGID_3_" gradientUnits="userSpaceOnUse" x1="110.8778" y1="141.4143" x2="174.7289" y2="176.3693">
				<stop  offset="0.1236" style="stop-color:#F5C800"/>
				<stop  offset="1" style="stop-color:#FFFF2D"/>
			</linearGradient>
			<path class="st4" d="M155.2,149.3c-8.5,11.3-16.5,19-28.6,23.1c-12.8-9.3-18.7-25.9-14.2-41.5c0.6-1.9,2.7-3,4.6-2.2l16.3,6.5
				l24.7,9.8C157.1,146.4,156.2,147.8,155.2,149.3z"/>
			<linearGradient id="SVGID_4_" gradientUnits="userSpaceOnUse" x1="88.6444" y1="76.3247" x2="143.5686" y2="171.4563">
				<stop  offset="0" style="stop-color:#FFF982"/>
				<stop  offset="4.357241e-02" style="stop-color:#FFF779"/>
				<stop  offset="0.1158" style="stop-color:#FFF35F"/>
				<stop  offset="0.2076" style="stop-color:#FFEC36"/>
				<stop  offset="0.311" style="stop-color:#FFE300"/>
				<stop  offset="0.631" style="stop-color:#FFCC00"/>
				<stop  offset="0.7104" style="stop-color:#F8C300"/>
				<stop  offset="0.8415" style="stop-color:#E3AA00"/>
				<stop  offset="1" style="stop-color:#C48300"/>
			</linearGradient>
			<path class="st5" d="M158,144.9L158,144.9l-24.7-9.8l-20.4-8.1l-2.6-1c-2.1-0.8-4.5,0.3-5.2,2.5c-4.9,16.8,0.2,34.5,12.4,46.1
				c-0.4,0.1-0.7,0.1-1.1,0.2c-16.4,2.6-20.3-0.8-29.8,0.1c-6.4,0.7-9.6,2.7-12.5,0.6c-2.9-2.1-1.9-5.8-3.3-12.1
				c-2-9.3-7.3-12-8.7-28.7c-1.6-18.5,3.2-29.5,11.2-43.7c9.1-13.6,20.4-22.8,40.2-27.1c16.2-3.5,17.9,2.1,27.4,0.9
				c6.4-0.8,9.6-2.9,12.5-0.8c2.9,2,2,5.7,3.5,12c2.2,9.2,7.4,9,10.3,25.4C170.2,117.7,166.1,131.5,158,144.9z"/>
			<path class="st1" d="M112.4,130.9c-4.5,15.6,1.4,32.2,14.2,41.5c-1.8,0.6-3.7,1.2-5.7,1.6c-12.4-10.8-17.8-28.1-13.1-44.4
				c0.6-2.2,3-3.3,5.2-2.5l4.1,1.6C115.1,127.9,112.9,128.9,112.4,130.9z"/>
			<linearGradient id="SVGID_5_" gradientUnits="userSpaceOnUse" x1="106.3842" y1="131.0776" x2="208.2285" y2="131.0776">
				<stop  offset="0" style="stop-color:#FFED26"/>
				<stop  offset="0.4226" style="stop-color:#F9E71D"/>
				<stop  offset="1" style="stop-color:#F5E217"/>
			</linearGradient>
			<polygon class="st6" points="133.3,135.1 117,128.7 112.9,127 			"/>
			<linearGradient id="SVGID_6_" gradientUnits="userSpaceOnUse" x1="97.697" y1="150.2039" x2="185.2934" y2="150.2039">
				<stop  offset="0" style="stop-color:#FFED26"/>
				<stop  offset="0.4226" style="stop-color:#F9E71D"/>
				<stop  offset="1" style="stop-color:#F5E217"/>
			</linearGradient>
			<path class="st7" d="M112.9,127c-2.1-0.8-4.5,0.3-5.2,2.5c-4.7,16.4,0.8,33.6,13.1,44.4c-1.1,0.2-2.2,0.5-3.4,0.7
				c-12.1-11.6-17.3-29.3-12.4-46.1c0.6-2.2,3-3.3,5.2-2.5L112.9,127z"/>
		</g>
		<g>
		</g>
	</g>
</g>
</svg>
