<?xml version="1.0" encoding="utf-8"?>
<!-- Generator: Adobe Illustrator 20.0.0, SVG Export Plug-In . SVG Version: 6.00 Build 0)  -->
<svg version="1.1" id="Layer_1" xmlns="http://www.w3.org/2000/svg" xmlns:xlink="http://www.w3.org/1999/xlink" x="0px" y="0px"
	 viewBox="0 0 210 210" style="enable-background:new 0 0 210 210;" xml:space="preserve">
<style type="text/css">
	.st0{fill:#F5FAF6;}
	.st1{opacity:0.33;}
	.st2{fill:url(#SVGID_1_);}
	.st3{fill:url(#SVGID_2_);}
	.st4{clip-path:url(#SVGID_4_);}
	.st5{fill:#CBDCB0;}
	.st6{fill:url(#SVGID_5_);}
	.st7{fill:url(#SVGID_6_);}
	.st8{fill:#99BD9F;}
	.st9{fill:#B6C997;}
	.st10{fill:url(#SVGID_7_);}
	.st11{fill:url(#SVGID_8_);}
	.st12{fill:url(#SVGID_9_);}
	.st13{fill:url(#SVGID_10_);}
	.st14{fill:url(#SVGID_11_);}
	.st15{fill:url(#SVGID_12_);}
	.st16{fill:url(#SVGID_13_);}
	.st17{fill:url(#SVGID_14_);}
	.st18{fill:url(#SVGID_15_);}
	.st19{fill:url(#SVGID_16_);}
	.st20{fill:url(#SVGID_17_);}
	.st21{fill:url(#SVGID_18_);}
	.st22{fill:url(#SVGID_19_);}
	.st23{fill:url(#SVGID_20_);}
	.st24{fill:url(#SVGID_21_);}
	.st25{fill:url(#SVGID_22_);}
	.st26{fill:url(#SVGID_23_);}
	.st27{fill:url(#SVGID_24_);}
	.st28{fill:url(#SVGID_25_);}
	.st29{fill:url(#SVGID_26_);}
	.st30{fill:url(#SVGID_27_);}
	.st31{fill:url(#SVGID_28_);}
	.st32{fill:url(#SVGID_29_);}
	.st33{fill:url(#SVGID_30_);}
	.st34{fill:url(#SVGID_31_);}
</style>
<g>
	<circle class="st0" cx="105" cy="105" r="100"/>
	<g class="st1">
		
			<linearGradient id="SVGID_1_" gradientUnits="userSpaceOnUse" x1="14.8707" y1="-14.3188" x2="-11.391" y2="-68.1836" gradientTransform="matrix(1.2843 -0.3035 0.3161 1.3375 66.1264 163.4881)">
			<stop  offset="0" style="stop-color:#A5D6B8"/>
			<stop  offset="0.419" style="stop-color:#8BB399"/>
			<stop  offset="0.7748" style="stop-color:#7A9C84"/>
			<stop  offset="1" style="stop-color:#74947D"/>
		</linearGradient>
		<path class="st2" d="M16.5,89c-1.5,7.3,67.4,39.4,81.4,41.3C80.8,105.7,45.8,97.5,16.5,89z"/>
		
			<linearGradient id="SVGID_2_" gradientUnits="userSpaceOnUse" x1="17.6114" y1="-15.6603" x2="-8.695" y2="-69.6166" gradientTransform="matrix(1.2843 -0.3035 0.3161 1.3375 66.1264 163.4881)">
			<stop  offset="0" style="stop-color:#D1F0D4"/>
			<stop  offset="0.1423" style="stop-color:#C5E6CA"/>
			<stop  offset="0.4009" style="stop-color:#A4CBB0"/>
			<stop  offset="0.5327" style="stop-color:#91BBA0"/>
			<stop  offset="0.8877" style="stop-color:#7C9E86"/>
			<stop  offset="1" style="stop-color:#74947D"/>
		</linearGradient>
		<path class="st3" d="M78.1,98C54.7,83.6,20,83.2,16.5,89c29.3,8.5,64.7,17.4,81.4,41.3C98.6,123.3,95.3,108.6,78.1,98z"/>
	</g>
	<g>
		<defs>
			<circle id="SVGID_3_" cx="105" cy="105" r="100"/>
		</defs>
		<clipPath id="SVGID_4_">
			<use xlink:href="#SVGID_3_"  style="overflow:visible;"/>
		</clipPath>
		<g class="st4">
			<path class="st5" d="M114.3,118.3c-3.8-7.3-7.3-12.1-7.3-12.1s-1.6-1.8-2.5,1.3c1.9,3.7,4.1,8,6.3,12.4
				C112.5,121,113.5,120.6,114.3,118.3z"/>
			<path class="st5" d="M114.3,118.3c-0.8,2.2-1.7,2.7-3.6,1.6c3.5,7.2,6.8,14.7,8.3,20c0,0,1.8,1.2,3.8-0.2
				C120.8,131.9,117.4,124.3,114.3,118.3z"/>
			<g>
				<g>
					
						<linearGradient id="SVGID_5_" gradientUnits="userSpaceOnUse" x1="21.7385" y1="90.9999" x2="21.7385" y2="123.0803" gradientTransform="matrix(0.9476 -0.3195 0.3195 0.9476 71.4393 59.6239)">
						<stop  offset="0" style="stop-color:#CBDCB0"/>
						<stop  offset="1" style="stop-color:#91B396"/>
					</linearGradient>
					<path class="st6" d="M133.6,168.4c-3.3-9.1-6.8-19-9.6-29.2c-2.2,1.2-3.9,0.8-5.1,0.5c2.4,8.2,6.2,19.1,9.9,29.7
						C130.4,169.5,132,169.4,133.6,168.4z"/>
				</g>
			</g>
			
				<linearGradient id="SVGID_6_" gradientUnits="userSpaceOnUse" x1="54.3711" y1="185.2039" x2="73.0763" y2="150.0813" gradientTransform="matrix(0.9861 -0.1661 0.1661 0.9861 43.3325 32.6709)">
				<stop  offset="0" style="stop-color:#B4D1AC"/>
				<stop  offset="0.2314" style="stop-color:#A9C6A3"/>
				<stop  offset="0.6424" style="stop-color:#8AA88C"/>
				<stop  offset="0.7857" style="stop-color:#7E9C83"/>
			</linearGradient>
			<path class="st7" d="M139.2,209.1c-2,1.1-4.6-0.5-6.9-3.5c2.4-8.4-0.3-26.2-4.2-38.1c1.6,0.2,2.8-0.1,4.6-1.5
				C138,178.9,141.2,198.5,139.2,209.1z"/>
			<g>
				<path class="st8" d="M144.3,127c-12.8,12.5-18.1,29.3-14.6,42.8c0.4,2.6,5.1,5.5,5.6,3.1c-4.4-13.5-1.7-31,11.3-43.4
					C144.4,129.4,144.4,129.9,144.3,127z"/>
			</g>
			<path class="st9" d="M120,137.6c-5.3-8.5-12.3-16.2-20.5-22.8c-0.7,0.7-1.5,1.2-2.8,1.5c9,6.7,17,15.4,22.5,24.3
				C120.6,142.9,120.8,139,120,137.6z"/>
			<g>
				
					<linearGradient id="SVGID_7_" gradientUnits="userSpaceOnUse" x1="42.9666" y1="63.9603" x2="22.658" y2="92.5101" gradientTransform="matrix(0.9476 -0.3195 0.3195 0.9476 71.4393 59.6239)">
					<stop  offset="0.1218" style="stop-color:#8FB37D"/>
					<stop  offset="0.1416" style="stop-color:#92B580"/>
					<stop  offset="0.3971" style="stop-color:#B1C9A7"/>
					<stop  offset="0.6322" style="stop-color:#C7D7C3"/>
					<stop  offset="0.8378" style="stop-color:#D5E0D4"/>
					<stop  offset="0.9912" style="stop-color:#DAE3DA"/>
				</linearGradient>
				<path class="st10" d="M123.2,140.2c-0.7,0.4-2.3-2.8-1.8-4.6c1.6-10.3,5.5-20.3,11.4-29l2.4,1.6
					C129.6,116.5,124.8,130.3,123.2,140.2z"/>
			</g>
			<g>
				<g>
					
						<linearGradient id="SVGID_8_" gradientUnits="userSpaceOnUse" x1="13.51" y1="196.5437" x2="25.9102" y2="196.5437" gradientTransform="matrix(0.9476 -0.3195 0.3195 0.9476 41.4393 -55.3761)">
						<stop  offset="0" style="stop-color:#8EA669"/>
						<stop  offset="0.2697" style="stop-color:#94AC77"/>
						<stop  offset="0.7807" style="stop-color:#A5BB9D"/>
						<stop  offset="1" style="stop-color:#ADC2AF"/>
					</linearGradient>
					<path class="st11" d="M121.6,107.8c-1.4,10.6-1.5,21.3-0.2,31.9c0.6,1.9,2.6,3,2.4,0.7c-1.4-10.7-1.4-21.5,0.1-32.2
						L121.6,107.8z"/>
				</g>
				<g>
					
						<linearGradient id="SVGID_9_" gradientUnits="userSpaceOnUse" x1="21.8282" y1="77.9865" x2="34.2284" y2="77.9865" gradientTransform="matrix(0.9476 -0.3195 0.3195 0.9476 71.4393 59.6239)">
						<stop  offset="0" style="stop-color:#8EA669"/>
						<stop  offset="0.2697" style="stop-color:#94AC77"/>
						<stop  offset="0.7807" style="stop-color:#A5BB9D"/>
						<stop  offset="1" style="stop-color:#ADC2AF"/>
					</linearGradient>
					<path class="st12" d="M121.6,107.8c-1.4,10.6-1.5,21.3-0.2,31.9c0.6,1.9,2.6,3,2.4,0.7c-1.4-10.7-1.4-21.5,0.1-32.2
						L121.6,107.8z"/>
				</g>
			</g>
			<g>
				
					<linearGradient id="SVGID_10_" gradientUnits="userSpaceOnUse" x1="1.1388" y1="98.1197" x2="22.3272" y2="98.1197" gradientTransform="matrix(0.9476 -0.3195 0.3195 0.9476 71.4393 59.6239)">
					<stop  offset="8.754007e-03" style="stop-color:#DAE3DA"/>
					<stop  offset="0.1622" style="stop-color:#D5E0D4"/>
					<stop  offset="0.3678" style="stop-color:#C7D7C3"/>
					<stop  offset="0.6029" style="stop-color:#B1C9A7"/>
					<stop  offset="0.8584" style="stop-color:#92B580"/>
					<stop  offset="0.8782" style="stop-color:#8FB37D"/>
				</linearGradient>
				<path class="st13" d="M125.7,159c-6.5-7.9-13.9-12.9-25.4-17.3l1-2.7c12,4.6,19.7,9.8,26.6,18.1L125.7,159z"/>
			</g>
			<g id="XMLID_6_">
				<g>
					<linearGradient id="SVGID_11_" gradientUnits="userSpaceOnUse" x1="165.2851" y1="96.1835" x2="217.9948" y2="95.0519">
						<stop  offset="0" style="stop-color:#6B998A"/>
						<stop  offset="0.3024" style="stop-color:#89B59F"/>
						<stop  offset="0.9591" style="stop-color:#D6FAD5"/>
						<stop  offset="1" style="stop-color:#DBFFD8"/>
					</linearGradient>
					<path class="st14" d="M218,95C218,95,218,95,218,95C218,95.1,218,95.1,218,95C218,95.1,218,95.1,218,95z"/>
					<linearGradient id="SVGID_12_" gradientUnits="userSpaceOnUse" x1="180.0545" y1="96.4317" x2="218.0018" y2="95.617">
						<stop  offset="0" style="stop-color:#6B998A"/>
						<stop  offset="0.3024" style="stop-color:#89B59F"/>
						<stop  offset="0.9591" style="stop-color:#D6FAD5"/>
						<stop  offset="1" style="stop-color:#DBFFD8"/>
					</linearGradient>
					<path class="st15" d="M218,95C218,95.1,218,95.1,218,95c-2.3,0.4-4.6,0.8-6.8,1.3C213.4,95.9,215.7,95.4,218,95z"/>
					<linearGradient id="SVGID_13_" gradientUnits="userSpaceOnUse" x1="143.061" y1="113.7577" x2="218.3322" y2="112.1417">
						<stop  offset="0.1118" style="stop-color:#7FB29F"/>
						<stop  offset="0.3421" style="stop-color:#9DCBB2"/>
						<stop  offset="0.7486" style="stop-color:#DBFFD8"/>
					</linearGradient>
					<path class="st16" d="M211.2,96.3c2.3-0.5,4.5-0.9,6.8-1.3c0.1,5.1-22.6,13.5-38.2,21.2c-16,7.1-33.1,17.2-36.2,13.9
						c-0.1-0.1-0.1-0.1-0.1-0.2c4.1-4.1,8.5-7.8,13.2-11.1c0.4-0.3,0.9-0.6,1.3-0.9c0.5-0.3,0.9-0.6,1.4-1c0.5-0.3,1.1-0.7,1.6-1
						c13.9-8.9,30.1-15.1,46.8-18.9C208.9,96.8,210,96.6,211.2,96.3z"/>
					<linearGradient id="SVGID_14_" gradientUnits="userSpaceOnUse" x1="192.1596" y1="97.0844" x2="211.1663" y2="96.6763">
						<stop  offset="0" style="stop-color:#6B998A"/>
						<stop  offset="0.3024" style="stop-color:#89B59F"/>
						<stop  offset="0.9591" style="stop-color:#D6FAD5"/>
						<stop  offset="1" style="stop-color:#DBFFD8"/>
					</linearGradient>
					<path class="st17" d="M211.2,96.3c-1.1,0.2-2.3,0.5-3.4,0.7C208.9,96.8,210,96.6,211.2,96.3z"/>
					<linearGradient id="SVGID_15_" gradientUnits="userSpaceOnUse" x1="147.058" y1="107.3339" x2="221.3694" y2="105.7385">
						<stop  offset="0" style="stop-color:#6B998A"/>
						<stop  offset="0.3024" style="stop-color:#89B59F"/>
						<stop  offset="0.9591" style="stop-color:#D6FAD5"/>
						<stop  offset="1" style="stop-color:#DBFFD8"/>
					</linearGradient>
					<path class="st18" d="M207.7,97.1c-16.7,3.8-32.9,10-46.8,18.9C174.8,107,190.8,100.9,207.7,97.1z"/>
					<linearGradient id="SVGID_16_" gradientUnits="userSpaceOnUse" x1="129.1211" y1="109.1329" x2="168.9501" y2="40.6442">
						<stop  offset="0" style="stop-color:#7FB085"/>
						<stop  offset="1" style="stop-color:#5C7A60"/>
					</linearGradient>
					<path class="st19" d="M174.7,47.8c1.5,1.8-9.5,21.6-20.2,37.6c-11.5,17.2-19.5,27.8-23.2,26.1c-1.5-0.7-2.5-2.1-3.2-3.9
						c1-1.8,2-3.9,3.1-6.4c2.3-5.5,4.9-17.5,6.4-27.8C151.3,55.9,172.5,45.3,174.7,47.8z"/>
					<linearGradient id="SVGID_17_" gradientUnits="userSpaceOnUse" x1="157.5164" y1="117.5201" x2="159.7649" y2="117.4718">
						<stop  offset="0" style="stop-color:#6B998A"/>
						<stop  offset="0.3024" style="stop-color:#89B59F"/>
						<stop  offset="0.9591" style="stop-color:#D6FAD5"/>
						<stop  offset="1" style="stop-color:#DBFFD8"/>
					</linearGradient>
					<path class="st20" d="M159.3,117c-0.5,0.3-0.9,0.6-1.4,1C158.4,117.6,158.9,117.3,159.3,117z"/>
					<linearGradient id="SVGID_18_" gradientUnits="userSpaceOnUse" x1="135.9408" y1="55.3726" x2="118.8352" y2="109.8697">
						<stop  offset="0" style="stop-color:#699583"/>
						<stop  offset="1" style="stop-color:#9BC2AF"/>
					</linearGradient>
					<path class="st21" d="M137.6,55.9c1.7,0.5,1.3,8.4-0.1,17.6c-2.5,3.1-4.7,6.5-6.5,10c-3.5,6.7-5.3,18-3,24.2
						c-2.4,4.3-4.5,6.5-5.5,6.5c-3.2,0-8.1-13.3-5.5-25.1C120.6,72.8,134.1,54.8,137.6,55.9z"/>
					<linearGradient id="SVGID_19_" gradientUnits="userSpaceOnUse" x1="126.4746" y1="107.2179" x2="136.604" y2="73.1782">
						<stop  offset="0" style="stop-color:#87B594"/>
						<stop  offset="1" style="stop-color:#44594C"/>
					</linearGradient>
					<path class="st22" d="M131,83.5c1.8-3.5,4.1-6.9,6.5-10c-1.5,10.3-4.2,22.3-6.4,27.8c-1,2.5-2.1,4.7-3.1,6.4
						C125.7,101.5,127.5,90.2,131,83.5z"/>
					<linearGradient id="SVGID_20_" gradientUnits="userSpaceOnUse" x1="142.5494" y1="112.4413" x2="218.3078" y2="110.8148">
						<stop  offset="0" style="stop-color:#6B998A"/>
						<stop  offset="0.3024" style="stop-color:#89B59F"/>
						<stop  offset="0.9591" style="stop-color:#D6FAD5"/>
						<stop  offset="1" style="stop-color:#DBFFD8"/>
					</linearGradient>
					<path class="st23" d="M156.6,118.9c-4.7,3.4-9.2,7.1-13.3,11.1c-2.7-3.6,7.1-17.5,24-26.3c21.1-11.3,46.4-11.6,50.6-8.7
						c-2.3,0.4-4.6,0.8-6.8,1.3c-1.1,0.2-2.3,0.5-3.4,0.7c-16.9,3.8-32.9,9.9-46.8,18.9c-0.5,0.3-1.1,0.7-1.6,1
						c-0.5,0.3-0.9,0.6-1.4,1C157.5,118.3,157.1,118.6,156.6,118.9z"/>
					<linearGradient id="SVGID_21_" gradientUnits="userSpaceOnUse" x1="84.2569" y1="29.0745" x2="117.8873" y2="118.1012">
						<stop  offset="0.1735" style="stop-color:#739978"/>
						<stop  offset="0.2345" style="stop-color:#709575"/>
						<stop  offset="0.5262" style="stop-color:#66876A"/>
						<stop  offset="0.5949" style="stop-color:#719174"/>
						<stop  offset="0.7167" style="stop-color:#8FAC8F"/>
						<stop  offset="0.8737" style="stop-color:#BFD6BA"/>
					</linearGradient>
					<path class="st24" d="M111.7,76.1c6.3,19.8,5,42.2,1.2,44.3c-0.3,0.1-0.7,0.2-1.2,0.1c-9.8-30.1-26.9-57.7-35-88.3
						C80,31.3,104.5,53.6,111.7,76.1z"/>
					<linearGradient id="SVGID_22_" gradientUnits="userSpaceOnUse" x1="70.5939" y1="34.7972" x2="104.148" y2="122.5141">
						<stop  offset="0" style="stop-color:#739978"/>
						<stop  offset="0.2013" style="stop-color:#7B9F7F"/>
						<stop  offset="0.5103" style="stop-color:#90B091"/>
						<stop  offset="0.8868" style="stop-color:#B3CCB0"/>
						<stop  offset="1" style="stop-color:#BFD6BA"/>
					</linearGradient>
					<path class="st25" d="M76.7,32.1c8.1,30.7,25.1,58.3,35,88.3c-2-0.3-5.9-2.3-10.4-6.3c0.5-4.5-1.2-12.6-9.4-20.4
						c-3.2-3-6.7-5.5-10.2-7.6c-0.1-0.1-0.1-0.3-0.2-0.4C71.7,62.7,72.5,33.8,76.7,32.1z"/>
					<linearGradient id="SVGID_23_" gradientUnits="userSpaceOnUse" x1="101.0769" y1="110.9829" x2="79.7196" y2="81.5603">
						<stop  offset="0" style="stop-color:#576E52"/>
						<stop  offset="1" style="stop-color:#5E8564"/>
					</linearGradient>
					<path class="st26" d="M91.9,93.8c8.2,7.8,9.9,15.9,9.4,20.4c-6.2-5.4-13.8-14.5-19.5-28C85.2,88.3,88.7,90.8,91.9,93.8z"/>
					<linearGradient id="SVGID_24_" gradientUnits="userSpaceOnUse" x1="100.2839" y1="115.7322" x2="58.5182" y2="79.9452">
						<stop  offset="0" style="stop-color:#86B38C"/>
						<stop  offset="0.3782" style="stop-color:#81AB88"/>
						<stop  offset="0.9576" style="stop-color:#75967E"/>
						<stop  offset="1" style="stop-color:#74947D"/>
					</linearGradient>
					<path class="st27" d="M81.7,86.2c5.8,13.4,13.3,22.5,19.5,28c-0.2,1.6-0.7,2.8-1.2,3.2c-2.1,1.7-12.4,0.6-21.5-6.7
						c-8.8-7.1-20.6-28.8-18.9-31.1C60.9,77.9,71.3,80,81.7,86.2z"/>
					<linearGradient id="SVGID_25_" gradientUnits="userSpaceOnUse" x1="113.6251" y1="176.3745" x2="137.3936" y2="160.1902">
						<stop  offset="0" style="stop-color:#6B8063"/>
						<stop  offset="0.3405" style="stop-color:#73886B"/>
						<stop  offset="0.862" style="stop-color:#879C80"/>
						<stop  offset="1" style="stop-color:#8EA387"/>
					</linearGradient>
					<path class="st28" d="M123.6,191.1c-3.9-12.2-7.5-23.6-5.8-39.1c0,0.1,0.1,0.1,0.2,0.1c2.4-2.5,8.4-5.4,12.7-1.4
						c3.7,3.4,0.7,14.9-0.9,23.4C128.2,182.5,125.3,185.2,123.6,191.1z"/>
					<linearGradient id="SVGID_26_" gradientUnits="userSpaceOnUse" x1="113.6251" y1="176.3745" x2="137.4062" y2="160.1816">
						<stop  offset="0" style="stop-color:#6B8063"/>
						<stop  offset="0.3405" style="stop-color:#73886B"/>
						<stop  offset="0.862" style="stop-color:#879C80"/>
						<stop  offset="1" style="stop-color:#8EA387"/>
					</linearGradient>
					<path class="st29" d="M117.9,152c-1.8,15.5,1.8,27,5.8,39.1C119.7,178.9,114.2,173.8,117.9,152z"/>
					<linearGradient id="SVGID_27_" gradientUnits="userSpaceOnUse" x1="117.3452" y1="191.6253" x2="110.5548" y2="151.0385">
						<stop  offset="0" style="stop-color:#677A5E"/>
						<stop  offset="0.176" style="stop-color:#6E8266"/>
						<stop  offset="0.4462" style="stop-color:#83977B"/>
						<stop  offset="0.7751" style="stop-color:#A4BA9E"/>
						<stop  offset="1" style="stop-color:#BFD6BA"/>
					</linearGradient>
					<path class="st30" d="M117.9,152c-3.6,21.9,1.8,26.9,5.8,39.1c0,0,0,0,0,0c-5.8-3.8-10.5-10.2-14.5-17.1
						c-3.9-6.9-6-20.6-3.1-22.7C107.7,150,114.7,149.2,117.9,152C117.9,151.9,117.9,152,117.9,152z"/>
					<linearGradient id="SVGID_28_" gradientUnits="userSpaceOnUse" x1="94.1725" y1="151.3297" x2="38.2666" y2="112.0016">
						<stop  offset="0" style="stop-color:#DCFBD4"/>
						<stop  offset="0.1254" style="stop-color:#D0F0CB"/>
						<stop  offset="0.353" style="stop-color:#AFD5B5"/>
						<stop  offset="0.5327" style="stop-color:#91BBA0"/>
						<stop  offset="0.8877" style="stop-color:#7C9E86"/>
						<stop  offset="1" style="stop-color:#74947D"/>
					</linearGradient>
					<path class="st31" d="M81,121.2c16.5,4.4,22.4,15.4,23.3,21.2c-0.6-0.5-1.2-0.9-1.8-1.4c0,0,0,0-0.1,0
						c-18.8-13.7-47.2-12.5-71.9-12.3c-0.8,0-1.6,0-2.5,0C29.8,123.2,58.6,115.3,81,121.2z"/>
					<linearGradient id="SVGID_29_" gradientUnits="userSpaceOnUse" x1="101.7318" y1="140.5839" x2="45.8269" y2="101.2565">
						<stop  offset="0" style="stop-color:#D1F0D4"/>
						<stop  offset="0.1423" style="stop-color:#C5E6CA"/>
						<stop  offset="0.4009" style="stop-color:#A4CBB0"/>
						<stop  offset="0.5327" style="stop-color:#91BBA0"/>
						<stop  offset="0.8877" style="stop-color:#7C9E86"/>
						<stop  offset="1" style="stop-color:#74947D"/>
					</linearGradient>
					<path class="st32" d="M102.5,141.1c0.6,0.4,1.2,0.9,1.8,1.4C103.7,142,103.1,141.5,102.5,141.1z"/>
					<linearGradient id="SVGID_30_" gradientUnits="userSpaceOnUse" x1="92.7424" y1="153.3627" x2="36.8374" y2="114.0352">
						<stop  offset="0" style="stop-color:#D1F0D4"/>
						<stop  offset="0.1423" style="stop-color:#C5E6CA"/>
						<stop  offset="0.4009" style="stop-color:#A4CBB0"/>
						<stop  offset="0.5327" style="stop-color:#91BBA0"/>
						<stop  offset="0.8877" style="stop-color:#7C9E86"/>
						<stop  offset="1" style="stop-color:#74947D"/>
					</linearGradient>
					<path class="st33" d="M102.4,141c-18.4-13.2-47.2-12.5-71.9-12.3C55.2,128.5,83.6,127.4,102.4,141z"/>
					<linearGradient id="SVGID_31_" gradientUnits="userSpaceOnUse" x1="92.1754" y1="154.178" x2="36.3653" y2="114.9173">
						<stop  offset="0" style="stop-color:#A5D6B8"/>
						<stop  offset="0.419" style="stop-color:#8BB399"/>
						<stop  offset="0.7748" style="stop-color:#7A9C84"/>
						<stop  offset="1" style="stop-color:#74947D"/>
					</linearGradient>
					<path class="st34" d="M104.3,142.4c-12,1.9-75.9-7.4-76.2-13.7c0.8,0,1.6,0,2.5,0c24.7-0.2,53.5-0.9,71.9,12.3c0,0,0,0,0.1,0
						C103.1,141.5,103.7,142,104.3,142.4z"/>
				</g>
				<g>
				</g>
			</g>
		</g>
	</g>
</g>
</svg>
