<?xml version="1.0" encoding="utf-8"?>
<!-- Generator: Adobe Illustrator 20.0.0, SVG Export Plug-In . SVG Version: 6.00 Build 0)  -->
<svg version="1.1" id="Layer_1" xmlns="http://www.w3.org/2000/svg" xmlns:xlink="http://www.w3.org/1999/xlink" x="0px" y="0px"
	 viewBox="0 0 210 210" style="enable-background:new 0 0 210 210;" xml:space="preserve">
<style type="text/css">
	.st0{fill:#FBF9F4;}
	.st1{fill:url(#SVGID_1_);}
	.st2{fill:url(#SVGID_2_);}
	.st3{fill:url(#SVGID_3_);}
	.st4{fill:url(#SVGID_4_);}
	.st5{fill:url(#SVGID_5_);}
	.st6{fill:url(#SVGID_6_);}
	.st7{fill:url(#SVGID_7_);}
	.st8{fill:url(#SVGID_8_);}
	.st9{fill:url(#SVGID_9_);}
	.st10{fill:url(#SVGID_10_);}
	.st11{fill:url(#SVGID_11_);}
	.st12{fill:url(#SVGID_12_);}
	.st13{fill:url(#SVGID_13_);}
	.st14{fill:url(#SVGID_14_);}
	.st15{fill:#B88B67;}
	.st16{fill:url(#SVGID_15_);}
	.st17{fill:url(#SVGID_16_);}
	.st18{fill:url(#SVGID_17_);}
	.st19{fill:url(#SVGID_18_);}
	.st20{fill:url(#SVGID_19_);}
</style>
<g>
	<circle class="st0" cx="105" cy="105" r="100"/>
	<g id="XMLID_25_">
		<g>
			<linearGradient id="SVGID_1_" gradientUnits="userSpaceOnUse" x1="132.3174" y1="179.1404" x2="157.0558" y2="149.7483">
				<stop  offset="0" style="stop-color:#FFE6B8"/>
				<stop  offset="0.5021" style="stop-color:#FFF2C5"/>
				<stop  offset="1" style="stop-color:#FFF9CC"/>
			</linearGradient>
			<path class="st1" d="M153.7,155.1c-1.9,11.6-12.8,26.5-18,25.8c-3.5-1.7-2-8.9,2.5-17.5c3.5-6.9,11.7-14.5,14.1-13.2
				c0.3,0.3,0.5,0.6,0.7,1C153.3,152.3,153.9,154.1,153.7,155.1z"/>
			<linearGradient id="SVGID_2_" gradientUnits="userSpaceOnUse" x1="128.8873" y1="82.6851" x2="158.9458" y2="94.5317">
				<stop  offset="0.1426" style="stop-color:#C79E71"/>
				<stop  offset="0.3192" style="stop-color:#CBA476"/>
				<stop  offset="0.5459" style="stop-color:#D7B486"/>
				<stop  offset="0.7988" style="stop-color:#EBCE9F"/>
				<stop  offset="1" style="stop-color:#FFE8B8"/>
			</linearGradient>
			<path class="st2" d="M159,92.8c-0.5,3.6-3.5,6.8-7,7.7l-0.1-0.3c-2.2-3.9-5.2-7.3-8.7-10l0.8-1.1c0.8-4,5.3-6.6,9.1-5.6
				C157,84.6,159.6,88.9,159,92.8z"/>
			<linearGradient id="SVGID_3_" gradientUnits="userSpaceOnUse" x1="93.3976" y1="97.8644" x2="153.4207" y2="98.4929">
				<stop  offset="0.1426" style="stop-color:#BD926B"/>
				<stop  offset="0.3001" style="stop-color:#C39972"/>
				<stop  offset="0.5354" style="stop-color:#D2AE84"/>
				<stop  offset="0.818" style="stop-color:#ECCFA1"/>
				<stop  offset="1" style="stop-color:#FFE8B8"/>
			</linearGradient>
			<path class="st3" d="M113.5,83.5c0.3,1.2,0.8,2.3,1.5,3.2c0.1-0.8,0.2-1.5,0.4-2.3c6.9-1.7,14.3-1.1,20.9,1.7
				c2.5,1.1,4.8,2.4,6.9,4.1c3.5,2.7,6.5,6.1,8.7,10l0.1,0.3c-0.3,0.1-0.7,0.2-1.1,0.2c0.8,1.3,0.5,3.1-0.2,4.4
				c-0.7,1.3-1.8,2.3-3,3.3c-1.4,1.3-2.8,2.6-4.3,3.8c-0.1,0.1-0.2,0.2-0.3,0.3c-5.2-6.1-13.8-10.6-21.7-10.6s-16.3,4.2-21.4,10.5
				c-0.2-0.4-0.3-0.8-0.4-1.3c-0.2-3.9-2.6-7.5-6-9.2c-0.7-0.4-1.4-0.9-1.9-1.6c-0.7-7.8,14-18.6,21.4-16.9L113.5,83.5z"/>
			<linearGradient id="SVGID_4_" gradientUnits="userSpaceOnUse" x1="123.2944" y1="173.7164" x2="158.5458" y2="150.5897">
				<stop  offset="0.1426" style="stop-color:#C79E71"/>
				<stop  offset="0.2584" style="stop-color:#D2AC7F"/>
				<stop  offset="0.5673" style="stop-color:#EACD9E"/>
				<stop  offset="0.8256" style="stop-color:#FAE1B1"/>
				<stop  offset="1" style="stop-color:#FFE8B8"/>
			</linearGradient>
			<path class="st4" d="M132.9,178.4c-2.4-2.8-9.3-9.3-12.4-11.8l0.8,0.1c0.5-2.3,2.9-3.7,5.1-4.4c2.2-0.7,4.7-1.2,6.3-2.9
				c2.6-2.7,2-7.3,4.4-10.2l0.1,0c0,0.3,0.1,0.6,0.1,0.9c0.3,1.3,1.3,2.5,2.4,2.9c1.1,0.3,3.3-0.2,4.8-1s2.8-1.9,4.4-2.4
				c1.2-0.3,2.6-0.1,3.5,0.6c-2.5-1.3-10.6,6.3-14.1,13.2c-4.4,8.7-5.9,15.9-2.5,17.5c-0.3,0-0.6-0.1-0.8-0.3
				C134,180.2,133.5,179.2,132.9,178.4z"/>
			<linearGradient id="SVGID_5_" gradientUnits="userSpaceOnUse" x1="95.202" y1="105.7106" x2="140.9209" y2="120.3063">
				<stop  offset="1.241987e-03" style="stop-color:#A87C5C"/>
				<stop  offset="0.453" style="stop-color:#C49C77"/>
				<stop  offset="1" style="stop-color:#EBC99C"/>
			</linearGradient>
			<path class="st5" d="M140,122.1c-0.3,1.2-0.9,2.3-1.7,3.3l-0.1-0.1c-1.1-2.3-3.3-3.3-5.7-3.9c-2.3-0.6-4.8-1.1-7.1-1.6
				c-2.5-0.6-4.8-1.8-7.4-1.8c-5,0.1-8.2,1.7-11.6,4.5c-0.6-3.4-2.4-6.6-5.1-8.6c-0.5-0.3-0.8-0.8-1.1-1.2
				c5.1-6.2,13.4-10.4,21.4-10.5s16.6,4.5,21.7,10.6c-1.1,1-2.1,2-2.6,3.3C139.9,117.9,140.5,120.1,140,122.1z"/>
			<linearGradient id="SVGID_6_" gradientUnits="userSpaceOnUse" x1="114.2898" y1="77.2926" x2="162.2719" y2="88.1378">
				<stop  offset="0" style="stop-color:#C79E71"/>
				<stop  offset="0.2029" style="stop-color:#CCA477"/>
				<stop  offset="0.4854" style="stop-color:#DAB688"/>
				<stop  offset="0.8132" style="stop-color:#F0D4A5"/>
				<stop  offset="1" style="stop-color:#FFE8B8"/>
			</linearGradient>
			<path class="st6" d="M143.3,90.3c-2.1-1.6-4.5-3-6.9-4.1c-6.5-2.8-14-3.4-20.9-1.7c0.6-2.7,1.5-5.2,3-7.5c2-2.9,5.8-4.9,9-3.6
				c1.7,0.7,2.9,2.1,4.3,3.2c2.5,1.9,5.6,2.9,8.3,4.6c2.6,1.8,4.9,4.9,4.1,8L143.3,90.3z"/>
			<linearGradient id="SVGID_7_" gradientUnits="userSpaceOnUse" x1="105.4981" y1="158.118" x2="150.539" y2="143.8476">
				<stop  offset="0.1426" style="stop-color:#C79E71"/>
				<stop  offset="0.2584" style="stop-color:#D2AC7F"/>
				<stop  offset="0.5673" style="stop-color:#EACD9E"/>
				<stop  offset="0.8256" style="stop-color:#FAE1B1"/>
				<stop  offset="1" style="stop-color:#FFE8B8"/>
			</linearGradient>
			<path class="st7" d="M126.4,162.3c-2.2,0.7-4.6,2.1-5.1,4.4l-0.8-0.1c-0.1-0.1-0.2-0.2-0.3-0.2c-3.3-2.6-5.3-6.9-9.1-8.7
				c-1.1-0.5-2.3-0.8-3.4-1.3c-1-0.5-2-1.3-2.3-2.4l-0.1,0c-0.2-0.4-0.3-0.9-0.5-1.3l0.4,0.1c1.1-4.3,4.5-7.9,8.7-9.3
				c1.6-0.5,3.3-0.7,4.8-1.3c2.7-1,5-3,7.6-4.1c2.6-1.2,6.1-1.4,8,0.8l0.2,0c0,0.3,0,0.6-0.1,0.9c-0.3,1.3-1.4,2.4-1.2,3.6
				c0.3,1.4,2.1,1.9,2.9,3.1c0.6,0.8,0.8,1.8,0.9,2.9l-0.1,0c-2.4,2.9-1.8,7.5-4.4,10.2C131.1,161.2,128.6,161.6,126.4,162.3z"/>
			<linearGradient id="SVGID_8_" gradientUnits="userSpaceOnUse" x1="94.8125" y1="141.5415" x2="143.8125" y2="121.5415">
				<stop  offset="1.252003e-02" style="stop-color:#C79E71"/>
				<stop  offset="0.254" style="stop-color:#CAA275"/>
				<stop  offset="0.478" style="stop-color:#D2AD7F"/>
				<stop  offset="0.6952" style="stop-color:#E1C091"/>
				<stop  offset="0.907" style="stop-color:#F4DAAB"/>
				<stop  offset="1" style="stop-color:#FFE8B8"/>
			</linearGradient>
			<path class="st8" d="M134.3,138.8c-1.9-2.2-5.4-2-8-0.8c-2.6,1.2-4.9,3.2-7.6,4.1c-1.6,0.6-3.2,0.8-4.8,1.3
				c-4.2,1.4-7.6,5-8.7,9.3l-0.4-0.1c-0.8-2-1.7-3.8-3.5-4.8c-1.5-0.8-3.4-0.8-4.8-1.7c-1.4-0.8-2.2-2.4-3.6-3.2l0,0
				c0.1-6.1,3.2-12.1,8.1-15.6c0.3,0.1,0.5,0.3,0.8,0.4c1.3,0.5,3.2,0.4,4.6,0.4c0.4-1.9,0.4-3.8,0.1-5.7c3.4-2.7,6.7-4.4,11.6-4.5
				c2.6,0,4.9,1.2,7.4,1.8c2.3,0.5,4.8,1.1,7.1,1.6c2.3,0.6,4.5,1.6,5.7,3.9l0.1,0.1c-0.6,0.9-1.4,1.7-2.1,2.5
				c-1.5,1.8-3,3.9-2.8,6.2c0.1,1.6,1.1,3.2,1.1,4.7L134.3,138.8z"/>
			<linearGradient id="SVGID_9_" gradientUnits="userSpaceOnUse" x1="113.5745" y1="85.5534" x2="123.4463" y2="52.5044">
				<stop  offset="0.1426" style="stop-color:#C79E71"/>
				<stop  offset="0.2584" style="stop-color:#D2AC7F"/>
				<stop  offset="0.5673" style="stop-color:#EACD9E"/>
				<stop  offset="0.8256" style="stop-color:#FAE1B1"/>
				<stop  offset="1" style="stop-color:#FFE8B8"/>
			</linearGradient>
			<path class="st9" d="M114.5,64.9c-0.1-0.4-0.3-0.7-0.3-1.1c-0.6-2.5-0.1-5.2,1.4-7.3c2.3-0.6,4.8-1.3,7.1-1
				c2.4,0.4,4.8,2.1,5.2,4.6c0.4,2.5-1.4,4.9-3.5,6.4c-1.7,1.2-3.7,2-5.5,3.2C116.9,68.7,115.3,67,114.5,64.9z"/>
			<linearGradient id="SVGID_10_" gradientUnits="userSpaceOnUse" x1="68.4044" y1="77.7981" x2="120.9854" y2="67.9258">
				<stop  offset="0" style="stop-color:#C79E71"/>
				<stop  offset="0.2101" style="stop-color:#CEA779"/>
				<stop  offset="0.5507" style="stop-color:#E0BF90"/>
				<stop  offset="0.9771" style="stop-color:#FDE6B6"/>
				<stop  offset="1" style="stop-color:#FFE8B8"/>
			</linearGradient>
			<path class="st10" d="M80.4,70.6c0.4-1.2,0.5-2.4,0.3-3.4c7-7.6,27.6-8.2,33.8-2.3c0.8,2,2.4,3.8,4.3,4.8
				c-0.4,0.2-0.7,0.5-1.1,0.7c-2.1,1.6-3.5,3.9-4.2,6.5l-0.2-0.1c-8.5-2.2-13.4-0.5-19.2,2.1c-4.1,1.9-9.2,4.4-12,7.9
				c-3.5-1.3-7.2-1.2-9.8-0.1c-0.2,0.1-0.4,0.2-0.6,0.3c-0.9-2.4-1-4.9-0.6-7.2c0.7-3.6,3.9-7.4,7.1-9.7l0,0
				C79,70.3,79.7,70.5,80.4,70.6z"/>
			<linearGradient id="SVGID_11_" gradientUnits="userSpaceOnUse" x1="85.8777" y1="91.9304" x2="132.0208" y2="76.6734">
				<stop  offset="0.1697" style="stop-color:#C79E71"/>
				<stop  offset="0.3894" style="stop-color:#D2AD7F"/>
				<stop  offset="0.8107" style="stop-color:#F0D4A5"/>
				<stop  offset="1" style="stop-color:#FFE8B8"/>
			</linearGradient>
			<path class="st11" d="M113.6,76.9c-0.6,2.2-0.6,4.5-0.1,6.6l-0.1,0c-7.4-1.6-22.1,9.1-21.4,16.9c-0.4-0.5-0.7-1-0.9-1.5
				c-0.4-0.9-1-1.8-1.7-2.6c-0.2-2.4-0.6-4.6-1.8-5.9c-1.5-1.7-3.4-2.9-5.4-3.6c2.8-3.5,7.9-6,12-7.9c5.9-2.7,10.8-4.3,19.2-2.1
				L113.6,76.9z"/>
			<linearGradient id="SVGID_12_" gradientUnits="userSpaceOnUse" x1="78.1994" y1="60.427" x2="118.6994" y2="52.677">
				<stop  offset="0.1426" style="stop-color:#C79E71"/>
				<stop  offset="0.2584" style="stop-color:#D2AC7F"/>
				<stop  offset="0.5673" style="stop-color:#EACD9E"/>
				<stop  offset="0.8256" style="stop-color:#FAE1B1"/>
				<stop  offset="1" style="stop-color:#FFE8B8"/>
			</linearGradient>
			<path class="st12" d="M114.2,63.8c0.1,0.4,0.2,0.7,0.3,1.1c-6.1-6-26.8-5.4-33.8,2.3c-0.4-2.6-2.2-4.7-3.9-6.3
				c-0.6-0.6-1.3-1.2-2-1.8l0.1-0.1c1.6-7.2,10.9-11.8,18.6-12.9c7.7-1.1,18.7-0.2,21.5,6.5l0,0c0.2,1.4,0.1,2.8-0.1,4.1
				c0.2-0.1,0.4-0.1,0.6-0.2C114.1,58.6,113.6,61.3,114.2,63.8z"/>
			<linearGradient id="SVGID_13_" gradientUnits="userSpaceOnUse" x1="82.5883" y1="140.1782" x2="111.9783" y2="108.339">
				<stop  offset="0" style="stop-color:#C79E71"/>
				<stop  offset="0.2035" style="stop-color:#CCA578"/>
				<stop  offset="0.5052" style="stop-color:#DCB98B"/>
				<stop  offset="0.8665" style="stop-color:#F4DAAB"/>
				<stop  offset="1" style="stop-color:#FFE8B8"/>
			</linearGradient>
			<path class="st13" d="M92.8,143L92.8,143c-0.1,0-0.1,0-0.2-0.1c-2.1-1.1-4.6-0.2-6.9-0.3c-3.5-0.1-6.8-2.8-7.8-6.2
				c0,0,0-0.1,0-0.1l0.1,0c0.6-4.5,2.9-8.7,6.3-11.6c3.4-2.9,8-4.4,12.4-4.1l0,0c0,0,0,0.1-0.1,0.2c-0.2,0.8,0.2,1.6,0.6,2.4
				c0.9,1.7,2.1,3.4,3.7,4.3C96,130.9,92.9,136.9,92.8,143z"/>
			<linearGradient id="SVGID_14_" gradientUnits="userSpaceOnUse" x1="71.6168" y1="121.8798" x2="100.2137" y2="126.9078">
				<stop  offset="0" style="stop-color:#C79E71"/>
				<stop  offset="0.2132" style="stop-color:#CEA77A"/>
				<stop  offset="0.5663" style="stop-color:#E1C192"/>
				<stop  offset="1" style="stop-color:#FFE8B8"/>
			</linearGradient>
			<path class="st14" d="M84.3,124.6c-3.4,2.9-5.8,7.1-6.3,11.6l-0.1,0c0,0,0,0.1,0,0.1c-1.5-0.1-3-0.2-4.4-0.9
				c-1.5-0.7-2.8-2.2-2.7-4c0.1-1,0.6-2,0.9-3c0.4-1.8-0.2-3.8-1.5-5l0.1-0.1c4-8,16.8-12.6,26.7-10.7l0.3,0
				c-0.1,1.1-0.2,2.2,0.2,3.1c0.3,0.7,0.8,1.3,0.7,2c-0.1,1-1.2,1.6-1.6,2.6l0,0C92.3,120.2,87.7,121.7,84.3,124.6z"/>
			<path class="st15" d="M82.1,86.9c-1.2,1.5-2,3.2-2.1,5l0,0.1c-2-0.3-4-0.5-6-0.8l0-0.1c-1-1.3-1.8-2.7-2.3-4.1
				c0.2-0.1,0.4-0.2,0.6-0.3C74.9,85.7,78.7,85.6,82.1,86.9z"/>
			<path class="st15" d="M83.9,93c-1.3-0.4-2.6-0.7-3.9-1l0-0.1c0.1-1.9,0.9-3.5,2.1-5c2,0.7,3.9,1.9,5.4,3.6
				c1.2,1.3,1.6,3.5,1.8,5.9C87.9,94.9,85.9,93.7,83.9,93z"/>
			<linearGradient id="SVGID_15_" gradientUnits="userSpaceOnUse" x1="71.6689" y1="88.2113" x2="67.1748" y2="65.5039">
				<stop  offset="0.1426" style="stop-color:#C79E71"/>
				<stop  offset="0.2584" style="stop-color:#D2AC7F"/>
				<stop  offset="0.5673" style="stop-color:#EACD9E"/>
				<stop  offset="0.8256" style="stop-color:#FAE1B1"/>
				<stop  offset="1" style="stop-color:#FFE8B8"/>
			</linearGradient>
			<path class="st16" d="M64.6,71.8c5.5-2.7,9.9-2.3,13.7-1.6l0,0c-3.2,2.3-6.5,6.1-7.1,9.7c-0.4,2.3-0.3,4.8,0.6,7.2
				c-1.7,0.8-3,1.7-4,2.8c-1.5-0.5-2.9-1.2-4-2.2C58.6,83.5,58.7,74.6,64.6,71.8z"/>
			<path class="st15" d="M71.7,87.1c0.5,1.4,1.2,2.8,2.3,4.1l0,0.1c-0.6-0.1-1.3-0.2-1.9-0.3c-1.5-0.2-3-0.6-4.4-1.1
				C68.7,88.8,70,87.9,71.7,87.1z"/>
			<linearGradient id="SVGID_16_" gradientUnits="userSpaceOnUse" x1="64.3372" y1="120.0216" x2="96.4977" y2="103.5209">
				<stop  offset="0.1426" style="stop-color:#C79E71"/>
				<stop  offset="0.2584" style="stop-color:#D2AC7F"/>
				<stop  offset="0.5673" style="stop-color:#EACD9E"/>
				<stop  offset="0.8256" style="stop-color:#FAE1B1"/>
				<stop  offset="1" style="stop-color:#FFE8B8"/>
			</linearGradient>
			<path class="st17" d="M97,112.8c-9.9-1.9-22.8,2.7-26.7,10.7l-0.1,0.1c0,0,0,0,0,0c-1.1-1-2.5-1.5-3.8-2.2c-2.1-1.2-4.2-3-5-5.3
				c0,0,0-0.1-0.1-0.2c3.1-4.5,6.9-8,12-10c5-2,10.3-2.4,15.5-1.2l0.5,0c0,0.8,0,1.5,0.1,2.2c1.5-0.9,3.6-0.9,5.2-0.2
				c1.6,0.8,2.6,2.4,2.8,4.2c0,0.6,0,1.3-0.1,2L97,112.8z"/>
			<linearGradient id="SVGID_17_" gradientUnits="userSpaceOnUse" x1="56.0646" y1="113.4835" x2="85.1873" y2="92.4309">
				<stop  offset="0.1426" style="stop-color:#C79E71"/>
				<stop  offset="0.2584" style="stop-color:#D2AC7F"/>
				<stop  offset="0.5673" style="stop-color:#EACD9E"/>
				<stop  offset="0.8256" style="stop-color:#FAE1B1"/>
				<stop  offset="1" style="stop-color:#FFE8B8"/>
			</linearGradient>
			<path class="st18" d="M61.4,115.8c0,0,0,0.1,0.1,0.2c-0.8-0.4-1.2-1.3-1.6-2.6c-0.5-1.9-0.2-3.8,1-5.4c0.5-0.7,2.7-2.2,4-2.4
				l-0.2-0.4c-0.7-3.5-1.9-10.4,3-15.3c1.4,0.5,2.9,0.9,4.4,1.1c0.6,0.1,1.3,0.2,1.9,0.3c2,0.3,4,0.4,6,0.8c1.3,0.2,2.6,0.5,3.9,1
				c2,0.7,4,1.9,5.5,3.4c0.2,2.7,0,5.8,0,8.2l-0.5,0c-5.2-1.3-10.5-0.8-15.5,1.2C68.3,107.8,64.4,111.3,61.4,115.8z"/>
			<linearGradient id="SVGID_18_" gradientUnits="userSpaceOnUse" x1="72.0638" y1="56.3785" x2="116.0662" y2="34.3773">
				<stop  offset="0.1426" style="stop-color:#C79E71"/>
				<stop  offset="0.2584" style="stop-color:#D2AC7F"/>
				<stop  offset="0.5673" style="stop-color:#EACD9E"/>
				<stop  offset="0.8256" style="stop-color:#FAE1B1"/>
				<stop  offset="1" style="stop-color:#FFE8B8"/>
			</linearGradient>
			<path class="st19" d="M115,52.6c-2.8-6.7-13.8-7.6-21.5-6.5c-7.7,1.1-17,5.8-18.6,12.9l-0.1,0.1c-0.8-0.7-1.7-1.3-2.6-1.8
				c-1.4-0.8-2.8-1.5-4.2-2.3l0.1-0.1c-0.9-5.5,1-11.3,4.8-15.3c3.7-3.9,8.4-6.2,13.7-5.6c2.2,1.5,4.1,3.5,5.6,5.8
				c5.2-2.5,11.7-2,16.3,1.4C112.2,43.8,114.6,48.1,115,52.6L115,52.6z"/>
			<linearGradient id="SVGID_19_" gradientUnits="userSpaceOnUse" x1="63.0243" y1="49.832" x2="83.5186" y2="26.0885">
				<stop  offset="0.1426" style="stop-color:#C79E71"/>
				<stop  offset="0.3263" style="stop-color:#CEA77A"/>
				<stop  offset="0.6326" style="stop-color:#E2C193"/>
				<stop  offset="1" style="stop-color:#FFE8B8"/>
			</linearGradient>
			<path class="st20" d="M78.4,30.8c3,0.3,5.8,1.5,8.2,3.2c-5.3-0.5-10,1.7-13.7,5.6c-3.8,4-5.6,9.9-4.8,15.3l-0.1,0.1
				c-0.8-0.4-1.5-0.9-2.1-1.5c-4.4-3.7-5.2-10.8-2.3-15.8C66.6,32.8,72.7,30.2,78.4,30.8z"/>
		</g>
		<g>
		</g>
	</g>
</g>
</svg>
