<?xml version="1.0" encoding="utf-8"?>
<!-- Generator: Adobe Illustrator 20.0.0, SVG Export Plug-In . SVG Version: 6.00 Build 0)  -->
<svg version="1.1" id="Layer_1" xmlns="http://www.w3.org/2000/svg" xmlns:xlink="http://www.w3.org/1999/xlink" x="0px" y="0px"
	 viewBox="0 0 210 210" style="enable-background:new 0 0 210 210;" xml:space="preserve">
<style type="text/css">
	.st0{fill:#FFFAEC;}
	.st1{filter:url(#Adobe_OpacityMaskFilter);}
	.st2{fill:url(#SVGID_2_);}
	.st3{mask:url(#SVGID_1_);}
	.st4{fill:url(#SVGID_3_);}
	.st5{fill:url(#SVGID_4_);}
	.st6{fill:#FDF3C1;}
	.st7{fill:url(#SVGID_5_);}
	.st8{fill:url(#SVGID_6_);}
	.st9{fill:url(#SVGID_7_);}
	.st10{fill:url(#SVGID_8_);}
	.st11{fill:url(#SVGID_9_);}
	.st12{fill:#FDF0AC;}
	.st13{fill:url(#SVGID_10_);}
	.st14{fill:url(#SVGID_11_);}
	.st15{fill:url(#SVGID_12_);}
	.st16{fill:url(#SVGID_13_);}
	.st17{fill:url(#SVGID_14_);}
	.st18{fill:url(#SVGID_15_);}
	.st19{fill:url(#SVGID_16_);}
	.st20{fill:url(#SVGID_17_);}
	.st21{fill:url(#SVGID_18_);}
	.st22{fill:#FF952A;}
	.st23{fill:url(#SVGID_19_);}
	.st24{fill:url(#SVGID_20_);}
	.st25{fill:#FDE981;}
	.st26{fill:#FDF9E9;}
	.st27{fill:url(#SVGID_21_);}
	.st28{fill:url(#SVGID_22_);}
	.st29{fill:url(#SVGID_23_);}
	.st30{fill:url(#SVGID_24_);}
	.st31{fill:url(#SVGID_25_);}
	.st32{fill:url(#SVGID_26_);}
	.st33{fill:url(#SVGID_27_);}
	.st34{fill:url(#SVGID_28_);}
	.st35{fill:url(#SVGID_29_);}
	.st36{fill:url(#SVGID_30_);}
	.st37{fill:#734F44;}
</style>
<g>
	<circle class="st0" cx="105" cy="105" r="100"/>
	<defs>
		<filter id="Adobe_OpacityMaskFilter" filterUnits="userSpaceOnUse" x="25.1" y="53.3" width="156.3" height="108.2">
			<feFlood  style="flood-color:white;flood-opacity:1" result="back"/>
			<feBlend  in="SourceGraphic" in2="back" mode="normal"/>
		</filter>
	</defs>
	<mask maskUnits="userSpaceOnUse" x="25.1" y="53.3" width="156.3" height="108.2" id="SVGID_1_">
		<g class="st1">
			<linearGradient id="SVGID_2_" gradientUnits="userSpaceOnUse" x1="73.2267" y1="79.662" x2="154.5565" y2="79.662">
				<stop  offset="0" style="stop-color:#999999"/>
				<stop  offset="8.526934e-02" style="stop-color:#A0A0A0"/>
				<stop  offset="0.2116" style="stop-color:#B4B4B4"/>
				<stop  offset="0.3634" style="stop-color:#D5D5D5"/>
				<stop  offset="0.5221" style="stop-color:#FFFFFF"/>
			</linearGradient>
			<rect x="73.2" y="52.3" class="st2" width="81.3" height="54.7"/>
		</g>
	</mask>
	<g class="st3">
		<g id="XMLID_20_">
			<g>
				<radialGradient id="SVGID_3_" cx="77.3208" cy="92.8145" r="104.6648" gradientUnits="userSpaceOnUse">
					<stop  offset="0" style="stop-color:#FFE859"/>
					<stop  offset="0.2474" style="stop-color:#FFCA3B"/>
					<stop  offset="0.6656" style="stop-color:#FF993B"/>
					<stop  offset="1" style="stop-color:#FF763B"/>
				</radialGradient>
				<path class="st4" d="M127.5,53.3c29.8,0,53.9,24.1,53.9,53.9c0,29.8-24.2,53.9-53.9,53.9c-4.5,0-8.9-0.5-13.1-1.6
					c11.2-3.4,21.1-11.1,27-22c1.5-2.7,0.2-6-2.6-7.1l-1.8-0.7c0,0,0,0,0,0l-26.4-10.4c0.5-6.3-0.2-12.7-2.4-18.9
					c-1-2.9-4.3-4.2-7-2.9l-1.7,0.8c0,0,0,0-0.1,0l-3.8,1.9c0,0-0.1,0-0.1,0l-14.6,7.2h0l-7.3-2.9C74.9,76.1,98.5,53.3,127.5,53.3z"
					/>
				<linearGradient id="SVGID_4_" gradientUnits="userSpaceOnUse" x1="50.5592" y1="115.2067" x2="136.8244" y2="149.2723">
					<stop  offset="0" style="stop-color:#FF8400"/>
					<stop  offset="0.2474" style="stop-color:#FF8900"/>
					<stop  offset="0.5365" style="stop-color:#FE9700"/>
					<stop  offset="0.8452" style="stop-color:#FDAE01"/>
					<stop  offset="1" style="stop-color:#FCBD01"/>
				</linearGradient>
				<path class="st5" d="M138.8,130.5c2.8,1.1,4.1,4.5,2.6,7.1c-5.9,10.8-15.8,18.5-27,22c-1.7-0.4-3.5-1-5.1-1.6
					c12.5-2.4,23.7-10.3,30-22.1c1.2-2.3,0.2-5.1-2.2-6.1L138.8,130.5z"/>
				<path class="st6" d="M137,129.7c2.4,1,3.4,3.8,2.2,6.1c-6.3,11.8-17.5,19.7-30,22.1c-3.1-1.1-6-2.5-8.8-4.1
					c14.1,0.2,27.6-7.4,34.4-20.4c1.1-2,0.2-4.6-2-5.4l-22.3-8.8L137,129.7C137,129.7,137,129.7,137,129.7z"/>
				<linearGradient id="SVGID_5_" gradientUnits="userSpaceOnUse" x1="56.9357" y1="117.4291" x2="130.1862" y2="146.3551">
					<stop  offset="0.1751" style="stop-color:#FF8E12"/>
					<stop  offset="0.341" style="stop-color:#FF9511"/>
					<stop  offset="0.5804" style="stop-color:#FFA80D"/>
					<stop  offset="0.8633" style="stop-color:#FFC707"/>
					<stop  offset="1" style="stop-color:#FFD903"/>
				</linearGradient>
				<path class="st7" d="M132.9,128.1c2.2,0.8,3.1,3.4,2,5.4c-6.8,12.9-20.3,20.6-34.4,20.4c-1.9-1.1-3.7-2.3-5.5-3.7
					c9.1-8,14.7-19.1,15.6-30.9L132.9,128.1z"/>
				<linearGradient id="SVGID_6_" gradientUnits="userSpaceOnUse" x1="28.9834" y1="146.4705" x2="110.9832" y2="105.9427">
					<stop  offset="0" style="stop-color:#FFA000"/>
					<stop  offset="0.2474" style="stop-color:#FFA500"/>
					<stop  offset="0.5365" style="stop-color:#FEB300"/>
					<stop  offset="0.8452" style="stop-color:#FDCA01"/>
					<stop  offset="1" style="stop-color:#FCD901"/>
				</linearGradient>
				<path class="st8" d="M108.2,100.4c2.2,6.2,2.9,12.6,2.4,18.9l-2.7-1.1c0.4-5.8-0.4-11.7-2.5-17.4c-0.9-2.4-3.7-3.6-6-2.5
					l1.7-0.8C103.9,96.2,107.2,97.6,108.2,100.4z"/>
				<linearGradient id="SVGID_7_" gradientUnits="userSpaceOnUse" x1="33.7656" y1="156.12" x2="115.7539" y2="115.5979">
					<stop  offset="0" style="stop-color:#FFA000"/>
					<stop  offset="0.2474" style="stop-color:#FFA500"/>
					<stop  offset="0.5365" style="stop-color:#FEB300"/>
					<stop  offset="0.8452" style="stop-color:#FDCA01"/>
					<stop  offset="1" style="stop-color:#FCD901"/>
				</linearGradient>
				<path class="st9" d="M107.9,118.3l2.7,1.1L107.9,118.3C107.9,118.3,107.9,118.3,107.9,118.3z"/>
				<linearGradient id="SVGID_8_" gradientUnits="userSpaceOnUse" x1="34.5158" y1="167.3491" x2="120.6453" y2="124.7803">
					<stop  offset="0" style="stop-color:#FFA000"/>
					<stop  offset="0.2474" style="stop-color:#FFA500"/>
					<stop  offset="0.5365" style="stop-color:#FEB300"/>
					<stop  offset="0.8452" style="stop-color:#FDCA01"/>
					<stop  offset="1" style="stop-color:#FCD901"/>
				</linearGradient>
				<path class="st10" d="M107.9,118.3l2.7,1.1c-1,11.8-6.5,23-15.6,30.9c-0.7-0.6-1.5-1.1-2.2-1.8
					C101.8,140.8,107.2,129.8,107.9,118.3z"/>
				<linearGradient id="SVGID_9_" gradientUnits="userSpaceOnUse" x1="43.079" y1="136.7381" x2="128.7966" y2="170.5874">
					<stop  offset="0" style="stop-color:#FFA000"/>
					<stop  offset="0.2474" style="stop-color:#FFA500"/>
					<stop  offset="0.5365" style="stop-color:#FEB300"/>
					<stop  offset="0.8452" style="stop-color:#FDCA01"/>
					<stop  offset="1" style="stop-color:#FCD901"/>
				</linearGradient>
				<path class="st11" d="M109.2,158c1.7,0.6,3.4,1.1,5.1,1.6c-9.6,2.9-20.2,2.7-30.2-1.2c-0.4-0.2-0.8-0.3-1.2-0.5
					c0.7-0.3,1.5-0.7,2.2-1c0.4-0.2,0.8-0.4,1.2-0.6C93.9,158.9,101.8,159.4,109.2,158z"/>
				<path class="st12" d="M105.5,100.9c2.1,5.7,2.9,11.6,2.5,17.4l-2.6-1l-2.2-0.9c0.1-4.6-0.6-9.3-2.3-13.8
					c-0.8-2.1-3.2-3.2-5.2-2.2l3.8-1.9c0,0,0,0,0.1,0C101.8,97.3,104.6,98.5,105.5,100.9z"/>
				<path class="st6" d="M107.9,118.3C107.9,118.3,107.9,118.3,107.9,118.3l-2.6-1L107.9,118.3z"/>
				<path class="st12" d="M105.4,117.3l2.6,1c-0.7,11.6-6.1,22.5-15.2,30.2c-1.3-1.1-2.5-2.1-3.6-3.3c8.7-7.2,13.7-17.8,14-28.8
					L105.4,117.3z"/>
				<linearGradient id="SVGID_10_" gradientUnits="userSpaceOnUse" x1="32.498" y1="141.4104" x2="191.6215" y2="62.7648">
					<stop  offset="0.1618" style="stop-color:#FF8E12"/>
					<stop  offset="0.3367" style="stop-color:#FF9213"/>
					<stop  offset="0.519" style="stop-color:#FF9F15"/>
					<stop  offset="0.7045" style="stop-color:#FFB418"/>
					<stop  offset="0.8912" style="stop-color:#FFD01D"/>
					<stop  offset="1" style="stop-color:#FFE521"/>
				</linearGradient>
				<path class="st13" d="M100.9,102.5c1.6,4.5,2.4,9.2,2.3,13.8l-22.2-8.8l14.6-7.2c0,0,0.1,0,0.1,0
					C97.7,99.4,100.1,100.4,100.9,102.5z"/>
				
					<linearGradient id="SVGID_11_" gradientUnits="userSpaceOnUse" x1="-63305.4805" y1="31445.7344" x2="22882.2578" y2="-11151.915">
					<stop  offset="0" style="stop-color:#FF8E12"/>
					<stop  offset="1" style="stop-color:#FFE521"/>
				</linearGradient>
				<polygon class="st14" points="103.1,116.4 80.9,107.6 80.9,107.6 				"/>
				<linearGradient id="SVGID_12_" gradientUnits="userSpaceOnUse" x1="31.5103" y1="152.84" x2="107.9089" y2="115.0805">
					<stop  offset="0.1113" style="stop-color:#FF8600"/>
					<stop  offset="0.3341" style="stop-color:#FF8600"/>
					<stop  offset="0.4549" style="stop-color:#FF8C00"/>
					<stop  offset="0.6132" style="stop-color:#FF9C00"/>
					<stop  offset="0.7925" style="stop-color:#FFB701"/>
					<stop  offset="0.9858" style="stop-color:#FFDD01"/>
					<stop  offset="1" style="stop-color:#FFE001"/>
				</linearGradient>
				<path class="st15" d="M80.9,107.6l22.3,8.8c-0.2,11-5.2,21.6-14,28.8c-8.8-8.9-14.5-20.8-15.5-34v0L80.9,107.6z"/>
				<path class="st6" d="M109.2,158c-7.4,1.5-15.3,1-22.9-1.8c1.9-1,3.7-2.1,5.4-3.4c2.9,0.7,5.8,1.1,8.7,1.1
					C103.3,155.5,106.2,156.9,109.2,158z"/>
				<linearGradient id="SVGID_13_" gradientUnits="userSpaceOnUse" x1="57.4573" y1="137.3267" x2="118.9637" y2="161.6152">
					<stop  offset="0" style="stop-color:#FF8E12"/>
					<stop  offset="1" style="stop-color:#FFE521"/>
				</linearGradient>
				<path class="st16" d="M95,150.2c1.8,1.3,3.6,2.6,5.5,3.7c-2.9,0-5.8-0.4-8.7-1.1C92.9,152,94,151.1,95,150.2z"/>
				<linearGradient id="SVGID_14_" gradientUnits="userSpaceOnUse" x1="50.2945" y1="171.3816" x2="119.3103" y2="137.2711">
					<stop  offset="0" style="stop-color:#FFA000"/>
					<stop  offset="0.2474" style="stop-color:#FFA500"/>
					<stop  offset="0.5365" style="stop-color:#FEB300"/>
					<stop  offset="0.8452" style="stop-color:#FDCA01"/>
					<stop  offset="1" style="stop-color:#FCD901"/>
				</linearGradient>
				<path class="st17" d="M92.8,148.5c0.7,0.6,1.5,1.2,2.2,1.8c-1,0.9-2.1,1.7-3.2,2.5c-1.1-0.3-2.2-0.6-3.4-1
					C89.9,150.8,91.4,149.7,92.8,148.5z"/>
				<path class="st12" d="M89.2,145.2c1.1,1.2,2.3,2.3,3.6,3.3c-1.4,1.2-2.8,2.3-4.4,3.3c-0.5-0.1-1-0.3-1.4-0.5
					c-1.4-0.5-2.8-1.2-4.1-1.9C85.2,148.2,87.3,146.7,89.2,145.2z"/>
				<linearGradient id="SVGID_15_" gradientUnits="userSpaceOnUse" x1="43.3953" y1="175.6912" x2="125.443" y2="135.1397">
					<stop  offset="0" style="stop-color:#FFA000"/>
					<stop  offset="0.2474" style="stop-color:#FFA500"/>
					<stop  offset="0.5365" style="stop-color:#FEB300"/>
					<stop  offset="0.8452" style="stop-color:#FDCA01"/>
					<stop  offset="1" style="stop-color:#FCD901"/>
				</linearGradient>
				<path class="st18" d="M88.4,151.8c1.1,0.4,2.2,0.7,3.4,1c-1.7,1.3-3.5,2.4-5.4,3.4c-0.4-0.1-0.8-0.3-1.2-0.4
					c-0.8-0.3-1.5-0.6-2.2-1c0.3-0.2,0.7-0.3,1-0.5C85.5,153.5,87,152.7,88.4,151.8z"/>
				<path class="st12" d="M87,151.2c0.5,0.2,1,0.4,1.4,0.5c-1.4,0.9-2.9,1.8-4.5,2.5c-0.3,0.2-0.7,0.3-1,0.5c-1.9-0.9-3.7-1.9-5.5-3
					c1.5-0.5,2.9-1.1,4.3-1.8c0.4-0.2,0.7-0.4,1.1-0.6C84.2,150.1,85.6,150.7,87,151.2z"/>
				<linearGradient id="SVGID_16_" gradientUnits="userSpaceOnUse" x1="43.4446" y1="175.7035" x2="125.4329" y2="135.1814">
					<stop  offset="0" style="stop-color:#FFA000"/>
					<stop  offset="0.2474" style="stop-color:#FFA500"/>
					<stop  offset="0.5365" style="stop-color:#FEB300"/>
					<stop  offset="0.8452" style="stop-color:#FDCA01"/>
					<stop  offset="1" style="stop-color:#FCD901"/>
				</linearGradient>
				<path class="st19" d="M86.3,156.2c-0.4,0.2-0.8,0.4-1.2,0.6c-0.7,0.4-1.5,0.7-2.2,1c-1.2-0.5-2.3-1-3.4-1.6
					c1.1-0.4,2.3-0.9,3.4-1.4c0.7,0.3,1.5,0.7,2.2,1C85.6,155.9,85.9,156,86.3,156.2z"/>
				<linearGradient id="SVGID_17_" gradientUnits="userSpaceOnUse" x1="44.0895" y1="147.1695" x2="100.1167" y2="119.4785">
					<stop  offset="0" style="stop-color:#FF8600"/>
					<stop  offset="0.1994" style="stop-color:#FF8A00"/>
					<stop  offset="0.4161" style="stop-color:#FF9700"/>
					<stop  offset="0.6409" style="stop-color:#FFAD00"/>
					<stop  offset="0.8698" style="stop-color:#FFCB01"/>
					<stop  offset="1" style="stop-color:#FFE001"/>
				</linearGradient>
				<path class="st20" d="M89.2,145.2c-1.9,1.6-4,3-6.3,4.2c-12.3-6.6-19.8-19.3-20.2-32.8l11-5.4C74.6,124.4,80.4,136.3,89.2,145.2
					z"/>
				<linearGradient id="SVGID_18_" gradientUnits="userSpaceOnUse" x1="38.429" y1="149.9768" x2="107.7161" y2="115.7321">
					<stop  offset="0" style="stop-color:#FF8E12"/>
					<stop  offset="0.1916" style="stop-color:#FF9313"/>
					<stop  offset="0.4226" style="stop-color:#FFA215"/>
					<stop  offset="0.6737" style="stop-color:#FFBA1A"/>
					<stop  offset="0.9375" style="stop-color:#FFDC1F"/>
					<stop  offset="1" style="stop-color:#FFE521"/>
				</linearGradient>
				<path class="st21" d="M82.9,149.4c-0.4,0.2-0.7,0.4-1.1,0.6c-1.4,0.7-2.9,1.3-4.3,1.8C66.1,144.4,59,132.1,58,118.9v0l4.7-2.3
					C63.1,130.1,70.6,142.8,82.9,149.4z"/>
				<path class="st22" d="M80.9,107.6l-7.2,3.6c-0.1-1.3-0.1-2.6-0.1-3.9c0-0.8,0-1.7,0.1-2.5L80.9,107.6z"/>
				
					<linearGradient id="SVGID_19_" gradientUnits="userSpaceOnUse" x1="-20705.5977" y1="10377.9258" x2="7548.3013" y2="-3586.354">
					<stop  offset="0" style="stop-color:#FF8E12"/>
					<stop  offset="1" style="stop-color:#FFE521"/>
				</linearGradient>
				<polygon class="st23" points="80.9,107.6 73.6,104.7 73.6,104.7 				"/>
				<linearGradient id="SVGID_20_" gradientUnits="userSpaceOnUse" x1="33.9159" y1="156.4261" x2="115.9043" y2="115.9039">
					<stop  offset="0" style="stop-color:#FFB300"/>
					<stop  offset="0.3114" style="stop-color:#FFB800"/>
					<stop  offset="0.6746" style="stop-color:#FDC600"/>
					<stop  offset="1" style="stop-color:#FCD901"/>
				</linearGradient>
				<path class="st24" d="M79.5,156.2c1.1,0.6,2.2,1.1,3.4,1.6c-21,9-45.4,1.2-57.3-18.2c-1.2-1.9-0.4-4.5,1.6-5.5l2.5-1.2
					c-2,1-2.8,3.6-1.6,5.5C38.9,155.7,60.4,163.1,79.5,156.2z"/>
				<path class="st25" d="M82.9,154.8c-1.1,0.5-2.3,1-3.4,1.4c-1.9-1-3.7-2.1-5.4-3.4c1.1-0.3,2.3-0.6,3.4-1
					C79.2,152.9,81,153.9,82.9,154.8z"/>
				<path class="st26" d="M74.1,152.8c1.7,1.3,3.5,2.4,5.4,3.4c-19.1,7-40.6-0.5-51.4-17.8c-1.2-1.9-0.4-4.5,1.6-5.5l3.9-1.9
					c-1.8,0.9-2.5,3.2-1.4,4.9C41.1,150.1,58.1,156.8,74.1,152.8z"/>
				<linearGradient id="SVGID_21_" gradientUnits="userSpaceOnUse" x1="38.3416" y1="149.8672" x2="107.6849" y2="115.5947">
					<stop  offset="0.1618" style="stop-color:#FF8E12"/>
					<stop  offset="0.3367" style="stop-color:#FF9213"/>
					<stop  offset="0.519" style="stop-color:#FF9F15"/>
					<stop  offset="0.7045" style="stop-color:#FFB418"/>
					<stop  offset="0.8912" style="stop-color:#FFD01D"/>
					<stop  offset="1" style="stop-color:#FFE521"/>
				</linearGradient>
				<path class="st27" d="M77.5,151.8c-1.1,0.4-2.2,0.7-3.4,1c-10.7-7.7-17.5-19.7-18.8-32.5l2.7-1.3
					C59,132.1,66.1,144.4,77.5,151.8z"/>
				<linearGradient id="SVGID_22_" gradientUnits="userSpaceOnUse" x1="62.2185" y1="108.3145" x2="120.9177" y2="131.4944">
					<stop  offset="0" style="stop-color:#FF8E12"/>
					<stop  offset="1" style="stop-color:#FFE521"/>
				</linearGradient>
				<path class="st28" d="M73.7,111.2L73.7,111.2l-11,5.4c-0.1-3.8,0.4-7.7,1.5-11.6c0.6-1.9,2.7-3,4.6-2.2l4.9,1.9v0
					c0,0.8-0.1,1.7-0.1,2.5C73.6,108.5,73.6,109.9,73.7,111.2z"/>
				<path class="st12" d="M64.7,101.2l4.1,1.6c-1.9-0.7-4,0.3-4.6,2.2c-1.1,3.8-1.6,7.7-1.5,11.6l-4.7,2.3c-0.4-5,0.1-10.2,1.5-15.2
					C60.1,101.5,62.5,100.4,64.7,101.2z"/>
				<linearGradient id="SVGID_23_" gradientUnits="userSpaceOnUse" x1="38.2247" y1="149.5926" x2="107.5338" y2="115.3371">
					<stop  offset="0" style="stop-color:#FF8E12"/>
					<stop  offset="1" style="stop-color:#FFE521"/>
				</linearGradient>
				<path class="st29" d="M74.1,152.8c-15.9,4-33-2.7-41.9-16.9c-1.1-1.7-0.4-4,1.4-4.9l21.6-10.7C56.6,133.1,63.4,145.1,74.1,152.8
					z"/>
				<linearGradient id="SVGID_24_" gradientUnits="userSpaceOnUse" x1="54.5684" y1="108.5738" x2="139.6306" y2="142.1642">
					<stop  offset="0" style="stop-color:#FFC159"/>
					<stop  offset="0.1934" style="stop-color:#FFC254"/>
					<stop  offset="0.4194" style="stop-color:#FEC646"/>
					<stop  offset="0.6616" style="stop-color:#FECD2E"/>
					<stop  offset="0.9137" style="stop-color:#FCD50E"/>
					<stop  offset="1" style="stop-color:#FCD901"/>
				</linearGradient>
				<path class="st30" d="M62.1,100.2l2.6,1c-2.1-0.8-4.5,0.3-5.2,2.5c-1.5,5.1-1.9,10.2-1.5,15.2v0l-2.7,1.3
					c-0.6-5.8-0.1-11.7,1.6-17.6C57.6,100.5,60,99.3,62.1,100.2z"/>
			</g>
			<g>
			</g>
		</g>
	</g>
	<g id="XMLID_17_">
		<g>
			<linearGradient id="SVGID_25_" gradientUnits="userSpaceOnUse" x1="139.2144" y1="90.4115" x2="133.024" y2="81.8983">
				<stop  offset="0" style="stop-color:#ED6436"/>
				<stop  offset="1" style="stop-color:#94462C"/>
			</linearGradient>
			<path class="st31" d="M139.4,89.8c0,0.3-0.1,0.5-0.2,0.6c-0.2,0.1-0.3,0.1-0.6,0c-3.9-1.3-5.8,0.6-7.4-1.9
				c-0.4-0.5-0.5-1.1-0.5-1.7c2.1-1.3,2.4-4.9,2.4-4.9s4.5,1.5,6.3-0.5c0.2,0.1,0.4,0.3,0.6,0.6C141.7,84.4,139.3,85.6,139.4,89.8z"
				/>
			<linearGradient id="SVGID_26_" gradientUnits="userSpaceOnUse" x1="137.4823" y1="72.9686" x2="133.0982" y2="81.9911">
				<stop  offset="0" style="stop-color:#ED6436"/>
				<stop  offset="1" style="stop-color:#94462C"/>
			</linearGradient>
			<path class="st32" d="M137.7,73.4c0.8,4.1,3.4,4.7,2.1,7.4c-0.1,0.3-0.3,0.5-0.4,0.7c-2.2-1.6-6.3,0.5-6.3,0.5s0,0,0,0
				c-0.1-0.4-1.2-4-3.4-5.2l0,0c0-0.1,0.1-0.2,0.1-0.3c1.2-2.7,3.4-1.3,7-3.4c0.3-0.2,0.5-0.2,0.6-0.1
				C137.5,73,137.6,73.1,137.7,73.4z"/>
			<linearGradient id="SVGID_27_" gradientUnits="userSpaceOnUse" x1="134.2314" y1="81.8588" x2="139.5699" y2="81.4782">
				<stop  offset="0" style="stop-color:#734F44"/>
				<stop  offset="0.2319" style="stop-color:#804C3B"/>
				<stop  offset="0.6929" style="stop-color:#95472C"/>
				<stop  offset="1" style="stop-color:#9C4527"/>
			</linearGradient>
			<path class="st33" d="M133,81.9c0,0,4.1-2.1,6.3-0.5C137.5,83.5,133,81.9,133,81.9z"/>
			<linearGradient id="SVGID_28_" gradientUnits="userSpaceOnUse" x1="132.6252" y1="83.0359" x2="130.6053" y2="86.6836">
				<stop  offset="0" style="stop-color:#734F44"/>
				<stop  offset="0.1255" style="stop-color:#774C3E"/>
				<stop  offset="0.6504" style="stop-color:#854129"/>
				<stop  offset="1" style="stop-color:#8A3D22"/>
			</linearGradient>
			<path class="st34" d="M133,81.9c0,0-0.3,3.6-2.4,4.9C130.6,84.5,133,81.9,133,81.9z"/>
			<linearGradient id="SVGID_29_" gradientUnits="userSpaceOnUse" x1="123.5726" y1="79.722" x2="132.2954" y2="83.5052">
				<stop  offset="0" style="stop-color:#ED6436"/>
				<stop  offset="1" style="stop-color:#94462C"/>
			</linearGradient>
			<path class="st35" d="M133,81.9C133,81.9,133,81.9,133,81.9c0,0-2.4,2.5-2.4,4.9c-0.4,0.2-0.8,0.4-1.3,0.5
				c-2.9,0.3-2.8-2.3-6.5-4.3c-0.3-0.2-0.4-0.3-0.4-0.5c0-0.2,0.1-0.3,0.3-0.5c3.1-2.7,2.4-5.3,5.3-5.5c0.6,0,1.1,0.1,1.5,0.3l0,0
				C128.7,79.5,132.7,81.8,133,81.9z"/>
			<linearGradient id="SVGID_30_" gradientUnits="userSpaceOnUse" x1="131.4739" y1="80.3299" x2="129.6698" y2="76.788">
				<stop  offset="0" style="stop-color:#734F44"/>
				<stop  offset="0.3572" style="stop-color:#8C4D38"/>
				<stop  offset="0.7429" style="stop-color:#A14B2E"/>
				<stop  offset="1" style="stop-color:#A84A2A"/>
			</linearGradient>
			<path class="st36" d="M133,81.9c-0.2-0.1-4.2-2.4-3.4-5.2C131.8,77.9,132.9,81.6,133,81.9z"/>
		</g>
		<g>
		</g>
	</g>
	<circle class="st37" cx="133.3" cy="81.8" r="2.3"/>
</g>
</svg>
