<?xml version="1.0" encoding="utf-8"?>
<!-- Generator: Adobe Illustrator 20.0.0, SVG Export Plug-In . SVG Version: 6.00 Build 0)  -->
<svg version="1.1" id="Layer_1" xmlns="http://www.w3.org/2000/svg" xmlns:xlink="http://www.w3.org/1999/xlink" x="0px" y="0px"
	 viewBox="0 0 210 210" style="enable-background:new 0 0 210 210;" xml:space="preserve">
<style type="text/css">
	.st0{fill:#FFFDE7;}
	.st1{fill:url(#SVGID_1_);}
	.st2{fill:url(#SVGID_2_);}
	.st3{fill:url(#SVGID_3_);}
	.st4{fill:url(#SVGID_4_);}
	.st5{fill:url(#SVGID_5_);}
	.st6{fill:url(#SVGID_6_);}
	.st7{fill:url(#SVGID_7_);}
	.st8{fill:url(#SVGID_8_);}
	.st9{fill:url(#SVGID_9_);}
	.st10{fill:url(#SVGID_10_);}
	.st11{fill:url(#SVGID_11_);}
	.st12{fill:url(#SVGID_12_);}
	.st13{fill:url(#SVGID_13_);}
	.st14{fill:url(#SVGID_14_);}
</style>
<g>
	<circle class="st0" cx="105" cy="105" r="100"/>
	<g id="XMLID_5_">
		<g>
			<linearGradient id="SVGID_1_" gradientUnits="userSpaceOnUse" x1="130.5675" y1="158.4351" x2="175.516" y2="71.6534">
				<stop  offset="0" style="stop-color:#FFBA00"/>
				<stop  offset="3.914898e-03" style="stop-color:#FFBB01"/>
				<stop  offset="0.2142" style="stop-color:#FFD636"/>
				<stop  offset="0.3965" style="stop-color:#FFEA5D"/>
				<stop  offset="0.5419" style="stop-color:#FFF674"/>
				<stop  offset="0.6322" style="stop-color:#FFFB7D"/>
				<stop  offset="0.9862" style="stop-color:#FFFDAB"/>
			</linearGradient>
			<path class="st1" d="M119.3,151.4c0-6.1-1.5-7.8-2.5-10.9c7.3-12.4,22-10.7,33.8-27.5c13.9-19.9,2.7-48.8,9.7-48.8
				c8.6,0,27.5,40.8,7.8,64.9c-15.8,19.2-47.7,9.6-48.7,23.5h-0.1C119.2,152.2,119.3,151.8,119.3,151.4z"/>
			<linearGradient id="SVGID_2_" gradientUnits="userSpaceOnUse" x1="110.597" y1="98.7158" x2="110.597" y2="80.8599">
				<stop  offset="0" style="stop-color:#FFBB00"/>
				<stop  offset="1" style="stop-color:#FFE469"/>
			</linearGradient>
			<path class="st2" d="M108.1,80.9c1.7,2.5,3.5,5.7,5.1,9.2c-0.7,3.1-1.5,6-2.4,8.7C110.7,92.5,109.7,86.4,108.1,80.9z"/>
			<linearGradient id="SVGID_3_" gradientUnits="userSpaceOnUse" x1="122.806" y1="140.1685" x2="132.5205" y2="45.7213">
				<stop  offset="0" style="stop-color:#FFEEAB"/>
				<stop  offset="1" style="stop-color:#FFF104"/>
			</linearGradient>
			<path class="st3" d="M108.2,138.4c0-10.4,12.9-10.9,10.8-28.9c-0.7-5.9-3-13.2-5.9-19.5c0-0.1,0-0.1,0-0.2
				c4.4-19.8,4.7-44.9,11.4-44.9s21.4,19.8,17.5,52.9c-1.4,12-8.2,18.5-15.3,23.2c-9,6-18.6,9.3-18.6,17.6
				C108.2,138.6,108.2,138.5,108.2,138.4z"/>
			<linearGradient id="SVGID_4_" gradientUnits="userSpaceOnUse" x1="95.3339" y1="88.2153" x2="98.2142" y2="57.8116">
				<stop  offset="0" style="stop-color:#FFD800"/>
				<stop  offset="1" style="stop-color:#FFFD00"/>
			</linearGradient>
			<path class="st4" d="M92.2,57.3c4.8,0,12,10.1,15.8,23.6c-2.2-3.2-4.3-5.2-6.1-5.6c-3-0.5-6.9,5.1-10.3,12.6c0-0.1,0-0.1-0.1-0.2
				c-2-5.8-3.5-17-5.7-26.5C88.2,58.7,90.5,57.3,92.2,57.3z"/>
			<linearGradient id="SVGID_5_" gradientUnits="userSpaceOnUse" x1="101.1999" y1="126.0683" x2="101.1999" y2="75.2688">
				<stop  offset="0" style="stop-color:#FFBB00"/>
				<stop  offset="1" style="stop-color:#FFD721"/>
			</linearGradient>
			<path class="st5" d="M101.9,75.3c1.8,0.3,4,2.4,6.1,5.6c1.6,5.5,2.6,11.6,2.7,17.9c-3.7,11.4-8.8,19.7-12,27.4
				c4.5-13.3-3.4-27.7-7-38.2C95,80.4,98.9,74.8,101.9,75.3z"/>
			<linearGradient id="SVGID_6_" gradientUnits="userSpaceOnUse" x1="105.5884" y1="90.4076" x2="108.8177" y2="152.4823">
				<stop  offset="0" style="stop-color:#FFDE0F"/>
				<stop  offset="1" style="stop-color:#FFCB00"/>
			</linearGradient>
			<path class="st6" d="M110.7,98.7c0.9-2.7,1.7-5.6,2.4-8.7c2.9,6.3,5.2,13.6,5.9,19.5c2.1,18-10.8,18.6-10.8,28.9
				c0,0.1,0,0.2,0,0.2c0,5.1-1.1,9.2-3.1,12.1c-1.8,2.7-4.5,2.7-6.3,0c-1.9-2.9-3.1-7.1-3.1-12.3c0,0,0-0.1,0-0.1c0,0,0,0,0,0
				c0.1-3.4,0.9-6.6,2.1-9.9c0-0.1,0-0.1,0.1-0.2c0.3-0.7,0.6-1.5,0.9-2.2c0,0,0-0.1,0-0.1C101.9,118.4,107,110.1,110.7,98.7z"/>
			<linearGradient id="SVGID_7_" gradientUnits="userSpaceOnUse" x1="102.9553" y1="169.9585" x2="120.4171" y2="142.8703">
				<stop  offset="3.002805e-02" style="stop-color:#FFF5B9"/>
				<stop  offset="0.4002" style="stop-color:#FFDD21"/>
				<stop  offset="0.8328" style="stop-color:#FFBC00"/>
			</linearGradient>
			<path class="st7" d="M101.9,167.4c6,0,9.4-14.9,13.7-24.4c0.4-0.9,0.8-1.7,1.3-2.4c0.9,3.1,2.5,4.7,2.5,10.9c0,0.4,0,0.8,0,1.1
				c-0.5,5.7-4.9,13.3-13.8,14.7c-1,0.2-2,0.2-3.1,0.2c-1.3,0-2.6-0.1-3.7-0.4c0-0.1,0-0.2,0-0.3c0-0.5,0.1-1,0.1-1.5
				C99.6,166.6,100.5,167.4,101.9,167.4z"/>
			<linearGradient id="SVGID_8_" gradientUnits="userSpaceOnUse" x1="89.7343" y1="203.0957" x2="89.7343" y2="163.5249">
				<stop  offset="0" style="stop-color:#CECCA0"/>
				<stop  offset="1" style="stop-color:#EBE38D"/>
			</linearGradient>
			<path class="st8" d="M105.4,167.3c-0.9,9.4-10.5,25.2-22,35.4c-3.1-0.7-6.3-1.5-9.4-2.5c13.8-7.1,23.8-25.3,24.6-33
				c1.2,0.2,2.4,0.4,3.7,0.4C103.4,167.5,104.5,167.5,105.4,167.3z"/>
			<linearGradient id="SVGID_9_" gradientUnits="userSpaceOnUse" x1="92.2286" y1="138.4082" x2="92.2286" y2="87.8687">
				<stop  offset="0.3457" style="stop-color:#FF8F04"/>
				<stop  offset="1" style="stop-color:#FFC500"/>
			</linearGradient>
			<path class="st9" d="M95.7,138.4c0-10.3-14-11-10.8-28.9c1.2-6.7,3.8-14.9,6.8-21.7c3.6,10.5,11.6,24.9,7,38.2c0,0,0,0.1,0,0.1
				c-0.3,0.7-0.6,1.5-0.9,2.2c0,0,0,0.1-0.1,0.2C96.5,131.8,95.7,135,95.7,138.4z"/>
			<linearGradient id="SVGID_10_" gradientUnits="userSpaceOnUse" x1="98" y1="167.5365" x2="83.9378" y2="143.6098">
				<stop  offset="0" style="stop-color:#FFFBAD"/>
				<stop  offset="0.3949" style="stop-color:#FFE469"/>
				<stop  offset="1" style="stop-color:#FFA000"/>
			</linearGradient>
			<path class="st10" d="M87.7,141.4c7.1,9.1,8.2,19.7,11,24c0,0.5,0,1-0.1,1.5c0,0.1,0,0.2,0,0.3c-8.7-1.7-12.9-9.5-13.2-15.1
				c0-0.2,0-0.3,0-0.5c0,0,0-0.1,0-0.1C85.5,146.5,86.7,144,87.7,141.4z"/>
			<linearGradient id="SVGID_11_" gradientUnits="userSpaceOnUse" x1="83.0028" y1="139.0622" x2="83.0028" y2="61.1701">
				<stop  offset="0" style="stop-color:#FF8B00"/>
				<stop  offset="9.508741e-02" style="stop-color:#FF990B"/>
				<stop  offset="0.3299" style="stop-color:#FFB722"/>
				<stop  offset="0.5618" style="stop-color:#FFCC33"/>
				<stop  offset="0.7876" style="stop-color:#FFD93D"/>
				<stop  offset="1" style="stop-color:#FFDD40"/>
			</linearGradient>
			<path class="st11" d="M95.6,139.1c-0.7-6.9-7.2-10.9-13.5-15.8c-5.4-4.7-11.8-10.6-11.8-22.7c0-15.5,8.4-32.1,15.5-39.4
				c2.2,9.5,3.8,20.7,5.7,26.5c0,0.1,0,0.1,0.1,0.2c-3,6.7-5.6,14.9-6.8,21.7c-3.2,17.9,10.8,18.6,10.8,28.9c0,0,0,0,0,0
				c0,0,0,0.1,0,0.1C95.6,138.7,95.6,138.9,95.6,139.1z"/>
			<linearGradient id="SVGID_12_" gradientUnits="userSpaceOnUse" x1="104.491" y1="121.0926" x2="104.491" y2="167.353">
				<stop  offset="4.587340e-03" style="stop-color:#FF9340"/>
				<stop  offset="0.1908" style="stop-color:#FFA82F"/>
				<stop  offset="0.5235" style="stop-color:#FFC715"/>
				<stop  offset="0.8051" style="stop-color:#FFDA06"/>
				<stop  offset="1" style="stop-color:#FFE100"/>
			</linearGradient>
			<path class="st12" d="M105.1,150.8c2-3,3.1-7,3.1-12.1c0-8.3,9.6-11.5,18.6-17.6l0.1,0.1c-5,3.4-10.8,7.8-10.8,13.7
				c0,2.5,0.3,4.2,0.7,5.6c-0.5,0.8-0.9,1.6-1.3,2.4c-4.2,9.5-7.7,24.4-13.7,24.4c-1.3,0-2.3-0.7-3.1-2c-2.8-4.3-4-14.9-11-24
				c0.4-1.1,0.8-2.1,1.1-3.4c0-0.1,0-0.1,0-0.2c0.3-1.2,0.4-2.6,0.4-4.3c0-4.1-3.3-6.9-7.1-10.2c6.3,4.9,12.8,8.9,13.5,15.8
				c0-0.2,0-0.4,0-0.5c0,5.2,1.2,9.4,3.1,12.3C100.6,153.5,103.3,153.5,105.1,150.8z"/>
			<linearGradient id="SVGID_13_" gradientUnits="userSpaceOnUse" x1="77.7159" y1="157.388" x2="25.8682" y2="88.9931">
				<stop  offset="5.879407e-02" style="stop-color:#FFA000"/>
				<stop  offset="0.144" style="stop-color:#FFAF0D"/>
				<stop  offset="0.3673" style="stop-color:#FFD32B"/>
				<stop  offset="0.5496" style="stop-color:#FFE93D"/>
				<stop  offset="0.6671" style="stop-color:#FFF144"/>
				<stop  offset="0.6857" style="stop-color:#FFF246"/>
				<stop  offset="0.8318" style="stop-color:#FFF951"/>
				<stop  offset="1" style="stop-color:#FFFB54"/>
			</linearGradient>
			<path class="st13" d="M85.5,151.5c-0.8-14.8-27.7,0.7-48-18.5c-16-15.2-8.2-50.8-2-50.8c6.2,0,2.8,26.5,19.5,38.7
				c13,9.5,23.5,9.1,32.2,19.7c0.2,0.2,0.4,0.5,0.6,0.7C86.7,144,85.5,146.5,85.5,151.5C85.5,151.4,85.5,151.5,85.5,151.5z"/>
			<linearGradient id="SVGID_14_" gradientUnits="userSpaceOnUse" x1="65.6478" y1="46.7512" x2="80.9688" y2="139.0803">
				<stop  offset="0" style="stop-color:#FFF72B"/>
				<stop  offset="0.2053" style="stop-color:#FFF32C"/>
				<stop  offset="0.4053" style="stop-color:#FFE72E"/>
				<stop  offset="0.6031" style="stop-color:#FFD432"/>
				<stop  offset="0.7997" style="stop-color:#FFB838"/>
				<stop  offset="0.9936" style="stop-color:#FF9540"/>
				<stop  offset="1" style="stop-color:#FF9440"/>
			</linearGradient>
			<path class="st14" d="M88.9,137.8c1.3-11.7-31.9-13-31.9-38.2c0-23,11.4-54.6,20-54.6c4.1,0,6.8,7.4,8.9,16.2
				c-7.1,7.4-15.5,23.9-15.5,39.4c0,12.1,6.4,17.9,11.8,22.7c3.8,3.4,7.1,6.2,7.1,10.2C89.3,135.2,89.1,136.6,88.9,137.8z"/>
		</g>
		<g>
		</g>
	</g>
</g>
</svg>
